<?xml version="1.0" encoding="us-ascii" standalone="no"?><svg xmlns="http://www.w3.org/2000/svg" xmlns:xlink="http://www.w3.org/1999/xlink" contentStyleType="text/css" height="317px" preserveAspectRatio="none" style="width:537px;height:317px;background:#FFFFFF;" version="1.1" viewBox="0 0 537 317" width="537px" zoomAndPan="magnify"><defs/><g><!--cluster main--><g id="cluster_main"><path d="M8.5,6 L46.5,6 A3.75,3.75 0 0 1 49,8.5 L56,28.2969 L527.5,28.2969 A2.5,2.5 0 0 1 530,30.7969 L530,308.28 A2.5,2.5 0 0 1 527.5,310.78 L8.5,310.78 A2.5,2.5 0 0 1 6,308.28 L6,8.5 A2.5,2.5 0 0 1 8.5,6 " fill="none" style="stroke:#000000;stroke-width:1.5;"/><line style="stroke:#000000;stroke-width:1.5;" x1="6" x2="56" y1="28.2969" y2="28.2969"/><text fill="#000000" font-family="sans-serif" font-size="14" font-weight="bold" lengthAdjust="spacing" textLength="37" x="10" y="20.9951">main</text></g><!--class collection--><g id="elem_collection"><rect codeLine="2" fill="#F1F1F1" height="64.2969" id="collection" rx="2.5" ry="2.5" style="stroke:#181818;stroke-width:0.5;" width="182" x="332" y="49.15"/><ellipse cx="385.75" cy="65.15" fill="#B4A7E5" rx="11" ry="11" style="stroke:#181818;stroke-width:1.0;"/><path d="M381.6719,60.9156 L381.6719,58.7594 L389.0625,58.7594 L389.0625,60.9156 L386.5938,60.9156 L386.5938,68.9937 L389.0625,68.9937 L389.0625,71.15 L381.6719,71.15 L381.6719,68.9937 L384.1406,68.9937 L384.1406,60.9156 L381.6719,60.9156 Z " fill="#000000"/><text fill="#000000" font-family="sans-serif" font-size="14" font-style="italic" lengthAdjust="spacing" textLength="66" x="406.25" y="69.9967">collection</text><line style="stroke:#181818;stroke-width:0.5;" x1="333" x2="513" y1="81.15" y2="81.15"/><line style="stroke:#181818;stroke-width:0.5;" x1="333" x2="513" y1="89.15" y2="89.15"/><rect fill="#F24D5C" height="6" style="stroke:#C82930;stroke-width:1.0;" width="6" x="340" y="99.7984"/><text fill="#000000" font-family="sans-serif" font-size="14" lengthAdjust="spacing" textLength="156" x="352" y="106.1451">createIterator() iterator</text></g><!--class iterator--><g id="elem_iterator"><rect codeLine="6" fill="#F1F1F1" height="80.5938" id="iterator" rx="2.5" ry="2.5" style="stroke:#181818;stroke-width:0.5;" width="132" x="165" y="41"/><ellipse cx="202.95" cy="57" fill="#B4A7E5" rx="11" ry="11" style="stroke:#181818;stroke-width:1.0;"/><path d="M198.8719,52.7656 L198.8719,50.6094 L206.2625,50.6094 L206.2625,52.7656 L203.7938,52.7656 L203.7938,60.8438 L206.2625,60.8438 L206.2625,63 L198.8719,63 L198.8719,60.8438 L201.3406,60.8438 L201.3406,52.7656 L198.8719,52.7656 Z " fill="#000000"/><text fill="#000000" font-family="sans-serif" font-size="14" font-style="italic" lengthAdjust="spacing" textLength="49" x="222.05" y="61.8467">iterator</text><line style="stroke:#181818;stroke-width:0.5;" x1="166" x2="296" y1="73" y2="73"/><line style="stroke:#181818;stroke-width:0.5;" x1="166" x2="296" y1="81" y2="81"/><rect fill="#F24D5C" height="6" style="stroke:#C82930;stroke-width:1.0;" width="6" x="173" y="91.6484"/><text fill="#000000" font-family="sans-serif" font-size="14" lengthAdjust="spacing" textLength="100" x="185" y="97.9951">hasNext() bool</text><rect fill="#F24D5C" height="6" style="stroke:#C82930;stroke-width:1.0;" width="6" x="173" y="107.9453"/><text fill="#000000" font-family="sans-serif" font-size="14" lengthAdjust="spacing" textLength="106" x="185" y="114.292">getNext() *user</text></g><!--class user--><g id="elem_user"><rect codeLine="11" fill="#F1F1F1" height="80.5938" id="user" rx="2.5" ry="2.5" style="stroke:#181818;stroke-width:0.5;" width="108" x="22" y="41"/><ellipse cx="57.25" cy="57" fill="#7FFFD4" rx="11" ry="11" style="stroke:#181818;stroke-width:1.0;"/><path d="M56.7344,57.5625 Q54.875,56.8594 54.2188,56.0938 Q53.5781,55.3125 53.5781,54 Q53.5781,52.3125 54.6563,51.3438 Q55.7344,50.375 57.6094,50.375 Q58.4688,50.375 59.3125,50.5781 Q60.1719,50.7656 61.0156,51.1563 L61.0156,53.5469 Q60.2344,52.9844 59.4063,52.7031 Q58.5938,52.4063 57.7969,52.4063 Q56.9219,52.4063 56.4375,52.7656 Q55.9688,53.125 55.9688,53.7813 Q55.9688,54.2969 56.3125,54.6406 Q56.6563,54.9688 57.75,55.375 L58.8125,55.7813 Q60.2969,56.3281 61,57.2344 Q61.7188,58.1406 61.7188,59.5156 Q61.7188,61.3906 60.6094,62.3125 Q59.5,63.2344 57.25,63.2344 Q56.3281,63.2344 55.4063,63.0156 Q54.4844,62.7969 53.625,62.375 L53.625,59.8438 Q54.5938,60.5313 55.5156,60.875 Q56.4375,61.2188 57.3281,61.2188 Q58.2344,61.2188 58.7344,60.8125 Q59.2344,60.3906 59.2344,59.6563 Q59.2344,59.0938 58.8906,58.6875 Q58.5625,58.2656 57.9375,58.0156 L56.7344,57.5625 Z " fill="#000000"/><text fill="#000000" font-family="sans-serif" font-size="14" lengthAdjust="spacing" textLength="31" x="75.75" y="61.8467">user</text><line style="stroke:#181818;stroke-width:0.5;" x1="23" x2="129" y1="73" y2="73"/><rect fill="none" height="6" style="stroke:#C82930;stroke-width:1.0;" width="6" x="30" y="83.6484"/><text fill="#000000" font-family="sans-serif" font-size="14" lengthAdjust="spacing" textLength="82" x="42" y="89.9951">name string</text><rect fill="none" height="6" style="stroke:#C82930;stroke-width:1.0;" width="6" x="30" y="99.9453"/><text fill="#000000" font-family="sans-serif" font-size="14" lengthAdjust="spacing" textLength="47" x="42" y="106.292">age int</text><line style="stroke:#181818;stroke-width:0.5;" x1="23" x2="129" y1="113.5938" y2="113.5938"/></g><!--class userCollection--><g id="elem_userCollection"><rect codeLine="16" fill="#F1F1F1" height="80.5938" id="userCollection" rx="2.5" ry="2.5" style="stroke:#181818;stroke-width:0.5;" width="182" x="332" y="197.89"/><ellipse cx="369.95" cy="213.89" fill="#7FFFD4" rx="11" ry="11" style="stroke:#181818;stroke-width:1.0;"/><path d="M369.4344,214.4525 Q367.575,213.7494 366.9188,212.9838 Q366.2781,212.2025 366.2781,210.89 Q366.2781,209.2025 367.3563,208.2338 Q368.4344,207.265 370.3094,207.265 Q371.1688,207.265 372.0125,207.4681 Q372.8719,207.6556 373.7156,208.0463 L373.7156,210.4369 Q372.9344,209.8744 372.1063,209.5931 Q371.2938,209.2963 370.4969,209.2963 Q369.6219,209.2963 369.1375,209.6556 Q368.6688,210.015 368.6688,210.6713 Q368.6688,211.1869 369.0125,211.5306 Q369.3563,211.8588 370.45,212.265 L371.5125,212.6713 Q372.9969,213.2181 373.7,214.1244 Q374.4188,215.0306 374.4188,216.4056 Q374.4188,218.2806 373.3094,219.2025 Q372.2,220.1244 369.95,220.1244 Q369.0281,220.1244 368.1063,219.9056 Q367.1844,219.6869 366.325,219.265 L366.325,216.7338 Q367.2938,217.4213 368.2156,217.765 Q369.1375,218.1088 370.0281,218.1088 Q370.9344,218.1088 371.4344,217.7025 Q371.9344,217.2806 371.9344,216.5463 Q371.9344,215.9838 371.5906,215.5775 Q371.2625,215.1556 370.6375,214.9056 L369.4344,214.4525 Z " fill="#000000"/><text fill="#000000" font-family="sans-serif" font-size="14" lengthAdjust="spacing" textLength="99" x="389.05" y="218.7367">userCollection</text><line style="stroke:#181818;stroke-width:0.5;" x1="333" x2="513" y1="229.89" y2="229.89"/><rect fill="none" height="6" style="stroke:#C82930;stroke-width:1.0;" width="6" x="340" y="240.5384"/><text fill="#000000" font-family="sans-serif" font-size="14" lengthAdjust="spacing" textLength="91" x="352" y="246.8851">users []*user</text><line style="stroke:#181818;stroke-width:0.5;" x1="333" x2="513" y1="254.1869" y2="254.1869"/><rect fill="#F24D5C" height="6" style="stroke:#C82930;stroke-width:1.0;" width="6" x="340" y="264.8353"/><text fill="#000000" font-family="sans-serif" font-size="14" lengthAdjust="spacing" textLength="156" x="352" y="271.182">createIterator() iterator</text></g><!--class userIterator--><g id="elem_userIterator"><rect codeLine="22" fill="#F1F1F1" height="113.1875" id="userIterator" rx="2.5" ry="2.5" style="stroke:#181818;stroke-width:0.5;" width="132" x="165" y="181.59"/><ellipse cx="189" cy="197.59" fill="#7FFFD4" rx="11" ry="11" style="stroke:#181818;stroke-width:1.0;"/><path d="M188.4844,198.1525 Q186.625,197.4494 185.9688,196.6837 Q185.3281,195.9025 185.3281,194.59 Q185.3281,192.9025 186.4063,191.9337 Q187.4844,190.965 189.3594,190.965 Q190.2188,190.965 191.0625,191.1681 Q191.9219,191.3556 192.7656,191.7462 L192.7656,194.1369 Q191.9844,193.5744 191.1563,193.2931 Q190.3438,192.9962 189.5469,192.9962 Q188.6719,192.9962 188.1875,193.3556 Q187.7188,193.715 187.7188,194.3712 Q187.7188,194.8869 188.0625,195.2306 Q188.4063,195.5587 189.5,195.965 L190.5625,196.3712 Q192.0469,196.9181 192.75,197.8244 Q193.4688,198.7306 193.4688,200.1056 Q193.4688,201.9806 192.3594,202.9025 Q191.25,203.8244 189,203.8244 Q188.0781,203.8244 187.1563,203.6056 Q186.2344,203.3869 185.375,202.965 L185.375,200.4337 Q186.3438,201.1212 187.2656,201.465 Q188.1875,201.8087 189.0781,201.8087 Q189.9844,201.8087 190.4844,201.4025 Q190.9844,200.9806 190.9844,200.2462 Q190.9844,199.6837 190.6406,199.2775 Q190.3125,198.8556 189.6875,198.6056 L188.4844,198.1525 Z " fill="#000000"/><text fill="#000000" font-family="sans-serif" font-size="14" lengthAdjust="spacing" textLength="80" x="205" y="202.4367">userIterator</text><line style="stroke:#181818;stroke-width:0.5;" x1="166" x2="296" y1="213.59" y2="213.59"/><rect fill="none" height="6" style="stroke:#C82930;stroke-width:1.0;" width="6" x="173" y="224.2384"/><text fill="#000000" font-family="sans-serif" font-size="14" lengthAdjust="spacing" textLength="58" x="185" y="230.5851">index int</text><rect fill="none" height="6" style="stroke:#C82930;stroke-width:1.0;" width="6" x="173" y="240.5353"/><text fill="#000000" font-family="sans-serif" font-size="14" lengthAdjust="spacing" textLength="91" x="185" y="246.882">users []*user</text><line style="stroke:#181818;stroke-width:0.5;" x1="166" x2="296" y1="254.1837" y2="254.1837"/><rect fill="#F24D5C" height="6" style="stroke:#C82930;stroke-width:1.0;" width="6" x="173" y="264.8322"/><text fill="#000000" font-family="sans-serif" font-size="14" lengthAdjust="spacing" textLength="100" x="185" y="271.1789">hasNext() bool</text><rect fill="#F24D5C" height="6" style="stroke:#C82930;stroke-width:1.0;" width="6" x="173" y="281.1291"/><text fill="#000000" font-family="sans-serif" font-size="14" lengthAdjust="spacing" textLength="106" x="185" y="287.4757">getNext() *user</text></g><!--reverse link collection to userCollection--><g id="link_collection_userCollection"><path codeLine="32" d="M423,134.62 C423,155.22 423,178.47 423,197.62 " fill="none" id="collection-backto-userCollection" style="stroke:#181818;stroke-width:1.0;"/><polygon fill="none" points="416,134.64,423,114.64,430,134.64,416,134.64" style="stroke:#181818;stroke-width:1.0;"/></g><!--reverse link iterator to userIterator--><g id="link_iterator_userIterator"><path codeLine="33" d="M231,142.35 C231,155.11 231,168.52 231,181.12 " fill="none" id="iterator-backto-userIterator" style="stroke:#181818;stroke-width:1.0;"/><polygon fill="none" points="224,142.78,231,122.78,238,142.78,224,142.78" style="stroke:#181818;stroke-width:1.0;"/></g><!--SRC=[bL913e8m4Bpt5HjEOCGN41BZoOiNZyR3MbTi0gtIaf0eVxT56a1Da3qrCzFPdMqb5gHlo0aA518U36m9QQYyE92hF2TkX9BGSQvYu2MXeQsLeL5b687eZgmLDHysdXsRN57lg3RszacfV41aP3fYKMaQUV8SjGQ7Gf90k5-kxnKMM0f94QJfo5_QRA2DvR81YXcvoNwRRlgya_PEh-5m7CmuOpbzJo-SxYZacUfs-3-ccBlTXh70_O5L_-O19CyuXZSyNa_GYNsqBwbF5R0N]--></g></svg>