<?xml version="1.0" encoding="us-ascii" standalone="no"?><svg xmlns="http://www.w3.org/2000/svg" xmlns:xlink="http://www.w3.org/1999/xlink" contentStyleType="text/css" height="350px" preserveAspectRatio="none" style="width:966px;height:350px;background:#FFFFFF;" version="1.1" viewBox="0 0 966 350" width="966px" zoomAndPan="magnify"><defs/><g><!--cluster main--><g id="cluster_main"><path d="M8.5,6 L46.5,6 A3.75,3.75 0 0 1 49,8.5 L56,28.2969 L956.5,28.2969 A2.5,2.5 0 0 1 959,30.7969 L959,340.87 A2.5,2.5 0 0 1 956.5,343.37 L8.5,343.37 A2.5,2.5 0 0 1 6,340.87 L6,8.5 A2.5,2.5 0 0 1 8.5,6 " fill="none" style="stroke:#000000;stroke-width:1.5;"/><line style="stroke:#000000;stroke-width:1.5;" x1="6" x2="56" y1="28.2969" y2="28.2969"/><text fill="#000000" font-family="sans-serif" font-size="14" font-weight="bold" lengthAdjust="spacing" textLength="37" x="10" y="20.9951">main</text></g><!--class cashier--><g id="elem_cashier"><rect codeLine="2" fill="#F1F1F1" height="96.8906" id="cashier" rx="2.5" ry="2.5" style="stroke:#181818;stroke-width:0.5;" width="204" x="22" y="230.48"/><ellipse cx="94.75" cy="246.48" fill="#7FFFD4" rx="11" ry="11" style="stroke:#181818;stroke-width:1.0;"/><path d="M94.2344,247.0425 Q92.375,246.3394 91.7188,245.5738 Q91.0781,244.7925 91.0781,243.48 Q91.0781,241.7925 92.1563,240.8238 Q93.2344,239.855 95.1094,239.855 Q95.9688,239.855 96.8125,240.0581 Q97.6719,240.2456 98.5156,240.6363 L98.5156,243.0269 Q97.7344,242.4644 96.9063,242.1831 Q96.0938,241.8863 95.2969,241.8863 Q94.4219,241.8863 93.9375,242.2456 Q93.4688,242.605 93.4688,243.2613 Q93.4688,243.7769 93.8125,244.1206 Q94.1563,244.4488 95.25,244.855 L96.3125,245.2613 Q97.7969,245.8081 98.5,246.7144 Q99.2188,247.6206 99.2188,248.9956 Q99.2188,250.8706 98.1094,251.7925 Q97,252.7144 94.75,252.7144 Q93.8281,252.7144 92.9063,252.4956 Q91.9844,252.2769 91.125,251.855 L91.125,249.3238 Q92.0938,250.0113 93.0156,250.355 Q93.9375,250.6988 94.8281,250.6988 Q95.7344,250.6988 96.2344,250.2925 Q96.7344,249.8706 96.7344,249.1363 Q96.7344,248.5738 96.3906,248.1675 Q96.0625,247.7456 95.4375,247.4956 L94.2344,247.0425 Z " fill="#000000"/><text fill="#000000" font-family="sans-serif" font-size="14" lengthAdjust="spacing" textLength="50" x="115.25" y="251.3267">cashier</text><line style="stroke:#181818;stroke-width:0.5;" x1="23" x2="225" y1="262.48" y2="262.48"/><rect fill="none" height="6" style="stroke:#C82930;stroke-width:1.0;" width="6" x="30" y="273.1284"/><text fill="#000000" font-family="sans-serif" font-size="14" lengthAdjust="spacing" textLength="115" x="42" y="279.4751">next department</text><line style="stroke:#181818;stroke-width:0.5;" x1="23" x2="225" y1="286.7769" y2="286.7769"/><rect fill="#F24D5C" height="6" style="stroke:#C82930;stroke-width:1.0;" width="6" x="30" y="297.4253"/><text fill="#000000" font-family="sans-serif" font-size="14" lengthAdjust="spacing" textLength="134" x="42" y="303.772">execute(p *patient)</text><rect fill="#F24D5C" height="6" style="stroke:#C82930;stroke-width:1.0;" width="6" x="30" y="313.7222"/><text fill="#000000" font-family="sans-serif" font-size="14" lengthAdjust="spacing" textLength="178" x="42" y="320.0689">setNext(next department)</text></g><!--class department--><g id="elem_department"><rect codeLine="9" fill="#F1F1F1" height="80.5938" id="department" rx="2.5" ry="2.5" style="stroke:#181818;stroke-width:0.5;" width="174" x="395" y="65.44"/><ellipse cx="437.45" cy="81.44" fill="#B4A7E5" rx="11" ry="11" style="stroke:#181818;stroke-width:1.0;"/><path d="M433.3719,77.2056 L433.3719,75.0494 L440.7625,75.0494 L440.7625,77.2056 L438.2938,77.2056 L438.2938,85.2838 L440.7625,85.2838 L440.7625,87.44 L433.3719,87.44 L433.3719,85.2838 L435.8406,85.2838 L435.8406,77.2056 L433.3719,77.2056 Z " fill="#000000"/><text fill="#000000" font-family="sans-serif" font-size="14" font-style="italic" lengthAdjust="spacing" textLength="81" x="457.55" y="86.2867">department</text><line style="stroke:#181818;stroke-width:0.5;" x1="396" x2="568" y1="97.44" y2="97.44"/><line style="stroke:#181818;stroke-width:0.5;" x1="396" x2="568" y1="105.44" y2="105.44"/><rect fill="#F24D5C" height="6" style="stroke:#C82930;stroke-width:1.0;" width="6" x="403" y="116.0884"/><text fill="#000000" font-family="sans-serif" font-size="14" lengthAdjust="spacing" textLength="125" x="415" y="122.4351">execute( *patient)</text><rect fill="#F24D5C" height="6" style="stroke:#C82930;stroke-width:1.0;" width="6" x="403" y="132.3853"/><text fill="#000000" font-family="sans-serif" font-size="14" lengthAdjust="spacing" textLength="148" x="415" y="138.732">setNext( department)</text></g><!--class doctor--><g id="elem_doctor"><rect codeLine="14" fill="#F1F1F1" height="96.8906" id="doctor" rx="2.5" ry="2.5" style="stroke:#181818;stroke-width:0.5;" width="204" x="261" y="230.48"/><ellipse cx="336.25" cy="246.48" fill="#7FFFD4" rx="11" ry="11" style="stroke:#181818;stroke-width:1.0;"/><path d="M335.7344,247.0425 Q333.875,246.3394 333.2188,245.5738 Q332.5781,244.7925 332.5781,243.48 Q332.5781,241.7925 333.6563,240.8238 Q334.7344,239.855 336.6094,239.855 Q337.4688,239.855 338.3125,240.0581 Q339.1719,240.2456 340.0156,240.6363 L340.0156,243.0269 Q339.2344,242.4644 338.4063,242.1831 Q337.5938,241.8863 336.7969,241.8863 Q335.9219,241.8863 335.4375,242.2456 Q334.9688,242.605 334.9688,243.2613 Q334.9688,243.7769 335.3125,244.1206 Q335.6563,244.4488 336.75,244.855 L337.8125,245.2613 Q339.2969,245.8081 340,246.7144 Q340.7188,247.6206 340.7188,248.9956 Q340.7188,250.8706 339.6094,251.7925 Q338.5,252.7144 336.25,252.7144 Q335.3281,252.7144 334.4063,252.4956 Q333.4844,252.2769 332.625,251.855 L332.625,249.3238 Q333.5938,250.0113 334.5156,250.355 Q335.4375,250.6988 336.3281,250.6988 Q337.2344,250.6988 337.7344,250.2925 Q338.2344,249.8706 338.2344,249.1363 Q338.2344,248.5738 337.8906,248.1675 Q337.5625,247.7456 336.9375,247.4956 L335.7344,247.0425 Z " fill="#000000"/><text fill="#000000" font-family="sans-serif" font-size="14" lengthAdjust="spacing" textLength="45" x="356.75" y="251.3267">doctor</text><line style="stroke:#181818;stroke-width:0.5;" x1="262" x2="464" y1="262.48" y2="262.48"/><rect fill="none" height="6" style="stroke:#C82930;stroke-width:1.0;" width="6" x="269" y="273.1284"/><text fill="#000000" font-family="sans-serif" font-size="14" lengthAdjust="spacing" textLength="115" x="281" y="279.4751">next department</text><line style="stroke:#181818;stroke-width:0.5;" x1="262" x2="464" y1="286.7769" y2="286.7769"/><rect fill="#F24D5C" height="6" style="stroke:#C82930;stroke-width:1.0;" width="6" x="269" y="297.4253"/><text fill="#000000" font-family="sans-serif" font-size="14" lengthAdjust="spacing" textLength="134" x="281" y="303.772">execute(p *patient)</text><rect fill="#F24D5C" height="6" style="stroke:#C82930;stroke-width:1.0;" width="6" x="269" y="313.7222"/><text fill="#000000" font-family="sans-serif" font-size="14" lengthAdjust="spacing" textLength="178" x="281" y="320.0689">setNext(next department)</text></g><!--class medical--><g id="elem_medical"><rect codeLine="21" fill="#F1F1F1" height="96.8906" id="medical" rx="2.5" ry="2.5" style="stroke:#181818;stroke-width:0.5;" width="204" x="500" y="230.48"/><ellipse cx="571.25" cy="246.48" fill="#7FFFD4" rx="11" ry="11" style="stroke:#181818;stroke-width:1.0;"/><path d="M570.7344,247.0425 Q568.875,246.3394 568.2188,245.5738 Q567.5781,244.7925 567.5781,243.48 Q567.5781,241.7925 568.6563,240.8238 Q569.7344,239.855 571.6094,239.855 Q572.4688,239.855 573.3125,240.0581 Q574.1719,240.2456 575.0156,240.6363 L575.0156,243.0269 Q574.2344,242.4644 573.4063,242.1831 Q572.5938,241.8863 571.7969,241.8863 Q570.9219,241.8863 570.4375,242.2456 Q569.9688,242.605 569.9688,243.2613 Q569.9688,243.7769 570.3125,244.1206 Q570.6563,244.4488 571.75,244.855 L572.8125,245.2613 Q574.2969,245.8081 575,246.7144 Q575.7188,247.6206 575.7188,248.9956 Q575.7188,250.8706 574.6094,251.7925 Q573.5,252.7144 571.25,252.7144 Q570.3281,252.7144 569.4063,252.4956 Q568.4844,252.2769 567.625,251.855 L567.625,249.3238 Q568.5938,250.0113 569.5156,250.355 Q570.4375,250.6988 571.3281,250.6988 Q572.2344,250.6988 572.7344,250.2925 Q573.2344,249.8706 573.2344,249.1363 Q573.2344,248.5738 572.8906,248.1675 Q572.5625,247.7456 571.9375,247.4956 L570.7344,247.0425 Z " fill="#000000"/><text fill="#000000" font-family="sans-serif" font-size="14" lengthAdjust="spacing" textLength="53" x="591.75" y="251.3267">medical</text><line style="stroke:#181818;stroke-width:0.5;" x1="501" x2="703" y1="262.48" y2="262.48"/><rect fill="none" height="6" style="stroke:#C82930;stroke-width:1.0;" width="6" x="508" y="273.1284"/><text fill="#000000" font-family="sans-serif" font-size="14" lengthAdjust="spacing" textLength="115" x="520" y="279.4751">next department</text><line style="stroke:#181818;stroke-width:0.5;" x1="501" x2="703" y1="286.7769" y2="286.7769"/><rect fill="#F24D5C" height="6" style="stroke:#C82930;stroke-width:1.0;" width="6" x="508" y="297.4253"/><text fill="#000000" font-family="sans-serif" font-size="14" lengthAdjust="spacing" textLength="134" x="520" y="303.772">execute(p *patient)</text><rect fill="#F24D5C" height="6" style="stroke:#C82930;stroke-width:1.0;" width="6" x="508" y="313.7222"/><text fill="#000000" font-family="sans-serif" font-size="14" lengthAdjust="spacing" textLength="178" x="520" y="320.0689">setNext(next department)</text></g><!--class patient--><g id="elem_patient"><rect codeLine="28" fill="#F1F1F1" height="129.4844" id="patient" rx="2.5" ry="2.5" style="stroke:#181818;stroke-width:0.5;" width="164" x="169" y="41"/><ellipse cx="222.75" cy="57" fill="#7FFFD4" rx="11" ry="11" style="stroke:#181818;stroke-width:1.0;"/><path d="M222.2344,57.5625 Q220.375,56.8594 219.7188,56.0938 Q219.0781,55.3125 219.0781,54 Q219.0781,52.3125 220.1563,51.3438 Q221.2344,50.375 223.1094,50.375 Q223.9688,50.375 224.8125,50.5781 Q225.6719,50.7656 226.5156,51.1563 L226.5156,53.5469 Q225.7344,52.9844 224.9063,52.7031 Q224.0938,52.4063 223.2969,52.4063 Q222.4219,52.4063 221.9375,52.7656 Q221.4688,53.125 221.4688,53.7813 Q221.4688,54.2969 221.8125,54.6406 Q222.1563,54.9688 223.25,55.375 L224.3125,55.7813 Q225.7969,56.3281 226.5,57.2344 Q227.2188,58.1406 227.2188,59.5156 Q227.2188,61.3906 226.1094,62.3125 Q225,63.2344 222.75,63.2344 Q221.8281,63.2344 220.9063,63.0156 Q219.9844,62.7969 219.125,62.375 L219.125,59.8438 Q220.0938,60.5313 221.0156,60.875 Q221.9375,61.2188 222.8281,61.2188 Q223.7344,61.2188 224.2344,60.8125 Q224.7344,60.3906 224.7344,59.6563 Q224.7344,59.0938 224.3906,58.6875 Q224.0625,58.2656 223.4375,58.0156 L222.2344,57.5625 Z " fill="#000000"/><text fill="#000000" font-family="sans-serif" font-size="14" lengthAdjust="spacing" textLength="48" x="243.25" y="61.8467">patient</text><line style="stroke:#181818;stroke-width:0.5;" x1="170" x2="332" y1="73" y2="73"/><rect fill="none" height="6" style="stroke:#C82930;stroke-width:1.0;" width="6" x="177" y="83.6484"/><text fill="#000000" font-family="sans-serif" font-size="14" lengthAdjust="spacing" textLength="82" x="189" y="89.9951">name string</text><rect fill="none" height="6" style="stroke:#C82930;stroke-width:1.0;" width="6" x="177" y="99.9453"/><text fill="#000000" font-family="sans-serif" font-size="14" lengthAdjust="spacing" textLength="138" x="189" y="106.292">receptionDone bool</text><rect fill="none" height="6" style="stroke:#C82930;stroke-width:1.0;" width="6" x="177" y="116.2422"/><text fill="#000000" font-family="sans-serif" font-size="14" lengthAdjust="spacing" textLength="117" x="189" y="122.5889">doctorDone bool</text><rect fill="none" height="6" style="stroke:#C82930;stroke-width:1.0;" width="6" x="177" y="132.5391"/><text fill="#000000" font-family="sans-serif" font-size="14" lengthAdjust="spacing" textLength="125" x="189" y="138.8857">medicalDone bool</text><rect fill="none" height="6" style="stroke:#C82930;stroke-width:1.0;" width="6" x="177" y="148.8359"/><text fill="#000000" font-family="sans-serif" font-size="14" lengthAdjust="spacing" textLength="122" x="189" y="155.1826">cashierDone bool</text><line style="stroke:#181818;stroke-width:0.5;" x1="170" x2="332" y1="162.4844" y2="162.4844"/></g><!--class reception--><g id="elem_reception"><rect codeLine="36" fill="#F1F1F1" height="96.8906" id="reception" rx="2.5" ry="2.5" style="stroke:#181818;stroke-width:0.5;" width="204" x="739" y="230.48"/><ellipse cx="803.75" cy="246.48" fill="#7FFFD4" rx="11" ry="11" style="stroke:#181818;stroke-width:1.0;"/><path d="M803.2344,247.0425 Q801.375,246.3394 800.7188,245.5738 Q800.0781,244.7925 800.0781,243.48 Q800.0781,241.7925 801.1563,240.8238 Q802.2344,239.855 804.1094,239.855 Q804.9688,239.855 805.8125,240.0581 Q806.6719,240.2456 807.5156,240.6363 L807.5156,243.0269 Q806.7344,242.4644 805.9063,242.1831 Q805.0938,241.8863 804.2969,241.8863 Q803.4219,241.8863 802.9375,242.2456 Q802.4688,242.605 802.4688,243.2613 Q802.4688,243.7769 802.8125,244.1206 Q803.1563,244.4488 804.25,244.855 L805.3125,245.2613 Q806.7969,245.8081 807.5,246.7144 Q808.2188,247.6206 808.2188,248.9956 Q808.2188,250.8706 807.1094,251.7925 Q806,252.7144 803.75,252.7144 Q802.8281,252.7144 801.9063,252.4956 Q800.9844,252.2769 800.125,251.855 L800.125,249.3238 Q801.0938,250.0113 802.0156,250.355 Q802.9375,250.6988 803.8281,250.6988 Q804.7344,250.6988 805.2344,250.2925 Q805.7344,249.8706 805.7344,249.1363 Q805.7344,248.5738 805.3906,248.1675 Q805.0625,247.7456 804.4375,247.4956 L803.2344,247.0425 Z " fill="#000000"/><text fill="#000000" font-family="sans-serif" font-size="14" lengthAdjust="spacing" textLength="66" x="824.25" y="251.3267">reception</text><line style="stroke:#181818;stroke-width:0.5;" x1="740" x2="942" y1="262.48" y2="262.48"/><rect fill="none" height="6" style="stroke:#C82930;stroke-width:1.0;" width="6" x="747" y="273.1284"/><text fill="#000000" font-family="sans-serif" font-size="14" lengthAdjust="spacing" textLength="115" x="759" y="279.4751">next department</text><line style="stroke:#181818;stroke-width:0.5;" x1="740" x2="942" y1="286.7769" y2="286.7769"/><rect fill="#F24D5C" height="6" style="stroke:#C82930;stroke-width:1.0;" width="6" x="747" y="297.4253"/><text fill="#000000" font-family="sans-serif" font-size="14" lengthAdjust="spacing" textLength="134" x="759" y="303.772">execute(p *patient)</text><rect fill="#F24D5C" height="6" style="stroke:#C82930;stroke-width:1.0;" width="6" x="747" y="313.7222"/><text fill="#000000" font-family="sans-serif" font-size="14" lengthAdjust="spacing" textLength="178" x="759" y="320.0689">setNext(next department)</text></g><!--reverse link department to cashier--><g id="link_department_cashier"><path codeLine="45" d="M381.97,155.55 C371.52,160.61 361.05,165.66 351,170.48 C310.12,190.1 264.99,211.51 225.81,230.02 " fill="none" id="department-backto-cashier" style="stroke:#181818;stroke-width:1.0;"/><polygon fill="none" points="378.6,148.91,399.66,146.49,384.71,161.51,378.6,148.91" style="stroke:#181818;stroke-width:1.0;"/></g><!--reverse link department to doctor--><g id="link_department_doctor"><path codeLine="46" d="M442.58,163.44 C427.54,185.07 410.57,209.5 396.17,230.21 " fill="none" id="department-backto-doctor" style="stroke:#181818;stroke-width:1.0;"/><polygon fill="none" points="437.24,159.87,454.4,147.44,448.73,167.86,437.24,159.87" style="stroke:#181818;stroke-width:1.0;"/></g><!--reverse link department to medical--><g id="link_department_medical"><path codeLine="47" d="M521.75,163.44 C536.91,185.07 554.03,209.5 568.55,230.21 " fill="none" id="department-backto-medical" style="stroke:#181818;stroke-width:1.0;"/><polygon fill="none" points="515.58,167.84,509.83,147.44,527.04,159.8,515.58,167.84" style="stroke:#181818;stroke-width:1.0;"/></g><!--reverse link department to reception--><g id="link_department_reception"><path codeLine="48" d="M583.92,155.34 C633.02,178.75 691.71,206.74 740.61,230.05 " fill="none" id="department-backto-reception" style="stroke:#181818;stroke-width:1.0;"/><polygon fill="none" points="581.3,161.37,566.26,146.44,587.33,148.73,581.3,161.37" style="stroke:#181818;stroke-width:1.0;"/></g><!--SRC=[pPDDRi8m48NtFiKegr0HJX0X8NNDXXCCpa0jnJ_O4mc9SlSws92Kt-xeBBpmz-nvysGRr1GSIWADoi11G2pPOWWWCNmfyb3NKAwcYrs76hqoD87vF0lxgi3Gdg4XXvur6HOZH7kI7LFfuCCXgqWdCCA1U1aFbrStHCr9T3ojoZ3vJMznKC0l0-SkpviyR936RQna-_vfanbDZPBO_XCt-VWVtCJN184ZsuvsFKbohApvj8PWRMqxWYdsUoHdS0_bfpcW6ykNdc-Dy2X4qV-hsG0BgB-h2j9sdgDuhaeHlH3bj5weBh4KuWS0]--></g></svg>