<?xml version="1.0" encoding="us-ascii" standalone="no"?><svg xmlns="http://www.w3.org/2000/svg" xmlns:xlink="http://www.w3.org/1999/xlink" contentStyleType="text/css" height="301px" preserveAspectRatio="none" style="width:487px;height:301px;background:#FFFFFF;" version="1.1" viewBox="0 0 487 301" width="487px" zoomAndPan="magnify"><defs/><g><!--cluster main--><g id="cluster_main"><path d="M8.5,6 L46.5,6 A3.75,3.75 0 0 1 49,8.5 L56,28.2969 L477.5,28.2969 A2.5,2.5 0 0 1 480,30.7969 L480,291.98 A2.5,2.5 0 0 1 477.5,294.48 L8.5,294.48 A2.5,2.5 0 0 1 6,291.98 L6,8.5 A2.5,2.5 0 0 1 8.5,6 " fill="none" style="stroke:#000000;stroke-width:1.5;"/><line style="stroke:#000000;stroke-width:1.5;" x1="6" x2="56" y1="28.2969" y2="28.2969"/><text fill="#000000" font-family="sans-serif" font-size="14" font-weight="bold" lengthAdjust="spacing" textLength="37" x="10" y="20.9951">main</text></g><!--class button--><g id="elem_button"><rect codeLine="2" fill="#F1F1F1" height="80.5938" id="button" rx="2.5" ry="2.5" style="stroke:#181818;stroke-width:0.5;" width="168" x="296" y="41"/><ellipse cx="352.75" cy="57" fill="#7FFFD4" rx="11" ry="11" style="stroke:#181818;stroke-width:1.0;"/><path d="M352.2344,57.5625 Q350.375,56.8594 349.7188,56.0938 Q349.0781,55.3125 349.0781,54 Q349.0781,52.3125 350.1563,51.3438 Q351.2344,50.375 353.1094,50.375 Q353.9688,50.375 354.8125,50.5781 Q355.6719,50.7656 356.5156,51.1563 L356.5156,53.5469 Q355.7344,52.9844 354.9063,52.7031 Q354.0938,52.4063 353.2969,52.4063 Q352.4219,52.4063 351.9375,52.7656 Q351.4688,53.125 351.4688,53.7813 Q351.4688,54.2969 351.8125,54.6406 Q352.1563,54.9688 353.25,55.375 L354.3125,55.7813 Q355.7969,56.3281 356.5,57.2344 Q357.2188,58.1406 357.2188,59.5156 Q357.2188,61.3906 356.1094,62.3125 Q355,63.2344 352.75,63.2344 Q351.8281,63.2344 350.9063,63.0156 Q349.9844,62.7969 349.125,62.375 L349.125,59.8438 Q350.0938,60.5313 351.0156,60.875 Q351.9375,61.2188 352.8281,61.2188 Q353.7344,61.2188 354.2344,60.8125 Q354.7344,60.3906 354.7344,59.6563 Q354.7344,59.0938 354.3906,58.6875 Q354.0625,58.2656 353.4375,58.0156 L352.2344,57.5625 Z " fill="#000000"/><text fill="#000000" font-family="sans-serif" font-size="14" lengthAdjust="spacing" textLength="46" x="373.25" y="61.8467">button</text><line style="stroke:#181818;stroke-width:0.5;" x1="297" x2="463" y1="73" y2="73"/><rect fill="none" height="6" style="stroke:#C82930;stroke-width:1.0;" width="6" x="304" y="83.6484"/><text fill="#000000" font-family="sans-serif" font-size="14" lengthAdjust="spacing" textLength="142" x="316" y="89.9951">command command</text><line style="stroke:#181818;stroke-width:0.5;" x1="297" x2="463" y1="97.2969" y2="97.2969"/><rect fill="#F24D5C" height="6" style="stroke:#C82930;stroke-width:1.0;" width="6" x="304" y="107.9453"/><text fill="#000000" font-family="sans-serif" font-size="14" lengthAdjust="spacing" textLength="49" x="316" y="114.292">press()</text></g><!--class command--><g id="elem_command"><rect codeLine="8" fill="#F1F1F1" height="64.2969" id="command" rx="2.5" ry="2.5" style="stroke:#181818;stroke-width:0.5;" width="101" x="160.5" y="49.14"/><ellipse cx="175.5" cy="65.14" fill="#B4A7E5" rx="11" ry="11" style="stroke:#181818;stroke-width:1.0;"/><path d="M171.4219,60.9056 L171.4219,58.7494 L178.8125,58.7494 L178.8125,60.9056 L176.3438,60.9056 L176.3438,68.9838 L178.8125,68.9838 L178.8125,71.14 L171.4219,71.14 L171.4219,68.9838 L173.8906,68.9838 L173.8906,60.9056 L171.4219,60.9056 Z " fill="#000000"/><text fill="#000000" font-family="sans-serif" font-size="14" font-style="italic" lengthAdjust="spacing" textLength="69" x="189.5" y="69.9867">command</text><line style="stroke:#181818;stroke-width:0.5;" x1="161.5" x2="260.5" y1="81.14" y2="81.14"/><line style="stroke:#181818;stroke-width:0.5;" x1="161.5" x2="260.5" y1="89.14" y2="89.14"/><rect fill="#F24D5C" height="6" style="stroke:#C82930;stroke-width:1.0;" width="6" x="168.5" y="99.7884"/><text fill="#000000" font-family="sans-serif" font-size="14" lengthAdjust="spacing" textLength="66" x="180.5" y="106.1351">execute()</text></g><!--class device--><g id="elem_device"><rect codeLine="12" fill="#F1F1F1" height="80.5938" id="device" rx="2.5" ry="2.5" style="stroke:#181818;stroke-width:0.5;" width="78" x="48" y="41"/><ellipse cx="63" cy="57" fill="#B4A7E5" rx="11" ry="11" style="stroke:#181818;stroke-width:1.0;"/><path d="M58.9219,52.7656 L58.9219,50.6094 L66.3125,50.6094 L66.3125,52.7656 L63.8438,52.7656 L63.8438,60.8438 L66.3125,60.8438 L66.3125,63 L58.9219,63 L58.9219,60.8438 L61.3906,60.8438 L61.3906,52.7656 L58.9219,52.7656 Z " fill="#000000"/><text fill="#000000" font-family="sans-serif" font-size="14" font-style="italic" lengthAdjust="spacing" textLength="46" x="77" y="61.8467">device</text><line style="stroke:#181818;stroke-width:0.5;" x1="49" x2="125" y1="73" y2="73"/><line style="stroke:#181818;stroke-width:0.5;" x1="49" x2="125" y1="81" y2="81"/><rect fill="#F24D5C" height="6" style="stroke:#C82930;stroke-width:1.0;" width="6" x="56" y="91.6484"/><text fill="#000000" font-family="sans-serif" font-size="14" lengthAdjust="spacing" textLength="28" x="68" y="97.9951">on()</text><rect fill="#F24D5C" height="6" style="stroke:#C82930;stroke-width:1.0;" width="6" x="56" y="107.9453"/><text fill="#000000" font-family="sans-serif" font-size="14" lengthAdjust="spacing" textLength="27" x="68" y="114.292">off()</text></g><!--class offCommand--><g id="elem_offCommand"><rect codeLine="17" fill="#F1F1F1" height="80.5938" id="offCommand" rx="2.5" ry="2.5" style="stroke:#181818;stroke-width:0.5;" width="120" x="187" y="189.74"/><ellipse cx="202" cy="205.74" fill="#7FFFD4" rx="11" ry="11" style="stroke:#181818;stroke-width:1.0;"/><path d="M201.4844,206.3025 Q199.625,205.5994 198.9688,204.8338 Q198.3281,204.0525 198.3281,202.74 Q198.3281,201.0525 199.4063,200.0838 Q200.4844,199.115 202.3594,199.115 Q203.2188,199.115 204.0625,199.3181 Q204.9219,199.5056 205.7656,199.8963 L205.7656,202.2869 Q204.9844,201.7244 204.1563,201.4431 Q203.3438,201.1463 202.5469,201.1463 Q201.6719,201.1463 201.1875,201.5056 Q200.7188,201.865 200.7188,202.5213 Q200.7188,203.0369 201.0625,203.3806 Q201.4063,203.7088 202.5,204.115 L203.5625,204.5213 Q205.0469,205.0681 205.75,205.9744 Q206.4688,206.8806 206.4688,208.2556 Q206.4688,210.1306 205.3594,211.0525 Q204.25,211.9744 202,211.9744 Q201.0781,211.9744 200.1563,211.7556 Q199.2344,211.5369 198.375,211.115 L198.375,208.5838 Q199.3438,209.2713 200.2656,209.615 Q201.1875,209.9588 202.0781,209.9588 Q202.9844,209.9588 203.4844,209.5525 Q203.9844,209.1306 203.9844,208.3963 Q203.9844,207.8338 203.6406,207.4275 Q203.3125,207.0056 202.6875,206.7556 L201.4844,206.3025 Z " fill="#000000"/><text fill="#000000" font-family="sans-serif" font-size="14" lengthAdjust="spacing" textLength="88" x="216" y="210.5867">offCommand</text><line style="stroke:#181818;stroke-width:0.5;" x1="188" x2="306" y1="221.74" y2="221.74"/><rect fill="none" height="6" style="stroke:#C82930;stroke-width:1.0;" width="6" x="195" y="232.3884"/><text fill="#000000" font-family="sans-serif" font-size="14" lengthAdjust="spacing" textLength="94" x="207" y="238.7351">device device</text><line style="stroke:#181818;stroke-width:0.5;" x1="188" x2="306" y1="246.0369" y2="246.0369"/><rect fill="#F24D5C" height="6" style="stroke:#C82930;stroke-width:1.0;" width="6" x="195" y="256.6853"/><text fill="#000000" font-family="sans-serif" font-size="14" lengthAdjust="spacing" textLength="66" x="207" y="263.032">execute()</text></g><!--class onCommand--><g id="elem_onCommand"><rect codeLine="23" fill="#F1F1F1" height="80.5938" id="onCommand" rx="2.5" ry="2.5" style="stroke:#181818;stroke-width:0.5;" width="121" x="342.5" y="189.74"/><ellipse cx="357.5" cy="205.74" fill="#7FFFD4" rx="11" ry="11" style="stroke:#181818;stroke-width:1.0;"/><path d="M356.9844,206.3025 Q355.125,205.5994 354.4688,204.8338 Q353.8281,204.0525 353.8281,202.74 Q353.8281,201.0525 354.9063,200.0838 Q355.9844,199.115 357.8594,199.115 Q358.7188,199.115 359.5625,199.3181 Q360.4219,199.5056 361.2656,199.8963 L361.2656,202.2869 Q360.4844,201.7244 359.6563,201.4431 Q358.8438,201.1463 358.0469,201.1463 Q357.1719,201.1463 356.6875,201.5056 Q356.2188,201.865 356.2188,202.5213 Q356.2188,203.0369 356.5625,203.3806 Q356.9063,203.7088 358,204.115 L359.0625,204.5213 Q360.5469,205.0681 361.25,205.9744 Q361.9688,206.8806 361.9688,208.2556 Q361.9688,210.1306 360.8594,211.0525 Q359.75,211.9744 357.5,211.9744 Q356.5781,211.9744 355.6563,211.7556 Q354.7344,211.5369 353.875,211.115 L353.875,208.5838 Q354.8438,209.2713 355.7656,209.615 Q356.6875,209.9588 357.5781,209.9588 Q358.4844,209.9588 358.9844,209.5525 Q359.4844,209.1306 359.4844,208.3963 Q359.4844,207.8338 359.1406,207.4275 Q358.8125,207.0056 358.1875,206.7556 L356.9844,206.3025 Z " fill="#000000"/><text fill="#000000" font-family="sans-serif" font-size="14" lengthAdjust="spacing" textLength="89" x="371.5" y="210.5867">onCommand</text><line style="stroke:#181818;stroke-width:0.5;" x1="343.5" x2="462.5" y1="221.74" y2="221.74"/><rect fill="none" height="6" style="stroke:#C82930;stroke-width:1.0;" width="6" x="350.5" y="232.3884"/><text fill="#000000" font-family="sans-serif" font-size="14" lengthAdjust="spacing" textLength="94" x="362.5" y="238.7351">device device</text><line style="stroke:#181818;stroke-width:0.5;" x1="343.5" x2="462.5" y1="246.0369" y2="246.0369"/><rect fill="#F24D5C" height="6" style="stroke:#C82930;stroke-width:1.0;" width="6" x="350.5" y="256.6853"/><text fill="#000000" font-family="sans-serif" font-size="14" lengthAdjust="spacing" textLength="66" x="362.5" y="263.032">execute()</text></g><!--class tv--><g id="elem_tv"><rect codeLine="29" fill="#F1F1F1" height="96.8906" id="tv" rx="2.5" ry="2.5" style="stroke:#181818;stroke-width:0.5;" width="129" x="22.5" y="181.59"/><ellipse cx="76.75" cy="197.59" fill="#7FFFD4" rx="11" ry="11" style="stroke:#181818;stroke-width:1.0;"/><path d="M76.2344,198.1525 Q74.375,197.4494 73.7188,196.6838 Q73.0781,195.9025 73.0781,194.59 Q73.0781,192.9025 74.1563,191.9338 Q75.2344,190.965 77.1094,190.965 Q77.9688,190.965 78.8125,191.1681 Q79.6719,191.3556 80.5156,191.7463 L80.5156,194.1369 Q79.7344,193.5744 78.9063,193.2931 Q78.0938,192.9963 77.2969,192.9963 Q76.4219,192.9963 75.9375,193.3556 Q75.4688,193.715 75.4688,194.3713 Q75.4688,194.8869 75.8125,195.2306 Q76.1563,195.5588 77.25,195.965 L78.3125,196.3713 Q79.7969,196.9181 80.5,197.8244 Q81.2188,198.7306 81.2188,200.1056 Q81.2188,201.9806 80.1094,202.9025 Q79,203.8244 76.75,203.8244 Q75.8281,203.8244 74.9063,203.6056 Q73.9844,203.3869 73.125,202.965 L73.125,200.4338 Q74.0938,201.1213 75.0156,201.465 Q75.9375,201.8088 76.8281,201.8088 Q77.7344,201.8088 78.2344,201.4025 Q78.7344,200.9806 78.7344,200.2463 Q78.7344,199.6838 78.3906,199.2775 Q78.0625,198.8556 77.4375,198.6056 L76.2344,198.1525 Z " fill="#000000"/><text fill="#000000" font-family="sans-serif" font-size="14" lengthAdjust="spacing" textLength="12" x="97.25" y="202.4367">tv</text><line style="stroke:#181818;stroke-width:0.5;" x1="23.5" x2="150.5" y1="213.59" y2="213.59"/><rect fill="none" height="6" style="stroke:#C82930;stroke-width:1.0;" width="6" x="30.5" y="224.2384"/><text fill="#000000" font-family="sans-serif" font-size="14" lengthAdjust="spacing" textLength="103" x="42.5" y="230.5851">isRunning bool</text><line style="stroke:#181818;stroke-width:0.5;" x1="23.5" x2="150.5" y1="237.8869" y2="237.8869"/><rect fill="#F24D5C" height="6" style="stroke:#C82930;stroke-width:1.0;" width="6" x="30.5" y="248.5353"/><text fill="#000000" font-family="sans-serif" font-size="14" lengthAdjust="spacing" textLength="28" x="42.5" y="254.882">on()</text><rect fill="#F24D5C" height="6" style="stroke:#C82930;stroke-width:1.0;" width="6" x="30.5" y="264.8322"/><text fill="#000000" font-family="sans-serif" font-size="14" lengthAdjust="spacing" textLength="27" x="42.5" y="271.1789">off()</text></g><!--reverse link command to offCommand--><g id="link_command_offCommand"><path codeLine="38" d="M223.68,133.97 C228.15,152.21 233.11,172.41 237.3,189.48 " fill="none" id="command-backto-offCommand" style="stroke:#181818;stroke-width:1.0;"/><polygon fill="none" points="216.69,135.86,218.72,114.77,230.29,132.53,216.69,135.86" style="stroke:#181818;stroke-width:1.0;"/></g><!--reverse link command to onCommand--><g id="link_command_onCommand"><path codeLine="39" d="M268.68,126.37 C294.93,146.44 325.75,170 351.25,189.48 " fill="none" id="command-backto-onCommand" style="stroke:#181818;stroke-width:1.0;"/><polygon fill="none" points="264.83,131.48,253.19,113.77,273.33,120.36,264.83,131.48" style="stroke:#181818;stroke-width:1.0;"/></g><!--reverse link device to tv--><g id="link_device_tv"><path codeLine="40" d="M87,142.76 C87,155.58 87,168.93 87,181.19 " fill="none" id="device-backto-tv" style="stroke:#181818;stroke-width:1.0;"/><polygon fill="none" points="80,143,87,123,94,143,80,143" style="stroke:#181818;stroke-width:1.0;"/></g><!--SRC=[jL9T3e8m37xVAPezGIAUW90ORw0d653C4jOX6yH4kRlCZGWaYY_sOSswxsVjHaAXQKI1e8Gak3COewY5CP1trcg2D8Nel3jSEw54AmbZoBA0Sv50ePKIL4wPpOwQ5es9Ol2ruRLAijXMpd4YBjJmXaLdyIEfn5wEQS7HvE2pVLMj-BwZiNuCdfjT1H-VsEO5Wm7zLz_ssyBId3eYIHV8jQxPpsCQ6EFk3-p3it187qa2llQU7F-6eXN8TxV0s9wp9m00]--></g></svg>