<?xml version="1.0" encoding="us-ascii" standalone="no"?><svg xmlns="http://www.w3.org/2000/svg" xmlns:xlink="http://www.w3.org/1999/xlink" contentStyleType="text/css" height="317px" preserveAspectRatio="none" style="width:849px;height:317px;background:#FFFFFF;" version="1.1" viewBox="0 0 849 317" width="849px" zoomAndPan="magnify"><defs/><g><!--cluster main--><g id="cluster_main"><path d="M8.5,6 L46.5,6 A3.75,3.75 0 0 1 49,8.5 L56,28.2969 L839.5,28.2969 A2.5,2.5 0 0 1 842,30.7969 L842,308.28 A2.5,2.5 0 0 1 839.5,310.78 L8.5,310.78 A2.5,2.5 0 0 1 6,308.28 L6,8.5 A2.5,2.5 0 0 1 8.5,6 " fill="none" style="stroke:#000000;stroke-width:1.5;"/><line style="stroke:#000000;stroke-width:1.5;" x1="6" x2="56" y1="28.2969" y2="28.2969"/><text fill="#000000" font-family="sans-serif" font-size="14" font-weight="bold" lengthAdjust="spacing" textLength="37" x="10" y="20.9951">main</text></g><!--class application--><g id="elem_application"><rect codeLine="2" fill="#F1F1F1" height="64.2969" id="application" rx="2.5" ry="2.5" style="stroke:#181818;stroke-width:0.5;" width="385" x="21.5" y="197.89"/><ellipse cx="172.75" cy="213.89" fill="#7FFFD4" rx="11" ry="11" style="stroke:#181818;stroke-width:1.0;"/><path d="M172.2344,214.4525 Q170.375,213.7494 169.7188,212.9838 Q169.0781,212.2025 169.0781,210.89 Q169.0781,209.2025 170.1563,208.2338 Q171.2344,207.265 173.1094,207.265 Q173.9688,207.265 174.8125,207.4681 Q175.6719,207.6556 176.5156,208.0463 L176.5156,210.4369 Q175.7344,209.8744 174.9063,209.5931 Q174.0938,209.2963 173.2969,209.2963 Q172.4219,209.2963 171.9375,209.6556 Q171.4688,210.015 171.4688,210.6713 Q171.4688,211.1869 171.8125,211.5306 Q172.1563,211.8588 173.25,212.265 L174.3125,212.6713 Q175.7969,213.2181 176.5,214.1244 Q177.2188,215.0306 177.2188,216.4056 Q177.2188,218.2806 176.1094,219.2025 Q175,220.1244 172.75,220.1244 Q171.8281,220.1244 170.9063,219.9056 Q169.9844,219.6869 169.125,219.265 L169.125,216.7338 Q170.0938,217.4213 171.0156,217.765 Q171.9375,218.1088 172.8281,218.1088 Q173.7344,218.1088 174.2344,217.7025 Q174.7344,217.2806 174.7344,216.5463 Q174.7344,215.9838 174.3906,215.5775 Q174.0625,215.1556 173.4375,214.9056 L172.2344,214.4525 Z " fill="#000000"/><text fill="#000000" font-family="sans-serif" font-size="14" lengthAdjust="spacing" textLength="74" x="193.25" y="218.7367">application</text><line style="stroke:#181818;stroke-width:0.5;" x1="22.5" x2="405.5" y1="229.89" y2="229.89"/><line style="stroke:#181818;stroke-width:0.5;" x1="22.5" x2="405.5" y1="237.89" y2="237.89"/><rect fill="#F24D5C" height="6" style="stroke:#C82930;stroke-width:1.0;" width="6" x="29.5" y="248.5384"/><text fill="#000000" font-family="sans-serif" font-size="14" lengthAdjust="spacing" textLength="359" x="41.5" y="254.8851">handleRequest(url string, method string) (int, string)</text></g><!--class nginx--><g id="elem_nginx"><rect codeLine="6" fill="#F1F1F1" height="129.4844" id="nginx" rx="2.5" ry="2.5" style="stroke:#181818;stroke-width:0.5;" width="385" x="441.5" y="165.3"/><ellipse cx="611.25" cy="181.3" fill="#7FFFD4" rx="11" ry="11" style="stroke:#181818;stroke-width:1.0;"/><path d="M610.7344,181.8625 Q608.875,181.1594 608.2188,180.3937 Q607.5781,179.6125 607.5781,178.3 Q607.5781,176.6125 608.6563,175.6437 Q609.7344,174.675 611.6094,174.675 Q612.4688,174.675 613.3125,174.8781 Q614.1719,175.0656 615.0156,175.4562 L615.0156,177.8469 Q614.2344,177.2844 613.4063,177.0031 Q612.5938,176.7062 611.7969,176.7062 Q610.9219,176.7062 610.4375,177.0656 Q609.9688,177.425 609.9688,178.0812 Q609.9688,178.5969 610.3125,178.9406 Q610.6563,179.2687 611.75,179.675 L612.8125,180.0812 Q614.2969,180.6281 615,181.5344 Q615.7188,182.4406 615.7188,183.8156 Q615.7188,185.6906 614.6094,186.6125 Q613.5,187.5344 611.25,187.5344 Q610.3281,187.5344 609.4063,187.3156 Q608.4844,187.0969 607.625,186.675 L607.625,184.1437 Q608.5938,184.8312 609.5156,185.175 Q610.4375,185.5187 611.3281,185.5187 Q612.2344,185.5187 612.7344,185.1125 Q613.2344,184.6906 613.2344,183.9562 Q613.2344,183.3937 612.8906,182.9875 Q612.5625,182.5656 611.9375,182.3156 L610.7344,181.8625 Z " fill="#000000"/><text fill="#000000" font-family="sans-serif" font-size="14" lengthAdjust="spacing" textLength="37" x="631.75" y="186.1467">nginx</text><line style="stroke:#181818;stroke-width:0.5;" x1="442.5" x2="825.5" y1="197.3" y2="197.3"/><rect fill="none" height="6" style="stroke:#C82930;stroke-width:1.0;" width="6" x="449.5" y="207.9484"/><text fill="#000000" font-family="sans-serif" font-size="14" lengthAdjust="spacing" textLength="159" x="461.5" y="214.2951">application *application</text><rect fill="none" height="6" style="stroke:#C82930;stroke-width:1.0;" width="6" x="449.5" y="224.2453"/><text fill="#000000" font-family="sans-serif" font-size="14" lengthAdjust="spacing" textLength="161" x="461.5" y="230.592">maxAllowedRequest int</text><rect fill="none" height="6" style="stroke:#C82930;stroke-width:1.0;" width="6" x="449.5" y="240.5422"/><text fill="#000000" font-family="sans-serif" font-size="14" lengthAdjust="spacing" textLength="72" x="461.5" y="246.8889">rateLimiter</text><text fill="#0000FF" font-family="sans-serif" font-size="14" lengthAdjust="spacing" textLength="30" x="537.5" y="246.8889">map</text><text fill="#000000" font-family="sans-serif" font-size="14" lengthAdjust="spacing" textLength="66" x="567.5" y="246.8889">[string]int</text><line style="stroke:#181818;stroke-width:0.5;" x1="442.5" x2="825.5" y1="254.1906" y2="254.1906"/><rect fill="#F24D5C" height="6" style="stroke:#C82930;stroke-width:1.0;" width="6" x="449.5" y="264.8391"/><text fill="#000000" font-family="sans-serif" font-size="14" lengthAdjust="spacing" textLength="359" x="461.5" y="271.1857">handleRequest(url string, method string) (int, string)</text><rect fill="#F24D5C" height="6" style="stroke:#C82930;stroke-width:1.0;" width="6" x="449.5" y="281.1359"/><text fill="#000000" font-family="sans-serif" font-size="14" lengthAdjust="spacing" textLength="230" x="461.5" y="287.4826">checkRateLimiting(url string) bool</text></g><!--class server--><g id="elem_server"><rect codeLine="15" fill="#F1F1F1" height="64.2969" id="server" rx="2.5" ry="2.5" style="stroke:#181818;stroke-width:0.5;" width="314" x="267" y="41"/><ellipse cx="398.25" cy="57" fill="#B4A7E5" rx="11" ry="11" style="stroke:#181818;stroke-width:1.0;"/><path d="M394.1719,52.7656 L394.1719,50.6094 L401.5625,50.6094 L401.5625,52.7656 L399.0938,52.7656 L399.0938,60.8438 L401.5625,60.8438 L401.5625,63 L394.1719,63 L394.1719,60.8438 L396.6406,60.8438 L396.6406,52.7656 L394.1719,52.7656 Z " fill="#000000"/><text fill="#000000" font-family="sans-serif" font-size="14" font-style="italic" lengthAdjust="spacing" textLength="43" x="418.75" y="61.8467">server</text><line style="stroke:#181818;stroke-width:0.5;" x1="268" x2="580" y1="73" y2="73"/><line style="stroke:#181818;stroke-width:0.5;" x1="268" x2="580" y1="81" y2="81"/><rect fill="#F24D5C" height="6" style="stroke:#C82930;stroke-width:1.0;" width="6" x="275" y="91.6484"/><text fill="#000000" font-family="sans-serif" font-size="14" lengthAdjust="spacing" textLength="288" x="287" y="97.9951">handleRequest( string,  string) (int, string)</text></g><!--reverse link server to application--><g id="link_server_application"><path codeLine="21" d="M364.61,117.95 C330.24,143.31 287.76,174.63 256.69,197.55 " fill="none" id="server-backto-application" style="stroke:#181818;stroke-width:1.0;"/><polygon fill="none" points="360,111.92,380.25,105.68,368.31,123.18,360,111.92" style="stroke:#181818;stroke-width:1.0;"/></g><!--reverse link server to nginx--><g id="link_server_nginx"><path codeLine="22" d="M483.36,117.93 C503.16,132.53 525.64,149.11 547.08,164.93 " fill="none" id="server-backto-nginx" style="stroke:#181818;stroke-width:1.0;"/><polygon fill="none" points="479.69,123.18,467.75,105.68,488,111.92,479.69,123.18" style="stroke:#181818;stroke-width:1.0;"/></g><!--SRC=[fL6xSi8m4Epr5JUkx8mDFw1uXZuLb0p58HzO4psC91Dc0lyU2Pj4JKYHw-vkjRlQCwZ93oW8D4e3dmnY2ONU0mw3aWA3j0OuXt9JhquZQdJIK0LjEuDJDT2ZwHIjwJII3-Ne5FWGWSSQD8NUTdDRGIbDg1yTkpFSCb5pbERojrpkxILhCeZ6oqef-q7Tx0gYShPt6EXDQXd80JzO4q1OPTthNetKQXpuCWtRxMHrbnx__xy_1A8dyRv-U8ZBZAI2lRKg3oUIa3kaCtbov-ZuIVZVJfvdVcEiI3TVJ8m5y6lJm3JA4Yr-HzrlLR0l]--></g></svg>