<?xml version="1.0" encoding="us-ascii" standalone="no"?><svg xmlns="http://www.w3.org/2000/svg" xmlns:xlink="http://www.w3.org/1999/xlink" contentStyleType="text/css" height="268px" preserveAspectRatio="none" style="width:670px;height:268px;background:#FFFFFF;" version="1.1" viewBox="0 0 670 268" width="670px" zoomAndPan="magnify"><defs/><g><!--cluster main--><g id="cluster_main"><path d="M8.5,6 L46.5,6 A3.75,3.75 0 0 1 49,8.5 L56,28.2969 L660.5,28.2969 A2.5,2.5 0 0 1 663,30.7969 L663,259.39 A2.5,2.5 0 0 1 660.5,261.89 L8.5,261.89 A2.5,2.5 0 0 1 6,259.39 L6,8.5 A2.5,2.5 0 0 1 8.5,6 " fill="none" style="stroke:#000000;stroke-width:1.5;"/><line style="stroke:#000000;stroke-width:1.5;" x1="6" x2="56" y1="28.2969" y2="28.2969"/><text fill="#000000" font-family="sans-serif" font-size="14" font-weight="bold" lengthAdjust="spacing" textLength="37" x="10" y="20.9951">main</text></g><!--class cheeseTopping--><g id="elem_cheeseTopping"><rect codeLine="2" fill="#F1F1F1" height="80.5938" id="cheeseTopping" rx="2.5" ry="2.5" style="stroke:#181818;stroke-width:0.5;" width="141" x="21.5" y="165.3"/><ellipse cx="36.5" cy="181.3" fill="#7FFFD4" rx="11" ry="11" style="stroke:#181818;stroke-width:1.0;"/><path d="M35.9844,181.8625 Q34.125,181.1594 33.4688,180.3937 Q32.8281,179.6125 32.8281,178.3 Q32.8281,176.6125 33.9063,175.6437 Q34.9844,174.675 36.8594,174.675 Q37.7188,174.675 38.5625,174.8781 Q39.4219,175.0656 40.2656,175.4562 L40.2656,177.8469 Q39.4844,177.2844 38.6563,177.0031 Q37.8438,176.7062 37.0469,176.7062 Q36.1719,176.7062 35.6875,177.0656 Q35.2188,177.425 35.2188,178.0812 Q35.2188,178.5969 35.5625,178.9406 Q35.9063,179.2687 37,179.675 L38.0625,180.0812 Q39.5469,180.6281 40.25,181.5344 Q40.9688,182.4406 40.9688,183.8156 Q40.9688,185.6906 39.8594,186.6125 Q38.75,187.5344 36.5,187.5344 Q35.5781,187.5344 34.6563,187.3156 Q33.7344,187.0969 32.875,186.675 L32.875,184.1437 Q33.8438,184.8312 34.7656,185.175 Q35.6875,185.5187 36.5781,185.5187 Q37.4844,185.5187 37.9844,185.1125 Q38.4844,184.6906 38.4844,183.9562 Q38.4844,183.3937 38.1406,182.9875 Q37.8125,182.5656 37.1875,182.3156 L35.9844,181.8625 Z " fill="#000000"/><text fill="#000000" font-family="sans-serif" font-size="14" lengthAdjust="spacing" textLength="109" x="50.5" y="186.1467">cheeseTopping</text><line style="stroke:#181818;stroke-width:0.5;" x1="22.5" x2="161.5" y1="197.3" y2="197.3"/><rect fill="none" height="6" style="stroke:#C82930;stroke-width:1.0;" width="6" x="29.5" y="207.9484"/><text fill="#000000" font-family="sans-serif" font-size="14" lengthAdjust="spacing" textLength="76" x="41.5" y="214.2951">pizza pizza</text><line style="stroke:#181818;stroke-width:0.5;" x1="22.5" x2="161.5" y1="221.5969" y2="221.5969"/><rect fill="#F24D5C" height="6" style="stroke:#C82930;stroke-width:1.0;" width="6" x="29.5" y="232.2453"/><text fill="#000000" font-family="sans-serif" font-size="14" lengthAdjust="spacing" textLength="88" x="41.5" y="238.592">getPrice() int</text></g><!--class peppyPaneer--><g id="elem_peppyPaneer"><rect codeLine="8" fill="#F1F1F1" height="64.2969" id="peppyPaneer" rx="2.5" ry="2.5" style="stroke:#181818;stroke-width:0.5;" width="124" x="197" y="173.44"/><ellipse cx="212" cy="189.44" fill="#7FFFD4" rx="11" ry="11" style="stroke:#181818;stroke-width:1.0;"/><path d="M211.4844,190.0025 Q209.625,189.2994 208.9688,188.5338 Q208.3281,187.7525 208.3281,186.44 Q208.3281,184.7525 209.4063,183.7838 Q210.4844,182.815 212.3594,182.815 Q213.2188,182.815 214.0625,183.0181 Q214.9219,183.2056 215.7656,183.5963 L215.7656,185.9869 Q214.9844,185.4244 214.1563,185.1431 Q213.3438,184.8463 212.5469,184.8463 Q211.6719,184.8463 211.1875,185.2056 Q210.7188,185.565 210.7188,186.2213 Q210.7188,186.7369 211.0625,187.0806 Q211.4063,187.4088 212.5,187.815 L213.5625,188.2213 Q215.0469,188.7681 215.75,189.6744 Q216.4688,190.5806 216.4688,191.9556 Q216.4688,193.8306 215.3594,194.7525 Q214.25,195.6744 212,195.6744 Q211.0781,195.6744 210.1563,195.4556 Q209.2344,195.2369 208.375,194.815 L208.375,192.2838 Q209.3438,192.9713 210.2656,193.315 Q211.1875,193.6588 212.0781,193.6588 Q212.9844,193.6588 213.4844,193.2525 Q213.9844,192.8306 213.9844,192.0963 Q213.9844,191.5338 213.6406,191.1275 Q213.3125,190.7056 212.6875,190.4556 L211.4844,190.0025 Z " fill="#000000"/><text fill="#000000" font-family="sans-serif" font-size="14" lengthAdjust="spacing" textLength="92" x="226" y="194.2867">peppyPaneer</text><line style="stroke:#181818;stroke-width:0.5;" x1="198" x2="320" y1="205.44" y2="205.44"/><line style="stroke:#181818;stroke-width:0.5;" x1="198" x2="320" y1="213.44" y2="213.44"/><rect fill="#F24D5C" height="6" style="stroke:#C82930;stroke-width:1.0;" width="6" x="205" y="224.0884"/><text fill="#000000" font-family="sans-serif" font-size="14" lengthAdjust="spacing" textLength="88" x="217" y="230.4351">getPrice() int</text></g><!--class pizza--><g id="elem_pizza"><rect codeLine="12" fill="#F1F1F1" height="64.2969" id="pizza" rx="2.5" ry="2.5" style="stroke:#181818;stroke-width:0.5;" width="114" x="285" y="41"/><ellipse cx="321.6" cy="57" fill="#B4A7E5" rx="11" ry="11" style="stroke:#181818;stroke-width:1.0;"/><path d="M317.5219,52.7656 L317.5219,50.6094 L324.9125,50.6094 L324.9125,52.7656 L322.4438,52.7656 L322.4438,60.8438 L324.9125,60.8438 L324.9125,63 L317.5219,63 L317.5219,60.8438 L319.9906,60.8438 L319.9906,52.7656 L317.5219,52.7656 Z " fill="#000000"/><text fill="#000000" font-family="sans-serif" font-size="14" font-style="italic" lengthAdjust="spacing" textLength="34" x="340.4" y="61.8467">pizza</text><line style="stroke:#181818;stroke-width:0.5;" x1="286" x2="398" y1="73" y2="73"/><line style="stroke:#181818;stroke-width:0.5;" x1="286" x2="398" y1="81" y2="81"/><rect fill="#F24D5C" height="6" style="stroke:#C82930;stroke-width:1.0;" width="6" x="293" y="91.6484"/><text fill="#000000" font-family="sans-serif" font-size="14" lengthAdjust="spacing" textLength="88" x="305" y="97.9951">getPrice() int</text></g><!--class tomatoTopping--><g id="elem_tomatoTopping"><rect codeLine="16" fill="#F1F1F1" height="80.5938" id="tomatoTopping" rx="2.5" ry="2.5" style="stroke:#181818;stroke-width:0.5;" width="138" x="356" y="165.3"/><ellipse cx="371" cy="181.3" fill="#7FFFD4" rx="11" ry="11" style="stroke:#181818;stroke-width:1.0;"/><path d="M370.4844,181.8625 Q368.625,181.1594 367.9688,180.3937 Q367.3281,179.6125 367.3281,178.3 Q367.3281,176.6125 368.4063,175.6437 Q369.4844,174.675 371.3594,174.675 Q372.2188,174.675 373.0625,174.8781 Q373.9219,175.0656 374.7656,175.4562 L374.7656,177.8469 Q373.9844,177.2844 373.1563,177.0031 Q372.3438,176.7062 371.5469,176.7062 Q370.6719,176.7062 370.1875,177.0656 Q369.7188,177.425 369.7188,178.0812 Q369.7188,178.5969 370.0625,178.9406 Q370.4063,179.2687 371.5,179.675 L372.5625,180.0812 Q374.0469,180.6281 374.75,181.5344 Q375.4688,182.4406 375.4688,183.8156 Q375.4688,185.6906 374.3594,186.6125 Q373.25,187.5344 371,187.5344 Q370.0781,187.5344 369.1563,187.3156 Q368.2344,187.0969 367.375,186.675 L367.375,184.1437 Q368.3438,184.8312 369.2656,185.175 Q370.1875,185.5187 371.0781,185.5187 Q371.9844,185.5187 372.4844,185.1125 Q372.9844,184.6906 372.9844,183.9562 Q372.9844,183.3937 372.6406,182.9875 Q372.3125,182.5656 371.6875,182.3156 L370.4844,181.8625 Z " fill="#000000"/><text fill="#000000" font-family="sans-serif" font-size="14" lengthAdjust="spacing" textLength="106" x="385" y="186.1467">tomatoTopping</text><line style="stroke:#181818;stroke-width:0.5;" x1="357" x2="493" y1="197.3" y2="197.3"/><rect fill="none" height="6" style="stroke:#C82930;stroke-width:1.0;" width="6" x="364" y="207.9484"/><text fill="#000000" font-family="sans-serif" font-size="14" lengthAdjust="spacing" textLength="76" x="376" y="214.2951">pizza pizza</text><line style="stroke:#181818;stroke-width:0.5;" x1="357" x2="493" y1="221.5969" y2="221.5969"/><rect fill="#F24D5C" height="6" style="stroke:#C82930;stroke-width:1.0;" width="6" x="364" y="232.2453"/><text fill="#000000" font-family="sans-serif" font-size="14" lengthAdjust="spacing" textLength="88" x="376" y="238.592">getPrice() int</text></g><!--class veggieMania--><g id="elem_veggieMania"><rect codeLine="22" fill="#F1F1F1" height="64.2969" id="veggieMania" rx="2.5" ry="2.5" style="stroke:#181818;stroke-width:0.5;" width="118" x="529" y="173.44"/><ellipse cx="544" cy="189.44" fill="#7FFFD4" rx="11" ry="11" style="stroke:#181818;stroke-width:1.0;"/><path d="M543.4844,190.0025 Q541.625,189.2994 540.9688,188.5338 Q540.3281,187.7525 540.3281,186.44 Q540.3281,184.7525 541.4063,183.7838 Q542.4844,182.815 544.3594,182.815 Q545.2188,182.815 546.0625,183.0181 Q546.9219,183.2056 547.7656,183.5963 L547.7656,185.9869 Q546.9844,185.4244 546.1563,185.1431 Q545.3438,184.8463 544.5469,184.8463 Q543.6719,184.8463 543.1875,185.2056 Q542.7188,185.565 542.7188,186.2213 Q542.7188,186.7369 543.0625,187.0806 Q543.4063,187.4088 544.5,187.815 L545.5625,188.2213 Q547.0469,188.7681 547.75,189.6744 Q548.4688,190.5806 548.4688,191.9556 Q548.4688,193.8306 547.3594,194.7525 Q546.25,195.6744 544,195.6744 Q543.0781,195.6744 542.1563,195.4556 Q541.2344,195.2369 540.375,194.815 L540.375,192.2838 Q541.3438,192.9713 542.2656,193.315 Q543.1875,193.6588 544.0781,193.6588 Q544.9844,193.6588 545.4844,193.2525 Q545.9844,192.8306 545.9844,192.0963 Q545.9844,191.5338 545.6406,191.1275 Q545.3125,190.7056 544.6875,190.4556 L543.4844,190.0025 Z " fill="#000000"/><text fill="#000000" font-family="sans-serif" font-size="14" lengthAdjust="spacing" textLength="86" x="558" y="194.2867">veggieMania</text><line style="stroke:#181818;stroke-width:0.5;" x1="530" x2="646" y1="205.44" y2="205.44"/><line style="stroke:#181818;stroke-width:0.5;" x1="530" x2="646" y1="213.44" y2="213.44"/><rect fill="#F24D5C" height="6" style="stroke:#C82930;stroke-width:1.0;" width="6" x="537" y="224.0884"/><text fill="#000000" font-family="sans-serif" font-size="14" lengthAdjust="spacing" textLength="88" x="549" y="230.4351">getPrice() int</text></g><!--reverse link pizza to cheeseTopping--><g id="link_pizza_cheeseTopping"><path codeLine="28" d="M266.05,113.78 C233.27,130.88 195.14,150.78 162.94,167.58 " fill="none" id="pizza-backto-cheeseTopping" style="stroke:#181818;stroke-width:1.0;"/><polygon fill="none" points="262.68,107.12,283.64,104.07,269.15,119.53,262.68,107.12" style="stroke:#181818;stroke-width:1.0;"/></g><!--reverse link pizza to peppyPaneer--><g id="link_pizza_peppyPaneer"><path codeLine="29" d="M310.66,123.4 C300.01,140.14 288.41,158.37 278.91,173.31 " fill="none" id="pizza-backto-peppyPaneer" style="stroke:#181818;stroke-width:1.0;"/><polygon fill="none" points="305.27,119.84,321.91,106.72,317.08,127.36,305.27,119.84" style="stroke:#181818;stroke-width:1.0;"/></g><!--reverse link pizza to tomatoTopping--><g id="link_pizza_tomatoTopping"><path codeLine="30" d="M373.11,123.05 C381.9,136.85 391.34,151.7 399.74,164.89 " fill="none" id="pizza-backto-tomatoTopping" style="stroke:#181818;stroke-width:1.0;"/><polygon fill="none" points="366.92,127.36,362.09,106.72,378.73,119.84,366.92,127.36" style="stroke:#181818;stroke-width:1.0;"/></g><!--reverse link pizza to veggieMania--><g id="link_pizza_veggieMania"><path codeLine="31" d="M417.43,114.14 C453.23,133.13 495.38,155.48 528.83,173.22 " fill="none" id="pizza-backto-veggieMania" style="stroke:#181818;stroke-width:1.0;"/><polygon fill="none" points="414.76,120.12,400.37,104.57,421.31,107.75,414.76,120.12" style="stroke:#181818;stroke-width:1.0;"/></g><!--SRC=[jL5H2i8m3FtlAKA_Dd2UO0myW33G2uGIQy1sjPs2qztTpVhHVHH5C1-192zvUOb5Gy6X8Z385ku29bCd307KaIZGldEEhOQwXcAtsfmlQD2pfHAQvWsVhGB7mu3HYoIjgMyzAofAODl7ofYmE7Bkrg8byfyvyiEcaFnXrX7t-B8jxj1t1llktqglf3NJ5YtZhqf78UJyf_MBN4Bzg2g8cSMtP1QMd3iFMjmZ3qi4IV44]--></g></svg>