<?xml version="1.0" encoding="us-ascii" standalone="no"?><svg xmlns="http://www.w3.org/2000/svg" xmlns:xlink="http://www.w3.org/1999/xlink" contentStyleType="text/css" height="350px" preserveAspectRatio="none" style="width:522px;height:350px;background:#FFFFFF;" version="1.1" viewBox="0 0 522 350" width="522px" zoomAndPan="magnify"><defs/><g><!--cluster main--><g id="cluster_main"><path d="M8.5,6 L46.5,6 A3.75,3.75 0 0 1 49,8.5 L56,28.2969 L512.5,28.2969 A2.5,2.5 0 0 1 515,30.7969 L515,340.87 A2.5,2.5 0 0 1 512.5,343.37 L8.5,343.37 A2.5,2.5 0 0 1 6,340.87 L6,8.5 A2.5,2.5 0 0 1 8.5,6 " fill="none" style="stroke:#000000;stroke-width:1.5;"/><line style="stroke:#000000;stroke-width:1.5;" x1="6" x2="56" y1="28.2969" y2="28.2969"/><text fill="#000000" font-family="sans-serif" font-size="14" font-weight="bold" lengthAdjust="spacing" textLength="37" x="10" y="20.9951">main</text></g><!--class caretaker--><g id="elem_caretaker"><rect codeLine="2" fill="#F1F1F1" height="96.8906" id="caretaker" rx="2.5" ry="2.5" style="stroke:#181818;stroke-width:0.5;" width="261" x="22.5" y="41"/><ellipse cx="116.25" cy="57" fill="#7FFFD4" rx="11" ry="11" style="stroke:#181818;stroke-width:1.0;"/><path d="M115.7344,57.5625 Q113.875,56.8594 113.2188,56.0938 Q112.5781,55.3125 112.5781,54 Q112.5781,52.3125 113.6563,51.3438 Q114.7344,50.375 116.6094,50.375 Q117.4688,50.375 118.3125,50.5781 Q119.1719,50.7656 120.0156,51.1563 L120.0156,53.5469 Q119.2344,52.9844 118.4063,52.7031 Q117.5938,52.4063 116.7969,52.4063 Q115.9219,52.4063 115.4375,52.7656 Q114.9688,53.125 114.9688,53.7813 Q114.9688,54.2969 115.3125,54.6406 Q115.6563,54.9688 116.75,55.375 L117.8125,55.7813 Q119.2969,56.3281 120,57.2344 Q120.7188,58.1406 120.7188,59.5156 Q120.7188,61.3906 119.6094,62.3125 Q118.5,63.2344 116.25,63.2344 Q115.3281,63.2344 114.4063,63.0156 Q113.4844,62.7969 112.625,62.375 L112.625,59.8438 Q113.5938,60.5313 114.5156,60.875 Q115.4375,61.2188 116.3281,61.2188 Q117.2344,61.2188 117.7344,60.8125 Q118.2344,60.3906 118.2344,59.6563 Q118.2344,59.0938 117.8906,58.6875 Q117.5625,58.2656 116.9375,58.0156 L115.7344,57.5625 Z " fill="#000000"/><text fill="#000000" font-family="sans-serif" font-size="14" lengthAdjust="spacing" textLength="65" x="136.75" y="61.8467">caretaker</text><line style="stroke:#181818;stroke-width:0.5;" x1="23.5" x2="282.5" y1="73" y2="73"/><rect fill="none" height="6" style="stroke:#C82930;stroke-width:1.0;" width="6" x="30.5" y="83.6484"/><text fill="#000000" font-family="sans-serif" font-size="14" lengthAdjust="spacing" textLength="189" x="42.5" y="89.9951">mementoArray []*memento</text><line style="stroke:#181818;stroke-width:0.5;" x1="23.5" x2="282.5" y1="97.2969" y2="97.2969"/><rect fill="#F24D5C" height="6" style="stroke:#C82930;stroke-width:1.0;" width="6" x="30.5" y="107.9453"/><text fill="#000000" font-family="sans-serif" font-size="14" lengthAdjust="spacing" textLength="193" x="42.5" y="114.292">addMemento(m *memento)</text><rect fill="#F24D5C" height="6" style="stroke:#C82930;stroke-width:1.0;" width="6" x="30.5" y="124.2422"/><text fill="#000000" font-family="sans-serif" font-size="14" lengthAdjust="spacing" textLength="235" x="42.5" y="130.5889">getMemento(index int) *memento</text></g><!--class memento--><g id="elem_memento"><rect codeLine="9" fill="#F1F1F1" height="80.5938" id="memento" rx="2.5" ry="2.5" style="stroke:#181818;stroke-width:0.5;" width="180" x="319" y="49.14"/><ellipse cx="371.25" cy="65.14" fill="#7FFFD4" rx="11" ry="11" style="stroke:#181818;stroke-width:1.0;"/><path d="M370.7344,65.7025 Q368.875,64.9994 368.2188,64.2337 Q367.5781,63.4525 367.5781,62.14 Q367.5781,60.4525 368.6563,59.4837 Q369.7344,58.515 371.6094,58.515 Q372.4688,58.515 373.3125,58.7181 Q374.1719,58.9056 375.0156,59.2962 L375.0156,61.6869 Q374.2344,61.1244 373.4063,60.8431 Q372.5938,60.5462 371.7969,60.5462 Q370.9219,60.5462 370.4375,60.9056 Q369.9688,61.265 369.9688,61.9212 Q369.9688,62.4369 370.3125,62.7806 Q370.6563,63.1087 371.75,63.515 L372.8125,63.9212 Q374.2969,64.4681 375,65.3744 Q375.7188,66.2806 375.7188,67.6556 Q375.7188,69.5306 374.6094,70.4525 Q373.5,71.3744 371.25,71.3744 Q370.3281,71.3744 369.4063,71.1556 Q368.4844,70.9369 367.625,70.515 L367.625,67.9837 Q368.5938,68.6712 369.5156,69.015 Q370.4375,69.3587 371.3281,69.3587 Q372.2344,69.3587 372.7344,68.9525 Q373.2344,68.5306 373.2344,67.7962 Q373.2344,67.2337 372.8906,66.8275 Q372.5625,66.4056 371.9375,66.1556 L370.7344,65.7025 Z " fill="#000000"/><text fill="#000000" font-family="sans-serif" font-size="14" lengthAdjust="spacing" textLength="67" x="391.75" y="69.9867">memento</text><line style="stroke:#181818;stroke-width:0.5;" x1="320" x2="498" y1="81.14" y2="81.14"/><rect fill="none" height="6" style="stroke:#C82930;stroke-width:1.0;" width="6" x="327" y="91.7884"/><text fill="#000000" font-family="sans-serif" font-size="14" lengthAdjust="spacing" textLength="78" x="339" y="98.1351">state string</text><line style="stroke:#181818;stroke-width:0.5;" x1="320" x2="498" y1="105.4369" y2="105.4369"/><rect fill="#F24D5C" height="6" style="stroke:#C82930;stroke-width:1.0;" width="6" x="327" y="116.0853"/><text fill="#000000" font-family="sans-serif" font-size="14" lengthAdjust="spacing" textLength="154" x="339" y="122.432">getSavedState() string</text></g><!--class originator--><g id="elem_originator"><rect codeLine="15" fill="#F1F1F1" height="129.4844" id="originator" rx="2.5" ry="2.5" style="stroke:#181818;stroke-width:0.5;" width="224" x="41" y="197.89"/><ellipse cx="116.25" cy="213.89" fill="#7FFFD4" rx="11" ry="11" style="stroke:#181818;stroke-width:1.0;"/><path d="M115.7344,214.4525 Q113.875,213.7494 113.2188,212.9838 Q112.5781,212.2025 112.5781,210.89 Q112.5781,209.2025 113.6563,208.2338 Q114.7344,207.265 116.6094,207.265 Q117.4688,207.265 118.3125,207.4681 Q119.1719,207.6556 120.0156,208.0463 L120.0156,210.4369 Q119.2344,209.8744 118.4063,209.5931 Q117.5938,209.2963 116.7969,209.2963 Q115.9219,209.2963 115.4375,209.6556 Q114.9688,210.015 114.9688,210.6713 Q114.9688,211.1869 115.3125,211.5306 Q115.6563,211.8588 116.75,212.265 L117.8125,212.6713 Q119.2969,213.2181 120,214.1244 Q120.7188,215.0306 120.7188,216.4056 Q120.7188,218.2806 119.6094,219.2025 Q118.5,220.1244 116.25,220.1244 Q115.3281,220.1244 114.4063,219.9056 Q113.4844,219.6869 112.625,219.265 L112.625,216.7338 Q113.5938,217.4213 114.5156,217.765 Q115.4375,218.1088 116.3281,218.1088 Q117.2344,218.1088 117.7344,217.7025 Q118.2344,217.2806 118.2344,216.5463 Q118.2344,215.9838 117.8906,215.5775 Q117.5625,215.1556 116.9375,214.9056 L115.7344,214.4525 Z " fill="#000000"/><text fill="#000000" font-family="sans-serif" font-size="14" lengthAdjust="spacing" textLength="65" x="136.75" y="218.7367">originator</text><line style="stroke:#181818;stroke-width:0.5;" x1="42" x2="264" y1="229.89" y2="229.89"/><rect fill="none" height="6" style="stroke:#C82930;stroke-width:1.0;" width="6" x="49" y="240.5384"/><text fill="#000000" font-family="sans-serif" font-size="14" lengthAdjust="spacing" textLength="78" x="61" y="246.8851">state string</text><line style="stroke:#181818;stroke-width:0.5;" x1="42" x2="264" y1="254.1869" y2="254.1869"/><rect fill="#F24D5C" height="6" style="stroke:#C82930;stroke-width:1.0;" width="6" x="49" y="264.8353"/><text fill="#000000" font-family="sans-serif" font-size="14" lengthAdjust="spacing" textLength="198" x="61" y="271.182">createMemento() *memento</text><rect fill="#F24D5C" height="6" style="stroke:#C82930;stroke-width:1.0;" width="6" x="49" y="281.1322"/><text fill="#000000" font-family="sans-serif" font-size="14" lengthAdjust="spacing" textLength="187" x="61" y="287.4789">restoreState(m *memento)</text><rect fill="#F24D5C" height="6" style="stroke:#C82930;stroke-width:1.0;" width="6" x="49" y="297.4291"/><text fill="#000000" font-family="sans-serif" font-size="14" lengthAdjust="spacing" textLength="146" x="61" y="303.7757">setState(state string)</text><rect fill="#F24D5C" height="6" style="stroke:#C82930;stroke-width:1.0;" width="6" x="49" y="313.7259"/><text fill="#000000" font-family="sans-serif" font-size="14" lengthAdjust="spacing" textLength="112" x="61" y="320.0726">getState() string</text></g><!--SRC=[dP112i8m44NtESKi6z4Rb887SDMbk1YIeGHDgfDH5EdTJMsBgIY2imWa_v7__mJq58ze23ow07S5QSm1OmI3J89xOYXBAEhb-dH6Z-m2QQYg4Urd1Puy1MdNp7Y3xMuntbM6eBMRuRNmC04QCg8XcGWNB5t11T4m_wlByet2xtHHK2YTIMpKtB362zcwrmiz8tAZbbtZ0ahB_tiPfYHC_R9QBuGf9WiQqdpPKKoHdthkyxx5ptqwfHu0]--></g></svg>