<?xml version="1.0" encoding="us-ascii" standalone="no"?><svg xmlns="http://www.w3.org/2000/svg" xmlns:xlink="http://www.w3.org/1999/xlink" contentStyleType="text/css" height="366px" preserveAspectRatio="none" style="width:503px;height:366px;background:#FFFFFF;" version="1.1" viewBox="0 0 503 366" width="503px" zoomAndPan="magnify"><defs/><g><!--cluster main--><g id="cluster_main"><path d="M8.5,6 L46.5,6 A3.75,3.75 0 0 1 49,8.5 L56,28.2969 L493.5,28.2969 A2.5,2.5 0 0 1 496,30.7969 L496,357.17 A2.5,2.5 0 0 1 493.5,359.67 L8.5,359.67 A2.5,2.5 0 0 1 6,357.17 L6,8.5 A2.5,2.5 0 0 1 8.5,6 " fill="none" style="stroke:#000000;stroke-width:1.5;"/><line style="stroke:#000000;stroke-width:1.5;" x1="6" x2="56" y1="28.2969" y2="28.2969"/><text fill="#000000" font-family="sans-serif" font-size="14" font-weight="bold" lengthAdjust="spacing" textLength="37" x="10" y="20.9951">main</text></g><!--class cache--><g id="elem_cache"><rect codeLine="2" fill="#F1F1F1" height="178.375" id="cache" rx="2.5" ry="2.5" style="stroke:#181818;stroke-width:0.5;" width="237" x="242.5" y="41"/><ellipse cx="335.75" cy="57" fill="#7FFFD4" rx="11" ry="11" style="stroke:#181818;stroke-width:1.0;"/><path d="M335.2344,57.5625 Q333.375,56.8594 332.7188,56.0938 Q332.0781,55.3125 332.0781,54 Q332.0781,52.3125 333.1563,51.3438 Q334.2344,50.375 336.1094,50.375 Q336.9688,50.375 337.8125,50.5781 Q338.6719,50.7656 339.5156,51.1563 L339.5156,53.5469 Q338.7344,52.9844 337.9063,52.7031 Q337.0938,52.4063 336.2969,52.4063 Q335.4219,52.4063 334.9375,52.7656 Q334.4688,53.125 334.4688,53.7813 Q334.4688,54.2969 334.8125,54.6406 Q335.1563,54.9688 336.25,55.375 L337.3125,55.7813 Q338.7969,56.3281 339.5,57.2344 Q340.2188,58.1406 340.2188,59.5156 Q340.2188,61.3906 339.1094,62.3125 Q338,63.2344 335.75,63.2344 Q334.8281,63.2344 333.9063,63.0156 Q332.9844,62.7969 332.125,62.375 L332.125,59.8438 Q333.0938,60.5313 334.0156,60.875 Q334.9375,61.2188 335.8281,61.2188 Q336.7344,61.2188 337.2344,60.8125 Q337.7344,60.3906 337.7344,59.6563 Q337.7344,59.0938 337.3906,58.6875 Q337.0625,58.2656 336.4375,58.0156 L335.2344,57.5625 Z " fill="#000000"/><text fill="#000000" font-family="sans-serif" font-size="14" lengthAdjust="spacing" textLength="42" x="356.25" y="61.8467">cache</text><line style="stroke:#181818;stroke-width:0.5;" x1="243.5" x2="478.5" y1="73" y2="73"/><rect fill="none" height="6" style="stroke:#C82930;stroke-width:1.0;" width="6" x="250.5" y="83.6484"/><text fill="#000000" font-family="sans-serif" font-size="14" lengthAdjust="spacing" textLength="53" x="262.5" y="89.9951">storage</text><text fill="#0000FF" font-family="sans-serif" font-size="14" lengthAdjust="spacing" textLength="30" x="319.5" y="89.9951">map</text><text fill="#000000" font-family="sans-serif" font-size="14" lengthAdjust="spacing" textLength="88" x="349.5" y="89.9951">[string]string</text><rect fill="none" height="6" style="stroke:#C82930;stroke-width:1.0;" width="6" x="250.5" y="99.9453"/><text fill="#000000" font-family="sans-serif" font-size="14" lengthAdjust="spacing" textLength="170" x="262.5" y="106.292">evictionAlgo evictionAlgo</text><rect fill="none" height="6" style="stroke:#C82930;stroke-width:1.0;" width="6" x="250.5" y="116.2422"/><text fill="#000000" font-family="sans-serif" font-size="14" lengthAdjust="spacing" textLength="77" x="262.5" y="122.5889">capacity int</text><rect fill="none" height="6" style="stroke:#C82930;stroke-width:1.0;" width="6" x="250.5" y="132.5391"/><text fill="#000000" font-family="sans-serif" font-size="14" lengthAdjust="spacing" textLength="107" x="262.5" y="138.8857">maxCapacity int</text><line style="stroke:#181818;stroke-width:0.5;" x1="243.5" x2="478.5" y1="146.1875" y2="146.1875"/><rect fill="#F24D5C" height="6" style="stroke:#C82930;stroke-width:1.0;" width="6" x="250.5" y="156.8359"/><text fill="#000000" font-family="sans-serif" font-size="14" lengthAdjust="spacing" textLength="211" x="262.5" y="163.1826">setEvictionAlgo(e evictionAlgo)</text><rect fill="#F24D5C" height="6" style="stroke:#C82930;stroke-width:1.0;" width="6" x="250.5" y="173.1328"/><text fill="#000000" font-family="sans-serif" font-size="14" lengthAdjust="spacing" textLength="190" x="262.5" y="179.4795">add(key string, value string)</text><rect fill="#F24D5C" height="6" style="stroke:#C82930;stroke-width:1.0;" width="6" x="250.5" y="189.4297"/><text fill="#000000" font-family="sans-serif" font-size="14" lengthAdjust="spacing" textLength="100" x="262.5" y="195.7764">get(key string)</text><rect fill="#F24D5C" height="6" style="stroke:#C82930;stroke-width:1.0;" width="6" x="250.5" y="205.7266"/><text fill="#000000" font-family="sans-serif" font-size="14" lengthAdjust="spacing" textLength="42" x="262.5" y="212.0732">evict()</text></g><!--class evictionAlgo--><g id="elem_evictionAlgo"><rect codeLine="14" fill="#F1F1F1" height="64.2969" id="evictionAlgo" rx="2.5" ry="2.5" style="stroke:#181818;stroke-width:0.5;" width="129" x="78.5" y="98.04"/><ellipse cx="98.9" cy="114.04" fill="#B4A7E5" rx="11" ry="11" style="stroke:#181818;stroke-width:1.0;"/><path d="M94.8219,109.8056 L94.8219,107.6494 L102.2125,107.6494 L102.2125,109.8056 L99.7438,109.8056 L99.7438,117.8838 L102.2125,117.8838 L102.2125,120.04 L94.8219,120.04 L94.8219,117.8838 L97.2906,117.8838 L97.2906,109.8056 L94.8219,109.8056 Z " fill="#000000"/><text fill="#000000" font-family="sans-serif" font-size="14" font-style="italic" lengthAdjust="spacing" textLength="85" x="114.1" y="118.8867">evictionAlgo</text><line style="stroke:#181818;stroke-width:0.5;" x1="79.5" x2="206.5" y1="130.04" y2="130.04"/><line style="stroke:#181818;stroke-width:0.5;" x1="79.5" x2="206.5" y1="138.04" y2="138.04"/><rect fill="#F24D5C" height="6" style="stroke:#C82930;stroke-width:1.0;" width="6" x="86.5" y="148.6884"/><text fill="#000000" font-family="sans-serif" font-size="14" lengthAdjust="spacing" textLength="103" x="98.5" y="155.0351">evict(c *cache)</text></g><!--class fifo--><g id="elem_fifo"><rect codeLine="18" fill="#F1F1F1" height="64.2969" id="fifo" rx="2.5" ry="2.5" style="stroke:#181818;stroke-width:0.5;" width="129" x="22.5" y="279.37"/><ellipse cx="72.75" cy="295.37" fill="#7FFFD4" rx="11" ry="11" style="stroke:#181818;stroke-width:1.0;"/><path d="M72.2344,295.9325 Q70.375,295.2294 69.7188,294.4638 Q69.0781,293.6825 69.0781,292.37 Q69.0781,290.6825 70.1563,289.7138 Q71.2344,288.745 73.1094,288.745 Q73.9688,288.745 74.8125,288.9481 Q75.6719,289.1356 76.5156,289.5263 L76.5156,291.9169 Q75.7344,291.3544 74.9063,291.0731 Q74.0938,290.7763 73.2969,290.7763 Q72.4219,290.7763 71.9375,291.1356 Q71.4688,291.495 71.4688,292.1513 Q71.4688,292.6669 71.8125,293.0106 Q72.1563,293.3388 73.25,293.745 L74.3125,294.1513 Q75.7969,294.6981 76.5,295.6044 Q77.2188,296.5106 77.2188,297.8856 Q77.2188,299.7606 76.1094,300.6825 Q75,301.6044 72.75,301.6044 Q71.8281,301.6044 70.9063,301.3856 Q69.9844,301.1669 69.125,300.745 L69.125,298.2138 Q70.0938,298.9013 71.0156,299.245 Q71.9375,299.5888 72.8281,299.5888 Q73.7344,299.5888 74.2344,299.1825 Q74.7344,298.7606 74.7344,298.0263 Q74.7344,297.4638 74.3906,297.0575 Q74.0625,296.6356 73.4375,296.3856 L72.2344,295.9325 Z " fill="#000000"/><text fill="#000000" font-family="sans-serif" font-size="14" lengthAdjust="spacing" textLength="20" x="93.25" y="300.2167">fifo</text><line style="stroke:#181818;stroke-width:0.5;" x1="23.5" x2="150.5" y1="311.37" y2="311.37"/><line style="stroke:#181818;stroke-width:0.5;" x1="23.5" x2="150.5" y1="319.37" y2="319.37"/><rect fill="#F24D5C" height="6" style="stroke:#C82930;stroke-width:1.0;" width="6" x="30.5" y="330.0184"/><text fill="#000000" font-family="sans-serif" font-size="14" lengthAdjust="spacing" textLength="103" x="42.5" y="336.3651">evict(c *cache)</text></g><!--class lfu--><g id="elem_lfu"><rect codeLine="22" fill="#F1F1F1" height="64.2969" id="lfu" rx="2.5" ry="2.5" style="stroke:#181818;stroke-width:0.5;" width="129" x="186.5" y="279.37"/><ellipse cx="238.75" cy="295.37" fill="#7FFFD4" rx="11" ry="11" style="stroke:#181818;stroke-width:1.0;"/><path d="M238.2344,295.9325 Q236.375,295.2294 235.7188,294.4638 Q235.0781,293.6825 235.0781,292.37 Q235.0781,290.6825 236.1563,289.7138 Q237.2344,288.745 239.1094,288.745 Q239.9688,288.745 240.8125,288.9481 Q241.6719,289.1356 242.5156,289.5263 L242.5156,291.9169 Q241.7344,291.3544 240.9063,291.0731 Q240.0938,290.7763 239.2969,290.7763 Q238.4219,290.7763 237.9375,291.1356 Q237.4688,291.495 237.4688,292.1513 Q237.4688,292.6669 237.8125,293.0106 Q238.1563,293.3388 239.25,293.745 L240.3125,294.1513 Q241.7969,294.6981 242.5,295.6044 Q243.2188,296.5106 243.2188,297.8856 Q243.2188,299.7606 242.1094,300.6825 Q241,301.6044 238.75,301.6044 Q237.8281,301.6044 236.9063,301.3856 Q235.9844,301.1669 235.125,300.745 L235.125,298.2138 Q236.0938,298.9013 237.0156,299.245 Q237.9375,299.5888 238.8281,299.5888 Q239.7344,299.5888 240.2344,299.1825 Q240.7344,298.7606 240.7344,298.0263 Q240.7344,297.4638 240.3906,297.0575 Q240.0625,296.6356 239.4375,296.3856 L238.2344,295.9325 Z " fill="#000000"/><text fill="#000000" font-family="sans-serif" font-size="14" lengthAdjust="spacing" textLength="16" x="259.25" y="300.2167">lfu</text><line style="stroke:#181818;stroke-width:0.5;" x1="187.5" x2="314.5" y1="311.37" y2="311.37"/><line style="stroke:#181818;stroke-width:0.5;" x1="187.5" x2="314.5" y1="319.37" y2="319.37"/><rect fill="#F24D5C" height="6" style="stroke:#C82930;stroke-width:1.0;" width="6" x="194.5" y="330.0184"/><text fill="#000000" font-family="sans-serif" font-size="14" lengthAdjust="spacing" textLength="103" x="206.5" y="336.3651">evict(c *cache)</text></g><!--class lru--><g id="elem_lru"><rect codeLine="26" fill="#F1F1F1" height="64.2969" id="lru" rx="2.5" ry="2.5" style="stroke:#181818;stroke-width:0.5;" width="129" x="350.5" y="279.37"/><ellipse cx="402.25" cy="295.37" fill="#7FFFD4" rx="11" ry="11" style="stroke:#181818;stroke-width:1.0;"/><path d="M401.7344,295.9325 Q399.875,295.2294 399.2188,294.4638 Q398.5781,293.6825 398.5781,292.37 Q398.5781,290.6825 399.6563,289.7138 Q400.7344,288.745 402.6094,288.745 Q403.4688,288.745 404.3125,288.9481 Q405.1719,289.1356 406.0156,289.5263 L406.0156,291.9169 Q405.2344,291.3544 404.4063,291.0731 Q403.5938,290.7763 402.7969,290.7763 Q401.9219,290.7763 401.4375,291.1356 Q400.9688,291.495 400.9688,292.1513 Q400.9688,292.6669 401.3125,293.0106 Q401.6563,293.3388 402.75,293.745 L403.8125,294.1513 Q405.2969,294.6981 406,295.6044 Q406.7188,296.5106 406.7188,297.8856 Q406.7188,299.7606 405.6094,300.6825 Q404.5,301.6044 402.25,301.6044 Q401.3281,301.6044 400.4063,301.3856 Q399.4844,301.1669 398.625,300.745 L398.625,298.2138 Q399.5938,298.9013 400.5156,299.245 Q401.4375,299.5888 402.3281,299.5888 Q403.2344,299.5888 403.7344,299.1825 Q404.2344,298.7606 404.2344,298.0263 Q404.2344,297.4638 403.8906,297.0575 Q403.5625,296.6356 402.9375,296.3856 L401.7344,295.9325 Z " fill="#000000"/><text fill="#000000" font-family="sans-serif" font-size="14" lengthAdjust="spacing" textLength="17" x="422.75" y="300.2167">lru</text><line style="stroke:#181818;stroke-width:0.5;" x1="351.5" x2="478.5" y1="311.37" y2="311.37"/><line style="stroke:#181818;stroke-width:0.5;" x1="351.5" x2="478.5" y1="319.37" y2="319.37"/><rect fill="#F24D5C" height="6" style="stroke:#C82930;stroke-width:1.0;" width="6" x="358.5" y="330.0184"/><text fill="#000000" font-family="sans-serif" font-size="14" lengthAdjust="spacing" textLength="103" x="370.5" y="336.3651">evict(c *cache)</text></g><!--reverse link evictionAlgo to fifo--><g id="link_evictionAlgo_fifo"><path codeLine="32" d="M127.11,182.07 C117.36,213.28 105.19,252.26 96.83,279.04 " fill="none" id="evictionAlgo-backto-fifo" style="stroke:#181818;stroke-width:1.0;"/><polygon fill="none" points="120.6,180.43,133.25,163.42,133.97,184.6,120.6,180.43" style="stroke:#181818;stroke-width:1.0;"/></g><!--reverse link evictionAlgo to lfu--><g id="link_evictionAlgo_lfu"><path codeLine="33" d="M172.57,180.29 C191.54,211.79 215.6,251.74 232.04,279.04 " fill="none" id="evictionAlgo-backto-lfu" style="stroke:#181818;stroke-width:1.0;"/><polygon fill="none" points="166.13,184.17,161.81,163.42,178.13,176.95,166.13,184.17" style="stroke:#181818;stroke-width:1.0;"/></g><!--reverse link evictionAlgo to lru--><g id="link_evictionAlgo_lru"><path codeLine="34" d="M180.75,178.23 C193.77,192.59 209.1,207.67 225,219.37 C263.3,247.57 311.7,270.63 350.06,286.51 " fill="none" id="evictionAlgo-backto-lru" style="stroke:#181818;stroke-width:1.0;"/><polygon fill="none" points="174.95,183.23,167.13,163.54,185.53,174.06,174.95,183.23" style="stroke:#181818;stroke-width:1.0;"/></g><!--SRC=[hPBFRiCW3CRlUGehftHgkXV88bLJds37QGUFcWoDFnsGgjNMTn-47imfXuq32FldJvyD5Ws54me2Wyh2TmDf2OqXW43nGJ0CqBrizryp6lJAqWR6yOxbrKE8pkEKGEbi1E6qyq_lUgRHu6bupC7nDSHKEhsLWzNIMOcedDthoLKNnWXCzbIyWhAHXGrUddc6Ew9uO5eTLT8RO2WUZzqdNQ4usy8Pa_FxhG8dYWoiKejubq9BxBRioH5vcSTQjLWDhjG9U5W6NTUN5v1AklK7MDVHSluN6Vy7cLlJjFcBxVX0MXX- -XvA8dVRha6fbNN69-ON]--></g></svg>