<?xml version="1.0" encoding="us-ascii" standalone="no"?><svg xmlns="http://www.w3.org/2000/svg" xmlns:xlink="http://www.w3.org/1999/xlink" contentStyleType="text/css" height="301px" preserveAspectRatio="none" style="width:472px;height:301px;background:#FFFFFF;" version="1.1" viewBox="0 0 472 301" width="472px" zoomAndPan="magnify"><defs/><g><!--cluster main--><g id="cluster_main"><path d="M8.5,6 L46.5,6 A3.75,3.75 0 0 1 49,8.5 L56,28.2969 L462.5,28.2969 A2.5,2.5 0 0 1 465,30.7969 L465,291.98 A2.5,2.5 0 0 1 462.5,294.48 L8.5,294.48 A2.5,2.5 0 0 1 6,291.98 L6,8.5 A2.5,2.5 0 0 1 8.5,6 " fill="none" style="stroke:#000000;stroke-width:1.5;"/><line style="stroke:#000000;stroke-width:1.5;" x1="6" x2="56" y1="28.2969" y2="28.2969"/><text fill="#000000" font-family="sans-serif" font-size="14" font-weight="bold" lengthAdjust="spacing" textLength="37" x="10" y="20.9951">main</text></g><!--class component--><g id="elem_component"><rect codeLine="2" fill="#F1F1F1" height="64.2969" id="component" rx="2.5" ry="2.5" style="stroke:#181818;stroke-width:0.5;" width="126" x="166" y="41"/><ellipse cx="187.3" cy="57" fill="#B4A7E5" rx="11" ry="11" style="stroke:#181818;stroke-width:1.0;"/><path d="M183.2219,52.7656 L183.2219,50.6094 L190.6125,50.6094 L190.6125,52.7656 L188.1438,52.7656 L188.1438,60.8438 L190.6125,60.8438 L190.6125,63 L183.2219,63 L183.2219,60.8438 L185.6906,60.8438 L185.6906,52.7656 L183.2219,52.7656 Z " fill="#000000"/><text fill="#000000" font-family="sans-serif" font-size="14" font-style="italic" lengthAdjust="spacing" textLength="80" x="202.7" y="61.8467">component</text><line style="stroke:#181818;stroke-width:0.5;" x1="167" x2="291" y1="73" y2="73"/><line style="stroke:#181818;stroke-width:0.5;" x1="167" x2="291" y1="81" y2="81"/><rect fill="#F24D5C" height="6" style="stroke:#C82930;stroke-width:1.0;" width="6" x="174" y="91.6484"/><text fill="#000000" font-family="sans-serif" font-size="14" lengthAdjust="spacing" textLength="100" x="186" y="97.9951">search( string)</text></g><!--class file--><g id="elem_file"><rect codeLine="6" fill="#F1F1F1" height="80.5938" id="file" rx="2.5" ry="2.5" style="stroke:#181818;stroke-width:0.5;" width="184" x="22" y="181.59"/><ellipse cx="100.25" cy="197.59" fill="#7FFFD4" rx="11" ry="11" style="stroke:#181818;stroke-width:1.0;"/><path d="M99.7344,198.1525 Q97.875,197.4494 97.2188,196.6838 Q96.5781,195.9025 96.5781,194.59 Q96.5781,192.9025 97.6563,191.9338 Q98.7344,190.965 100.6094,190.965 Q101.4688,190.965 102.3125,191.1681 Q103.1719,191.3556 104.0156,191.7463 L104.0156,194.1369 Q103.2344,193.5744 102.4063,193.2931 Q101.5938,192.9963 100.7969,192.9963 Q99.9219,192.9963 99.4375,193.3556 Q98.9688,193.715 98.9688,194.3713 Q98.9688,194.8869 99.3125,195.2306 Q99.6563,195.5588 100.75,195.965 L101.8125,196.3713 Q103.2969,196.9181 104,197.8244 Q104.7188,198.7306 104.7188,200.1056 Q104.7188,201.9806 103.6094,202.9025 Q102.5,203.8244 100.25,203.8244 Q99.3281,203.8244 98.4063,203.6056 Q97.4844,203.3869 96.625,202.965 L96.625,200.4338 Q97.5938,201.1213 98.5156,201.465 Q99.4375,201.8088 100.3281,201.8088 Q101.2344,201.8088 101.7344,201.4025 Q102.2344,200.9806 102.2344,200.2463 Q102.2344,199.6838 101.8906,199.2775 Q101.5625,198.8556 100.9375,198.6056 L99.7344,198.1525 Z " fill="#000000"/><text fill="#000000" font-family="sans-serif" font-size="14" lengthAdjust="spacing" textLength="19" x="120.75" y="202.4367">file</text><line style="stroke:#181818;stroke-width:0.5;" x1="23" x2="205" y1="213.59" y2="213.59"/><rect fill="none" height="6" style="stroke:#C82930;stroke-width:1.0;" width="6" x="30" y="224.2384"/><text fill="#000000" font-family="sans-serif" font-size="14" lengthAdjust="spacing" textLength="82" x="42" y="230.5851">name string</text><line style="stroke:#181818;stroke-width:0.5;" x1="23" x2="205" y1="237.8869" y2="237.8869"/><rect fill="#F24D5C" height="6" style="stroke:#C82930;stroke-width:1.0;" width="6" x="30" y="248.5353"/><text fill="#000000" font-family="sans-serif" font-size="14" lengthAdjust="spacing" textLength="158" x="42" y="254.882">search(keyword string)</text></g><!--class folder--><g id="elem_folder"><rect codeLine="12" fill="#F1F1F1" height="113.1875" id="folder" rx="2.5" ry="2.5" style="stroke:#181818;stroke-width:0.5;" width="208" x="241" y="165.29"/><ellipse cx="321.25" cy="181.29" fill="#7FFFD4" rx="11" ry="11" style="stroke:#181818;stroke-width:1.0;"/><path d="M320.7344,181.8525 Q318.875,181.1494 318.2188,180.3838 Q317.5781,179.6025 317.5781,178.29 Q317.5781,176.6025 318.6563,175.6338 Q319.7344,174.665 321.6094,174.665 Q322.4688,174.665 323.3125,174.8681 Q324.1719,175.0556 325.0156,175.4463 L325.0156,177.8369 Q324.2344,177.2744 323.4063,176.9931 Q322.5938,176.6963 321.7969,176.6963 Q320.9219,176.6963 320.4375,177.0556 Q319.9688,177.415 319.9688,178.0713 Q319.9688,178.5869 320.3125,178.9306 Q320.6563,179.2588 321.75,179.665 L322.8125,180.0713 Q324.2969,180.6181 325,181.5244 Q325.7188,182.4306 325.7188,183.8056 Q325.7188,185.6806 324.6094,186.6025 Q323.5,187.5244 321.25,187.5244 Q320.3281,187.5244 319.4063,187.3056 Q318.4844,187.0869 317.625,186.665 L317.625,184.1338 Q318.5938,184.8213 319.5156,185.165 Q320.4375,185.5088 321.3281,185.5088 Q322.2344,185.5088 322.7344,185.1025 Q323.2344,184.6806 323.2344,183.9463 Q323.2344,183.3838 322.8906,182.9775 Q322.5625,182.5556 321.9375,182.3056 L320.7344,181.8525 Z " fill="#000000"/><text fill="#000000" font-family="sans-serif" font-size="14" lengthAdjust="spacing" textLength="39" x="341.75" y="186.1367">folder</text><line style="stroke:#181818;stroke-width:0.5;" x1="242" x2="448" y1="197.29" y2="197.29"/><rect fill="none" height="6" style="stroke:#C82930;stroke-width:1.0;" width="6" x="249" y="207.9384"/><text fill="#000000" font-family="sans-serif" font-size="14" lengthAdjust="spacing" textLength="182" x="261" y="214.2851">components []component</text><rect fill="none" height="6" style="stroke:#C82930;stroke-width:1.0;" width="6" x="249" y="224.2353"/><text fill="#000000" font-family="sans-serif" font-size="14" lengthAdjust="spacing" textLength="82" x="261" y="230.582">name string</text><line style="stroke:#181818;stroke-width:0.5;" x1="242" x2="448" y1="237.8838" y2="237.8838"/><rect fill="#F24D5C" height="6" style="stroke:#C82930;stroke-width:1.0;" width="6" x="249" y="248.5322"/><text fill="#000000" font-family="sans-serif" font-size="14" lengthAdjust="spacing" textLength="158" x="261" y="254.8789">search(keyword string)</text><rect fill="#F24D5C" height="6" style="stroke:#C82930;stroke-width:1.0;" width="6" x="249" y="264.8291"/><text fill="#000000" font-family="sans-serif" font-size="14" lengthAdjust="spacing" textLength="128" x="261" y="271.1757">add(c component)</text></g><!--reverse link component to file--><g id="link_component_file"><path codeLine="22" d="M191.5,121.99 C176.46,141.19 159.32,163.05 145,181.33 " fill="none" id="component-backto-file" style="stroke:#181818;stroke-width:1.0;"/><polygon fill="none" points="186.48,118.05,204.33,106.62,197.5,126.68,186.48,118.05" style="stroke:#181818;stroke-width:1.0;"/></g><!--reverse link component to folder--><g id="link_component_folder"><path codeLine="23" d="M266.88,122.06 C277.69,135.74 289.57,150.77 300.73,164.88 " fill="none" id="component-backto-folder" style="stroke:#181818;stroke-width:1.0;"/><polygon fill="none" points="260.8,126.65,253.88,106.62,271.78,117.97,260.8,126.65" style="stroke:#181818;stroke-width:1.0;"/></g><!--SRC=[dL112i8m4Bpd5KDEBLXVK0g-mQDuM9Aj1fj4aug8zkysjRI8KC4zBEpEC3ExZYp7Coc69UFm4EZBk9P3dPRAsxDtx5gCKAe2aIceOuRO1kCEESI0TKDN3SM8sZICiaIsNMqkLxBK4pb7LNtekDvz517VyYU-ttpGIow-qHn- -qndHEpsq_1_a9b1McTgrfz3TaB8zDBrX4cKpwB0Uvl-8vSPmsrIl000]--></g></svg>