<?xml version="1.0" encoding="us-ascii" standalone="no"?><svg xmlns="http://www.w3.org/2000/svg" xmlns:xlink="http://www.w3.org/1999/xlink" contentStyleType="text/css" height="268px" preserveAspectRatio="none" style="width:767px;height:268px;background:#FFFFFF;" version="1.1" viewBox="0 0 767 268" width="767px" zoomAndPan="magnify"><defs/><g><!--cluster main--><g id="cluster_main"><path d="M8.5,6 L46.5,6 A3.75,3.75 0 0 1 49,8.5 L56,28.2969 L757.5,28.2969 A2.5,2.5 0 0 1 760,30.7969 L760,259.39 A2.5,2.5 0 0 1 757.5,261.89 L8.5,261.89 A2.5,2.5 0 0 1 6,259.39 L6,8.5 A2.5,2.5 0 0 1 8.5,6 " fill="none" style="stroke:#000000;stroke-width:1.5;"/><line style="stroke:#000000;stroke-width:1.5;" x1="6" x2="56" y1="28.2969" y2="28.2969"/><text fill="#000000" font-family="sans-serif" font-size="14" font-weight="bold" lengthAdjust="spacing" textLength="37" x="10" y="20.9951">main</text></g><!--class client--><g id="elem_client"><rect codeLine="2" fill="#F1F1F1" height="64.2969" id="client" rx="2.5" ry="2.5" style="stroke:#181818;stroke-width:0.5;" width="333" x="410.5" y="41"/><ellipse cx="554.25" cy="57" fill="#7FFFD4" rx="11" ry="11" style="stroke:#181818;stroke-width:1.0;"/><path d="M553.7344,57.5625 Q551.875,56.8594 551.2188,56.0938 Q550.5781,55.3125 550.5781,54 Q550.5781,52.3125 551.6563,51.3438 Q552.7344,50.375 554.6094,50.375 Q555.4688,50.375 556.3125,50.5781 Q557.1719,50.7656 558.0156,51.1563 L558.0156,53.5469 Q557.2344,52.9844 556.4063,52.7031 Q555.5938,52.4063 554.7969,52.4063 Q553.9219,52.4063 553.4375,52.7656 Q552.9688,53.125 552.9688,53.7813 Q552.9688,54.2969 553.3125,54.6406 Q553.6563,54.9688 554.75,55.375 L555.8125,55.7813 Q557.2969,56.3281 558,57.2344 Q558.7188,58.1406 558.7188,59.5156 Q558.7188,61.3906 557.6094,62.3125 Q556.5,63.2344 554.25,63.2344 Q553.3281,63.2344 552.4063,63.0156 Q551.4844,62.7969 550.625,62.375 L550.625,59.8438 Q551.5938,60.5313 552.5156,60.875 Q553.4375,61.2188 554.3281,61.2188 Q555.2344,61.2188 555.7344,60.8125 Q556.2344,60.3906 556.2344,59.6563 Q556.2344,59.0938 555.8906,58.6875 Q555.5625,58.2656 554.9375,58.0156 L553.7344,57.5625 Z " fill="#000000"/><text fill="#000000" font-family="sans-serif" font-size="14" lengthAdjust="spacing" textLength="37" x="574.75" y="61.8467">client</text><line style="stroke:#181818;stroke-width:0.5;" x1="411.5" x2="742.5" y1="73" y2="73"/><line style="stroke:#181818;stroke-width:0.5;" x1="411.5" x2="742.5" y1="81" y2="81"/><rect fill="#F24D5C" height="6" style="stroke:#C82930;stroke-width:1.0;" width="6" x="418.5" y="91.6484"/><text fill="#000000" font-family="sans-serif" font-size="14" lengthAdjust="spacing" textLength="307" x="430.5" y="97.9951">insertSquareUsbInComputer(com computer)</text></g><!--class computer--><g id="elem_computer"><rect codeLine="6" fill="#F1F1F1" height="64.2969" id="computer" rx="2.5" ry="2.5" style="stroke:#181818;stroke-width:0.5;" width="164" x="211" y="41"/><ellipse cx="255.25" cy="57" fill="#B4A7E5" rx="11" ry="11" style="stroke:#181818;stroke-width:1.0;"/><path d="M251.1719,52.7656 L251.1719,50.6094 L258.5625,50.6094 L258.5625,52.7656 L256.0938,52.7656 L256.0938,60.8438 L258.5625,60.8438 L258.5625,63 L251.1719,63 L251.1719,60.8438 L253.6406,60.8438 L253.6406,52.7656 L251.1719,52.7656 Z " fill="#000000"/><text fill="#000000" font-family="sans-serif" font-size="14" font-style="italic" lengthAdjust="spacing" textLength="67" x="275.75" y="61.8467">computer</text><line style="stroke:#181818;stroke-width:0.5;" x1="212" x2="374" y1="73" y2="73"/><line style="stroke:#181818;stroke-width:0.5;" x1="212" x2="374" y1="81" y2="81"/><rect fill="#F24D5C" height="6" style="stroke:#C82930;stroke-width:1.0;" width="6" x="219" y="91.6484"/><text fill="#000000" font-family="sans-serif" font-size="14" lengthAdjust="spacing" textLength="138" x="231" y="97.9951">insertInSquarePort()</text></g><!--class mac--><g id="elem_mac"><rect codeLine="10" fill="#F1F1F1" height="64.2969" id="mac" rx="2.5" ry="2.5" style="stroke:#181818;stroke-width:0.5;" width="164" x="116" y="173.44"/><ellipse cx="179.25" cy="189.44" fill="#7FFFD4" rx="11" ry="11" style="stroke:#181818;stroke-width:1.0;"/><path d="M178.7344,190.0025 Q176.875,189.2994 176.2188,188.5338 Q175.5781,187.7525 175.5781,186.44 Q175.5781,184.7525 176.6563,183.7838 Q177.7344,182.815 179.6094,182.815 Q180.4688,182.815 181.3125,183.0181 Q182.1719,183.2056 183.0156,183.5963 L183.0156,185.9869 Q182.2344,185.4244 181.4063,185.1431 Q180.5938,184.8463 179.7969,184.8463 Q178.9219,184.8463 178.4375,185.2056 Q177.9688,185.565 177.9688,186.2213 Q177.9688,186.7369 178.3125,187.0806 Q178.6563,187.4088 179.75,187.815 L180.8125,188.2213 Q182.2969,188.7681 183,189.6744 Q183.7188,190.5806 183.7188,191.9556 Q183.7188,193.8306 182.6094,194.7525 Q181.5,195.6744 179.25,195.6744 Q178.3281,195.6744 177.4063,195.4556 Q176.4844,195.2369 175.625,194.815 L175.625,192.2838 Q176.5938,192.9713 177.5156,193.315 Q178.4375,193.6588 179.3281,193.6588 Q180.2344,193.6588 180.7344,193.2525 Q181.2344,192.8306 181.2344,192.0963 Q181.2344,191.5338 180.8906,191.1275 Q180.5625,190.7056 179.9375,190.4556 L178.7344,190.0025 Z " fill="#000000"/><text fill="#000000" font-family="sans-serif" font-size="14" lengthAdjust="spacing" textLength="29" x="199.75" y="194.2867">mac</text><line style="stroke:#181818;stroke-width:0.5;" x1="117" x2="279" y1="205.44" y2="205.44"/><line style="stroke:#181818;stroke-width:0.5;" x1="117" x2="279" y1="213.44" y2="213.44"/><rect fill="#F24D5C" height="6" style="stroke:#C82930;stroke-width:1.0;" width="6" x="124" y="224.0884"/><text fill="#000000" font-family="sans-serif" font-size="14" lengthAdjust="spacing" textLength="138" x="136" y="230.4351">insertInSquarePort()</text></g><!--class windows--><g id="elem_windows"><rect codeLine="14" fill="#F1F1F1" height="64.2969" id="windows" rx="2.5" ry="2.5" style="stroke:#181818;stroke-width:0.5;" width="153" x="22.5" y="41"/><ellipse cx="64.95" cy="57" fill="#7FFFD4" rx="11" ry="11" style="stroke:#181818;stroke-width:1.0;"/><path d="M64.4344,57.5625 Q62.575,56.8594 61.9188,56.0938 Q61.2781,55.3125 61.2781,54 Q61.2781,52.3125 62.3563,51.3438 Q63.4344,50.375 65.3094,50.375 Q66.1688,50.375 67.0125,50.5781 Q67.8719,50.7656 68.7156,51.1563 L68.7156,53.5469 Q67.9344,52.9844 67.1063,52.7031 Q66.2938,52.4063 65.4969,52.4063 Q64.6219,52.4063 64.1375,52.7656 Q63.6688,53.125 63.6688,53.7813 Q63.6688,54.2969 64.0125,54.6406 Q64.3563,54.9688 65.45,55.375 L66.5125,55.7813 Q67.9969,56.3281 68.7,57.2344 Q69.4188,58.1406 69.4188,59.5156 Q69.4188,61.3906 68.3094,62.3125 Q67.2,63.2344 64.95,63.2344 Q64.0281,63.2344 63.1063,63.0156 Q62.1844,62.7969 61.325,62.375 L61.325,59.8438 Q62.2938,60.5313 63.2156,60.875 Q64.1375,61.2188 65.0281,61.2188 Q65.9344,61.2188 66.4344,60.8125 Q66.9344,60.3906 66.9344,59.6563 Q66.9344,59.0938 66.5906,58.6875 Q66.2625,58.2656 65.6375,58.0156 L64.4344,57.5625 Z " fill="#000000"/><text fill="#000000" font-family="sans-serif" font-size="14" lengthAdjust="spacing" textLength="60" x="85.05" y="61.8467">windows</text><line style="stroke:#181818;stroke-width:0.5;" x1="23.5" x2="174.5" y1="73" y2="73"/><line style="stroke:#181818;stroke-width:0.5;" x1="23.5" x2="174.5" y1="81" y2="81"/><rect fill="#F24D5C" height="6" style="stroke:#C82930;stroke-width:1.0;" width="6" x="30.5" y="91.6484"/><text fill="#000000" font-family="sans-serif" font-size="14" lengthAdjust="spacing" textLength="127" x="42.5" y="97.9951">insertInCirclePort()</text></g><!--class windowsAdapter--><g id="elem_windowsAdapter"><rect codeLine="18" fill="#F1F1F1" height="80.5938" id="windowsAdapter" rx="2.5" ry="2.5" style="stroke:#181818;stroke-width:0.5;" width="207" x="315.5" y="165.3"/><ellipse cx="357.95" cy="181.3" fill="#7FFFD4" rx="11" ry="11" style="stroke:#181818;stroke-width:1.0;"/><path d="M357.4344,181.8625 Q355.575,181.1594 354.9188,180.3937 Q354.2781,179.6125 354.2781,178.3 Q354.2781,176.6125 355.3563,175.6437 Q356.4344,174.675 358.3094,174.675 Q359.1688,174.675 360.0125,174.8781 Q360.8719,175.0656 361.7156,175.4562 L361.7156,177.8469 Q360.9344,177.2844 360.1063,177.0031 Q359.2938,176.7062 358.4969,176.7062 Q357.6219,176.7062 357.1375,177.0656 Q356.6688,177.425 356.6688,178.0812 Q356.6688,178.5969 357.0125,178.9406 Q357.3563,179.2687 358.45,179.675 L359.5125,180.0812 Q360.9969,180.6281 361.7,181.5344 Q362.4188,182.4406 362.4188,183.8156 Q362.4188,185.6906 361.3094,186.6125 Q360.2,187.5344 357.95,187.5344 Q357.0281,187.5344 356.1063,187.3156 Q355.1844,187.0969 354.325,186.675 L354.325,184.1437 Q355.2938,184.8312 356.2156,185.175 Q357.1375,185.5187 358.0281,185.5187 Q358.9344,185.5187 359.4344,185.1125 Q359.9344,184.6906 359.9344,183.9562 Q359.9344,183.3937 359.5906,182.9875 Q359.2625,182.5656 358.6375,182.3156 L357.4344,181.8625 Z " fill="#000000"/><text fill="#000000" font-family="sans-serif" font-size="14" lengthAdjust="spacing" textLength="114" x="378.05" y="186.1467">windowsAdapter</text><line style="stroke:#181818;stroke-width:0.5;" x1="316.5" x2="521.5" y1="197.3" y2="197.3"/><rect fill="none" height="6" style="stroke:#C82930;stroke-width:1.0;" width="6" x="323.5" y="207.9484"/><text fill="#000000" font-family="sans-serif" font-size="14" lengthAdjust="spacing" textLength="181" x="335.5" y="214.2951">windowMachine *windows</text><line style="stroke:#181818;stroke-width:0.5;" x1="316.5" x2="521.5" y1="221.5969" y2="221.5969"/><rect fill="#F24D5C" height="6" style="stroke:#C82930;stroke-width:1.0;" width="6" x="323.5" y="232.2453"/><text fill="#000000" font-family="sans-serif" font-size="14" lengthAdjust="spacing" textLength="138" x="335.5" y="238.592">insertInSquarePort()</text></g><!--reverse link computer to mac--><g id="link_computer_mac"><path codeLine="26" d="M257.72,122.6 C245.37,139.55 231.84,158.13 220.79,173.31 " fill="none" id="computer-backto-mac" style="stroke:#181818;stroke-width:1.0;"/><polygon fill="none" points="252.57,118.77,270,106.72,263.89,127.01,252.57,118.77" style="stroke:#181818;stroke-width:1.0;"/></g><!--reverse link computer to windowsAdapter--><g id="link_computer_windowsAdapter"><path codeLine="27" d="M337.99,120.73 C351.95,135.18 367.19,150.96 380.65,164.89 " fill="none" id="computer-backto-windowsAdapter" style="stroke:#181818;stroke-width:1.0;"/><polygon fill="none" points="333.36,125.97,324.5,106.72,343.43,116.25,333.36,125.97" style="stroke:#181818;stroke-width:1.0;"/></g><!--SRC=[ZP7D2eCm3CVlVOhWISVS4uWWddOO36GFaDME5MnqRSN3vhkljNeGnZI7GFFnopyfeHAcGov0eIHuCt366pJ6UId8GfP1N1sBLuyAjIIHG9xFTTvIa6I4jfKhqE9cxcSgMzNrLkYOjmhu_4Y0JJtZv2MvqCEFNVBmWtccGBsssiPhG92eaE_LjyaQ9DNjOFRpIgbviyahQkpyUflOK7z1_dHPECpjREyY8sEH_yBJSj08ia-QGWYwGqN_yckn4Vi2]--></g></svg>