<?xml version="1.0" encoding="us-ascii" standalone="no"?><svg xmlns="http://www.w3.org/2000/svg" xmlns:xlink="http://www.w3.org/1999/xlink" contentStyleType="text/css" height="425px" preserveAspectRatio="none" style="width:891px;height:425px;background:#FFFFFF;" version="1.1" viewBox="0 0 891 425" width="891px" zoomAndPan="magnify"><defs/><g><!--cluster main--><g id="cluster_main"><path d="M8.5,6 L46.5,6 A3.75,3.75 0 0 1 49,8.5 L56,28.2969 L881.5,28.2969 A2.5,2.5 0 0 1 884,30.7969 L884,416.28 A2.5,2.5 0 0 1 881.5,418.78 L8.5,418.78 A2.5,2.5 0 0 1 6,416.28 L6,8.5 A2.5,2.5 0 0 1 8.5,6 " fill="none" style="stroke:#000000;stroke-width:1.5;"/><line style="stroke:#000000;stroke-width:1.5;" x1="6" x2="56" y1="28.2969" y2="28.2969"/><text fill="#000000" font-family="sans-serif" font-size="14" font-weight="bold" lengthAdjust="spacing" textLength="37" x="10" y="20.9951">main</text></g><!--class Brand--><g id="elem_Brand"><rect codeLine="2" fill="#F1F1F1" height="64.2969" id="Brand" rx="2.5" ry="2.5" style="stroke:#181818;stroke-width:0.5;" width="88" x="764" y="49.15"/><ellipse cx="785.75" cy="65.15" fill="#B4A7E5" rx="11" ry="11" style="stroke:#181818;stroke-width:1.0;"/><path d="M781.6719,60.9156 L781.6719,58.7594 L789.0625,58.7594 L789.0625,60.9156 L786.5938,60.9156 L786.5938,68.9937 L789.0625,68.9937 L789.0625,71.15 L781.6719,71.15 L781.6719,68.9937 L784.1406,68.9937 L784.1406,60.9156 L781.6719,60.9156 Z " fill="#000000"/><text fill="#000000" font-family="sans-serif" font-size="14" font-style="italic" lengthAdjust="spacing" textLength="41" x="801.25" y="69.9967">Brand</text><line style="stroke:#181818;stroke-width:0.5;" x1="765" x2="851" y1="81.15" y2="81.15"/><line style="stroke:#181818;stroke-width:0.5;" x1="765" x2="851" y1="89.15" y2="89.15"/><rect fill="#F24D5C" height="6" style="stroke:#C82930;stroke-width:1.0;" width="6" x="772" y="99.7984"/><text fill="#000000" font-family="sans-serif" font-size="14" lengthAdjust="spacing" textLength="62" x="784" y="106.1451">isBrand()</text></g><!--class adidasFactory--><g id="elem_adidasFactory"><rect codeLine="6" fill="#F1F1F1" height="80.5938" id="adidasFactory" rx="2.5" ry="2.5" style="stroke:#181818;stroke-width:0.5;" width="155" x="22.5" y="197.89"/><ellipse cx="50.1" cy="213.89" fill="#7FFFD4" rx="11" ry="11" style="stroke:#181818;stroke-width:1.0;"/><path d="M49.5844,214.4525 Q47.725,213.7494 47.0688,212.9838 Q46.4281,212.2025 46.4281,210.89 Q46.4281,209.2025 47.5063,208.2338 Q48.5844,207.265 50.4594,207.265 Q51.3188,207.265 52.1625,207.4681 Q53.0219,207.6556 53.8656,208.0463 L53.8656,210.4369 Q53.0844,209.8744 52.2563,209.5931 Q51.4438,209.2963 50.6469,209.2963 Q49.7719,209.2963 49.2875,209.6556 Q48.8188,210.015 48.8188,210.6713 Q48.8188,211.1869 49.1625,211.5306 Q49.5063,211.8588 50.6,212.265 L51.6625,212.6713 Q53.1469,213.2181 53.85,214.1244 Q54.5688,215.0306 54.5688,216.4056 Q54.5688,218.2806 53.4594,219.2025 Q52.35,220.1244 50.1,220.1244 Q49.1781,220.1244 48.2563,219.9056 Q47.3344,219.6869 46.475,219.265 L46.475,216.7338 Q47.4438,217.4213 48.3656,217.765 Q49.2875,218.1088 50.1781,218.1088 Q51.0844,218.1088 51.5844,217.7025 Q52.0844,217.2806 52.0844,216.5463 Q52.0844,215.9838 51.7406,215.5775 Q51.4125,215.1556 50.7875,214.9056 L49.5844,214.4525 Z " fill="#000000"/><text fill="#000000" font-family="sans-serif" font-size="14" lengthAdjust="spacing" textLength="95" x="66.9" y="218.7367">adidasFactory</text><line style="stroke:#181818;stroke-width:0.5;" x1="23.5" x2="176.5" y1="229.89" y2="229.89"/><line style="stroke:#181818;stroke-width:0.5;" x1="23.5" x2="176.5" y1="237.89" y2="237.89"/><rect fill="#F24D5C" height="6" style="stroke:#C82930;stroke-width:1.0;" width="6" x="30.5" y="248.5384"/><text fill="#000000" font-family="sans-serif" font-size="14" lengthAdjust="spacing" textLength="127" x="42.5" y="254.8851">makeShoe() iShoe</text><rect fill="#F24D5C" height="6" style="stroke:#C82930;stroke-width:1.0;" width="6" x="30.5" y="264.8353"/><text fill="#000000" font-family="sans-serif" font-size="14" lengthAdjust="spacing" textLength="129" x="42.5" y="271.182">makeShort() iShort</text></g><!--class adidasShoe--><g id="elem_adidasShoe"><rect codeLine="11" fill="#F1F1F1" height="48" id="adidasShoe" rx="2.5" ry="2.5" style="stroke:#181818;stroke-width:0.5;" width="113" x="579.5" y="354.78"/><ellipse cx="594.5" cy="370.78" fill="#7FFFD4" rx="11" ry="11" style="stroke:#181818;stroke-width:1.0;"/><path d="M593.9844,371.3425 Q592.125,370.6394 591.4688,369.8738 Q590.8281,369.0925 590.8281,367.78 Q590.8281,366.0925 591.9063,365.1238 Q592.9844,364.155 594.8594,364.155 Q595.7188,364.155 596.5625,364.3581 Q597.4219,364.5456 598.2656,364.9363 L598.2656,367.3269 Q597.4844,366.7644 596.6563,366.4831 Q595.8438,366.1863 595.0469,366.1863 Q594.1719,366.1863 593.6875,366.5456 Q593.2188,366.905 593.2188,367.5613 Q593.2188,368.0769 593.5625,368.4206 Q593.9063,368.7488 595,369.155 L596.0625,369.5613 Q597.5469,370.1081 598.25,371.0144 Q598.9688,371.9206 598.9688,373.2956 Q598.9688,375.1706 597.8594,376.0925 Q596.75,377.0144 594.5,377.0144 Q593.5781,377.0144 592.6563,376.7956 Q591.7344,376.5769 590.875,376.155 L590.875,373.6238 Q591.8438,374.3113 592.7656,374.655 Q593.6875,374.9988 594.5781,374.9988 Q595.4844,374.9988 595.9844,374.5925 Q596.4844,374.1706 596.4844,373.4363 Q596.4844,372.8738 596.1406,372.4675 Q595.8125,372.0456 595.1875,371.7956 L593.9844,371.3425 Z " fill="#000000"/><text fill="#000000" font-family="sans-serif" font-size="14" lengthAdjust="spacing" textLength="81" x="608.5" y="375.6267">adidasShoe</text><line style="stroke:#181818;stroke-width:0.5;" x1="580.5" x2="691.5" y1="386.78" y2="386.78"/><line style="stroke:#181818;stroke-width:0.5;" x1="580.5" x2="691.5" y1="394.78" y2="394.78"/></g><!--class adidasShort--><g id="elem_adidasShort"><rect codeLine="13" fill="#F1F1F1" height="48" id="adidasShort" rx="2.5" ry="2.5" style="stroke:#181818;stroke-width:0.5;" width="114" x="282" y="354.78"/><ellipse cx="297" cy="370.78" fill="#7FFFD4" rx="11" ry="11" style="stroke:#181818;stroke-width:1.0;"/><path d="M296.4844,371.3425 Q294.625,370.6394 293.9688,369.8738 Q293.3281,369.0925 293.3281,367.78 Q293.3281,366.0925 294.4063,365.1238 Q295.4844,364.155 297.3594,364.155 Q298.2188,364.155 299.0625,364.3581 Q299.9219,364.5456 300.7656,364.9363 L300.7656,367.3269 Q299.9844,366.7644 299.1563,366.4831 Q298.3438,366.1863 297.5469,366.1863 Q296.6719,366.1863 296.1875,366.5456 Q295.7188,366.905 295.7188,367.5613 Q295.7188,368.0769 296.0625,368.4206 Q296.4063,368.7488 297.5,369.155 L298.5625,369.5613 Q300.0469,370.1081 300.75,371.0144 Q301.4688,371.9206 301.4688,373.2956 Q301.4688,375.1706 300.3594,376.0925 Q299.25,377.0144 297,377.0144 Q296.0781,377.0144 295.1563,376.7956 Q294.2344,376.5769 293.375,376.155 L293.375,373.6238 Q294.3438,374.3113 295.2656,374.655 Q296.1875,374.9988 297.0781,374.9988 Q297.9844,374.9988 298.4844,374.5925 Q298.9844,374.1706 298.9844,373.4363 Q298.9844,372.8738 298.6406,372.4675 Q298.3125,372.0456 297.6875,371.7956 L296.4844,371.3425 Z " fill="#000000"/><text fill="#000000" font-family="sans-serif" font-size="14" lengthAdjust="spacing" textLength="82" x="311" y="375.6267">adidasShort</text><line style="stroke:#181818;stroke-width:0.5;" x1="283" x2="395" y1="386.78" y2="386.78"/><line style="stroke:#181818;stroke-width:0.5;" x1="283" x2="395" y1="394.78" y2="394.78"/></g><!--class brand--><g id="elem_brand"><rect codeLine="15" fill="#F1F1F1" height="113.1875" id="brand" rx="2.5" ry="2.5" style="stroke:#181818;stroke-width:0.5;" width="119" x="748.5" y="181.59"/><ellipse cx="784.65" cy="197.59" fill="#7FFFD4" rx="11" ry="11" style="stroke:#181818;stroke-width:1.0;"/><path d="M784.1344,198.1525 Q782.275,197.4494 781.6188,196.6837 Q780.9781,195.9025 780.9781,194.59 Q780.9781,192.9025 782.0563,191.9337 Q783.1344,190.965 785.0094,190.965 Q785.8688,190.965 786.7125,191.1681 Q787.5719,191.3556 788.4156,191.7462 L788.4156,194.1369 Q787.6344,193.5744 786.8063,193.2931 Q785.9938,192.9962 785.1969,192.9962 Q784.3219,192.9962 783.8375,193.3556 Q783.3688,193.715 783.3688,194.3712 Q783.3688,194.8869 783.7125,195.2306 Q784.0563,195.5587 785.15,195.965 L786.2125,196.3712 Q787.6969,196.9181 788.4,197.8244 Q789.1188,198.7306 789.1188,200.1056 Q789.1188,201.9806 788.0094,202.9025 Q786.9,203.8244 784.65,203.8244 Q783.7281,203.8244 782.8063,203.6056 Q781.8844,203.3869 781.025,202.965 L781.025,200.4337 Q781.9938,201.1212 782.9156,201.465 Q783.8375,201.8087 784.7281,201.8087 Q785.6344,201.8087 786.1344,201.4025 Q786.6344,200.9806 786.6344,200.2462 Q786.6344,199.6837 786.2906,199.2775 Q785.9625,198.8556 785.3375,198.6056 L784.1344,198.1525 Z " fill="#000000"/><text fill="#000000" font-family="sans-serif" font-size="14" lengthAdjust="spacing" textLength="40" x="803.35" y="202.4367">brand</text><line style="stroke:#181818;stroke-width:0.5;" x1="749.5" x2="866.5" y1="213.59" y2="213.59"/><rect fill="none" height="6" style="stroke:#C82930;stroke-width:1.0;" width="6" x="756.5" y="224.2384"/><text fill="#000000" font-family="sans-serif" font-size="14" lengthAdjust="spacing" textLength="59" x="768.5" y="230.5851">sz string</text><line style="stroke:#181818;stroke-width:0.5;" x1="749.5" x2="866.5" y1="237.8869" y2="237.8869"/><rect fill="#F24D5C" height="6" style="stroke:#C82930;stroke-width:1.0;" width="6" x="756.5" y="248.5353"/><text fill="#000000" font-family="sans-serif" font-size="14" lengthAdjust="spacing" textLength="62" x="768.5" y="254.882">isBrand()</text><text fill="#000000" font-family="sans-serif" font-size="14" lengthAdjust="spacing" textLength="4" x="768.5" y="271.1789">&#160;</text><ellipse cx="759.5" cy="284.1291" fill="#84BE84" rx="3" ry="3" style="stroke:#038048;stroke-width:1.0;"/><text fill="#000000" font-family="sans-serif" font-size="14" lengthAdjust="spacing" textLength="93" x="768.5" y="287.4757">String() string</text></g><!--class iShoe--><g id="elem_iShoe"><rect codeLine="23" fill="#F1F1F1" height="80.5938" id="iShoe" rx="2.5" ry="2.5" style="stroke:#181818;stroke-width:0.5;" width="136" x="577" y="41"/><ellipse cx="621.25" cy="57" fill="#B4A7E5" rx="11" ry="11" style="stroke:#181818;stroke-width:1.0;"/><path d="M617.1719,52.7656 L617.1719,50.6094 L624.5625,50.6094 L624.5625,52.7656 L622.0938,52.7656 L622.0938,60.8438 L624.5625,60.8438 L624.5625,63 L617.1719,63 L617.1719,60.8438 L619.6406,60.8438 L619.6406,52.7656 L617.1719,52.7656 Z " fill="#000000"/><text fill="#000000" font-family="sans-serif" font-size="14" font-style="italic" lengthAdjust="spacing" textLength="39" x="641.75" y="61.8467">iShoe</text><line style="stroke:#181818;stroke-width:0.5;" x1="578" x2="712" y1="73" y2="73"/><line style="stroke:#181818;stroke-width:0.5;" x1="578" x2="712" y1="81" y2="81"/><rect fill="#F24D5C" height="6" style="stroke:#C82930;stroke-width:1.0;" width="6" x="585" y="91.6484"/><text fill="#000000" font-family="sans-serif" font-size="14" lengthAdjust="spacing" textLength="110" x="597" y="97.9951">getLogo() string</text><rect fill="#F24D5C" height="6" style="stroke:#C82930;stroke-width:1.0;" width="6" x="585" y="107.9453"/><text fill="#000000" font-family="sans-serif" font-size="14" lengthAdjust="spacing" textLength="83" x="597" y="114.292">getSize() int</text></g><!--class iShort--><g id="elem_iShort"><rect codeLine="28" fill="#F1F1F1" height="80.5938" id="iShort" rx="2.5" ry="2.5" style="stroke:#181818;stroke-width:0.5;" width="140" x="402" y="41"/><ellipse cx="447.75" cy="57" fill="#B4A7E5" rx="11" ry="11" style="stroke:#181818;stroke-width:1.0;"/><path d="M443.6719,52.7656 L443.6719,50.6094 L451.0625,50.6094 L451.0625,52.7656 L448.5938,52.7656 L448.5938,60.8438 L451.0625,60.8438 L451.0625,63 L443.6719,63 L443.6719,60.8438 L446.1406,60.8438 L446.1406,52.7656 L443.6719,52.7656 Z " fill="#000000"/><text fill="#000000" font-family="sans-serif" font-size="14" font-style="italic" lengthAdjust="spacing" textLength="40" x="468.25" y="61.8467">iShort</text><line style="stroke:#181818;stroke-width:0.5;" x1="403" x2="541" y1="73" y2="73"/><line style="stroke:#181818;stroke-width:0.5;" x1="403" x2="541" y1="81" y2="81"/><rect fill="#F24D5C" height="6" style="stroke:#C82930;stroke-width:1.0;" width="6" x="410" y="91.6484"/><text fill="#000000" font-family="sans-serif" font-size="14" lengthAdjust="spacing" textLength="112" x="422" y="97.9951">getColor() string</text><rect fill="#F24D5C" height="6" style="stroke:#C82930;stroke-width:1.0;" width="6" x="410" y="107.9453"/><text fill="#000000" font-family="sans-serif" font-size="14" lengthAdjust="spacing" textLength="114" x="422" y="114.292">getMeasure() int</text></g><!--class iSportsFactory--><g id="elem_iSportsFactory"><rect codeLine="33" fill="#F1F1F1" height="80.5938" id="iSportsFactory" rx="2.5" ry="2.5" style="stroke:#181818;stroke-width:0.5;" width="155" x="117.5" y="41"/><ellipse cx="143.75" cy="57" fill="#B4A7E5" rx="11" ry="11" style="stroke:#181818;stroke-width:1.0;"/><path d="M139.6719,52.7656 L139.6719,50.6094 L147.0625,50.6094 L147.0625,52.7656 L144.5938,52.7656 L144.5938,60.8438 L147.0625,60.8438 L147.0625,63 L139.6719,63 L139.6719,60.8438 L142.1406,60.8438 L142.1406,52.7656 L139.6719,52.7656 Z " fill="#000000"/><text fill="#000000" font-family="sans-serif" font-size="14" font-style="italic" lengthAdjust="spacing" textLength="98" x="160.25" y="61.8467">iSportsFactory</text><line style="stroke:#181818;stroke-width:0.5;" x1="118.5" x2="271.5" y1="73" y2="73"/><line style="stroke:#181818;stroke-width:0.5;" x1="118.5" x2="271.5" y1="81" y2="81"/><rect fill="#F24D5C" height="6" style="stroke:#C82930;stroke-width:1.0;" width="6" x="125.5" y="91.6484"/><text fill="#000000" font-family="sans-serif" font-size="14" lengthAdjust="spacing" textLength="127" x="137.5" y="97.9951">makeShoe() iShoe</text><rect fill="#F24D5C" height="6" style="stroke:#C82930;stroke-width:1.0;" width="6" x="125.5" y="107.9453"/><text fill="#000000" font-family="sans-serif" font-size="14" lengthAdjust="spacing" textLength="129" x="137.5" y="114.292">makeShort() iShort</text></g><!--class nikeFactory--><g id="elem_nikeFactory"><rect codeLine="38" fill="#F1F1F1" height="80.5938" id="nikeFactory" rx="2.5" ry="2.5" style="stroke:#181818;stroke-width:0.5;" width="155" x="212.5" y="197.89"/><ellipse cx="247.3" cy="213.89" fill="#7FFFD4" rx="11" ry="11" style="stroke:#181818;stroke-width:1.0;"/><path d="M246.7844,214.4525 Q244.925,213.7494 244.2688,212.9838 Q243.6281,212.2025 243.6281,210.89 Q243.6281,209.2025 244.7063,208.2338 Q245.7844,207.265 247.6594,207.265 Q248.5188,207.265 249.3625,207.4681 Q250.2219,207.6556 251.0656,208.0463 L251.0656,210.4369 Q250.2844,209.8744 249.4563,209.5931 Q248.6438,209.2963 247.8469,209.2963 Q246.9719,209.2963 246.4875,209.6556 Q246.0188,210.015 246.0188,210.6713 Q246.0188,211.1869 246.3625,211.5306 Q246.7063,211.8588 247.8,212.265 L248.8625,212.6713 Q250.3469,213.2181 251.05,214.1244 Q251.7688,215.0306 251.7688,216.4056 Q251.7688,218.2806 250.6594,219.2025 Q249.55,220.1244 247.3,220.1244 Q246.3781,220.1244 245.4563,219.9056 Q244.5344,219.6869 243.675,219.265 L243.675,216.7338 Q244.6438,217.4213 245.5656,217.765 Q246.4875,218.1088 247.3781,218.1088 Q248.2844,218.1088 248.7844,217.7025 Q249.2844,217.2806 249.2844,216.5463 Q249.2844,215.9838 248.9406,215.5775 Q248.6125,215.1556 247.9875,214.9056 L246.7844,214.4525 Z " fill="#000000"/><text fill="#000000" font-family="sans-serif" font-size="14" lengthAdjust="spacing" textLength="79" x="265.7" y="218.7367">nikeFactory</text><line style="stroke:#181818;stroke-width:0.5;" x1="213.5" x2="366.5" y1="229.89" y2="229.89"/><line style="stroke:#181818;stroke-width:0.5;" x1="213.5" x2="366.5" y1="237.89" y2="237.89"/><rect fill="#F24D5C" height="6" style="stroke:#C82930;stroke-width:1.0;" width="6" x="220.5" y="248.5384"/><text fill="#000000" font-family="sans-serif" font-size="14" lengthAdjust="spacing" textLength="127" x="232.5" y="254.8851">makeShoe() iShoe</text><rect fill="#F24D5C" height="6" style="stroke:#C82930;stroke-width:1.0;" width="6" x="220.5" y="264.8353"/><text fill="#000000" font-family="sans-serif" font-size="14" lengthAdjust="spacing" textLength="129" x="232.5" y="271.182">makeShort() iShort</text></g><!--class nikeShoe--><g id="elem_nikeShoe"><rect codeLine="43" fill="#F1F1F1" height="48" id="nikeShoe" rx="2.5" ry="2.5" style="stroke:#181818;stroke-width:0.5;" width="97" x="727.5" y="354.78"/><ellipse cx="742.5" cy="370.78" fill="#7FFFD4" rx="11" ry="11" style="stroke:#181818;stroke-width:1.0;"/><path d="M741.9844,371.3425 Q740.125,370.6394 739.4688,369.8738 Q738.8281,369.0925 738.8281,367.78 Q738.8281,366.0925 739.9063,365.1238 Q740.9844,364.155 742.8594,364.155 Q743.7188,364.155 744.5625,364.3581 Q745.4219,364.5456 746.2656,364.9363 L746.2656,367.3269 Q745.4844,366.7644 744.6563,366.4831 Q743.8438,366.1863 743.0469,366.1863 Q742.1719,366.1863 741.6875,366.5456 Q741.2188,366.905 741.2188,367.5613 Q741.2188,368.0769 741.5625,368.4206 Q741.9063,368.7488 743,369.155 L744.0625,369.5613 Q745.5469,370.1081 746.25,371.0144 Q746.9688,371.9206 746.9688,373.2956 Q746.9688,375.1706 745.8594,376.0925 Q744.75,377.0144 742.5,377.0144 Q741.5781,377.0144 740.6563,376.7956 Q739.7344,376.5769 738.875,376.155 L738.875,373.6238 Q739.8438,374.3113 740.7656,374.655 Q741.6875,374.9988 742.5781,374.9988 Q743.4844,374.9988 743.9844,374.5925 Q744.4844,374.1706 744.4844,373.4363 Q744.4844,372.8738 744.1406,372.4675 Q743.8125,372.0456 743.1875,371.7956 L741.9844,371.3425 Z " fill="#000000"/><text fill="#000000" font-family="sans-serif" font-size="14" lengthAdjust="spacing" textLength="65" x="756.5" y="375.6267">nikeShoe</text><line style="stroke:#181818;stroke-width:0.5;" x1="728.5" x2="823.5" y1="386.78" y2="386.78"/><line style="stroke:#181818;stroke-width:0.5;" x1="728.5" x2="823.5" y1="394.78" y2="394.78"/></g><!--class nikeShort--><g id="elem_nikeShort"><rect codeLine="45" fill="#F1F1F1" height="48" id="nikeShort" rx="2.5" ry="2.5" style="stroke:#181818;stroke-width:0.5;" width="98" x="431" y="354.78"/><ellipse cx="446" cy="370.78" fill="#7FFFD4" rx="11" ry="11" style="stroke:#181818;stroke-width:1.0;"/><path d="M445.4844,371.3425 Q443.625,370.6394 442.9688,369.8738 Q442.3281,369.0925 442.3281,367.78 Q442.3281,366.0925 443.4063,365.1238 Q444.4844,364.155 446.3594,364.155 Q447.2188,364.155 448.0625,364.3581 Q448.9219,364.5456 449.7656,364.9363 L449.7656,367.3269 Q448.9844,366.7644 448.1563,366.4831 Q447.3438,366.1863 446.5469,366.1863 Q445.6719,366.1863 445.1875,366.5456 Q444.7188,366.905 444.7188,367.5613 Q444.7188,368.0769 445.0625,368.4206 Q445.4063,368.7488 446.5,369.155 L447.5625,369.5613 Q449.0469,370.1081 449.75,371.0144 Q450.4688,371.9206 450.4688,373.2956 Q450.4688,375.1706 449.3594,376.0925 Q448.25,377.0144 446,377.0144 Q445.0781,377.0144 444.1563,376.7956 Q443.2344,376.5769 442.375,376.155 L442.375,373.6238 Q443.3438,374.3113 444.2656,374.655 Q445.1875,374.9988 446.0781,374.9988 Q446.9844,374.9988 447.4844,374.5925 Q447.9844,374.1706 447.9844,373.4363 Q447.9844,372.8738 447.6406,372.4675 Q447.3125,372.0456 446.6875,371.7956 L445.4844,371.3425 Z " fill="#000000"/><text fill="#000000" font-family="sans-serif" font-size="14" lengthAdjust="spacing" textLength="66" x="460" y="375.6267">nikeShort</text><line style="stroke:#181818;stroke-width:0.5;" x1="432" x2="528" y1="386.78" y2="386.78"/><line style="stroke:#181818;stroke-width:0.5;" x1="432" x2="528" y1="394.78" y2="394.78"/></g><!--class shoe--><g id="elem_shoe"><rect codeLine="47" fill="#F1F1F1" height="113.1875" id="shoe" rx="2.5" ry="2.5" style="stroke:#181818;stroke-width:0.5;" width="136" x="577" y="181.59"/><ellipse cx="623.25" cy="197.59" fill="#7FFFD4" rx="11" ry="11" style="stroke:#181818;stroke-width:1.0;"/><path d="M622.7344,198.1525 Q620.875,197.4494 620.2188,196.6837 Q619.5781,195.9025 619.5781,194.59 Q619.5781,192.9025 620.6563,191.9337 Q621.7344,190.965 623.6094,190.965 Q624.4688,190.965 625.3125,191.1681 Q626.1719,191.3556 627.0156,191.7462 L627.0156,194.1369 Q626.2344,193.5744 625.4063,193.2931 Q624.5938,192.9962 623.7969,192.9962 Q622.9219,192.9962 622.4375,193.3556 Q621.9688,193.715 621.9688,194.3712 Q621.9688,194.8869 622.3125,195.2306 Q622.6563,195.5587 623.75,195.965 L624.8125,196.3712 Q626.2969,196.9181 627,197.8244 Q627.7188,198.7306 627.7188,200.1056 Q627.7188,201.9806 626.6094,202.9025 Q625.5,203.8244 623.25,203.8244 Q622.3281,203.8244 621.4063,203.6056 Q620.4844,203.3869 619.625,202.965 L619.625,200.4337 Q620.5938,201.1212 621.5156,201.465 Q622.4375,201.8087 623.3281,201.8087 Q624.2344,201.8087 624.7344,201.4025 Q625.2344,200.9806 625.2344,200.2462 Q625.2344,199.6837 624.8906,199.2775 Q624.5625,198.8556 623.9375,198.6056 L622.7344,198.1525 Z " fill="#000000"/><text fill="#000000" font-family="sans-serif" font-size="14" lengthAdjust="spacing" textLength="35" x="643.75" y="202.4367">shoe</text><line style="stroke:#181818;stroke-width:0.5;" x1="578" x2="712" y1="213.59" y2="213.59"/><rect fill="none" height="6" style="stroke:#C82930;stroke-width:1.0;" width="6" x="585" y="224.2384"/><text fill="#000000" font-family="sans-serif" font-size="14" lengthAdjust="spacing" textLength="73" x="597" y="230.5851">logo string</text><rect fill="none" height="6" style="stroke:#C82930;stroke-width:1.0;" width="6" x="585" y="240.5353"/><text fill="#000000" font-family="sans-serif" font-size="14" lengthAdjust="spacing" textLength="49" x="597" y="246.882">size int</text><line style="stroke:#181818;stroke-width:0.5;" x1="578" x2="712" y1="254.1837" y2="254.1837"/><rect fill="#F24D5C" height="6" style="stroke:#C82930;stroke-width:1.0;" width="6" x="585" y="264.8322"/><text fill="#000000" font-family="sans-serif" font-size="14" lengthAdjust="spacing" textLength="110" x="597" y="271.1789">getLogo() string</text><rect fill="#F24D5C" height="6" style="stroke:#C82930;stroke-width:1.0;" width="6" x="585" y="281.1291"/><text fill="#000000" font-family="sans-serif" font-size="14" lengthAdjust="spacing" textLength="83" x="597" y="287.4757">getSize() int</text></g><!--class short--><g id="elem_short"><rect codeLine="55" fill="#F1F1F1" height="113.1875" id="short" rx="2.5" ry="2.5" style="stroke:#181818;stroke-width:0.5;" width="140" x="402" y="181.59"/><ellipse cx="449.75" cy="197.59" fill="#7FFFD4" rx="11" ry="11" style="stroke:#181818;stroke-width:1.0;"/><path d="M449.2344,198.1525 Q447.375,197.4494 446.7188,196.6837 Q446.0781,195.9025 446.0781,194.59 Q446.0781,192.9025 447.1563,191.9337 Q448.2344,190.965 450.1094,190.965 Q450.9688,190.965 451.8125,191.1681 Q452.6719,191.3556 453.5156,191.7462 L453.5156,194.1369 Q452.7344,193.5744 451.9063,193.2931 Q451.0938,192.9962 450.2969,192.9962 Q449.4219,192.9962 448.9375,193.3556 Q448.4688,193.715 448.4688,194.3712 Q448.4688,194.8869 448.8125,195.2306 Q449.1563,195.5587 450.25,195.965 L451.3125,196.3712 Q452.7969,196.9181 453.5,197.8244 Q454.2188,198.7306 454.2188,200.1056 Q454.2188,201.9806 453.1094,202.9025 Q452,203.8244 449.75,203.8244 Q448.8281,203.8244 447.9063,203.6056 Q446.9844,203.3869 446.125,202.965 L446.125,200.4337 Q447.0938,201.1212 448.0156,201.465 Q448.9375,201.8087 449.8281,201.8087 Q450.7344,201.8087 451.2344,201.4025 Q451.7344,200.9806 451.7344,200.2462 Q451.7344,199.6837 451.3906,199.2775 Q451.0625,198.8556 450.4375,198.6056 L449.2344,198.1525 Z " fill="#000000"/><text fill="#000000" font-family="sans-serif" font-size="14" lengthAdjust="spacing" textLength="36" x="470.25" y="202.4367">short</text><line style="stroke:#181818;stroke-width:0.5;" x1="403" x2="541" y1="213.59" y2="213.59"/><rect fill="none" height="6" style="stroke:#C82930;stroke-width:1.0;" width="6" x="410" y="224.2384"/><text fill="#000000" font-family="sans-serif" font-size="14" lengthAdjust="spacing" textLength="77" x="422" y="230.5851">color string</text><rect fill="none" height="6" style="stroke:#C82930;stroke-width:1.0;" width="6" x="410" y="240.5353"/><text fill="#000000" font-family="sans-serif" font-size="14" lengthAdjust="spacing" textLength="82" x="422" y="246.882">measure int</text><line style="stroke:#181818;stroke-width:0.5;" x1="403" x2="541" y1="254.1837" y2="254.1837"/><rect fill="#F24D5C" height="6" style="stroke:#C82930;stroke-width:1.0;" width="6" x="410" y="264.8322"/><text fill="#000000" font-family="sans-serif" font-size="14" lengthAdjust="spacing" textLength="112" x="422" y="271.1789">getColor() string</text><rect fill="#F24D5C" height="6" style="stroke:#C82930;stroke-width:1.0;" width="6" x="410" y="281.1291"/><text fill="#000000" font-family="sans-serif" font-size="14" lengthAdjust="spacing" textLength="114" x="422" y="287.4757">getMeasure() int</text></g><!--reverse link shoe to adidasShoe--><g id="link_shoe_adidasShoe"><path codeLine="64" d="M640.47,308.92 C639.4,325.39 638.33,341.83 637.51,354.52 " fill="none" id="shoe-backto-adidasShoe" style="stroke:#181818;stroke-width:1.0;"/><polygon fill="#181818" points="641.37,296.16,636.9894,301.888,640.5919,308.1347,644.9725,302.4067,641.37,296.16" style="stroke:#181818;stroke-width:1.0;"/></g><!--reverse link short to adidasShort--><g id="link_short_adidasShort"><path codeLine="65" d="M408.87,304.97 C391.82,322.74 374.47,340.82 361.32,354.52 " fill="none" id="short-backto-adidasShort" style="stroke:#181818;stroke-width:1.0;"/><polygon fill="#181818" points="417.29,296.16,410.2502,297.7222,408.9846,304.8214,416.0244,303.2592,417.29,296.16" style="stroke:#181818;stroke-width:1.0;"/></g><!--reverse link shoe to nikeShoe--><g id="link_shoe_nikeShoe"><path codeLine="66" d="M707.18,304.97 C723.98,322.74 741.06,340.82 754.01,354.52 " fill="none" id="shoe-backto-nikeShoe" style="stroke:#181818;stroke-width:1.0;"/><polygon fill="#181818" points="698.91,296.16,700.1258,303.2679,707.1545,304.8794,705.9387,297.7715,698.91,296.16" style="stroke:#181818;stroke-width:1.0;"/></g><!--reverse link short to nikeShort--><g id="link_short_nikeShort"><path codeLine="67" d="M476.03,308.92 C476.98,325.39 477.93,341.83 478.66,354.52 " fill="none" id="short-backto-nikeShort" style="stroke:#181818;stroke-width:1.0;"/><polygon fill="#181818" points="475.23,296.16,471.5864,302.3829,475.9293,308.1396,479.5728,301.9167,475.23,296.16" style="stroke:#181818;stroke-width:1.0;"/></g><!--reverse link iSportsFactory to adidasFactory--><g id="link_iSportsFactory_adidasFactory"><path codeLine="69" d="M159.89,139.54 C148.07,158.82 135.14,179.89 124.34,197.5 " fill="none" id="iSportsFactory-backto-adidasFactory" style="stroke:#181818;stroke-width:1.0;"/><polygon fill="none" points="154.36,136.17,170.78,122.78,166.29,143.49,154.36,136.17" style="stroke:#181818;stroke-width:1.0;"/></g><!--reverse link Brand to brand--><g id="link_Brand_brand"><path codeLine="70" d="M808,134.6 C808,149.57 808,165.95 808,181.13 " fill="none" id="Brand-backto-brand" style="stroke:#181818;stroke-width:1.0;"/><polygon fill="none" points="801,134.64,808,114.64,815,134.64,801,134.64" style="stroke:#181818;stroke-width:1.0;"/></g><!--reverse link iSportsFactory to nikeFactory--><g id="link_iSportsFactory_nikeFactory"><path codeLine="71" d="M230.11,139.54 C241.93,158.82 254.86,179.89 265.66,197.5 " fill="none" id="iSportsFactory-backto-nikeFactory" style="stroke:#181818;stroke-width:1.0;"/><polygon fill="none" points="223.71,143.49,219.22,122.78,235.64,136.17,223.71,143.49" style="stroke:#181818;stroke-width:1.0;"/></g><!--reverse link iShoe to shoe--><g id="link_iShoe_shoe"><path codeLine="72" d="M645,142.35 C645,155.11 645,168.52 645,181.12 " fill="none" id="iShoe-backto-shoe" style="stroke:#181818;stroke-width:1.0;"/><polygon fill="none" points="638,142.78,645,122.78,652,142.78,638,142.78" style="stroke:#181818;stroke-width:1.0;"/></g><!--reverse link iShort to short--><g id="link_iShort_short"><path codeLine="73" d="M472,142.35 C472,155.11 472,168.52 472,181.12 " fill="none" id="iShort-backto-short" style="stroke:#181818;stroke-width:1.0;"/><polygon fill="none" points="465,142.78,472,122.78,479,142.78,465,142.78" style="stroke:#181818;stroke-width:1.0;"/></g><!--SRC=[lLJBJiCm4BpdArO-jK3uWgWI8762KxvWIKomsjZ5wnuevD-ndJJlHuigV4YKtTdnUcSSYJcdFIOSSXGIlWEmIqZ3zRiBFcgKALHXjq8Gv8EhDGG-MlXdiaCYm5IaIC-O6AM_88fW5TyzV1umHoqaNyDcqw7ASSlZ3yKjbt3lOKgRAgVDr6wkS6whqGfjpYrvynDOF0eTWOpDPC7CgDowXTZZRB1TKFG6x-VH7Np6pOlAL5FOISNYwESepJIXFNMVyKdjb9wWVEL81xt0khUijUBNL5UABVyl9xczBl5HXJ_VHRH0NhQwi_8EbI2hRAF0txrGTpBVTicIE5yCoVFI4YFjN6oa8c3kbtFlHiFW9WoX_6vkDMiGsen2R7Y2vQJe94Sj8GigIDVB3AAVteQdJ8NtTxi3y_yAjapNidQ3zWTeWQZLVUdRVjhr_Wi0]--></g></svg>