<?xml version="1.0" encoding="us-ascii" standalone="no"?><svg xmlns="http://www.w3.org/2000/svg" xmlns:xlink="http://www.w3.org/1999/xlink" contentStyleType="text/css" height="334px" preserveAspectRatio="none" style="width:834px;height:334px;background:#FFFFFF;" version="1.1" viewBox="0 0 834 334" width="834px" zoomAndPan="magnify"><defs/><g><!--cluster main--><g id="cluster_main"><path d="M8.5,6 L46.5,6 A3.75,3.75 0 0 1 49,8.5 L56,28.2969 L824.5,28.2969 A2.5,2.5 0 0 1 827,30.7969 L827,324.58 A2.5,2.5 0 0 1 824.5,327.08 L8.5,327.08 A2.5,2.5 0 0 1 6,324.58 L6,8.5 A2.5,2.5 0 0 1 8.5,6 " fill="none" style="stroke:#000000;stroke-width:1.5;"/><line style="stroke:#000000;stroke-width:1.5;" x1="6" x2="56" y1="28.2969" y2="28.2969"/><text fill="#000000" font-family="sans-serif" font-size="14" font-weight="bold" lengthAdjust="spacing" textLength="37" x="10" y="20.9951">main</text></g><!--class counterTerroristDress--><g id="elem_counterTerroristDress"><rect codeLine="2" fill="#F1F1F1" height="80.5938" id="counterTerroristDress" rx="2.5" ry="2.5" style="stroke:#181818;stroke-width:0.5;" width="185" x="453.5" y="230.49"/><ellipse cx="468.5" cy="246.49" fill="#7FFFD4" rx="11" ry="11" style="stroke:#181818;stroke-width:1.0;"/><path d="M467.9844,247.0525 Q466.125,246.3494 465.4688,245.5837 Q464.8281,244.8025 464.8281,243.49 Q464.8281,241.8025 465.9063,240.8337 Q466.9844,239.865 468.8594,239.865 Q469.7188,239.865 470.5625,240.0681 Q471.4219,240.2556 472.2656,240.6462 L472.2656,243.0369 Q471.4844,242.4744 470.6563,242.1931 Q469.8438,241.8962 469.0469,241.8962 Q468.1719,241.8962 467.6875,242.2556 Q467.2188,242.615 467.2188,243.2712 Q467.2188,243.7869 467.5625,244.1306 Q467.9063,244.4587 469,244.865 L470.0625,245.2712 Q471.5469,245.8181 472.25,246.7244 Q472.9688,247.6306 472.9688,249.0056 Q472.9688,250.8806 471.8594,251.8025 Q470.75,252.7244 468.5,252.7244 Q467.5781,252.7244 466.6563,252.5056 Q465.7344,252.2869 464.875,251.865 L464.875,249.3337 Q465.8438,250.0212 466.7656,250.365 Q467.6875,250.7087 468.5781,250.7087 Q469.4844,250.7087 469.9844,250.3025 Q470.4844,249.8806 470.4844,249.1462 Q470.4844,248.5837 470.1406,248.1775 Q469.8125,247.7556 469.1875,247.5056 L467.9844,247.0525 Z " fill="#000000"/><text fill="#000000" font-family="sans-serif" font-size="14" lengthAdjust="spacing" textLength="153" x="482.5" y="251.3367">counterTerroristDress</text><line style="stroke:#181818;stroke-width:0.5;" x1="454.5" x2="637.5" y1="262.49" y2="262.49"/><rect fill="none" height="6" style="stroke:#C82930;stroke-width:1.0;" width="6" x="461.5" y="273.1384"/><text fill="#000000" font-family="sans-serif" font-size="14" lengthAdjust="spacing" textLength="77" x="473.5" y="279.4851">color string</text><line style="stroke:#181818;stroke-width:0.5;" x1="454.5" x2="637.5" y1="286.7869" y2="286.7869"/><rect fill="#F24D5C" height="6" style="stroke:#C82930;stroke-width:1.0;" width="6" x="461.5" y="297.4353"/><text fill="#000000" font-family="sans-serif" font-size="14" lengthAdjust="spacing" textLength="112" x="473.5" y="303.782">getColor() string</text></g><!--class dress--><g id="elem_dress"><rect codeLine="8" fill="#F1F1F1" height="64.2969" id="dress" rx="2.5" ry="2.5" style="stroke:#181818;stroke-width:0.5;" width="138" x="673" y="73.6"/><ellipse cx="719.25" cy="89.6" fill="#B4A7E5" rx="11" ry="11" style="stroke:#181818;stroke-width:1.0;"/><path d="M715.1719,85.3656 L715.1719,83.2094 L722.5625,83.2094 L722.5625,85.3656 L720.0938,85.3656 L720.0938,93.4437 L722.5625,93.4437 L722.5625,95.6 L715.1719,95.6 L715.1719,93.4437 L717.6406,93.4437 L717.6406,85.3656 L715.1719,85.3656 Z " fill="#000000"/><text fill="#000000" font-family="sans-serif" font-size="14" font-style="italic" lengthAdjust="spacing" textLength="37" x="739.75" y="94.4467">dress</text><line style="stroke:#181818;stroke-width:0.5;" x1="674" x2="810" y1="105.6" y2="105.6"/><line style="stroke:#181818;stroke-width:0.5;" x1="674" x2="810" y1="113.6" y2="113.6"/><rect fill="#F24D5C" height="6" style="stroke:#C82930;stroke-width:1.0;" width="6" x="681" y="124.2484"/><text fill="#000000" font-family="sans-serif" font-size="14" lengthAdjust="spacing" textLength="112" x="693" y="130.5951">getColor() string</text></g><!--class dressFactory--><g id="elem_dressFactory"><rect codeLine="12" fill="#F1F1F1" height="80.5938" id="dressFactory" rx="2.5" ry="2.5" style="stroke:#181818;stroke-width:0.5;" width="361" x="276.5" y="65.45"/><ellipse cx="408.25" cy="81.45" fill="#7FFFD4" rx="11" ry="11" style="stroke:#181818;stroke-width:1.0;"/><path d="M407.7344,82.0125 Q405.875,81.3094 405.2188,80.5437 Q404.5781,79.7625 404.5781,78.45 Q404.5781,76.7625 405.6563,75.7937 Q406.7344,74.825 408.6094,74.825 Q409.4688,74.825 410.3125,75.0281 Q411.1719,75.2156 412.0156,75.6062 L412.0156,77.9969 Q411.2344,77.4344 410.4063,77.1531 Q409.5938,76.8562 408.7969,76.8562 Q407.9219,76.8562 407.4375,77.2156 Q406.9688,77.575 406.9688,78.2312 Q406.9688,78.7469 407.3125,79.0906 Q407.6563,79.4187 408.75,79.825 L409.8125,80.2312 Q411.2969,80.7781 412,81.6844 Q412.7188,82.5906 412.7188,83.9656 Q412.7188,85.8406 411.6094,86.7625 Q410.5,87.6844 408.25,87.6844 Q407.3281,87.6844 406.4063,87.4656 Q405.4844,87.2469 404.625,86.825 L404.625,84.2937 Q405.5938,84.9812 406.5156,85.325 Q407.4375,85.6687 408.3281,85.6687 Q409.2344,85.6687 409.7344,85.2625 Q410.2344,84.8406 410.2344,84.1062 Q410.2344,83.5437 409.8906,83.1375 Q409.5625,82.7156 408.9375,82.4656 L407.7344,82.0125 Z " fill="#000000"/><text fill="#000000" font-family="sans-serif" font-size="14" lengthAdjust="spacing" textLength="89" x="428.75" y="86.2967">dressFactory</text><line style="stroke:#181818;stroke-width:0.5;" x1="277.5" x2="636.5" y1="97.45" y2="97.45"/><rect fill="none" height="6" style="stroke:#C82930;stroke-width:1.0;" width="6" x="284.5" y="108.0984"/><text fill="#000000" font-family="sans-serif" font-size="14" lengthAdjust="spacing" textLength="68" x="296.5" y="114.4451">dressMap</text><text fill="#0000FF" font-family="sans-serif" font-size="14" lengthAdjust="spacing" textLength="30" x="368.5" y="114.4451">map</text><text fill="#000000" font-family="sans-serif" font-size="14" lengthAdjust="spacing" textLength="88" x="398.5" y="114.4451">[string]dress</text><line style="stroke:#181818;stroke-width:0.5;" x1="277.5" x2="636.5" y1="121.7469" y2="121.7469"/><rect fill="#F24D5C" height="6" style="stroke:#C82930;stroke-width:1.0;" width="6" x="284.5" y="132.3953"/><text fill="#000000" font-family="sans-serif" font-size="14" lengthAdjust="spacing" textLength="335" x="296.5" y="138.742">getDressByType(dressType string) (dress, error)</text></g><!--class player--><g id="elem_player"><rect codeLine="18" fill="#F1F1F1" height="129.4844" id="player" rx="2.5" ry="2.5" style="stroke:#181818;stroke-width:0.5;" width="219" x="22.5" y="41"/><ellipse cx="107.25" cy="57" fill="#7FFFD4" rx="11" ry="11" style="stroke:#181818;stroke-width:1.0;"/><path d="M106.7344,57.5625 Q104.875,56.8594 104.2188,56.0938 Q103.5781,55.3125 103.5781,54 Q103.5781,52.3125 104.6563,51.3438 Q105.7344,50.375 107.6094,50.375 Q108.4688,50.375 109.3125,50.5781 Q110.1719,50.7656 111.0156,51.1563 L111.0156,53.5469 Q110.2344,52.9844 109.4063,52.7031 Q108.5938,52.4063 107.7969,52.4063 Q106.9219,52.4063 106.4375,52.7656 Q105.9688,53.125 105.9688,53.7813 Q105.9688,54.2969 106.3125,54.6406 Q106.6563,54.9688 107.75,55.375 L108.8125,55.7813 Q110.2969,56.3281 111,57.2344 Q111.7188,58.1406 111.7188,59.5156 Q111.7188,61.3906 110.6094,62.3125 Q109.5,63.2344 107.25,63.2344 Q106.3281,63.2344 105.4063,63.0156 Q104.4844,62.7969 103.625,62.375 L103.625,59.8438 Q104.5938,60.5313 105.5156,60.875 Q106.4375,61.2188 107.3281,61.2188 Q108.2344,61.2188 108.7344,60.8125 Q109.2344,60.3906 109.2344,59.6563 Q109.2344,59.0938 108.8906,58.6875 Q108.5625,58.2656 107.9375,58.0156 L106.7344,57.5625 Z " fill="#000000"/><text fill="#000000" font-family="sans-serif" font-size="14" lengthAdjust="spacing" textLength="41" x="127.75" y="61.8467">player</text><line style="stroke:#181818;stroke-width:0.5;" x1="23.5" x2="240.5" y1="73" y2="73"/><rect fill="none" height="6" style="stroke:#C82930;stroke-width:1.0;" width="6" x="30.5" y="83.6484"/><text fill="#000000" font-family="sans-serif" font-size="14" lengthAdjust="spacing" textLength="82" x="42.5" y="89.9951">dress dress</text><rect fill="none" height="6" style="stroke:#C82930;stroke-width:1.0;" width="6" x="30.5" y="99.9453"/><text fill="#000000" font-family="sans-serif" font-size="14" lengthAdjust="spacing" textLength="118" x="42.5" y="106.292">playerType string</text><rect fill="none" height="6" style="stroke:#C82930;stroke-width:1.0;" width="6" x="30.5" y="116.2422"/><text fill="#000000" font-family="sans-serif" font-size="14" lengthAdjust="spacing" textLength="37" x="42.5" y="122.5889">lat int</text><rect fill="none" height="6" style="stroke:#C82930;stroke-width:1.0;" width="6" x="30.5" y="132.5391"/><text fill="#000000" font-family="sans-serif" font-size="14" lengthAdjust="spacing" textLength="51" x="42.5" y="138.8857">long int</text><line style="stroke:#181818;stroke-width:0.5;" x1="23.5" x2="240.5" y1="146.1875" y2="146.1875"/><rect fill="#F24D5C" height="6" style="stroke:#C82930;stroke-width:1.0;" width="6" x="30.5" y="156.8359"/><text fill="#000000" font-family="sans-serif" font-size="14" lengthAdjust="spacing" textLength="193" x="42.5" y="163.1826">newLocation(lat int, long int)</text></g><!--class terroristDress--><g id="elem_terroristDress"><rect codeLine="27" fill="#F1F1F1" height="80.5938" id="terroristDress" rx="2.5" ry="2.5" style="stroke:#181818;stroke-width:0.5;" width="138" x="673" y="230.49"/><ellipse cx="692.95" cy="246.49" fill="#7FFFD4" rx="11" ry="11" style="stroke:#181818;stroke-width:1.0;"/><path d="M692.4344,247.0525 Q690.575,246.3494 689.9188,245.5837 Q689.2781,244.8025 689.2781,243.49 Q689.2781,241.8025 690.3563,240.8337 Q691.4344,239.865 693.3094,239.865 Q694.1688,239.865 695.0125,240.0681 Q695.8719,240.2556 696.7156,240.6462 L696.7156,243.0369 Q695.9344,242.4744 695.1063,242.1931 Q694.2938,241.8962 693.4969,241.8962 Q692.6219,241.8962 692.1375,242.2556 Q691.6688,242.615 691.6688,243.2712 Q691.6688,243.7869 692.0125,244.1306 Q692.3563,244.4587 693.45,244.865 L694.5125,245.2712 Q695.9969,245.8181 696.7,246.7244 Q697.4188,247.6306 697.4188,249.0056 Q697.4188,250.8806 696.3094,251.8025 Q695.2,252.7244 692.95,252.7244 Q692.0281,252.7244 691.1063,252.5056 Q690.1844,252.2869 689.325,251.865 L689.325,249.3337 Q690.2938,250.0212 691.2156,250.365 Q692.1375,250.7087 693.0281,250.7087 Q693.9344,250.7087 694.4344,250.3025 Q694.9344,249.8806 694.9344,249.1462 Q694.9344,248.5837 694.5906,248.1775 Q694.2625,247.7556 693.6375,247.5056 L692.4344,247.0525 Z " fill="#000000"/><text fill="#000000" font-family="sans-serif" font-size="14" lengthAdjust="spacing" textLength="95" x="708.05" y="251.3367">terroristDress</text><line style="stroke:#181818;stroke-width:0.5;" x1="674" x2="810" y1="262.49" y2="262.49"/><rect fill="none" height="6" style="stroke:#C82930;stroke-width:1.0;" width="6" x="681" y="273.1384"/><text fill="#000000" font-family="sans-serif" font-size="14" lengthAdjust="spacing" textLength="77" x="693" y="279.4851">color string</text><line style="stroke:#181818;stroke-width:0.5;" x1="674" x2="810" y1="286.7869" y2="286.7869"/><rect fill="#F24D5C" height="6" style="stroke:#C82930;stroke-width:1.0;" width="6" x="681" y="297.4353"/><text fill="#000000" font-family="sans-serif" font-size="14" lengthAdjust="spacing" textLength="112" x="693" y="303.782">getColor() string</text></g><!--reverse link dress to counterTerroristDress--><g id="link_dress_counterTerroristDress"><path codeLine="35" d="M688.14,151.54 C658.59,176.13 622.27,206.34 593.74,230.07 " fill="none" id="dress-backto-counterTerroristDress" style="stroke:#181818;stroke-width:1.0;"/><polygon fill="none" points="683.36,145.59,703.21,138.18,692.31,156.35,683.36,145.59" style="stroke:#181818;stroke-width:1.0;"/></g><!--reverse link dress to terroristDress--><g id="link_dress_terroristDress"><path codeLine="36" d="M742,158.9 C742,181.97 742,208.66 742,230.07 " fill="none" id="dress-backto-terroristDress" style="stroke:#181818;stroke-width:1.0;"/><polygon fill="none" points="735,159.18,742,139.18,749,159.18,735,159.18" style="stroke:#181818;stroke-width:1.0;"/></g><!--SRC=[jLBDJiGW4BxtAIOzbQJL5y0cwiQJdjoRyJ3YR4D20O76DBhlRe76iBl-NUGm8TyFyp4PZIDvYu9WHAdXhOBb28NUWp2J3kIsv9nnqeUDemNb79hxzl9bmX6TrCIWxrTRFDrYKyQ13mivL0K-KBYELCCEo7sgCdRQnHZFgSl1YpywSzRaka4HZ9j_ZvZKTsY1xumEEV75avge7z7oymZs3xdLOz8U_IDDuchUpfQQnCVRcer1Xbf8SsEdMQt2cTmVK-PQeDbTD2muXI5EiaIC7X9KO9fURut088rkLaVxAMHm6ZZyzmRigwgEwtUMFbi3V-ywoCYNIrX_Amz7kWy0]--></g></svg>