<?xml version="1.0" encoding="us-ascii" standalone="no"?><svg xmlns="http://www.w3.org/2000/svg" xmlns:xlink="http://www.w3.org/1999/xlink" contentStyleType="text/css" height="523px" preserveAspectRatio="none" style="width:1000px;height:523px;background:#FFFFFF;" version="1.1" viewBox="0 0 1000 523" width="1000px" zoomAndPan="magnify"><defs/><g><!--cluster main--><g id="cluster_main"><path d="M8.5,6 L46.5,6 A3.75,3.75 0 0 1 49,8.5 L56,28.2969 L990.5,28.2969 A2.5,2.5 0 0 1 993,30.7969 L993,514.06 A2.5,2.5 0 0 1 990.5,516.56 L8.5,516.56 A2.5,2.5 0 0 1 6,514.06 L6,8.5 A2.5,2.5 0 0 1 8.5,6 " fill="none" style="stroke:#000000;stroke-width:1.5;"/><line style="stroke:#000000;stroke-width:1.5;" x1="6" x2="56" y1="28.2969" y2="28.2969"/><text fill="#000000" font-family="sans-serif" font-size="14" font-weight="bold" lengthAdjust="spacing" textLength="37" x="10" y="20.9951">main</text></g><!--class account--><g id="elem_account"><rect codeLine="2" fill="#F1F1F1" height="80.5938" id="account" rx="2.5" ry="2.5" style="stroke:#181818;stroke-width:0.5;" width="364" x="22" y="41"/><ellipse cx="171.75" cy="57" fill="#7FFFD4" rx="11" ry="11" style="stroke:#181818;stroke-width:1.0;"/><path d="M171.2344,57.5625 Q169.375,56.8594 168.7188,56.0937 Q168.0781,55.3125 168.0781,54 Q168.0781,52.3125 169.1563,51.3437 Q170.2344,50.375 172.1094,50.375 Q172.9688,50.375 173.8125,50.5781 Q174.6719,50.7656 175.5156,51.1562 L175.5156,53.5469 Q174.7344,52.9844 173.9063,52.7031 Q173.0938,52.4062 172.2969,52.4062 Q171.4219,52.4062 170.9375,52.7656 Q170.4688,53.125 170.4688,53.7812 Q170.4688,54.2969 170.8125,54.6406 Q171.1563,54.9687 172.25,55.375 L173.3125,55.7812 Q174.7969,56.3281 175.5,57.2344 Q176.2188,58.1406 176.2188,59.5156 Q176.2188,61.3906 175.1094,62.3125 Q174,63.2344 171.75,63.2344 Q170.8281,63.2344 169.9063,63.0156 Q168.9844,62.7969 168.125,62.375 L168.125,59.8437 Q169.0938,60.5312 170.0156,60.875 Q170.9375,61.2187 171.8281,61.2187 Q172.7344,61.2187 173.2344,60.8125 Q173.7344,60.3906 173.7344,59.6562 Q173.7344,59.0937 173.3906,58.6875 Q173.0625,58.2656 172.4375,58.0156 L171.2344,57.5625 Z " fill="#000000"/><text fill="#000000" font-family="sans-serif" font-size="14" lengthAdjust="spacing" textLength="56" x="192.25" y="61.8467">account</text><line style="stroke:#181818;stroke-width:0.5;" x1="23" x2="385" y1="73" y2="73"/><rect fill="none" height="6" style="stroke:#C82930;stroke-width:1.0;" width="6" x="30" y="83.6484"/><text fill="#000000" font-family="sans-serif" font-size="14" lengthAdjust="spacing" textLength="82" x="42" y="89.9951">name string</text><line style="stroke:#181818;stroke-width:0.5;" x1="23" x2="385" y1="97.2969" y2="97.2969"/><rect fill="#F24D5C" height="6" style="stroke:#C82930;stroke-width:1.0;" width="6" x="30" y="107.9453"/><text fill="#000000" font-family="sans-serif" font-size="14" lengthAdjust="spacing" textLength="338" x="42" y="114.292">checkAccount(accountName string) *facadeError</text></g><!--class facadeError--><g id="elem_facadeError"><rect codeLine="8" fill="#F1F1F1" height="80.5938" id="facadeError" rx="2.5" ry="2.5" style="stroke:#181818;stroke-width:0.5;" width="111" x="421.5" y="41"/><ellipse cx="436.5" cy="57" fill="#7FFFD4" rx="11" ry="11" style="stroke:#181818;stroke-width:1.0;"/><path d="M435.9844,57.5625 Q434.125,56.8594 433.4688,56.0937 Q432.8281,55.3125 432.8281,54 Q432.8281,52.3125 433.9063,51.3437 Q434.9844,50.375 436.8594,50.375 Q437.7188,50.375 438.5625,50.5781 Q439.4219,50.7656 440.2656,51.1562 L440.2656,53.5469 Q439.4844,52.9844 438.6563,52.7031 Q437.8438,52.4062 437.0469,52.4062 Q436.1719,52.4062 435.6875,52.7656 Q435.2188,53.125 435.2188,53.7812 Q435.2188,54.2969 435.5625,54.6406 Q435.9063,54.9687 437,55.375 L438.0625,55.7812 Q439.5469,56.3281 440.25,57.2344 Q440.9688,58.1406 440.9688,59.5156 Q440.9688,61.3906 439.8594,62.3125 Q438.75,63.2344 436.5,63.2344 Q435.5781,63.2344 434.6563,63.0156 Q433.7344,62.7969 432.875,62.375 L432.875,59.8437 Q433.8438,60.5312 434.7656,60.875 Q435.6875,61.2187 436.5781,61.2187 Q437.4844,61.2187 437.9844,60.8125 Q438.4844,60.3906 438.4844,59.6562 Q438.4844,59.0937 438.1406,58.6875 Q437.8125,58.2656 437.1875,58.0156 L435.9844,57.5625 Z " fill="#000000"/><text fill="#000000" font-family="sans-serif" font-size="14" lengthAdjust="spacing" textLength="79" x="450.5" y="61.8467">facadeError</text><line style="stroke:#181818;stroke-width:0.5;" x1="422.5" x2="531.5" y1="73" y2="73"/><rect fill="none" height="6" style="stroke:#C82930;stroke-width:1.0;" width="6" x="429.5" y="83.6484"/><text fill="#000000" font-family="sans-serif" font-size="14" lengthAdjust="spacing" textLength="56" x="441.5" y="89.9951">err error</text><line style="stroke:#181818;stroke-width:0.5;" x1="422.5" x2="531.5" y1="97.2969" y2="97.2969"/><ellipse cx="432.5" cy="110.9453" fill="#84BE84" rx="3" ry="3" style="stroke:#038048;stroke-width:1.0;"/><text fill="#000000" font-family="sans-serif" font-size="14" lengthAdjust="spacing" textLength="62" x="441.5" y="114.292">Unwrap()</text></g><!--class ledger--><g id="elem_ledger"><rect codeLine="14" fill="#F1F1F1" height="64.2969" id="ledger" rx="2.5" ry="2.5" style="stroke:#181818;stroke-width:0.5;" width="410" x="567" y="49.15"/><ellipse cx="745.75" cy="65.15" fill="#7FFFD4" rx="11" ry="11" style="stroke:#181818;stroke-width:1.0;"/><path d="M745.2344,65.7125 Q743.375,65.0094 742.7188,64.2437 Q742.0781,63.4625 742.0781,62.15 Q742.0781,60.4625 743.1563,59.4937 Q744.2344,58.525 746.1094,58.525 Q746.9688,58.525 747.8125,58.7281 Q748.6719,58.9156 749.5156,59.3062 L749.5156,61.6969 Q748.7344,61.1344 747.9063,60.8531 Q747.0938,60.5562 746.2969,60.5562 Q745.4219,60.5562 744.9375,60.9156 Q744.4688,61.275 744.4688,61.9312 Q744.4688,62.4469 744.8125,62.7906 Q745.1563,63.1187 746.25,63.525 L747.3125,63.9312 Q748.7969,64.4781 749.5,65.3844 Q750.2188,66.2906 750.2188,67.6656 Q750.2188,69.5406 749.1094,70.4625 Q748,71.3844 745.75,71.3844 Q744.8281,71.3844 743.9063,71.1656 Q742.9844,70.9469 742.125,70.525 L742.125,67.9937 Q743.0938,68.6812 744.0156,69.025 Q744.9375,69.3687 745.8281,69.3687 Q746.7344,69.3687 747.2344,68.9625 Q747.7344,68.5406 747.7344,67.8062 Q747.7344,67.2437 747.3906,66.8375 Q747.0625,66.4156 746.4375,66.1656 L745.2344,65.7125 Z " fill="#000000"/><text fill="#000000" font-family="sans-serif" font-size="14" lengthAdjust="spacing" textLength="44" x="766.25" y="69.9967">ledger</text><line style="stroke:#181818;stroke-width:0.5;" x1="568" x2="976" y1="81.15" y2="81.15"/><line style="stroke:#181818;stroke-width:0.5;" x1="568" x2="976" y1="89.15" y2="89.15"/><rect fill="#F24D5C" height="6" style="stroke:#C82930;stroke-width:1.0;" width="6" x="575" y="99.7984"/><text fill="#000000" font-family="sans-serif" font-size="14" lengthAdjust="spacing" textLength="384" x="587" y="106.1451">makeEntry(accountID string, txnType string, amount int)</text></g><!--class notification--><g id="elem_notification"><rect codeLine="18" fill="#F1F1F1" height="80.5938" id="notification" rx="2.5" ry="2.5" style="stroke:#181818;stroke-width:0.5;" width="229" x="61.5" y="189.74"/><ellipse cx="134.25" cy="205.74" fill="#7FFFD4" rx="11" ry="11" style="stroke:#181818;stroke-width:1.0;"/><path d="M133.7344,206.3025 Q131.875,205.5994 131.2188,204.8337 Q130.5781,204.0525 130.5781,202.74 Q130.5781,201.0525 131.6563,200.0837 Q132.7344,199.115 134.6094,199.115 Q135.4688,199.115 136.3125,199.3181 Q137.1719,199.5056 138.0156,199.8962 L138.0156,202.2869 Q137.2344,201.7244 136.4063,201.4431 Q135.5938,201.1462 134.7969,201.1462 Q133.9219,201.1462 133.4375,201.5056 Q132.9688,201.865 132.9688,202.5212 Q132.9688,203.0369 133.3125,203.3806 Q133.6563,203.7087 134.75,204.115 L135.8125,204.5212 Q137.2969,205.0681 138,205.9744 Q138.7188,206.8806 138.7188,208.2556 Q138.7188,210.1306 137.6094,211.0525 Q136.5,211.9744 134.25,211.9744 Q133.3281,211.9744 132.4063,211.7556 Q131.4844,211.5369 130.625,211.115 L130.625,208.5837 Q131.5938,209.2712 132.5156,209.615 Q133.4375,209.9587 134.3281,209.9587 Q135.2344,209.9587 135.7344,209.5525 Q136.2344,209.1306 136.2344,208.3962 Q136.2344,207.8337 135.8906,207.4275 Q135.5625,207.0056 134.9375,206.7556 L133.7344,206.3025 Z " fill="#000000"/><text fill="#000000" font-family="sans-serif" font-size="14" lengthAdjust="spacing" textLength="75" x="154.75" y="210.5867">notification</text><line style="stroke:#181818;stroke-width:0.5;" x1="62.5" x2="289.5" y1="221.74" y2="221.74"/><line style="stroke:#181818;stroke-width:0.5;" x1="62.5" x2="289.5" y1="229.74" y2="229.74"/><rect fill="#F24D5C" height="6" style="stroke:#C82930;stroke-width:1.0;" width="6" x="69.5" y="240.3884"/><text fill="#000000" font-family="sans-serif" font-size="14" lengthAdjust="spacing" textLength="203" x="81.5" y="246.7351">sendWalletCreditNotification()</text><rect fill="#F24D5C" height="6" style="stroke:#C82930;stroke-width:1.0;" width="6" x="69.5" y="256.6853"/><text fill="#000000" font-family="sans-serif" font-size="14" lengthAdjust="spacing" textLength="199" x="81.5" y="263.032">sendWalletDebitNotification()</text></g><!--class securityCode--><g id="elem_securityCode"><rect codeLine="23" fill="#F1F1F1" height="80.5938" id="securityCode" rx="2.5" ry="2.5" style="stroke:#181818;stroke-width:0.5;" width="326" x="326" y="189.74"/><ellipse cx="439.25" cy="205.74" fill="#7FFFD4" rx="11" ry="11" style="stroke:#181818;stroke-width:1.0;"/><path d="M438.7344,206.3025 Q436.875,205.5994 436.2188,204.8337 Q435.5781,204.0525 435.5781,202.74 Q435.5781,201.0525 436.6563,200.0837 Q437.7344,199.115 439.6094,199.115 Q440.4688,199.115 441.3125,199.3181 Q442.1719,199.5056 443.0156,199.8962 L443.0156,202.2869 Q442.2344,201.7244 441.4063,201.4431 Q440.5938,201.1462 439.7969,201.1462 Q438.9219,201.1462 438.4375,201.5056 Q437.9688,201.865 437.9688,202.5212 Q437.9688,203.0369 438.3125,203.3806 Q438.6563,203.7087 439.75,204.115 L440.8125,204.5212 Q442.2969,205.0681 443,205.9744 Q443.7188,206.8806 443.7188,208.2556 Q443.7188,210.1306 442.6094,211.0525 Q441.5,211.9744 439.25,211.9744 Q438.3281,211.9744 437.4063,211.7556 Q436.4844,211.5369 435.625,211.115 L435.625,208.5837 Q436.5938,209.2712 437.5156,209.615 Q438.4375,209.9587 439.3281,209.9587 Q440.2344,209.9587 440.7344,209.5525 Q441.2344,209.1306 441.2344,208.3962 Q441.2344,207.8337 440.8906,207.4275 Q440.5625,207.0056 439.9375,206.7556 L438.7344,206.3025 Z " fill="#000000"/><text fill="#000000" font-family="sans-serif" font-size="14" lengthAdjust="spacing" textLength="91" x="459.75" y="210.5867">securityCode</text><line style="stroke:#181818;stroke-width:0.5;" x1="327" x2="651" y1="221.74" y2="221.74"/><rect fill="none" height="6" style="stroke:#C82930;stroke-width:1.0;" width="6" x="334" y="232.3884"/><text fill="#000000" font-family="sans-serif" font-size="14" lengthAdjust="spacing" textLength="56" x="346" y="238.7351">code int</text><line style="stroke:#181818;stroke-width:0.5;" x1="327" x2="651" y1="246.0369" y2="246.0369"/><rect fill="#F24D5C" height="6" style="stroke:#C82930;stroke-width:1.0;" width="6" x="334" y="256.6853"/><text fill="#000000" font-family="sans-serif" font-size="14" lengthAdjust="spacing" textLength="300" x="346" y="263.032">checkCode(incomingCode int) *facadeError</text></g><!--class wallet--><g id="elem_wallet"><rect codeLine="29" fill="#F1F1F1" height="96.8906" id="wallet" rx="2.5" ry="2.5" style="stroke:#181818;stroke-width:0.5;" width="290" x="687" y="181.59"/><ellipse cx="808.25" cy="197.59" fill="#7FFFD4" rx="11" ry="11" style="stroke:#181818;stroke-width:1.0;"/><path d="M807.7344,198.1525 Q805.875,197.4494 805.2188,196.6837 Q804.5781,195.9025 804.5781,194.59 Q804.5781,192.9025 805.6563,191.9337 Q806.7344,190.965 808.6094,190.965 Q809.4688,190.965 810.3125,191.1681 Q811.1719,191.3556 812.0156,191.7462 L812.0156,194.1369 Q811.2344,193.5744 810.4063,193.2931 Q809.5938,192.9962 808.7969,192.9962 Q807.9219,192.9962 807.4375,193.3556 Q806.9688,193.715 806.9688,194.3712 Q806.9688,194.8869 807.3125,195.2306 Q807.6563,195.5587 808.75,195.965 L809.8125,196.3712 Q811.2969,196.9181 812,197.8244 Q812.7188,198.7306 812.7188,200.1056 Q812.7188,201.9806 811.6094,202.9025 Q810.5,203.8244 808.25,203.8244 Q807.3281,203.8244 806.4063,203.6056 Q805.4844,203.3869 804.625,202.965 L804.625,200.4337 Q805.5938,201.1212 806.5156,201.465 Q807.4375,201.8087 808.3281,201.8087 Q809.2344,201.8087 809.7344,201.4025 Q810.2344,200.9806 810.2344,200.2462 Q810.2344,199.6837 809.8906,199.2775 Q809.5625,198.8556 808.9375,198.6056 L807.7344,198.1525 Z " fill="#000000"/><text fill="#000000" font-family="sans-serif" font-size="14" lengthAdjust="spacing" textLength="39" x="828.75" y="202.4367">wallet</text><line style="stroke:#181818;stroke-width:0.5;" x1="688" x2="976" y1="213.59" y2="213.59"/><rect fill="none" height="6" style="stroke:#C82930;stroke-width:1.0;" width="6" x="695" y="224.2384"/><text fill="#000000" font-family="sans-serif" font-size="14" lengthAdjust="spacing" textLength="75" x="707" y="230.5851">balance int</text><line style="stroke:#181818;stroke-width:0.5;" x1="688" x2="976" y1="237.8869" y2="237.8869"/><rect fill="#F24D5C" height="6" style="stroke:#C82930;stroke-width:1.0;" width="6" x="695" y="248.5353"/><text fill="#000000" font-family="sans-serif" font-size="14" lengthAdjust="spacing" textLength="178" x="707" y="254.882">creditBalance(amount int)</text><rect fill="#F24D5C" height="6" style="stroke:#C82930;stroke-width:1.0;" width="6" x="695" y="264.8322"/><text fill="#000000" font-family="sans-serif" font-size="14" lengthAdjust="spacing" textLength="264" x="707" y="271.1789">debitBalance(amount int) *facadeError</text></g><!--class walletFacade--><g id="elem_walletFacade"><rect codeLine="36" fill="#F1F1F1" height="162.0781" id="walletFacade" rx="2.5" ry="2.5" style="stroke:#181818;stroke-width:0.5;" width="612" x="22" y="338.48"/><ellipse cx="279.25" cy="354.48" fill="#7FFFD4" rx="11" ry="11" style="stroke:#181818;stroke-width:1.0;"/><path d="M278.7344,355.0425 Q276.875,354.3394 276.2188,353.5737 Q275.5781,352.7925 275.5781,351.48 Q275.5781,349.7925 276.6563,348.8237 Q277.7344,347.855 279.6094,347.855 Q280.4688,347.855 281.3125,348.0581 Q282.1719,348.2456 283.0156,348.6362 L283.0156,351.0269 Q282.2344,350.4644 281.4063,350.1831 Q280.5938,349.8862 279.7969,349.8862 Q278.9219,349.8862 278.4375,350.2456 Q277.9688,350.605 277.9688,351.2612 Q277.9688,351.7769 278.3125,352.1206 Q278.6563,352.4487 279.75,352.855 L280.8125,353.2612 Q282.2969,353.8081 283,354.7144 Q283.7188,355.6206 283.7188,356.9956 Q283.7188,358.8706 282.6094,359.7925 Q281.5,360.7144 279.25,360.7144 Q278.3281,360.7144 277.4063,360.4956 Q276.4844,360.2769 275.625,359.855 L275.625,357.3237 Q276.5938,358.0112 277.5156,358.355 Q278.4375,358.6987 279.3281,358.6987 Q280.2344,358.6987 280.7344,358.2925 Q281.2344,357.8706 281.2344,357.1362 Q281.2344,356.5737 280.8906,356.1675 Q280.5625,355.7456 279.9375,355.4956 L278.7344,355.0425 Z " fill="#000000"/><text fill="#000000" font-family="sans-serif" font-size="14" lengthAdjust="spacing" textLength="89" x="299.75" y="359.3267">walletFacade</text><line style="stroke:#181818;stroke-width:0.5;" x1="23" x2="633" y1="370.48" y2="370.48"/><rect fill="none" height="6" style="stroke:#C82930;stroke-width:1.0;" width="6" x="30" y="381.1284"/><text fill="#000000" font-family="sans-serif" font-size="14" lengthAdjust="spacing" textLength="89" x="42" y="387.4751">wallet *wallet</text><rect fill="none" height="6" style="stroke:#C82930;stroke-width:1.0;" width="6" x="30" y="397.4253"/><text fill="#000000" font-family="sans-serif" font-size="14" lengthAdjust="spacing" textLength="123" x="42" y="403.772">account *account</text><rect fill="none" height="6" style="stroke:#C82930;stroke-width:1.0;" width="6" x="30" y="413.7222"/><text fill="#000000" font-family="sans-serif" font-size="14" lengthAdjust="spacing" textLength="193" x="42" y="420.0689">securityCode *securityCode</text><rect fill="none" height="6" style="stroke:#C82930;stroke-width:1.0;" width="6" x="30" y="430.0191"/><text fill="#000000" font-family="sans-serif" font-size="14" lengthAdjust="spacing" textLength="161" x="42" y="436.3657">notification *notification</text><rect fill="none" height="6" style="stroke:#C82930;stroke-width:1.0;" width="6" x="30" y="446.3159"/><text fill="#000000" font-family="sans-serif" font-size="14" lengthAdjust="spacing" textLength="99" x="42" y="452.6626">ledger *ledger</text><line style="stroke:#181818;stroke-width:0.5;" x1="23" x2="633" y1="459.9644" y2="459.9644"/><rect fill="#F24D5C" height="6" style="stroke:#C82930;stroke-width:1.0;" width="6" x="30" y="470.6128"/><text fill="#000000" font-family="sans-serif" font-size="14" lengthAdjust="spacing" textLength="546" x="42" y="476.9595">addMoneyToWallet(accountID string, securityCode int, amount int) *facadeError</text><rect fill="#F24D5C" height="6" style="stroke:#C82930;stroke-width:1.0;" width="6" x="30" y="486.9097"/><text fill="#000000" font-family="sans-serif" font-size="14" lengthAdjust="spacing" textLength="586" x="42" y="493.2564">deductMoneyFromWallet(accountID string, securityCode int, amount int) *facadeError</text></g><!--SRC=[hLDDRuCm3BtpAtoahFi7LQMk7z8EwsMTTdOJjujAd2u4TMZgVn-1T0i2YHuM2K7mo_FpiyEegJYZ8D2e6BuJg9V8iIW0XJ0bEvZD87sTBZvBr6WLqmJcym3qwn6uve32rR5Z4lqM7oHEYvOa3MJRF-W4iWCAbBIsrjZsu3LA7mN79P2r_hdn-FK0RtonU4udq2VFIHxf3bwD9rgpizMjWETLa3y5zyMxwao_UzIDNOhTK4OsJXsKGASCZ-SjYEKxvZcvfIMft3OwxGiQGgvetmVsT1GaIgjSjJIIndK8ZwehwlNL7qyL2wFhsfS1DTRIIwDpFEiUSsJHJznOyTG6quxTVo3fNHZ2t2Djqq361OP2ilOT1Mvt9WiVdKP5ncVnBhvAyPHayIu2XU7DsdVi44hvOfYgdMb7Oc1gEp9gOxfpsp4fDbMMmZNK6slqVv273boJv0S0]--></g></svg>