<?xml version="1.0" encoding="us-ascii" standalone="no"?><svg xmlns="http://www.w3.org/2000/svg" xmlns:xlink="http://www.w3.org/1999/xlink" contentStyleType="text/css" height="382px" preserveAspectRatio="none" style="width:663px;height:382px;background:#FFFFFF;" version="1.1" viewBox="0 0 663 382" width="663px" zoomAndPan="magnify"><defs/><g><!--cluster main--><g id="cluster_main"><path d="M8.5,6 L46.5,6 A3.75,3.75 0 0 1 49,8.5 L56,28.2969 L653.5,28.2969 A2.5,2.5 0 0 1 656,30.7969 L656,373.47 A2.5,2.5 0 0 1 653.5,375.97 L8.5,375.97 A2.5,2.5 0 0 1 6,373.47 L6,8.5 A2.5,2.5 0 0 1 8.5,6 " fill="none" style="stroke:#000000;stroke-width:1.5;"/><line style="stroke:#000000;stroke-width:1.5;" x1="6" x2="56" y1="28.2969" y2="28.2969"/><text fill="#000000" font-family="sans-serif" font-size="14" font-weight="bold" lengthAdjust="spacing" textLength="37" x="10" y="20.9951">main</text></g><!--class email--><g id="elem_email"><rect codeLine="2" fill="#F1F1F1" height="129.4844" id="email" rx="2.5" ry="2.5" style="stroke:#181818;stroke-width:0.5;" width="291" x="22.5" y="230.49"/><ellipse cx="145.75" cy="246.49" fill="#7FFFD4" rx="11" ry="11" style="stroke:#181818;stroke-width:1.0;"/><path d="M145.2344,247.0525 Q143.375,246.3494 142.7188,245.5838 Q142.0781,244.8025 142.0781,243.49 Q142.0781,241.8025 143.1563,240.8338 Q144.2344,239.865 146.1094,239.865 Q146.9688,239.865 147.8125,240.0681 Q148.6719,240.2556 149.5156,240.6463 L149.5156,243.0369 Q148.7344,242.4744 147.9063,242.1931 Q147.0938,241.8963 146.2969,241.8963 Q145.4219,241.8963 144.9375,242.2556 Q144.4688,242.615 144.4688,243.2713 Q144.4688,243.7869 144.8125,244.1306 Q145.1563,244.4588 146.25,244.865 L147.3125,245.2713 Q148.7969,245.8181 149.5,246.7244 Q150.2188,247.6306 150.2188,249.0056 Q150.2188,250.8806 149.1094,251.8025 Q148,252.7244 145.75,252.7244 Q144.8281,252.7244 143.9063,252.5056 Q142.9844,252.2869 142.125,251.865 L142.125,249.3338 Q143.0938,250.0213 144.0156,250.365 Q144.9375,250.7088 145.8281,250.7088 Q146.7344,250.7088 147.2344,250.3025 Q147.7344,249.8806 147.7344,249.1463 Q147.7344,248.5838 147.3906,248.1775 Q147.0625,247.7556 146.4375,247.5056 L145.2344,247.0525 Z " fill="#000000"/><text fill="#000000" font-family="sans-serif" font-size="14" lengthAdjust="spacing" textLength="36" x="166.25" y="251.3367">email</text><line style="stroke:#181818;stroke-width:0.5;" x1="23.5" x2="312.5" y1="262.49" y2="262.49"/><line style="stroke:#181818;stroke-width:0.5;" x1="23.5" x2="312.5" y1="270.49" y2="270.49"/><rect fill="#F24D5C" height="6" style="stroke:#C82930;stroke-width:1.0;" width="6" x="30.5" y="281.1384"/><text fill="#000000" font-family="sans-serif" font-size="14" lengthAdjust="spacing" textLength="209" x="42.5" y="287.4851">genRandomOTP(len int) string</text><rect fill="#F24D5C" height="6" style="stroke:#C82930;stroke-width:1.0;" width="6" x="30.5" y="297.4353"/><text fill="#000000" font-family="sans-serif" font-size="14" lengthAdjust="spacing" textLength="181" x="42.5" y="303.782">saveOTPCache(otp string)</text><rect fill="#F24D5C" height="6" style="stroke:#C82930;stroke-width:1.0;" width="6" x="30.5" y="313.7322"/><text fill="#000000" font-family="sans-serif" font-size="14" lengthAdjust="spacing" textLength="205" x="42.5" y="320.0789">getMessage(otp string) string</text><rect fill="#F24D5C" height="6" style="stroke:#C82930;stroke-width:1.0;" width="6" x="30.5" y="330.0291"/><text fill="#000000" font-family="sans-serif" font-size="14" lengthAdjust="spacing" textLength="265" x="42.5" y="336.3757">sendNotification(message string) error</text><rect fill="#F24D5C" height="6" style="stroke:#C82930;stroke-width:1.0;" width="6" x="30.5" y="346.3259"/><text fill="#000000" font-family="sans-serif" font-size="14" lengthAdjust="spacing" textLength="102" x="42.5" y="352.6726">publishMetric()</text></g><!--class iOTP--><g id="elem_iOTP"><rect codeLine="10" fill="#F1F1F1" height="129.4844" id="iOTP" rx="2.5" ry="2.5" style="stroke:#181818;stroke-width:0.5;" width="227" x="371.5" y="41"/><ellipse cx="465.25" cy="57" fill="#B4A7E5" rx="11" ry="11" style="stroke:#181818;stroke-width:1.0;"/><path d="M461.1719,52.7656 L461.1719,50.6094 L468.5625,50.6094 L468.5625,52.7656 L466.0938,52.7656 L466.0938,60.8438 L468.5625,60.8438 L468.5625,63 L461.1719,63 L461.1719,60.8438 L463.6406,60.8438 L463.6406,52.7656 L461.1719,52.7656 Z " fill="#000000"/><text fill="#000000" font-family="sans-serif" font-size="14" font-style="italic" lengthAdjust="spacing" textLength="31" x="485.75" y="61.8467">iOTP</text><line style="stroke:#181818;stroke-width:0.5;" x1="372.5" x2="597.5" y1="73" y2="73"/><line style="stroke:#181818;stroke-width:0.5;" x1="372.5" x2="597.5" y1="81" y2="81"/><rect fill="#F24D5C" height="6" style="stroke:#C82930;stroke-width:1.0;" width="6" x="379.5" y="91.6484"/><text fill="#000000" font-family="sans-serif" font-size="14" lengthAdjust="spacing" textLength="188" x="391.5" y="97.9951">genRandomOTP( int) string</text><rect fill="#F24D5C" height="6" style="stroke:#C82930;stroke-width:1.0;" width="6" x="379.5" y="107.9453"/><text fill="#000000" font-family="sans-serif" font-size="14" lengthAdjust="spacing" textLength="158" x="391.5" y="114.292">saveOTPCache( string)</text><rect fill="#F24D5C" height="6" style="stroke:#C82930;stroke-width:1.0;" width="6" x="379.5" y="124.2422"/><text fill="#000000" font-family="sans-serif" font-size="14" lengthAdjust="spacing" textLength="182" x="391.5" y="130.5889">getMessage( string) string</text><rect fill="#F24D5C" height="6" style="stroke:#C82930;stroke-width:1.0;" width="6" x="379.5" y="140.5391"/><text fill="#000000" font-family="sans-serif" font-size="14" lengthAdjust="spacing" textLength="201" x="391.5" y="146.8857">sendNotification( string) error</text><rect fill="#F24D5C" height="6" style="stroke:#C82930;stroke-width:1.0;" width="6" x="379.5" y="156.8359"/><text fill="#000000" font-family="sans-serif" font-size="14" lengthAdjust="spacing" textLength="102" x="391.5" y="163.1826">publishMetric()</text></g><!--class otp--><g id="elem_otp"><rect codeLine="18" fill="#F1F1F1" height="80.5938" id="otp" rx="2.5" ry="2.5" style="stroke:#181818;stroke-width:0.5;" width="284" x="35" y="65.45"/><ellipse cx="161.25" cy="81.45" fill="#7FFFD4" rx="11" ry="11" style="stroke:#181818;stroke-width:1.0;"/><path d="M160.7344,82.0125 Q158.875,81.3094 158.2188,80.5438 Q157.5781,79.7625 157.5781,78.45 Q157.5781,76.7625 158.6563,75.7938 Q159.7344,74.825 161.6094,74.825 Q162.4688,74.825 163.3125,75.0281 Q164.1719,75.2156 165.0156,75.6063 L165.0156,77.9969 Q164.2344,77.4344 163.4063,77.1531 Q162.5938,76.8563 161.7969,76.8563 Q160.9219,76.8563 160.4375,77.2156 Q159.9688,77.575 159.9688,78.2313 Q159.9688,78.7469 160.3125,79.0906 Q160.6563,79.4188 161.75,79.825 L162.8125,80.2313 Q164.2969,80.7781 165,81.6844 Q165.7188,82.5906 165.7188,83.9656 Q165.7188,85.8406 164.6094,86.7625 Q163.5,87.6844 161.25,87.6844 Q160.3281,87.6844 159.4063,87.4656 Q158.4844,87.2469 157.625,86.825 L157.625,84.2938 Q158.5938,84.9813 159.5156,85.325 Q160.4375,85.6688 161.3281,85.6688 Q162.2344,85.6688 162.7344,85.2625 Q163.2344,84.8406 163.2344,84.1063 Q163.2344,83.5438 162.8906,83.1375 Q162.5625,82.7156 161.9375,82.4656 L160.7344,82.0125 Z " fill="#000000"/><text fill="#000000" font-family="sans-serif" font-size="14" lengthAdjust="spacing" textLength="23" x="181.75" y="86.2967">otp</text><line style="stroke:#181818;stroke-width:0.5;" x1="36" x2="318" y1="97.45" y2="97.45"/><rect fill="none" height="6" style="stroke:#C82930;stroke-width:1.0;" width="6" x="43" y="108.0984"/><text fill="#000000" font-family="sans-serif" font-size="14" lengthAdjust="spacing" textLength="68" x="55" y="114.4451">iOTP iOTP</text><line style="stroke:#181818;stroke-width:0.5;" x1="36" x2="318" y1="121.7469" y2="121.7469"/><rect fill="#F24D5C" height="6" style="stroke:#C82930;stroke-width:1.0;" width="6" x="43" y="132.3953"/><text fill="#000000" font-family="sans-serif" font-size="14" lengthAdjust="spacing" textLength="258" x="55" y="138.742">genAndSendOTP(otpLength int) error</text></g><!--class sms--><g id="elem_sms"><rect codeLine="24" fill="#F1F1F1" height="129.4844" id="sms" rx="2.5" ry="2.5" style="stroke:#181818;stroke-width:0.5;" width="291" x="348.5" y="230.49"/><ellipse cx="475.25" cy="246.49" fill="#7FFFD4" rx="11" ry="11" style="stroke:#181818;stroke-width:1.0;"/><path d="M474.7344,247.0525 Q472.875,246.3494 472.2188,245.5838 Q471.5781,244.8025 471.5781,243.49 Q471.5781,241.8025 472.6563,240.8338 Q473.7344,239.865 475.6094,239.865 Q476.4688,239.865 477.3125,240.0681 Q478.1719,240.2556 479.0156,240.6463 L479.0156,243.0369 Q478.2344,242.4744 477.4063,242.1931 Q476.5938,241.8963 475.7969,241.8963 Q474.9219,241.8963 474.4375,242.2556 Q473.9688,242.615 473.9688,243.2713 Q473.9688,243.7869 474.3125,244.1306 Q474.6563,244.4588 475.75,244.865 L476.8125,245.2713 Q478.2969,245.8181 479,246.7244 Q479.7188,247.6306 479.7188,249.0056 Q479.7188,250.8806 478.6094,251.8025 Q477.5,252.7244 475.25,252.7244 Q474.3281,252.7244 473.4063,252.5056 Q472.4844,252.2869 471.625,251.865 L471.625,249.3338 Q472.5938,250.0213 473.5156,250.365 Q474.4375,250.7088 475.3281,250.7088 Q476.2344,250.7088 476.7344,250.3025 Q477.2344,249.8806 477.2344,249.1463 Q477.2344,248.5838 476.8906,248.1775 Q476.5625,247.7556 475.9375,247.5056 L474.7344,247.0525 Z " fill="#000000"/><text fill="#000000" font-family="sans-serif" font-size="14" lengthAdjust="spacing" textLength="29" x="495.75" y="251.3367">sms</text><line style="stroke:#181818;stroke-width:0.5;" x1="349.5" x2="638.5" y1="262.49" y2="262.49"/><line style="stroke:#181818;stroke-width:0.5;" x1="349.5" x2="638.5" y1="270.49" y2="270.49"/><rect fill="#F24D5C" height="6" style="stroke:#C82930;stroke-width:1.0;" width="6" x="356.5" y="281.1384"/><text fill="#000000" font-family="sans-serif" font-size="14" lengthAdjust="spacing" textLength="209" x="368.5" y="287.4851">genRandomOTP(len int) string</text><rect fill="#F24D5C" height="6" style="stroke:#C82930;stroke-width:1.0;" width="6" x="356.5" y="297.4353"/><text fill="#000000" font-family="sans-serif" font-size="14" lengthAdjust="spacing" textLength="181" x="368.5" y="303.782">saveOTPCache(otp string)</text><rect fill="#F24D5C" height="6" style="stroke:#C82930;stroke-width:1.0;" width="6" x="356.5" y="313.7322"/><text fill="#000000" font-family="sans-serif" font-size="14" lengthAdjust="spacing" textLength="205" x="368.5" y="320.0789">getMessage(otp string) string</text><rect fill="#F24D5C" height="6" style="stroke:#C82930;stroke-width:1.0;" width="6" x="356.5" y="330.0291"/><text fill="#000000" font-family="sans-serif" font-size="14" lengthAdjust="spacing" textLength="265" x="368.5" y="336.3757">sendNotification(message string) error</text><rect fill="#F24D5C" height="6" style="stroke:#C82930;stroke-width:1.0;" width="6" x="356.5" y="346.3259"/><text fill="#000000" font-family="sans-serif" font-size="14" lengthAdjust="spacing" textLength="102" x="368.5" y="352.6726">publishMetric()</text></g><!--reverse link otp to email--><g id="link_otp_email"><path codeLine="33" d="M174.43,160.24 C173.39,182.04 172.17,207.41 171.07,230.18 " fill="none" id="otp-backto-email" style="stroke:#181818;stroke-width:1.0;"/><polygon fill="#181818" points="175.09,147.5,170.8046,153.2996,174.5098,159.486,178.7952,153.6864,175.09,147.5" style="stroke:#181818;stroke-width:1.0;"/></g><!--reverse link otp to sms--><g id="link_otp_sms"><path codeLine="34" d="M256.06,153.5 C295.15,176.62 342.94,204.88 385.4,230 " fill="none" id="otp-backto-sms" style="stroke:#181818;stroke-width:1.0;"/><polygon fill="#181818" points="245.23,146.5,248.3587,152.997,255.5593,152.6079,252.4306,146.1108,245.23,146.5" style="stroke:#181818;stroke-width:1.0;"/></g><!--reverse link iOTP to email--><g id="link_iOTP_email"><path codeLine="36" d="M359.07,181.22 C331.76,197.37 303.1,214.33 276.53,230.04 " fill="none" id="iOTP-backto-email" style="stroke:#181818;stroke-width:1.0;"/><polygon fill="none" points="355.02,174.9,375.79,170.74,362.14,186.95,355.02,174.9" style="stroke:#181818;stroke-width:1.0;"/></g><!--reverse link iOTP to sms--><g id="link_iOTP_sms"><path codeLine="37" d="M489.07,191.52 C489.69,204.52 490.33,217.75 490.93,230.2 " fill="none" id="iOTP-backto-sms" style="stroke:#181818;stroke-width:1.0;"/><polygon fill="none" points="482.04,192.05,488.07,171.74,496.02,191.38,482.04,192.05" style="stroke:#181818;stroke-width:1.0;"/></g><!--SRC=[tLF1JiCm3BttAwoUKaJt1TMaYIi3jF439lNQI8rRcemBxDznaWgjwj208pbOIjvxjf-JC5fo0se2YuRXFGDPkaFdWEIaWwe2jR_Tl1xHucYO2bYl9rfO9JJ4E-Iwju_FJweZ1iE-0EU5t9pH7BwHCEvGjwHwFqoC0cQf_9QSmsREMEOYhXzwRmv6epSzAvjKNmeQntuy4mp7bywuTak2QoKr8tQAKTgbyH0cOAG_-DxRJunTSVKBIt_oaYukpExgjKMp8MHplnkkzz9BC2nvxeaRtoRdgP55DMVT_tuafomFVsCbrNAuAKj8s_WzyikOp2JF9YZCE8Vgux9mWKRf9m00]--></g></svg>