<?xml version="1.0" encoding="us-ascii" standalone="no"?><svg xmlns="http://www.w3.org/2000/svg" xmlns:xlink="http://www.w3.org/1999/xlink" contentStyleType="text/css" height="382px" preserveAspectRatio="none" style="width:462px;height:382px;background:#FFFFFF;" version="1.1" viewBox="0 0 462 382" width="462px" zoomAndPan="magnify"><defs/><g><!--cluster main--><g id="cluster_main"><path d="M8.5,6 L46.5,6 A3.75,3.75 0 0 1 49,8.5 L56,28.2969 L452.5,28.2969 A2.5,2.5 0 0 1 455,30.7969 L455,373.47 A2.5,2.5 0 0 1 452.5,375.97 L8.5,375.97 A2.5,2.5 0 0 1 6,373.47 L6,8.5 A2.5,2.5 0 0 1 8.5,6 " fill="none" style="stroke:#000000;stroke-width:1.5;"/><line style="stroke:#000000;stroke-width:1.5;" x1="6" x2="56" y1="28.2969" y2="28.2969"/><text fill="#000000" font-family="sans-serif" font-size="14" font-weight="bold" lengthAdjust="spacing" textLength="37" x="10" y="20.9951">main</text></g><!--class customer--><g id="elem_customer"><rect codeLine="2" fill="#F1F1F1" height="96.8906" id="customer" rx="2.5" ry="2.5" style="stroke:#181818;stroke-width:0.5;" width="198" x="241" y="230.49"/><ellipse cx="302.75" cy="246.49" fill="#7FFFD4" rx="11" ry="11" style="stroke:#181818;stroke-width:1.0;"/><path d="M302.2344,247.0525 Q300.375,246.3494 299.7188,245.5838 Q299.0781,244.8025 299.0781,243.49 Q299.0781,241.8025 300.1563,240.8338 Q301.2344,239.865 303.1094,239.865 Q303.9688,239.865 304.8125,240.0681 Q305.6719,240.2556 306.5156,240.6463 L306.5156,243.0369 Q305.7344,242.4744 304.9063,242.1931 Q304.0938,241.8963 303.2969,241.8963 Q302.4219,241.8963 301.9375,242.2556 Q301.4688,242.615 301.4688,243.2713 Q301.4688,243.7869 301.8125,244.1306 Q302.1563,244.4588 303.25,244.865 L304.3125,245.2713 Q305.7969,245.8181 306.5,246.7244 Q307.2188,247.6306 307.2188,249.0056 Q307.2188,250.8806 306.1094,251.8025 Q305,252.7244 302.75,252.7244 Q301.8281,252.7244 300.9063,252.5056 Q299.9844,252.2869 299.125,251.865 L299.125,249.3338 Q300.0938,250.0213 301.0156,250.365 Q301.9375,250.7088 302.8281,250.7088 Q303.7344,250.7088 304.2344,250.3025 Q304.7344,249.8806 304.7344,249.1463 Q304.7344,248.5838 304.3906,248.1775 Q304.0625,247.7556 303.4375,247.5056 L302.2344,247.0525 Z " fill="#000000"/><text fill="#000000" font-family="sans-serif" font-size="14" lengthAdjust="spacing" textLength="66" x="323.25" y="251.3367">customer</text><line style="stroke:#181818;stroke-width:0.5;" x1="242" x2="438" y1="262.49" y2="262.49"/><rect fill="none" height="6" style="stroke:#C82930;stroke-width:1.0;" width="6" x="249" y="273.1384"/><text fill="#000000" font-family="sans-serif" font-size="14" lengthAdjust="spacing" textLength="55" x="261" y="279.4851">id string</text><line style="stroke:#181818;stroke-width:0.5;" x1="242" x2="438" y1="286.7869" y2="286.7869"/><rect fill="#F24D5C" height="6" style="stroke:#C82930;stroke-width:1.0;" width="6" x="249" y="297.4353"/><text fill="#000000" font-family="sans-serif" font-size="14" lengthAdjust="spacing" textLength="172" x="261" y="303.782">update(itemName string)</text><rect fill="#F24D5C" height="6" style="stroke:#C82930;stroke-width:1.0;" width="6" x="249" y="313.7322"/><text fill="#000000" font-family="sans-serif" font-size="14" lengthAdjust="spacing" textLength="90" x="261" y="320.0789">getID() string</text></g><!--class item--><g id="elem_item"><rect codeLine="9" fill="#F1F1F1" height="162.0781" id="item" rx="2.5" ry="2.5" style="stroke:#181818;stroke-width:0.5;" width="185" x="21.5" y="197.89"/><ellipse cx="94.75" cy="213.89" fill="#7FFFD4" rx="11" ry="11" style="stroke:#181818;stroke-width:1.0;"/><path d="M94.2344,214.4525 Q92.375,213.7494 91.7188,212.9838 Q91.0781,212.2025 91.0781,210.89 Q91.0781,209.2025 92.1563,208.2338 Q93.2344,207.265 95.1094,207.265 Q95.9688,207.265 96.8125,207.4681 Q97.6719,207.6556 98.5156,208.0463 L98.5156,210.4369 Q97.7344,209.8744 96.9063,209.5931 Q96.0938,209.2963 95.2969,209.2963 Q94.4219,209.2963 93.9375,209.6556 Q93.4688,210.015 93.4688,210.6713 Q93.4688,211.1869 93.8125,211.5306 Q94.1563,211.8588 95.25,212.265 L96.3125,212.6713 Q97.7969,213.2181 98.5,214.1244 Q99.2188,215.0306 99.2188,216.4056 Q99.2188,218.2806 98.1094,219.2025 Q97,220.1244 94.75,220.1244 Q93.8281,220.1244 92.9063,219.9056 Q91.9844,219.6869 91.125,219.265 L91.125,216.7338 Q92.0938,217.4213 93.0156,217.765 Q93.9375,218.1088 94.8281,218.1088 Q95.7344,218.1088 96.2344,217.7025 Q96.7344,217.2806 96.7344,216.5463 Q96.7344,215.9838 96.3906,215.5775 Q96.0625,215.1556 95.4375,214.9056 L94.2344,214.4525 Z " fill="#000000"/><text fill="#000000" font-family="sans-serif" font-size="14" lengthAdjust="spacing" textLength="30" x="115.25" y="218.7367">item</text><line style="stroke:#181818;stroke-width:0.5;" x1="22.5" x2="205.5" y1="229.89" y2="229.89"/><rect fill="none" height="6" style="stroke:#C82930;stroke-width:1.0;" width="6" x="29.5" y="240.5384"/><text fill="#000000" font-family="sans-serif" font-size="14" lengthAdjust="spacing" textLength="159" x="41.5" y="246.8851">observerList []observer</text><rect fill="none" height="6" style="stroke:#C82930;stroke-width:1.0;" width="6" x="29.5" y="256.8353"/><text fill="#000000" font-family="sans-serif" font-size="14" lengthAdjust="spacing" textLength="82" x="41.5" y="263.182">name string</text><rect fill="none" height="6" style="stroke:#C82930;stroke-width:1.0;" width="6" x="29.5" y="273.1322"/><text fill="#000000" font-family="sans-serif" font-size="14" lengthAdjust="spacing" textLength="85" x="41.5" y="279.4789">inStock bool</text><line style="stroke:#181818;stroke-width:0.5;" x1="22.5" x2="205.5" y1="286.7806" y2="286.7806"/><rect fill="#F24D5C" height="6" style="stroke:#C82930;stroke-width:1.0;" width="6" x="29.5" y="297.4291"/><text fill="#000000" font-family="sans-serif" font-size="14" lengthAdjust="spacing" textLength="127" x="41.5" y="303.7757">updateAvailability()</text><rect fill="#F24D5C" height="6" style="stroke:#C82930;stroke-width:1.0;" width="6" x="29.5" y="313.7259"/><text fill="#000000" font-family="sans-serif" font-size="14" lengthAdjust="spacing" textLength="137" x="41.5" y="320.0726">register(o observer)</text><rect fill="#F24D5C" height="6" style="stroke:#C82930;stroke-width:1.0;" width="6" x="29.5" y="330.0228"/><text fill="#000000" font-family="sans-serif" font-size="14" lengthAdjust="spacing" textLength="155" x="41.5" y="336.3695">deregister(o observer)</text><rect fill="#F24D5C" height="6" style="stroke:#C82930;stroke-width:1.0;" width="6" x="29.5" y="346.3197"/><text fill="#000000" font-family="sans-serif" font-size="14" lengthAdjust="spacing" textLength="62" x="41.5" y="352.6664">notifyAll()</text></g><!--class observer--><g id="elem_observer"><rect codeLine="20" fill="#F1F1F1" height="80.5938" id="observer" rx="2.5" ry="2.5" style="stroke:#181818;stroke-width:0.5;" width="128" x="293" y="49.15"/><ellipse cx="323.75" cy="65.15" fill="#B4A7E5" rx="11" ry="11" style="stroke:#181818;stroke-width:1.0;"/><path d="M319.6719,60.9156 L319.6719,58.7594 L327.0625,58.7594 L327.0625,60.9156 L324.5938,60.9156 L324.5938,68.9938 L327.0625,68.9938 L327.0625,71.15 L319.6719,71.15 L319.6719,68.9938 L322.1406,68.9938 L322.1406,60.9156 L319.6719,60.9156 Z " fill="#000000"/><text fill="#000000" font-family="sans-serif" font-size="14" font-style="italic" lengthAdjust="spacing" textLength="61" x="341.25" y="69.9967">observer</text><line style="stroke:#181818;stroke-width:0.5;" x1="294" x2="420" y1="81.15" y2="81.15"/><line style="stroke:#181818;stroke-width:0.5;" x1="294" x2="420" y1="89.15" y2="89.15"/><rect fill="#F24D5C" height="6" style="stroke:#C82930;stroke-width:1.0;" width="6" x="301" y="99.7984"/><text fill="#000000" font-family="sans-serif" font-size="14" lengthAdjust="spacing" textLength="102" x="313" y="106.1451">update( string)</text><rect fill="#F24D5C" height="6" style="stroke:#C82930;stroke-width:1.0;" width="6" x="301" y="116.0953"/><text fill="#000000" font-family="sans-serif" font-size="14" lengthAdjust="spacing" textLength="90" x="313" y="122.442">getID() string</text></g><!--class subject--><g id="elem_subject"><rect codeLine="25" fill="#F1F1F1" height="96.8906" id="subject" rx="2.5" ry="2.5" style="stroke:#181818;stroke-width:0.5;" width="235" x="22.5" y="41"/><ellipse cx="110.75" cy="57" fill="#B4A7E5" rx="11" ry="11" style="stroke:#181818;stroke-width:1.0;"/><path d="M106.6719,52.7656 L106.6719,50.6094 L114.0625,50.6094 L114.0625,52.7656 L111.5938,52.7656 L111.5938,60.8438 L114.0625,60.8438 L114.0625,63 L106.6719,63 L106.6719,60.8438 L109.1406,60.8438 L109.1406,52.7656 L106.6719,52.7656 Z " fill="#000000"/><text fill="#000000" font-family="sans-serif" font-size="14" font-style="italic" lengthAdjust="spacing" textLength="50" x="131.25" y="61.8467">subject</text><line style="stroke:#181818;stroke-width:0.5;" x1="23.5" x2="256.5" y1="73" y2="73"/><line style="stroke:#181818;stroke-width:0.5;" x1="23.5" x2="256.5" y1="81" y2="81"/><rect fill="#F24D5C" height="6" style="stroke:#C82930;stroke-width:1.0;" width="6" x="30.5" y="91.6484"/><text fill="#000000" font-family="sans-serif" font-size="14" lengthAdjust="spacing" textLength="191" x="42.5" y="97.9951">register(Observer observer)</text><rect fill="#F24D5C" height="6" style="stroke:#C82930;stroke-width:1.0;" width="6" x="30.5" y="107.9453"/><text fill="#000000" font-family="sans-serif" font-size="14" lengthAdjust="spacing" textLength="209" x="42.5" y="114.292">deregister(Observer observer)</text><rect fill="#F24D5C" height="6" style="stroke:#C82930;stroke-width:1.0;" width="6" x="30.5" y="124.2422"/><text fill="#000000" font-family="sans-serif" font-size="14" lengthAdjust="spacing" textLength="62" x="42.5" y="130.5889">notifyAll()</text></g><!--reverse link observer to customer--><g id="link_observer_customer"><path codeLine="33" d="M351.5,151.1 C349.17,176.75 346.5,206.2 344.32,230.26 " fill="none" id="observer-backto-customer" style="stroke:#181818;stroke-width:1.0;"/><polygon fill="none" points="344.62,150.49,353.39,131.21,358.56,151.76,344.62,150.49" style="stroke:#181818;stroke-width:1.0;"/></g><!--reverse link subject to item--><g id="link_subject_item"><path codeLine="34" d="M130.54,158.64 C128.79,171.25 126.95,184.52 125.16,197.45 " fill="none" id="subject-backto-item" style="stroke:#181818;stroke-width:1.0;"/><polygon fill="none" points="123.69,158.09,133.37,139.24,137.56,160.01,123.69,158.09" style="stroke:#181818;stroke-width:1.0;"/></g><!--SRC=[bL9DQyCm3BtxLuYS75Zs2q8XiCjWR8SUHm-EemPl_kXifr2w_lVPp6vjDXQccwNtz9vaQQRG7HX7K4neE1C8mILp3lZYl55eeU-1Rk-6ZuKfPeN65ZQRX8pHWPZ0-L2PIP5S3XFpI8L7zHn44gA50ZAZVtoWRKM-50uYTrtTZ0xj4UsJS1vUT_bP8FHDltIjjzxmTnYDaJ-D3qSc91k55Fv4AzSMvw24bfghT5MVS0sXZHVxqo1bR5nCBNGWxUDdP1fKawQL_c-LjwPk6T-G-xhdrUjBbbmRwc_WRxDT26dYUTrdHWFzPzV1TpBVMPD0oMQ5YPVGa2y0]--></g></svg>