<?xml version="1.0" encoding="us-ascii" standalone="no"?><svg xmlns="http://www.w3.org/2000/svg" xmlns:xlink="http://www.w3.org/1999/xlink" contentStyleType="text/css" height="350px" preserveAspectRatio="none" style="width:585px;height:350px;background:#FFFFFF;" version="1.1" viewBox="0 0 585 350" width="585px" zoomAndPan="magnify"><defs/><g><!--cluster main--><g id="cluster_main"><path d="M8.5,6 L46.5,6 A3.75,3.75 0 0 1 49,8.5 L56,28.2969 L575.5,28.2969 A2.5,2.5 0 0 1 578,30.7969 L578,340.87 A2.5,2.5 0 0 1 575.5,343.37 L8.5,343.37 A2.5,2.5 0 0 1 6,340.87 L6,8.5 A2.5,2.5 0 0 1 8.5,6 " fill="none" style="stroke:#000000;stroke-width:1.5;"/><line style="stroke:#000000;stroke-width:1.5;" x1="6" x2="56" y1="28.2969" y2="28.2969"/><text fill="#000000" font-family="sans-serif" font-size="14" font-weight="bold" lengthAdjust="spacing" textLength="37" x="10" y="20.9951">main</text></g><!--class goodsTrain--><g id="elem_goodsTrain"><rect codeLine="2" fill="#F1F1F1" height="113.1875" id="goodsTrain" rx="2.5" ry="2.5" style="stroke:#181818;stroke-width:0.5;" width="152" x="22" y="206.03"/><ellipse cx="55.9" cy="222.03" fill="#7FFFD4" rx="11" ry="11" style="stroke:#181818;stroke-width:1.0;"/><path d="M55.3844,222.5925 Q53.525,221.8894 52.8688,221.1238 Q52.2281,220.3425 52.2281,219.03 Q52.2281,217.3425 53.3063,216.3738 Q54.3844,215.405 56.2594,215.405 Q57.1188,215.405 57.9625,215.6081 Q58.8219,215.7956 59.6656,216.1863 L59.6656,218.5769 Q58.8844,218.0144 58.0563,217.7331 Q57.2438,217.4363 56.4469,217.4363 Q55.5719,217.4363 55.0875,217.7956 Q54.6188,218.155 54.6188,218.8113 Q54.6188,219.3269 54.9625,219.6706 Q55.3063,219.9988 56.4,220.405 L57.4625,220.8113 Q58.9469,221.3581 59.65,222.2644 Q60.3688,223.1706 60.3688,224.5456 Q60.3688,226.4206 59.2594,227.3425 Q58.15,228.2644 55.9,228.2644 Q54.9781,228.2644 54.0563,228.0456 Q53.1344,227.8269 52.275,227.405 L52.275,224.8738 Q53.2438,225.5613 54.1656,225.905 Q55.0875,226.2488 55.9781,226.2488 Q56.8844,226.2488 57.3844,225.8425 Q57.8844,225.4206 57.8844,224.6863 Q57.8844,224.1238 57.5406,223.7175 Q57.2125,223.2956 56.5875,223.0456 L55.3844,222.5925 Z " fill="#000000"/><text fill="#000000" font-family="sans-serif" font-size="14" lengthAdjust="spacing" textLength="78" x="74.1" y="226.8767">goodsTrain</text><line style="stroke:#181818;stroke-width:0.5;" x1="23" x2="173" y1="238.03" y2="238.03"/><rect fill="none" height="6" style="stroke:#C82930;stroke-width:1.0;" width="6" x="30" y="248.6784"/><text fill="#000000" font-family="sans-serif" font-size="14" lengthAdjust="spacing" textLength="126" x="42" y="255.0251">mediator mediator</text><line style="stroke:#181818;stroke-width:0.5;" x1="23" x2="173" y1="262.3269" y2="262.3269"/><rect fill="#F24D5C" height="6" style="stroke:#C82930;stroke-width:1.0;" width="6" x="30" y="272.9753"/><text fill="#000000" font-family="sans-serif" font-size="14" lengthAdjust="spacing" textLength="104" x="42" y="279.322">requestArrival()</text><rect fill="#F24D5C" height="6" style="stroke:#C82930;stroke-width:1.0;" width="6" x="30" y="289.2722"/><text fill="#000000" font-family="sans-serif" font-size="14" lengthAdjust="spacing" textLength="78" x="42" y="295.6189">departure()</text><rect fill="#F24D5C" height="6" style="stroke:#C82930;stroke-width:1.0;" width="6" x="30" y="305.5691"/><text fill="#000000" font-family="sans-serif" font-size="14" lengthAdjust="spacing" textLength="94" x="42" y="311.9157">permitArrival()</text></g><!--class mediator--><g id="elem_mediator"><rect codeLine="10" fill="#F1F1F1" height="80.5938" id="mediator" rx="2.5" ry="2.5" style="stroke:#181818;stroke-width:0.5;" width="162" x="398" y="49.14"/><ellipse cx="444.25" cy="65.14" fill="#B4A7E5" rx="11" ry="11" style="stroke:#181818;stroke-width:1.0;"/><path d="M440.1719,60.9056 L440.1719,58.7494 L447.5625,58.7494 L447.5625,60.9056 L445.0938,60.9056 L445.0938,68.9837 L447.5625,68.9837 L447.5625,71.14 L440.1719,71.14 L440.1719,68.9837 L442.6406,68.9837 L442.6406,60.9056 L440.1719,60.9056 Z " fill="#000000"/><text fill="#000000" font-family="sans-serif" font-size="14" font-style="italic" lengthAdjust="spacing" textLength="61" x="464.75" y="69.9867">mediator</text><line style="stroke:#181818;stroke-width:0.5;" x1="399" x2="559" y1="81.14" y2="81.14"/><line style="stroke:#181818;stroke-width:0.5;" x1="399" x2="559" y1="89.14" y2="89.14"/><rect fill="#F24D5C" height="6" style="stroke:#C82930;stroke-width:1.0;" width="6" x="406" y="99.7884"/><text fill="#000000" font-family="sans-serif" font-size="14" lengthAdjust="spacing" textLength="136" x="418" y="106.1351">canLand( train) bool</text><rect fill="#F24D5C" height="6" style="stroke:#C82930;stroke-width:1.0;" width="6" x="406" y="116.0853"/><text fill="#000000" font-family="sans-serif" font-size="14" lengthAdjust="spacing" textLength="78" x="418" y="122.432">notifyFree()</text></g><!--class passengerTrain--><g id="elem_passengerTrain"><rect codeLine="15" fill="#F1F1F1" height="113.1875" id="passengerTrain" rx="2.5" ry="2.5" style="stroke:#181818;stroke-width:0.5;" width="152" x="209" y="206.03"/><ellipse cx="229.4" cy="222.03" fill="#7FFFD4" rx="11" ry="11" style="stroke:#181818;stroke-width:1.0;"/><path d="M228.8844,222.5925 Q227.025,221.8894 226.3688,221.1238 Q225.7281,220.3425 225.7281,219.03 Q225.7281,217.3425 226.8063,216.3738 Q227.8844,215.405 229.7594,215.405 Q230.6188,215.405 231.4625,215.6081 Q232.3219,215.7956 233.1656,216.1863 L233.1656,218.5769 Q232.3844,218.0144 231.5563,217.7331 Q230.7438,217.4363 229.9469,217.4363 Q229.0719,217.4363 228.5875,217.7956 Q228.1188,218.155 228.1188,218.8113 Q228.1188,219.3269 228.4625,219.6706 Q228.8063,219.9988 229.9,220.405 L230.9625,220.8113 Q232.4469,221.3581 233.15,222.2644 Q233.8688,223.1706 233.8688,224.5456 Q233.8688,226.4206 232.7594,227.3425 Q231.65,228.2644 229.4,228.2644 Q228.4781,228.2644 227.5563,228.0456 Q226.6344,227.8269 225.775,227.405 L225.775,224.8738 Q226.7438,225.5613 227.6656,225.905 Q228.5875,226.2488 229.4781,226.2488 Q230.3844,226.2488 230.8844,225.8425 Q231.3844,225.4206 231.3844,224.6863 Q231.3844,224.1238 231.0406,223.7175 Q230.7125,223.2956 230.0875,223.0456 L228.8844,222.5925 Z " fill="#000000"/><text fill="#000000" font-family="sans-serif" font-size="14" lengthAdjust="spacing" textLength="108" x="244.6" y="226.8767">passengerTrain</text><line style="stroke:#181818;stroke-width:0.5;" x1="210" x2="360" y1="238.03" y2="238.03"/><rect fill="none" height="6" style="stroke:#C82930;stroke-width:1.0;" width="6" x="217" y="248.6784"/><text fill="#000000" font-family="sans-serif" font-size="14" lengthAdjust="spacing" textLength="126" x="229" y="255.0251">mediator mediator</text><line style="stroke:#181818;stroke-width:0.5;" x1="210" x2="360" y1="262.3269" y2="262.3269"/><rect fill="#F24D5C" height="6" style="stroke:#C82930;stroke-width:1.0;" width="6" x="217" y="272.9753"/><text fill="#000000" font-family="sans-serif" font-size="14" lengthAdjust="spacing" textLength="104" x="229" y="279.322">requestArrival()</text><rect fill="#F24D5C" height="6" style="stroke:#C82930;stroke-width:1.0;" width="6" x="217" y="289.2722"/><text fill="#000000" font-family="sans-serif" font-size="14" lengthAdjust="spacing" textLength="78" x="229" y="295.6189">departure()</text><rect fill="#F24D5C" height="6" style="stroke:#C82930;stroke-width:1.0;" width="6" x="217" y="305.5691"/><text fill="#000000" font-family="sans-serif" font-size="14" lengthAdjust="spacing" textLength="94" x="229" y="311.9157">permitArrival()</text></g><!--class stationManager--><g id="elem_stationManager"><rect codeLine="23" fill="#F1F1F1" height="129.4844" id="stationManager" rx="2.5" ry="2.5" style="stroke:#181818;stroke-width:0.5;" width="167" x="395.5" y="197.89"/><ellipse cx="423.1" cy="213.89" fill="#7FFFD4" rx="11" ry="11" style="stroke:#181818;stroke-width:1.0;"/><path d="M422.5844,214.4525 Q420.725,213.7494 420.0688,212.9838 Q419.4281,212.2025 419.4281,210.89 Q419.4281,209.2025 420.5063,208.2338 Q421.5844,207.265 423.4594,207.265 Q424.3188,207.265 425.1625,207.4681 Q426.0219,207.6556 426.8656,208.0463 L426.8656,210.4369 Q426.0844,209.8744 425.2563,209.5931 Q424.4438,209.2963 423.6469,209.2963 Q422.7719,209.2963 422.2875,209.6556 Q421.8188,210.015 421.8188,210.6713 Q421.8188,211.1869 422.1625,211.5306 Q422.5063,211.8588 423.6,212.265 L424.6625,212.6713 Q426.1469,213.2181 426.85,214.1244 Q427.5688,215.0306 427.5688,216.4056 Q427.5688,218.2806 426.4594,219.2025 Q425.35,220.1244 423.1,220.1244 Q422.1781,220.1244 421.2563,219.9056 Q420.3344,219.6869 419.475,219.265 L419.475,216.7338 Q420.4438,217.4213 421.3656,217.765 Q422.2875,218.1088 423.1781,218.1088 Q424.0844,218.1088 424.5844,217.7025 Q425.0844,217.2806 425.0844,216.5463 Q425.0844,215.9838 424.7406,215.5775 Q424.4125,215.1556 423.7875,214.9056 L422.5844,214.4525 Z " fill="#000000"/><text fill="#000000" font-family="sans-serif" font-size="14" lengthAdjust="spacing" textLength="107" x="439.9" y="218.7367">stationManager</text><line style="stroke:#181818;stroke-width:0.5;" x1="396.5" x2="561.5" y1="229.89" y2="229.89"/><rect fill="none" height="6" style="stroke:#C82930;stroke-width:1.0;" width="6" x="403.5" y="240.5384"/><text fill="#000000" font-family="sans-serif" font-size="14" lengthAdjust="spacing" textLength="132" x="415.5" y="246.8851">isPlatformFree bool</text><rect fill="none" height="6" style="stroke:#C82930;stroke-width:1.0;" width="6" x="403.5" y="256.8353"/><text fill="#000000" font-family="sans-serif" font-size="14" lengthAdjust="spacing" textLength="117" x="415.5" y="263.182">lock *sync.Mutex</text><rect fill="none" height="6" style="stroke:#C82930;stroke-width:1.0;" width="6" x="403.5" y="273.1322"/><text fill="#000000" font-family="sans-serif" font-size="14" lengthAdjust="spacing" textLength="121" x="415.5" y="279.4789">trainQueue []train</text><line style="stroke:#181818;stroke-width:0.5;" x1="396.5" x2="561.5" y1="286.7806" y2="286.7806"/><rect fill="#F24D5C" height="6" style="stroke:#C82930;stroke-width:1.0;" width="6" x="403.5" y="297.4291"/><text fill="#000000" font-family="sans-serif" font-size="14" lengthAdjust="spacing" textLength="141" x="415.5" y="303.7757">canLand(t train) bool</text><rect fill="#F24D5C" height="6" style="stroke:#C82930;stroke-width:1.0;" width="6" x="403.5" y="313.7259"/><text fill="#000000" font-family="sans-serif" font-size="14" lengthAdjust="spacing" textLength="78" x="415.5" y="320.0726">notifyFree()</text></g><!--class train--><g id="elem_train"><rect codeLine="32" fill="#F1F1F1" height="96.8906" id="train" rx="2.5" ry="2.5" style="stroke:#181818;stroke-width:0.5;" width="130" x="126" y="41"/><ellipse cx="171.75" cy="57" fill="#B4A7E5" rx="11" ry="11" style="stroke:#181818;stroke-width:1.0;"/><path d="M167.6719,52.7656 L167.6719,50.6094 L175.0625,50.6094 L175.0625,52.7656 L172.5938,52.7656 L172.5938,60.8438 L175.0625,60.8438 L175.0625,63 L167.6719,63 L167.6719,60.8438 L170.1406,60.8438 L170.1406,52.7656 L167.6719,52.7656 Z " fill="#000000"/><text fill="#000000" font-family="sans-serif" font-size="14" font-style="italic" lengthAdjust="spacing" textLength="30" x="192.25" y="61.8467">train</text><line style="stroke:#181818;stroke-width:0.5;" x1="127" x2="255" y1="73" y2="73"/><line style="stroke:#181818;stroke-width:0.5;" x1="127" x2="255" y1="81" y2="81"/><rect fill="#F24D5C" height="6" style="stroke:#C82930;stroke-width:1.0;" width="6" x="134" y="91.6484"/><text fill="#000000" font-family="sans-serif" font-size="14" lengthAdjust="spacing" textLength="104" x="146" y="97.9951">requestArrival()</text><rect fill="#F24D5C" height="6" style="stroke:#C82930;stroke-width:1.0;" width="6" x="134" y="107.9453"/><text fill="#000000" font-family="sans-serif" font-size="14" lengthAdjust="spacing" textLength="78" x="146" y="114.292">departure()</text><rect fill="#F24D5C" height="6" style="stroke:#C82930;stroke-width:1.0;" width="6" x="134" y="124.2422"/><text fill="#000000" font-family="sans-serif" font-size="14" lengthAdjust="spacing" textLength="94" x="146" y="130.5889">permitArrival()</text></g><!--reverse link train to goodsTrain--><g id="link_train_goodsTrain"><path codeLine="40" d="M155.07,156.57 C146.25,172.8 136.9,190.02 128.38,205.72 " fill="none" id="train-backto-goodsTrain" style="stroke:#181818;stroke-width:1.0;"/><polygon fill="none" points="149.4,153.36,165.09,139.13,161.7,160.04,149.4,153.36" style="stroke:#181818;stroke-width:1.0;"/></g><!--reverse link train to passengerTrain--><g id="link_train_passengerTrain"><path codeLine="41" d="M227.17,156.31 C236.12,172.62 245.63,189.93 254.3,205.72 " fill="none" id="train-backto-passengerTrain" style="stroke:#181818;stroke-width:1.0;"/><polygon fill="none" points="220.67,160.03,217.18,139.13,232.95,153.29,220.67,160.03" style="stroke:#181818;stroke-width:1.0;"/></g><!--reverse link mediator to stationManager--><g id="link_mediator_stationManager"><path codeLine="42" d="M479,150.91 C479,166.06 479,182.36 479,197.67 " fill="none" id="mediator-backto-stationManager" style="stroke:#181818;stroke-width:1.0;"/><polygon fill="none" points="472,151.14,479,131.14,486,151.14,472,151.14" style="stroke:#181818;stroke-width:1.0;"/></g><!--SRC=[pLB1JiCm3BtdAwoUMaJt1TMaNJWn2GGtnC6qtXJHE9sJ82ROlzEcb3KJ225nM0vMucV7pyzcDEGwh0aCQeOt1VsfMtGEjjOsxbu6TrL1VdUvsWKqA9gfWENoCtOu9HXgD7ehNnSr0uLsWPnVYUWNRFC2PbX37OeFGgcx8p5wdX6nGxIQFSacKfwg9bngv6la9WS_S2_WoTfs1hFrUhE_4gAJVyUkkzuGRqdEiFEHeVFejUKrClOqVsUetKsBVcF534sVoj7Q-Xakt9xhnJfuUfr1KR_RG87WuJ4-r3So-x_gV9nVJ4o7zu-A7PJAXgLUn38PLEzb2QFdkDhPZp7f8annqvIJq7GYcVe0]--></g></svg>