<?xml version="1.0" encoding="us-ascii" standalone="no"?><svg xmlns="http://www.w3.org/2000/svg" xmlns:xlink="http://www.w3.org/1999/xlink" contentStyleType="text/css" height="425px" preserveAspectRatio="none" style="width:342px;height:425px;background:#FFFFFF;" version="1.1" viewBox="0 0 342 425" width="342px" zoomAndPan="magnify"><defs/><g><!--cluster main--><g id="cluster_main"><path d="M8.5,6 L46.5,6 A3.75,3.75 0 0 1 49,8.5 L56,28.2969 L332.5,28.2969 A2.5,2.5 0 0 1 335,30.7969 L335,416.28 A2.5,2.5 0 0 1 332.5,418.78 L8.5,418.78 A2.5,2.5 0 0 1 6,416.28 L6,8.5 A2.5,2.5 0 0 1 8.5,6 " fill="none" style="stroke:#000000;stroke-width:1.5;"/><line style="stroke:#000000;stroke-width:1.5;" x1="6" x2="56" y1="28.2969" y2="28.2969"/><text fill="#000000" font-family="sans-serif" font-size="14" font-weight="bold" lengthAdjust="spacing" textLength="37" x="10" y="20.9951">main</text></g><!--class GunType--><g id="elem_GunType"><rect codeLine="2" fill="#F1F1F1" height="64.2969" id="GunType" rx="2.5" ry="2.5" style="stroke:#181818;stroke-width:0.5;" width="96" x="211" y="49.15"/><ellipse cx="226" cy="65.15" fill="#B4A7E5" rx="11" ry="11" style="stroke:#181818;stroke-width:1.0;"/><path d="M221.9219,60.9156 L221.9219,58.7594 L229.3125,58.7594 L229.3125,60.9156 L226.8438,60.9156 L226.8438,68.9937 L229.3125,68.9937 L229.3125,71.15 L221.9219,71.15 L221.9219,68.9937 L224.3906,68.9937 L224.3906,60.9156 L221.9219,60.9156 Z " fill="#000000"/><text fill="#000000" font-family="sans-serif" font-size="14" font-style="italic" lengthAdjust="spacing" textLength="64" x="240" y="69.9967">GunType</text><line style="stroke:#181818;stroke-width:0.5;" x1="212" x2="306" y1="81.15" y2="81.15"/><line style="stroke:#181818;stroke-width:0.5;" x1="212" x2="306" y1="89.15" y2="89.15"/><rect fill="#F24D5C" height="6" style="stroke:#C82930;stroke-width:1.0;" width="6" x="219" y="99.7984"/><text fill="#000000" font-family="sans-serif" font-size="14" lengthAdjust="spacing" textLength="50" x="231" y="106.1451">isGun()</text></g><!--class ak47--><g id="elem_ak47"><rect codeLine="6" fill="#F1F1F1" height="48" id="ak47" rx="2.5" ry="2.5" style="stroke:#181818;stroke-width:0.5;" width="66" x="41" y="354.78"/><ellipse cx="56" cy="370.78" fill="#7FFFD4" rx="11" ry="11" style="stroke:#181818;stroke-width:1.0;"/><path d="M55.4844,371.3425 Q53.625,370.6394 52.9688,369.8738 Q52.3281,369.0925 52.3281,367.78 Q52.3281,366.0925 53.4063,365.1238 Q54.4844,364.155 56.3594,364.155 Q57.2188,364.155 58.0625,364.3581 Q58.9219,364.5456 59.7656,364.9363 L59.7656,367.3269 Q58.9844,366.7644 58.1563,366.4831 Q57.3438,366.1863 56.5469,366.1863 Q55.6719,366.1863 55.1875,366.5456 Q54.7188,366.905 54.7188,367.5613 Q54.7188,368.0769 55.0625,368.4206 Q55.4063,368.7488 56.5,369.155 L57.5625,369.5613 Q59.0469,370.1081 59.75,371.0144 Q60.4688,371.9206 60.4688,373.2956 Q60.4688,375.1706 59.3594,376.0925 Q58.25,377.0144 56,377.0144 Q55.0781,377.0144 54.1563,376.7956 Q53.2344,376.5769 52.375,376.155 L52.375,373.6238 Q53.3438,374.3113 54.2656,374.655 Q55.1875,374.9988 56.0781,374.9988 Q56.9844,374.9988 57.4844,374.5925 Q57.9844,374.1706 57.9844,373.4363 Q57.9844,372.8738 57.6406,372.4675 Q57.3125,372.0456 56.6875,371.7956 L55.4844,371.3425 Z " fill="#000000"/><text fill="#000000" font-family="sans-serif" font-size="14" lengthAdjust="spacing" textLength="34" x="70" y="375.6267">ak47</text><line style="stroke:#181818;stroke-width:0.5;" x1="42" x2="106" y1="386.78" y2="386.78"/><line style="stroke:#181818;stroke-width:0.5;" x1="42" x2="106" y1="394.78" y2="394.78"/></g><!--class gun--><g id="elem_gun"><rect codeLine="8" fill="#F1F1F1" height="113.1875" id="gun" rx="2.5" ry="2.5" style="stroke:#181818;stroke-width:0.5;" width="142" x="22" y="181.59"/><ellipse cx="75.25" cy="197.59" fill="#7FFFD4" rx="11" ry="11" style="stroke:#181818;stroke-width:1.0;"/><path d="M74.7344,198.1525 Q72.875,197.4494 72.2188,196.6837 Q71.5781,195.9025 71.5781,194.59 Q71.5781,192.9025 72.6563,191.9337 Q73.7344,190.965 75.6094,190.965 Q76.4688,190.965 77.3125,191.1681 Q78.1719,191.3556 79.0156,191.7462 L79.0156,194.1369 Q78.2344,193.5744 77.4063,193.2931 Q76.5938,192.9962 75.7969,192.9962 Q74.9219,192.9962 74.4375,193.3556 Q73.9688,193.715 73.9688,194.3712 Q73.9688,194.8869 74.3125,195.2306 Q74.6563,195.5587 75.75,195.965 L76.8125,196.3712 Q78.2969,196.9181 79,197.8244 Q79.7188,198.7306 79.7188,200.1056 Q79.7188,201.9806 78.6094,202.9025 Q77.5,203.8244 75.25,203.8244 Q74.3281,203.8244 73.4063,203.6056 Q72.4844,203.3869 71.625,202.965 L71.625,200.4337 Q72.5938,201.1212 73.5156,201.465 Q74.4375,201.8087 75.3281,201.8087 Q76.2344,201.8087 76.7344,201.4025 Q77.2344,200.9806 77.2344,200.2462 Q77.2344,199.6837 76.8906,199.2775 Q76.5625,198.8556 75.9375,198.6056 L74.7344,198.1525 Z " fill="#000000"/><text fill="#000000" font-family="sans-serif" font-size="14" lengthAdjust="spacing" textLength="27" x="95.75" y="202.4367">gun</text><line style="stroke:#181818;stroke-width:0.5;" x1="23" x2="163" y1="213.59" y2="213.59"/><rect fill="none" height="6" style="stroke:#C82930;stroke-width:1.0;" width="6" x="30" y="224.2384"/><text fill="#000000" font-family="sans-serif" font-size="14" lengthAdjust="spacing" textLength="82" x="42" y="230.5851">name string</text><rect fill="none" height="6" style="stroke:#C82930;stroke-width:1.0;" width="6" x="30" y="240.5353"/><text fill="#000000" font-family="sans-serif" font-size="14" lengthAdjust="spacing" textLength="64" x="42" y="246.882">power int</text><line style="stroke:#181818;stroke-width:0.5;" x1="23" x2="163" y1="254.1837" y2="254.1837"/><rect fill="#F24D5C" height="6" style="stroke:#C82930;stroke-width:1.0;" width="6" x="30" y="264.8322"/><text fill="#000000" font-family="sans-serif" font-size="14" lengthAdjust="spacing" textLength="116" x="42" y="271.1789">getName() string</text><rect fill="#F24D5C" height="6" style="stroke:#C82930;stroke-width:1.0;" width="6" x="30" y="281.1291"/><text fill="#000000" font-family="sans-serif" font-size="14" lengthAdjust="spacing" textLength="97" x="42" y="287.4757">getPower() int</text></g><!--class gunType--><g id="elem_gunType"><rect codeLine="16" fill="#F1F1F1" height="113.1875" id="gunType" rx="2.5" ry="2.5" style="stroke:#181818;stroke-width:0.5;" width="119" x="199.5" y="181.59"/><ellipse cx="226.2" cy="197.59" fill="#7FFFD4" rx="11" ry="11" style="stroke:#181818;stroke-width:1.0;"/><path d="M225.6844,198.1525 Q223.825,197.4494 223.1688,196.6837 Q222.5281,195.9025 222.5281,194.59 Q222.5281,192.9025 223.6063,191.9337 Q224.6844,190.965 226.5594,190.965 Q227.4188,190.965 228.2625,191.1681 Q229.1219,191.3556 229.9656,191.7462 L229.9656,194.1369 Q229.1844,193.5744 228.3563,193.2931 Q227.5438,192.9962 226.7469,192.9962 Q225.8719,192.9962 225.3875,193.3556 Q224.9188,193.715 224.9188,194.3712 Q224.9188,194.8869 225.2625,195.2306 Q225.6063,195.5587 226.7,195.965 L227.7625,196.3712 Q229.2469,196.9181 229.95,197.8244 Q230.6688,198.7306 230.6688,200.1056 Q230.6688,201.9806 229.5594,202.9025 Q228.45,203.8244 226.2,203.8244 Q225.2781,203.8244 224.3563,203.6056 Q223.4344,203.3869 222.575,202.965 L222.575,200.4337 Q223.5438,201.1212 224.4656,201.465 Q225.3875,201.8087 226.2781,201.8087 Q227.1844,201.8087 227.6844,201.4025 Q228.1844,200.9806 228.1844,200.2462 Q228.1844,199.6837 227.8406,199.2775 Q227.5125,198.8556 226.8875,198.6056 L225.6844,198.1525 Z " fill="#000000"/><text fill="#000000" font-family="sans-serif" font-size="14" lengthAdjust="spacing" textLength="61" x="242.8" y="202.4367">gunType</text><line style="stroke:#181818;stroke-width:0.5;" x1="200.5" x2="317.5" y1="213.59" y2="213.59"/><rect fill="none" height="6" style="stroke:#C82930;stroke-width:1.0;" width="6" x="207.5" y="224.2384"/><text fill="#000000" font-family="sans-serif" font-size="14" lengthAdjust="spacing" textLength="59" x="219.5" y="230.5851">sz string</text><line style="stroke:#181818;stroke-width:0.5;" x1="200.5" x2="317.5" y1="237.8869" y2="237.8869"/><rect fill="#F24D5C" height="6" style="stroke:#C82930;stroke-width:1.0;" width="6" x="207.5" y="248.5353"/><text fill="#000000" font-family="sans-serif" font-size="14" lengthAdjust="spacing" textLength="50" x="219.5" y="254.882">isGun()</text><text fill="#000000" font-family="sans-serif" font-size="14" lengthAdjust="spacing" textLength="4" x="219.5" y="271.1789">&#160;</text><ellipse cx="210.5" cy="284.1291" fill="#84BE84" rx="3" ry="3" style="stroke:#038048;stroke-width:1.0;"/><text fill="#000000" font-family="sans-serif" font-size="14" lengthAdjust="spacing" textLength="93" x="219.5" y="287.4757">String() string</text></g><!--class iGun--><g id="elem_iGun"><rect codeLine="24" fill="#F1F1F1" height="80.5938" id="iGun" rx="2.5" ry="2.5" style="stroke:#181818;stroke-width:0.5;" width="142" x="22" y="41"/><ellipse cx="72.75" cy="57" fill="#B4A7E5" rx="11" ry="11" style="stroke:#181818;stroke-width:1.0;"/><path d="M68.6719,52.7656 L68.6719,50.6094 L76.0625,50.6094 L76.0625,52.7656 L73.5938,52.7656 L73.5938,60.8438 L76.0625,60.8438 L76.0625,63 L68.6719,63 L68.6719,60.8438 L71.1406,60.8438 L71.1406,52.7656 L68.6719,52.7656 Z " fill="#000000"/><text fill="#000000" font-family="sans-serif" font-size="14" font-style="italic" lengthAdjust="spacing" textLength="32" x="93.25" y="61.8467">iGun</text><line style="stroke:#181818;stroke-width:0.5;" x1="23" x2="163" y1="73" y2="73"/><line style="stroke:#181818;stroke-width:0.5;" x1="23" x2="163" y1="81" y2="81"/><rect fill="#F24D5C" height="6" style="stroke:#C82930;stroke-width:1.0;" width="6" x="30" y="91.6484"/><text fill="#000000" font-family="sans-serif" font-size="14" lengthAdjust="spacing" textLength="116" x="42" y="97.9951">getName() string</text><rect fill="#F24D5C" height="6" style="stroke:#C82930;stroke-width:1.0;" width="6" x="30" y="107.9453"/><text fill="#000000" font-family="sans-serif" font-size="14" lengthAdjust="spacing" textLength="97" x="42" y="114.292">getPower() int</text></g><!--class maverick--><g id="elem_maverick"><rect codeLine="29" fill="#F1F1F1" height="48" id="maverick" rx="2.5" ry="2.5" style="stroke:#181818;stroke-width:0.5;" width="93" x="142.5" y="354.78"/><ellipse cx="157.5" cy="370.78" fill="#7FFFD4" rx="11" ry="11" style="stroke:#181818;stroke-width:1.0;"/><path d="M156.9844,371.3425 Q155.125,370.6394 154.4688,369.8738 Q153.8281,369.0925 153.8281,367.78 Q153.8281,366.0925 154.9063,365.1238 Q155.9844,364.155 157.8594,364.155 Q158.7188,364.155 159.5625,364.3581 Q160.4219,364.5456 161.2656,364.9363 L161.2656,367.3269 Q160.4844,366.7644 159.6563,366.4831 Q158.8438,366.1863 158.0469,366.1863 Q157.1719,366.1863 156.6875,366.5456 Q156.2188,366.905 156.2188,367.5613 Q156.2188,368.0769 156.5625,368.4206 Q156.9063,368.7488 158,369.155 L159.0625,369.5613 Q160.5469,370.1081 161.25,371.0144 Q161.9688,371.9206 161.9688,373.2956 Q161.9688,375.1706 160.8594,376.0925 Q159.75,377.0144 157.5,377.0144 Q156.5781,377.0144 155.6563,376.7956 Q154.7344,376.5769 153.875,376.155 L153.875,373.6238 Q154.8438,374.3113 155.7656,374.655 Q156.6875,374.9988 157.5781,374.9988 Q158.4844,374.9988 158.9844,374.5925 Q159.4844,374.1706 159.4844,373.4363 Q159.4844,372.8738 159.1406,372.4675 Q158.8125,372.0456 158.1875,371.7956 L156.9844,371.3425 Z " fill="#000000"/><text fill="#000000" font-family="sans-serif" font-size="14" lengthAdjust="spacing" textLength="61" x="171.5" y="375.6267">maverick</text><line style="stroke:#181818;stroke-width:0.5;" x1="143.5" x2="234.5" y1="386.78" y2="386.78"/><line style="stroke:#181818;stroke-width:0.5;" x1="143.5" x2="234.5" y1="394.78" y2="394.78"/></g><!--reverse link gun to ak47--><g id="link_gun_ak47"><path codeLine="32" d="M83.44,308.92 C81.18,325.39 78.93,341.83 77.19,354.52 " fill="none" id="gun-backto-ak47" style="stroke:#181818;stroke-width:1.0;"/><polygon fill="#181818" points="85.33,296.16,80.5501,301.5593,83.6957,308.0482,88.4756,302.6489,85.33,296.16" style="stroke:#181818;stroke-width:1.0;"/></g><!--reverse link gun to maverick--><g id="link_gun_maverick"><path codeLine="33" d="M139.59,306.45 C151.57,323.74 163.66,341.2 172.89,354.52 " fill="none" id="gun-backto-maverick" style="stroke:#181818;stroke-width:1.0;"/><polygon fill="#181818" points="131.77,296.16,131.904,303.3699,138.6108,306.0192,138.4768,298.8093,131.77,296.16" style="stroke:#181818;stroke-width:1.0;"/></g><!--reverse link iGun to gun--><g id="link_iGun_gun"><path codeLine="35" d="M93,142.35 C93,155.11 93,168.52 93,181.12 " fill="none" id="iGun-backto-gun" style="stroke:#181818;stroke-width:1.0;"/><polygon fill="none" points="86,142.78,93,122.78,100,142.78,86,142.78" style="stroke:#181818;stroke-width:1.0;"/></g><!--reverse link GunType to gunType--><g id="link_GunType_gunType"><path codeLine="36" d="M259,134.6 C259,149.57 259,165.95 259,181.13 " fill="none" id="GunType-backto-gunType" style="stroke:#181818;stroke-width:1.0;"/><polygon fill="none" points="252,134.64,259,114.64,266,134.64,252,134.64" style="stroke:#181818;stroke-width:1.0;"/></g><!--SRC=[fLB93i8W4Btp5HDETQad4o-DYITlngJ-06cm8GfMQ3Lk_-uCObltWtCWuItmPi08BLqXCWbQA0Cd1bZAbD8k2PnMPd4e90I2AWRb48uwm3nsyMks5iw1M0r7a2GGfVt9jX9QM6La1yRZu6zhyyfyazwkCXWFN8bStaABpLvQIibQO2xB6QenruiUgJbPaAjDJr5ybp_ZkEFzy8_ZeEf1wbLDbjQLpN0L-Xud-qSFMkoaLTdg-_WlZDCx3x1Z3jquXjkMtes_f-xdSXPuIiqXETSACWGkV9TdscFi2W00]--></g></svg>