<?xml version="1.0" encoding="us-ascii" standalone="no"?><svg xmlns="http://www.w3.org/2000/svg" xmlns:xlink="http://www.w3.org/1999/xlink" contentStyleType="text/css" height="382px" preserveAspectRatio="none" style="width:446px;height:382px;background:#FFFFFF;" version="1.1" viewBox="0 0 446 382" width="446px" zoomAndPan="magnify"><defs/><g><!--cluster main--><g id="cluster_main"><path d="M8.5,6 L46.5,6 A3.75,3.75 0 0 1 49,8.5 L56,28.2969 L436.5,28.2969 A2.5,2.5 0 0 1 439,30.7969 L439,373.47 A2.5,2.5 0 0 1 436.5,375.97 L8.5,375.97 A2.5,2.5 0 0 1 6,373.47 L6,8.5 A2.5,2.5 0 0 1 8.5,6 " fill="none" style="stroke:#000000;stroke-width:1.5;"/><line style="stroke:#000000;stroke-width:1.5;" x1="6" x2="56" y1="28.2969" y2="28.2969"/><text fill="#000000" font-family="sans-serif" font-size="14" font-weight="bold" lengthAdjust="spacing" textLength="37" x="10" y="20.9951">main</text></g><!--class connection--><g id="elem_connection"><rect codeLine="2" fill="#F1F1F1" height="80.5938" id="connection" rx="2.5" ry="2.5" style="stroke:#181818;stroke-width:0.5;" width="116" x="307" y="279.38"/><ellipse cx="324.7" cy="295.38" fill="#7FFFD4" rx="11" ry="11" style="stroke:#181818;stroke-width:1.0;"/><path d="M324.1844,295.9425 Q322.325,295.2394 321.6688,294.4738 Q321.0281,293.6925 321.0281,292.38 Q321.0281,290.6925 322.1063,289.7238 Q323.1844,288.755 325.0594,288.755 Q325.9188,288.755 326.7625,288.9581 Q327.6219,289.1456 328.4656,289.5363 L328.4656,291.9269 Q327.6844,291.3644 326.8563,291.0831 Q326.0438,290.7863 325.2469,290.7863 Q324.3719,290.7863 323.8875,291.1456 Q323.4188,291.505 323.4188,292.1613 Q323.4188,292.6769 323.7625,293.0206 Q324.1063,293.3488 325.2,293.755 L326.2625,294.1613 Q327.7469,294.7081 328.45,295.6144 Q329.1688,296.5206 329.1688,297.8956 Q329.1688,299.7706 328.0594,300.6925 Q326.95,301.6144 324.7,301.6144 Q323.7781,301.6144 322.8563,301.3956 Q321.9344,301.1769 321.075,300.755 L321.075,298.2238 Q322.0438,298.9113 322.9656,299.255 Q323.8875,299.5988 324.7781,299.5988 Q325.6844,299.5988 326.1844,299.1925 Q326.6844,298.7706 326.6844,298.0363 Q326.6844,297.4738 326.3406,297.0675 Q326.0125,296.6456 325.3875,296.3956 L324.1844,295.9425 Z " fill="#000000"/><text fill="#000000" font-family="sans-serif" font-size="14" lengthAdjust="spacing" textLength="78" x="339.3" y="300.2267">connection</text><line style="stroke:#181818;stroke-width:0.5;" x1="308" x2="422" y1="311.38" y2="311.38"/><rect fill="none" height="6" style="stroke:#C82930;stroke-width:1.0;" width="6" x="315" y="322.0284"/><text fill="#000000" font-family="sans-serif" font-size="14" lengthAdjust="spacing" textLength="55" x="327" y="328.3751">id string</text><line style="stroke:#181818;stroke-width:0.5;" x1="308" x2="422" y1="335.6769" y2="335.6769"/><rect fill="#F24D5C" height="6" style="stroke:#C82930;stroke-width:1.0;" width="6" x="315" y="346.3253"/><text fill="#000000" font-family="sans-serif" font-size="14" lengthAdjust="spacing" textLength="90" x="327" y="352.672">getID() string</text></g><!--class iPoolObject--><g id="elem_iPoolObject"><rect codeLine="8" fill="#F1F1F1" height="64.2969" id="iPoolObject" rx="2.5" ry="2.5" style="stroke:#181818;stroke-width:0.5;" width="116" x="307" y="98.04"/><ellipse cx="325.15" cy="114.04" fill="#B4A7E5" rx="11" ry="11" style="stroke:#181818;stroke-width:1.0;"/><path d="M321.0719,109.8056 L321.0719,107.6494 L328.4625,107.6494 L328.4625,109.8056 L325.9938,109.8056 L325.9938,117.8838 L328.4625,117.8838 L328.4625,120.04 L321.0719,120.04 L321.0719,117.8838 L323.5406,117.8838 L323.5406,109.8056 L321.0719,109.8056 Z " fill="#000000"/><text fill="#000000" font-family="sans-serif" font-size="14" font-style="italic" lengthAdjust="spacing" textLength="77" x="339.85" y="118.8867">iPoolObject</text><line style="stroke:#181818;stroke-width:0.5;" x1="308" x2="422" y1="130.04" y2="130.04"/><line style="stroke:#181818;stroke-width:0.5;" x1="308" x2="422" y1="138.04" y2="138.04"/><rect fill="#F24D5C" height="6" style="stroke:#C82930;stroke-width:1.0;" width="6" x="315" y="148.6884"/><text fill="#000000" font-family="sans-serif" font-size="14" lengthAdjust="spacing" textLength="90" x="327" y="155.0351">getID() string</text></g><!--class pool--><g id="elem_pool"><rect codeLine="12" fill="#F1F1F1" height="178.375" id="pool" rx="2.5" ry="2.5" style="stroke:#181818;stroke-width:0.5;" width="251" x="21.5" y="41"/><ellipse cx="127.75" cy="57" fill="#7FFFD4" rx="11" ry="11" style="stroke:#181818;stroke-width:1.0;"/><path d="M127.2344,57.5625 Q125.375,56.8594 124.7188,56.0938 Q124.0781,55.3125 124.0781,54 Q124.0781,52.3125 125.1563,51.3438 Q126.2344,50.375 128.1094,50.375 Q128.9688,50.375 129.8125,50.5781 Q130.6719,50.7656 131.5156,51.1563 L131.5156,53.5469 Q130.7344,52.9844 129.9063,52.7031 Q129.0938,52.4063 128.2969,52.4063 Q127.4219,52.4063 126.9375,52.7656 Q126.4688,53.125 126.4688,53.7813 Q126.4688,54.2969 126.8125,54.6406 Q127.1563,54.9688 128.25,55.375 L129.3125,55.7813 Q130.7969,56.3281 131.5,57.2344 Q132.2188,58.1406 132.2188,59.5156 Q132.2188,61.3906 131.1094,62.3125 Q130,63.2344 127.75,63.2344 Q126.8281,63.2344 125.9063,63.0156 Q124.9844,62.7969 124.125,62.375 L124.125,59.8438 Q125.0938,60.5313 126.0156,60.875 Q126.9375,61.2188 127.8281,61.2188 Q128.7344,61.2188 129.2344,60.8125 Q129.7344,60.3906 129.7344,59.6563 Q129.7344,59.0938 129.3906,58.6875 Q129.0625,58.2656 128.4375,58.0156 L127.2344,57.5625 Z " fill="#000000"/><text fill="#000000" font-family="sans-serif" font-size="14" lengthAdjust="spacing" textLength="30" x="148.25" y="61.8467">pool</text><line style="stroke:#181818;stroke-width:0.5;" x1="22.5" x2="271.5" y1="73" y2="73"/><rect fill="none" height="6" style="stroke:#C82930;stroke-width:1.0;" width="6" x="29.5" y="83.6484"/><text fill="#000000" font-family="sans-serif" font-size="14" lengthAdjust="spacing" textLength="116" x="41.5" y="89.9951">idle []iPoolObject</text><rect fill="none" height="6" style="stroke:#C82930;stroke-width:1.0;" width="6" x="29.5" y="99.9453"/><text fill="#000000" font-family="sans-serif" font-size="14" lengthAdjust="spacing" textLength="132" x="41.5" y="106.292">active []iPoolObject</text><rect fill="none" height="6" style="stroke:#C82930;stroke-width:1.0;" width="6" x="29.5" y="116.2422"/><text fill="#000000" font-family="sans-serif" font-size="14" lengthAdjust="spacing" textLength="77" x="41.5" y="122.5889">capacity int</text><rect fill="none" height="6" style="stroke:#C82930;stroke-width:1.0;" width="6" x="29.5" y="132.5391"/><text fill="#000000" font-family="sans-serif" font-size="14" lengthAdjust="spacing" textLength="139" x="41.5" y="138.8857">mulock *sync.Mutex</text><line style="stroke:#181818;stroke-width:0.5;" x1="22.5" x2="271.5" y1="146.1875" y2="146.1875"/><rect fill="#F24D5C" height="6" style="stroke:#C82930;stroke-width:1.0;" width="6" x="29.5" y="156.8359"/><text fill="#000000" font-family="sans-serif" font-size="14" lengthAdjust="spacing" textLength="222" x="41.5" y="163.1826">remove(target iPoolObject) error</text><text fill="#000000" font-family="sans-serif" font-size="14" lengthAdjust="spacing" textLength="4" x="41.5" y="179.4795">&#160;</text><ellipse cx="32.5" cy="192.4297" fill="#84BE84" rx="3" ry="3" style="stroke:#038048;stroke-width:1.0;"/><text fill="#000000" font-family="sans-serif" font-size="14" lengthAdjust="spacing" textLength="176" x="41.5" y="195.7764">Loan() (iPoolObject, error)</text><ellipse cx="32.5" cy="208.7266" fill="#84BE84" rx="3" ry="3" style="stroke:#038048;stroke-width:1.0;"/><text fill="#000000" font-family="sans-serif" font-size="14" lengthAdjust="spacing" textLength="225" x="41.5" y="212.0732">Receive(target iPoolObject) error</text></g><!--reverse link iPoolObject to connection--><g id="link_iPoolObject_connection"><path codeLine="26" d="M365,183.55 C365,213.8 365,251.23 365,279.03 " fill="none" id="iPoolObject-backto-connection" style="stroke:#181818;stroke-width:1.0;"/><polygon fill="none" points="358,183.57,365,163.57,372,183.57,358,183.57" style="stroke:#181818;stroke-width:1.0;"/></g><!--SRC=[ZL71Ri8m3BtdAwoUseto1HNI92wJDcs28-9WCeF26eSbQKK5_NTIEWbpG9iFEVWz-xqNCreA1zG45Wt3IK4gNMC8e1qpwMWSGrL1lfoy_3HeqHkc0cQpN-vG9PWl234XEoMQEuglyxouG_hhQpYItmwgvjEv-cEpJq9mj_7nyEZkaER-uwicMAs5YW0nXMiVmnhJlvZO3Mv5spQrqz_m53hMq_Scqb5czcHTItb4dmB8T0MGzyxVkC_mvf1Jmbom9YEh4Am5QJ9_h-nLhrGs774gA1bKvxA4iNyxQAOk]--></g></svg>