<?xml version="1.0" encoding="us-ascii" standalone="no"?><svg xmlns="http://www.w3.org/2000/svg" xmlns:xlink="http://www.w3.org/1999/xlink" contentStyleType="text/css" height="350px" preserveAspectRatio="none" style="width:1058px;height:350px;background:#FFFFFF;" version="1.1" viewBox="0 0 1058 350" width="1058px" zoomAndPan="magnify"><defs/><g><!--cluster main--><g id="cluster_main"><path d="M8.5,6 L46.5,6 A3.75,3.75 0 0 1 49,8.5 L56,28.2969 L1048.5,28.2969 A2.5,2.5 0 0 1 1051,30.7969 L1051,340.87 A2.5,2.5 0 0 1 1048.5,343.37 L8.5,343.37 A2.5,2.5 0 0 1 6,340.87 L6,8.5 A2.5,2.5 0 0 1 8.5,6 " fill="none" style="stroke:#000000;stroke-width:1.5;"/><line style="stroke:#000000;stroke-width:1.5;" x1="6" x2="56" y1="28.2969" y2="28.2969"/><text fill="#000000" font-family="sans-serif" font-size="14" font-weight="bold" lengthAdjust="spacing" textLength="37" x="10" y="20.9951">main</text></g><!--class areaCalculator--><g id="elem_areaCalculator"><rect codeLine="2" fill="#F1F1F1" height="113.1875" id="areaCalculator" rx="2.5" ry="2.5" style="stroke:#181818;stroke-width:0.5;" width="235" x="22.5" y="206.03"/><ellipse cx="86.75" cy="222.03" fill="#7FFFD4" rx="11" ry="11" style="stroke:#181818;stroke-width:1.0;"/><path d="M86.2344,222.5925 Q84.375,221.8894 83.7188,221.1238 Q83.0781,220.3425 83.0781,219.03 Q83.0781,217.3425 84.1563,216.3738 Q85.2344,215.405 87.1094,215.405 Q87.9688,215.405 88.8125,215.6081 Q89.6719,215.7956 90.5156,216.1863 L90.5156,218.5769 Q89.7344,218.0144 88.9063,217.7331 Q88.0938,217.4363 87.2969,217.4363 Q86.4219,217.4363 85.9375,217.7956 Q85.4688,218.155 85.4688,218.8113 Q85.4688,219.3269 85.8125,219.6706 Q86.1563,219.9988 87.25,220.405 L88.3125,220.8113 Q89.7969,221.3581 90.5,222.2644 Q91.2188,223.1706 91.2188,224.5456 Q91.2188,226.4206 90.1094,227.3425 Q89,228.2644 86.75,228.2644 Q85.8281,228.2644 84.9063,228.0456 Q83.9844,227.8269 83.125,227.405 L83.125,224.8738 Q84.0938,225.5613 85.0156,225.905 Q85.9375,226.2488 86.8281,226.2488 Q87.7344,226.2488 88.2344,225.8425 Q88.7344,225.4206 88.7344,224.6863 Q88.7344,224.1238 88.3906,223.7175 Q88.0625,223.2956 87.4375,223.0456 L86.2344,222.5925 Z " fill="#000000"/><text fill="#000000" font-family="sans-serif" font-size="14" lengthAdjust="spacing" textLength="98" x="107.25" y="226.8767">areaCalculator</text><line style="stroke:#181818;stroke-width:0.5;" x1="23.5" x2="256.5" y1="238.03" y2="238.03"/><rect fill="none" height="6" style="stroke:#C82930;stroke-width:1.0;" width="6" x="30.5" y="248.6784"/><text fill="#000000" font-family="sans-serif" font-size="14" lengthAdjust="spacing" textLength="81" x="42.5" y="255.0251">area float64</text><line style="stroke:#181818;stroke-width:0.5;" x1="23.5" x2="256.5" y1="262.3269" y2="262.3269"/><rect fill="#F24D5C" height="6" style="stroke:#C82930;stroke-width:1.0;" width="6" x="30.5" y="272.9753"/><text fill="#000000" font-family="sans-serif" font-size="14" lengthAdjust="spacing" textLength="174" x="42.5" y="279.322">visitForSquare(s *square)</text><rect fill="#F24D5C" height="6" style="stroke:#C82930;stroke-width:1.0;" width="6" x="30.5" y="289.2722"/><text fill="#000000" font-family="sans-serif" font-size="14" lengthAdjust="spacing" textLength="151" x="42.5" y="295.6189">visitForCircle(c *circle)</text><rect fill="#F24D5C" height="6" style="stroke:#C82930;stroke-width:1.0;" width="6" x="30.5" y="305.5691"/><text fill="#000000" font-family="sans-serif" font-size="14" lengthAdjust="spacing" textLength="209" x="42.5" y="311.9157">visitForRectangle(r *rectangle)</text></g><!--class circle--><g id="elem_circle"><rect codeLine="10" fill="#F1F1F1" height="113.1875" id="circle" rx="2.5" ry="2.5" style="stroke:#181818;stroke-width:0.5;" width="134" x="563" y="206.03"/><ellipse cx="607.75" cy="222.03" fill="#7FFFD4" rx="11" ry="11" style="stroke:#181818;stroke-width:1.0;"/><path d="M607.2344,222.5925 Q605.375,221.8894 604.7188,221.1238 Q604.0781,220.3425 604.0781,219.03 Q604.0781,217.3425 605.1563,216.3738 Q606.2344,215.405 608.1094,215.405 Q608.9688,215.405 609.8125,215.6081 Q610.6719,215.7956 611.5156,216.1863 L611.5156,218.5769 Q610.7344,218.0144 609.9063,217.7331 Q609.0938,217.4363 608.2969,217.4363 Q607.4219,217.4363 606.9375,217.7956 Q606.4688,218.155 606.4688,218.8113 Q606.4688,219.3269 606.8125,219.6706 Q607.1563,219.9988 608.25,220.405 L609.3125,220.8113 Q610.7969,221.3581 611.5,222.2644 Q612.2188,223.1706 612.2188,224.5456 Q612.2188,226.4206 611.1094,227.3425 Q610,228.2644 607.75,228.2644 Q606.8281,228.2644 605.9063,228.0456 Q604.9844,227.8269 604.125,227.405 L604.125,224.8738 Q605.0938,225.5613 606.0156,225.905 Q606.9375,226.2488 607.8281,226.2488 Q608.7344,226.2488 609.2344,225.8425 Q609.7344,225.4206 609.7344,224.6863 Q609.7344,224.1238 609.3906,223.7175 Q609.0625,223.2956 608.4375,223.0456 L607.2344,222.5925 Z " fill="#000000"/><text fill="#000000" font-family="sans-serif" font-size="14" lengthAdjust="spacing" textLength="36" x="628.25" y="226.8767">circle</text><line style="stroke:#181818;stroke-width:0.5;" x1="564" x2="696" y1="238.03" y2="238.03"/><rect fill="none" height="6" style="stroke:#C82930;stroke-width:1.0;" width="6" x="571" y="248.6784"/><text fill="#000000" font-family="sans-serif" font-size="14" lengthAdjust="spacing" textLength="93" x="583" y="255.0251">radius float64</text><line style="stroke:#181818;stroke-width:0.5;" x1="564" x2="696" y1="262.3269" y2="262.3269"/><rect fill="#F24D5C" height="6" style="stroke:#C82930;stroke-width:1.0;" width="6" x="571" y="272.9753"/><text fill="#000000" font-family="sans-serif" font-size="14" lengthAdjust="spacing" textLength="108" x="583" y="279.322">accept(v visitor)</text><text fill="#000000" font-family="sans-serif" font-size="14" lengthAdjust="spacing" textLength="4" x="583" y="295.6189">&#160;</text><ellipse cx="574" cy="308.5691" fill="#84BE84" rx="3" ry="3" style="stroke:#038048;stroke-width:1.0;"/><text fill="#000000" font-family="sans-serif" font-size="14" lengthAdjust="spacing" textLength="93" x="583" y="311.9157">String() string</text></g><!--class middleCoordinates--><g id="elem_middleCoordinates"><rect codeLine="18" fill="#F1F1F1" height="129.4844" id="middleCoordinates" rx="2.5" ry="2.5" style="stroke:#181818;stroke-width:0.5;" width="235" x="292.5" y="197.89"/><ellipse cx="340.75" cy="213.89" fill="#7FFFD4" rx="11" ry="11" style="stroke:#181818;stroke-width:1.0;"/><path d="M340.2344,214.4525 Q338.375,213.7494 337.7188,212.9838 Q337.0781,212.2025 337.0781,210.89 Q337.0781,209.2025 338.1563,208.2338 Q339.2344,207.265 341.1094,207.265 Q341.9688,207.265 342.8125,207.4681 Q343.6719,207.6556 344.5156,208.0463 L344.5156,210.4369 Q343.7344,209.8744 342.9063,209.5931 Q342.0938,209.2963 341.2969,209.2963 Q340.4219,209.2963 339.9375,209.6556 Q339.4688,210.015 339.4688,210.6713 Q339.4688,211.1869 339.8125,211.5306 Q340.1563,211.8588 341.25,212.265 L342.3125,212.6713 Q343.7969,213.2181 344.5,214.1244 Q345.2188,215.0306 345.2188,216.4056 Q345.2188,218.2806 344.1094,219.2025 Q343,220.1244 340.75,220.1244 Q339.8281,220.1244 338.9063,219.9056 Q337.9844,219.6869 337.125,219.265 L337.125,216.7338 Q338.0938,217.4213 339.0156,217.765 Q339.9375,218.1088 340.8281,218.1088 Q341.7344,218.1088 342.2344,217.7025 Q342.7344,217.2806 342.7344,216.5463 Q342.7344,215.9838 342.3906,215.5775 Q342.0625,215.1556 341.4375,214.9056 L340.2344,214.4525 Z " fill="#000000"/><text fill="#000000" font-family="sans-serif" font-size="14" lengthAdjust="spacing" textLength="130" x="361.25" y="218.7367">middleCoordinates</text><line style="stroke:#181818;stroke-width:0.5;" x1="293.5" x2="526.5" y1="229.89" y2="229.89"/><rect fill="none" height="6" style="stroke:#C82930;stroke-width:1.0;" width="6" x="300.5" y="240.5384"/><text fill="#000000" font-family="sans-serif" font-size="14" lengthAdjust="spacing" textLength="58" x="312.5" y="246.8851">x float64</text><rect fill="none" height="6" style="stroke:#C82930;stroke-width:1.0;" width="6" x="300.5" y="256.8353"/><text fill="#000000" font-family="sans-serif" font-size="14" lengthAdjust="spacing" textLength="58" x="312.5" y="263.182">y float64</text><line style="stroke:#181818;stroke-width:0.5;" x1="293.5" x2="526.5" y1="270.4838" y2="270.4838"/><rect fill="#F24D5C" height="6" style="stroke:#C82930;stroke-width:1.0;" width="6" x="300.5" y="281.1322"/><text fill="#000000" font-family="sans-serif" font-size="14" lengthAdjust="spacing" textLength="174" x="312.5" y="287.4789">visitForSquare(s *square)</text><rect fill="#F24D5C" height="6" style="stroke:#C82930;stroke-width:1.0;" width="6" x="300.5" y="297.4291"/><text fill="#000000" font-family="sans-serif" font-size="14" lengthAdjust="spacing" textLength="151" x="312.5" y="303.7757">visitForCircle(c *circle)</text><rect fill="#F24D5C" height="6" style="stroke:#C82930;stroke-width:1.0;" width="6" x="300.5" y="313.7259"/><text fill="#000000" font-family="sans-serif" font-size="14" lengthAdjust="spacing" textLength="209" x="312.5" y="320.0726">visitForRectangle(r *rectangle)</text></g><!--class rectangle--><g id="elem_rectangle"><rect codeLine="27" fill="#F1F1F1" height="129.4844" id="rectangle" rx="2.5" ry="2.5" style="stroke:#181818;stroke-width:0.5;" width="134" x="732" y="197.89"/><ellipse cx="763.65" cy="213.89" fill="#7FFFD4" rx="11" ry="11" style="stroke:#181818;stroke-width:1.0;"/><path d="M763.1344,214.4525 Q761.275,213.7494 760.6188,212.9838 Q759.9781,212.2025 759.9781,210.89 Q759.9781,209.2025 761.0563,208.2338 Q762.1344,207.265 764.0094,207.265 Q764.8688,207.265 765.7125,207.4681 Q766.5719,207.6556 767.4156,208.0463 L767.4156,210.4369 Q766.6344,209.8744 765.8063,209.5931 Q764.9938,209.2963 764.1969,209.2963 Q763.3219,209.2963 762.8375,209.6556 Q762.3688,210.015 762.3688,210.6713 Q762.3688,211.1869 762.7125,211.5306 Q763.0563,211.8588 764.15,212.265 L765.2125,212.6713 Q766.6969,213.2181 767.4,214.1244 Q768.1188,215.0306 768.1188,216.4056 Q768.1188,218.2806 767.0094,219.2025 Q765.9,220.1244 763.65,220.1244 Q762.7281,220.1244 761.8063,219.9056 Q760.8844,219.6869 760.025,219.265 L760.025,216.7338 Q760.9938,217.4213 761.9156,217.765 Q762.8375,218.1088 763.7281,218.1088 Q764.6344,218.1088 765.1344,217.7025 Q765.6344,217.2806 765.6344,216.5463 Q765.6344,215.9838 765.2906,215.5775 Q764.9625,215.1556 764.3375,214.9056 L763.1344,214.4525 Z " fill="#000000"/><text fill="#000000" font-family="sans-serif" font-size="14" lengthAdjust="spacing" textLength="65" x="781.35" y="218.7367">rectangle</text><line style="stroke:#181818;stroke-width:0.5;" x1="733" x2="865" y1="229.89" y2="229.89"/><rect fill="none" height="6" style="stroke:#C82930;stroke-width:1.0;" width="6" x="740" y="240.5384"/><text fill="#000000" font-family="sans-serif" font-size="14" lengthAdjust="spacing" textLength="54" x="752" y="246.8851">l float64</text><rect fill="none" height="6" style="stroke:#C82930;stroke-width:1.0;" width="6" x="740" y="256.8353"/><text fill="#000000" font-family="sans-serif" font-size="14" lengthAdjust="spacing" textLength="60" x="752" y="263.182">b float64</text><line style="stroke:#181818;stroke-width:0.5;" x1="733" x2="865" y1="270.4838" y2="270.4838"/><rect fill="#F24D5C" height="6" style="stroke:#C82930;stroke-width:1.0;" width="6" x="740" y="281.1322"/><text fill="#000000" font-family="sans-serif" font-size="14" lengthAdjust="spacing" textLength="108" x="752" y="287.4789">accept(v visitor)</text><text fill="#000000" font-family="sans-serif" font-size="14" lengthAdjust="spacing" textLength="4" x="752" y="303.7757">&#160;</text><ellipse cx="743" cy="316.7259" fill="#84BE84" rx="3" ry="3" style="stroke:#038048;stroke-width:1.0;"/><text fill="#000000" font-family="sans-serif" font-size="14" lengthAdjust="spacing" textLength="93" x="752" y="320.0726">String() string</text></g><!--class shape--><g id="elem_shape"><rect codeLine="36" fill="#F1F1F1" height="64.2969" id="shape" rx="2.5" ry="2.5" style="stroke:#181818;stroke-width:0.5;" width="127" x="735.5" y="57.29"/><ellipse cx="774.35" cy="73.29" fill="#B4A7E5" rx="11" ry="11" style="stroke:#181818;stroke-width:1.0;"/><path d="M770.2719,69.0556 L770.2719,66.8994 L777.6625,66.8994 L777.6625,69.0556 L775.1938,69.0556 L775.1938,77.1338 L777.6625,77.1338 L777.6625,79.29 L770.2719,79.29 L770.2719,77.1338 L772.7406,77.1338 L772.7406,69.0556 L770.2719,69.0556 Z " fill="#000000"/><text fill="#000000" font-family="sans-serif" font-size="14" font-style="italic" lengthAdjust="spacing" textLength="42" x="793.65" y="78.1367">shape</text><line style="stroke:#181818;stroke-width:0.5;" x1="736.5" x2="861.5" y1="89.29" y2="89.29"/><line style="stroke:#181818;stroke-width:0.5;" x1="736.5" x2="861.5" y1="97.29" y2="97.29"/><rect fill="#F24D5C" height="6" style="stroke:#C82930;stroke-width:1.0;" width="6" x="743.5" y="107.9384"/><text fill="#000000" font-family="sans-serif" font-size="14" lengthAdjust="spacing" textLength="101" x="755.5" y="114.2851">accept( visitor)</text></g><!--class square--><g id="elem_square"><rect codeLine="40" fill="#F1F1F1" height="113.1875" id="square" rx="2.5" ry="2.5" style="stroke:#181818;stroke-width:0.5;" width="134" x="901" y="206.03"/><ellipse cx="940.3" cy="222.03" fill="#7FFFD4" rx="11" ry="11" style="stroke:#181818;stroke-width:1.0;"/><path d="M939.7844,222.5925 Q937.925,221.8894 937.2688,221.1238 Q936.6281,220.3425 936.6281,219.03 Q936.6281,217.3425 937.7063,216.3738 Q938.7844,215.405 940.6594,215.405 Q941.5188,215.405 942.3625,215.6081 Q943.2219,215.7956 944.0656,216.1863 L944.0656,218.5769 Q943.2844,218.0144 942.4563,217.7331 Q941.6438,217.4363 940.8469,217.4363 Q939.9719,217.4363 939.4875,217.7956 Q939.0188,218.155 939.0188,218.8113 Q939.0188,219.3269 939.3625,219.6706 Q939.7063,219.9988 940.8,220.405 L941.8625,220.8113 Q943.3469,221.3581 944.05,222.2644 Q944.7688,223.1706 944.7688,224.5456 Q944.7688,226.4206 943.6594,227.3425 Q942.55,228.2644 940.3,228.2644 Q939.3781,228.2644 938.4563,228.0456 Q937.5344,227.8269 936.675,227.405 L936.675,224.8738 Q937.6438,225.5613 938.5656,225.905 Q939.4875,226.2488 940.3781,226.2488 Q941.2844,226.2488 941.7844,225.8425 Q942.2844,225.4206 942.2844,224.6863 Q942.2844,224.1238 941.9406,223.7175 Q941.6125,223.2956 940.9875,223.0456 L939.7844,222.5925 Z " fill="#000000"/><text fill="#000000" font-family="sans-serif" font-size="14" lengthAdjust="spacing" textLength="48" x="959.7" y="226.8767">square</text><line style="stroke:#181818;stroke-width:0.5;" x1="902" x2="1034" y1="238.03" y2="238.03"/><rect fill="none" height="6" style="stroke:#C82930;stroke-width:1.0;" width="6" x="909" y="248.6784"/><text fill="#000000" font-family="sans-serif" font-size="14" lengthAdjust="spacing" textLength="80" x="921" y="255.0251">side float64</text><line style="stroke:#181818;stroke-width:0.5;" x1="902" x2="1034" y1="262.3269" y2="262.3269"/><rect fill="#F24D5C" height="6" style="stroke:#C82930;stroke-width:1.0;" width="6" x="909" y="272.9753"/><text fill="#000000" font-family="sans-serif" font-size="14" lengthAdjust="spacing" textLength="108" x="921" y="279.322">accept(v visitor)</text><text fill="#000000" font-family="sans-serif" font-size="14" lengthAdjust="spacing" textLength="4" x="921" y="295.6189">&#160;</text><ellipse cx="912" cy="308.5691" fill="#84BE84" rx="3" ry="3" style="stroke:#038048;stroke-width:1.0;"/><text fill="#000000" font-family="sans-serif" font-size="14" lengthAdjust="spacing" textLength="93" x="921" y="311.9157">String() string</text></g><!--class visitor--><g id="elem_visitor"><rect codeLine="48" fill="#F1F1F1" height="96.8906" id="visitor" rx="2.5" ry="2.5" style="stroke:#181818;stroke-width:0.5;" width="230" x="160" y="41"/><ellipse cx="250.75" cy="57" fill="#B4A7E5" rx="11" ry="11" style="stroke:#181818;stroke-width:1.0;"/><path d="M246.6719,52.7656 L246.6719,50.6094 L254.0625,50.6094 L254.0625,52.7656 L251.5938,52.7656 L251.5938,60.8438 L254.0625,60.8438 L254.0625,63 L246.6719,63 L246.6719,60.8438 L249.1406,60.8438 L249.1406,52.7656 L246.6719,52.7656 Z " fill="#000000"/><text fill="#000000" font-family="sans-serif" font-size="14" font-style="italic" lengthAdjust="spacing" textLength="40" x="271.25" y="61.8467">visitor</text><line style="stroke:#181818;stroke-width:0.5;" x1="161" x2="389" y1="73" y2="73"/><line style="stroke:#181818;stroke-width:0.5;" x1="161" x2="389" y1="81" y2="81"/><rect fill="#F24D5C" height="6" style="stroke:#C82930;stroke-width:1.0;" width="6" x="168" y="91.6484"/><text fill="#000000" font-family="sans-serif" font-size="14" lengthAdjust="spacing" textLength="166" x="180" y="97.9951">visitForSquare( *square)</text><rect fill="#F24D5C" height="6" style="stroke:#C82930;stroke-width:1.0;" width="6" x="168" y="107.9453"/><text fill="#000000" font-family="sans-serif" font-size="14" lengthAdjust="spacing" textLength="143" x="180" y="114.292">visitForCircle( *circle)</text><rect fill="#F24D5C" height="6" style="stroke:#C82930;stroke-width:1.0;" width="6" x="168" y="124.2422"/><text fill="#000000" font-family="sans-serif" font-size="14" lengthAdjust="spacing" textLength="204" x="180" y="130.5889">visitForRectangle( *rectangle)</text></g><!--reverse link visitor to areaCalculator--><g id="link_visitor_areaCalculator"><path codeLine="56" d="M224.51,154.46 C211.23,171.3 197.01,189.34 184.09,205.72 " fill="none" id="visitor-backto-areaCalculator" style="stroke:#181818;stroke-width:1.0;"/><polygon fill="none" points="219.51,150.5,237.39,139.13,230.51,159.16,219.51,150.5" style="stroke:#181818;stroke-width:1.0;"/></g><!--reverse link shape to circle--><g id="link_shape_circle"><path codeLine="57" d="M753.5,136.53 C732.43,157.88 707.21,183.42 685.08,205.84 " fill="none" id="shape-backto-circle" style="stroke:#181818;stroke-width:1.0;"/><polygon fill="none" points="747.97,132.15,767,122.84,757.93,141.99,747.97,132.15" style="stroke:#181818;stroke-width:1.0;"/></g><!--reverse link visitor to middleCoordinates--><g id="link_visitor_middleCoordinates"><path codeLine="58" d="M325.32,154.25 C336.48,168.4 348.31,183.4 359.48,197.56 " fill="none" id="visitor-backto-middleCoordinates" style="stroke:#181818;stroke-width:1.0;"/><polygon fill="none" points="319.49,159.16,312.61,139.13,330.49,150.5,319.49,159.16" style="stroke:#181818;stroke-width:1.0;"/></g><!--reverse link shape to rectangle--><g id="link_shape_rectangle"><path codeLine="59" d="M799,142.67 C799,159.95 799,179.38 799,197.45 " fill="none" id="shape-backto-rectangle" style="stroke:#181818;stroke-width:1.0;"/><polygon fill="none" points="792,142.84,799,122.84,806,142.84,792,142.84" style="stroke:#181818;stroke-width:1.0;"/></g><!--reverse link shape to square--><g id="link_shape_square"><path codeLine="60" d="M844.5,136.53 C865.57,157.88 890.79,183.42 912.92,205.84 " fill="none" id="shape-backto-square" style="stroke:#181818;stroke-width:1.0;"/><polygon fill="none" points="840.07,141.99,831,122.84,850.03,132.15,840.07,141.99" style="stroke:#181818;stroke-width:1.0;"/></g><!--SRC=[pLJ1ReCm3Btp5HOdO6EdQITKQKBQ1umly8BRHGg1EQ7QjFNV1mdjeAMZXrMQJuxpylni9z5OaMbG45GeDNm6q9bGQ0mW4-QeHAlGrWnP1b5n-_ZMOeKiDSMmMWtutbA7XxMgqJxS1wFuLXffdsekkgDCaO74E2-66L0kMIYA12J2UREWPn8MzQR3CIIyNtHGXzsDQl0aozePIzcQEVKe13KsslhaDU-pz7O3XUteDb4CnZcd0YfPbehokkPIQhHabhMy7sJyn3x-MsCFcylrg9bwNlwqrL9RudL_YSqhDWJJQ-bPZqd7nVYsBLTYP4bN4ZwSd4e_6l0byxrmlBFJtGL1sFy2TuEO4BAlD0KVc_u6uO1q_PxWVFhm5wQJ9t6Ux23oFCIt90o-0G00]--></g></svg>