<?xml version="1.0" encoding="us-ascii" standalone="no"?><svg xmlns="http://www.w3.org/2000/svg" xmlns:xlink="http://www.w3.org/1999/xlink" contentStyleType="text/css" height="317px" preserveAspectRatio="none" style="width:456px;height:317px;background:#FFFFFF;" version="1.1" viewBox="0 0 456 317" width="456px" zoomAndPan="magnify"><defs/><g><!--cluster main--><g id="cluster_main"><path d="M8.5,6 L46.5,6 A3.75,3.75 0 0 1 49,8.5 L56,28.2969 L446.5,28.2969 A2.5,2.5 0 0 1 449,30.7969 L449,308.28 A2.5,2.5 0 0 1 446.5,310.78 L8.5,310.78 A2.5,2.5 0 0 1 6,308.28 L6,8.5 A2.5,2.5 0 0 1 8.5,6 " fill="none" style="stroke:#000000;stroke-width:1.5;"/><line style="stroke:#000000;stroke-width:1.5;" x1="6" x2="56" y1="28.2969" y2="28.2969"/><text fill="#000000" font-family="sans-serif" font-size="14" font-weight="bold" lengthAdjust="spacing" textLength="37" x="10" y="20.9951">main</text></g><!--class file--><g id="elem_file"><rect codeLine="2" fill="#F1F1F1" height="96.8906" id="file" rx="2.5" ry="2.5" style="stroke:#181818;stroke-width:0.5;" width="188" x="22" y="189.74"/><ellipse cx="102.25" cy="205.74" fill="#7FFFD4" rx="11" ry="11" style="stroke:#181818;stroke-width:1.0;"/><path d="M101.7344,206.3025 Q99.875,205.5994 99.2188,204.8337 Q98.5781,204.0525 98.5781,202.74 Q98.5781,201.0525 99.6563,200.0837 Q100.7344,199.115 102.6094,199.115 Q103.4688,199.115 104.3125,199.3181 Q105.1719,199.5056 106.0156,199.8962 L106.0156,202.2869 Q105.2344,201.7244 104.4063,201.4431 Q103.5938,201.1462 102.7969,201.1462 Q101.9219,201.1462 101.4375,201.5056 Q100.9688,201.865 100.9688,202.5212 Q100.9688,203.0369 101.3125,203.3806 Q101.6563,203.7087 102.75,204.115 L103.8125,204.5212 Q105.2969,205.0681 106,205.9744 Q106.7188,206.8806 106.7188,208.2556 Q106.7188,210.1306 105.6094,211.0525 Q104.5,211.9744 102.25,211.9744 Q101.3281,211.9744 100.4063,211.7556 Q99.4844,211.5369 98.625,211.115 L98.625,208.5837 Q99.5938,209.2712 100.5156,209.615 Q101.4375,209.9587 102.3281,209.9587 Q103.2344,209.9587 103.7344,209.5525 Q104.2344,209.1306 104.2344,208.3962 Q104.2344,207.8337 103.8906,207.4275 Q103.5625,207.0056 102.9375,206.7556 L101.7344,206.3025 Z " fill="#000000"/><text fill="#000000" font-family="sans-serif" font-size="14" lengthAdjust="spacing" textLength="19" x="122.75" y="210.5867">file</text><line style="stroke:#181818;stroke-width:0.5;" x1="23" x2="209" y1="221.74" y2="221.74"/><rect fill="none" height="6" style="stroke:#C82930;stroke-width:1.0;" width="6" x="30" y="232.3884"/><text fill="#000000" font-family="sans-serif" font-size="14" lengthAdjust="spacing" textLength="82" x="42" y="238.7351">name string</text><line style="stroke:#181818;stroke-width:0.5;" x1="23" x2="209" y1="246.0369" y2="246.0369"/><rect fill="#F24D5C" height="6" style="stroke:#C82930;stroke-width:1.0;" width="6" x="30" y="256.6853"/><text fill="#000000" font-family="sans-serif" font-size="14" lengthAdjust="spacing" textLength="162" x="42" y="263.032">print(indentation string)</text><rect fill="#F24D5C" height="6" style="stroke:#C82930;stroke-width:1.0;" width="6" x="30" y="272.9822"/><text fill="#000000" font-family="sans-serif" font-size="14" lengthAdjust="spacing" textLength="91" x="42" y="279.3289">clone() inode</text></g><!--class folder--><g id="elem_folder"><rect codeLine="9" fill="#F1F1F1" height="113.1875" id="folder" rx="2.5" ry="2.5" style="stroke:#181818;stroke-width:0.5;" width="188" x="245" y="181.59"/><ellipse cx="315.25" cy="197.59" fill="#7FFFD4" rx="11" ry="11" style="stroke:#181818;stroke-width:1.0;"/><path d="M314.7344,198.1525 Q312.875,197.4494 312.2188,196.6837 Q311.5781,195.9025 311.5781,194.59 Q311.5781,192.9025 312.6563,191.9337 Q313.7344,190.965 315.6094,190.965 Q316.4688,190.965 317.3125,191.1681 Q318.1719,191.3556 319.0156,191.7462 L319.0156,194.1369 Q318.2344,193.5744 317.4063,193.2931 Q316.5938,192.9962 315.7969,192.9962 Q314.9219,192.9962 314.4375,193.3556 Q313.9688,193.715 313.9688,194.3712 Q313.9688,194.8869 314.3125,195.2306 Q314.6563,195.5587 315.75,195.965 L316.8125,196.3712 Q318.2969,196.9181 319,197.8244 Q319.7188,198.7306 319.7188,200.1056 Q319.7188,201.9806 318.6094,202.9025 Q317.5,203.8244 315.25,203.8244 Q314.3281,203.8244 313.4063,203.6056 Q312.4844,203.3869 311.625,202.965 L311.625,200.4337 Q312.5938,201.1212 313.5156,201.465 Q314.4375,201.8087 315.3281,201.8087 Q316.2344,201.8087 316.7344,201.4025 Q317.2344,200.9806 317.2344,200.2462 Q317.2344,199.6837 316.8906,199.2775 Q316.5625,198.8556 315.9375,198.6056 L314.7344,198.1525 Z " fill="#000000"/><text fill="#000000" font-family="sans-serif" font-size="14" lengthAdjust="spacing" textLength="39" x="335.75" y="202.4367">folder</text><line style="stroke:#181818;stroke-width:0.5;" x1="246" x2="432" y1="213.59" y2="213.59"/><rect fill="none" height="6" style="stroke:#C82930;stroke-width:1.0;" width="6" x="253" y="224.2384"/><text fill="#000000" font-family="sans-serif" font-size="14" lengthAdjust="spacing" textLength="108" x="265" y="230.5851">children []inode</text><rect fill="none" height="6" style="stroke:#C82930;stroke-width:1.0;" width="6" x="253" y="240.5353"/><text fill="#000000" font-family="sans-serif" font-size="14" lengthAdjust="spacing" textLength="82" x="265" y="246.882">name string</text><line style="stroke:#181818;stroke-width:0.5;" x1="246" x2="432" y1="254.1837" y2="254.1837"/><rect fill="#F24D5C" height="6" style="stroke:#C82930;stroke-width:1.0;" width="6" x="253" y="264.8322"/><text fill="#000000" font-family="sans-serif" font-size="14" lengthAdjust="spacing" textLength="162" x="265" y="271.1789">print(indentation string)</text><rect fill="#F24D5C" height="6" style="stroke:#C82930;stroke-width:1.0;" width="6" x="253" y="281.1291"/><text fill="#000000" font-family="sans-serif" font-size="14" lengthAdjust="spacing" textLength="91" x="265" y="287.4757">clone() inode</text></g><!--class inode--><g id="elem_inode"><rect codeLine="17" fill="#F1F1F1" height="80.5938" id="inode" rx="2.5" ry="2.5" style="stroke:#181818;stroke-width:0.5;" width="117" x="168.5" y="41"/><ellipse cx="204.2" cy="57" fill="#B4A7E5" rx="11" ry="11" style="stroke:#181818;stroke-width:1.0;"/><path d="M200.1219,52.7656 L200.1219,50.6094 L207.5125,50.6094 L207.5125,52.7656 L205.0438,52.7656 L205.0438,60.8438 L207.5125,60.8438 L207.5125,63 L200.1219,63 L200.1219,60.8438 L202.5906,60.8438 L202.5906,52.7656 L200.1219,52.7656 Z " fill="#000000"/><text fill="#000000" font-family="sans-serif" font-size="14" font-style="italic" lengthAdjust="spacing" textLength="39" x="222.8" y="61.8467">inode</text><line style="stroke:#181818;stroke-width:0.5;" x1="169.5" x2="284.5" y1="73" y2="73"/><line style="stroke:#181818;stroke-width:0.5;" x1="169.5" x2="284.5" y1="81" y2="81"/><rect fill="#F24D5C" height="6" style="stroke:#C82930;stroke-width:1.0;" width="6" x="176.5" y="91.6484"/><text fill="#000000" font-family="sans-serif" font-size="14" lengthAdjust="spacing" textLength="84" x="188.5" y="97.9951">print( string)</text><rect fill="#F24D5C" height="6" style="stroke:#C82930;stroke-width:1.0;" width="6" x="176.5" y="107.9453"/><text fill="#000000" font-family="sans-serif" font-size="14" lengthAdjust="spacing" textLength="91" x="188.5" y="114.292">clone() inode</text></g><!--reverse link inode to file--><g id="link_inode_file"><path codeLine="24" d="M186.51,138.8 C174.59,155.43 161.67,173.46 150.18,189.48 " fill="none" id="inode-backto-file" style="stroke:#181818;stroke-width:1.0;"/><polygon fill="none" points="181.36,134.96,198.7,122.78,192.74,143.12,181.36,134.96" style="stroke:#181818;stroke-width:1.0;"/></g><!--reverse link inode to folder--><g id="link_inode_folder"><path codeLine="25" d="M267.74,138.64 C277.75,152.48 288.46,167.29 298.46,181.12 " fill="none" id="inode-backto-folder" style="stroke:#181818;stroke-width:1.0;"/><polygon fill="none" points="261.6,143.09,255.55,122.78,272.94,134.89,261.6,143.09" style="stroke:#181818;stroke-width:1.0;"/></g><!--SRC=[jL2z2i8m6Dpp54Ud5gnFK0e-WwCuXEIh1j8lDOcJzjrDcWvr45syyVuuZkL8OPAAC4h3U0WaA2j3m60ieUjG7tU7srsEqXkc1ds_kZ9QS2f0Y4cxY0qz9IBMXZLnbD4uNZqDDYPb7LFTmB3JLDBpTe2pclpt2UfghFR4E9rBqv_NfIpv8N-sI7WRKwf_xfk5gFBp-uMjq3tR5eN9_rUVrUMSIhm0]--></g></svg>