<?xml version="1.0" encoding="us-ascii" standalone="no"?><svg xmlns="http://www.w3.org/2000/svg" xmlns:xlink="http://www.w3.org/1999/xlink" contentStyleType="text/css" height="317px" preserveAspectRatio="none" style="width:787px;height:317px;background:#FFFFFF;" version="1.1" viewBox="0 0 787 317" width="787px" zoomAndPan="magnify"><defs/><g><!--cluster main--><g id="cluster_main"><path d="M8.5,6 L46.5,6 A3.75,3.75 0 0 1 49,8.5 L56,28.2969 L777.5,28.2969 A2.5,2.5 0 0 1 780,30.7969 L780,308.28 A2.5,2.5 0 0 1 777.5,310.78 L8.5,310.78 A2.5,2.5 0 0 1 6,308.28 L6,8.5 A2.5,2.5 0 0 1 8.5,6 " fill="none" style="stroke:#000000;stroke-width:1.5;"/><line style="stroke:#000000;stroke-width:1.5;" x1="6" x2="56" y1="28.2969" y2="28.2969"/><text fill="#000000" font-family="sans-serif" font-size="14" font-weight="bold" lengthAdjust="spacing" textLength="37" x="10" y="20.9951">main</text></g><!--class college--><g id="elem_college"><rect codeLine="2" fill="#F1F1F1" height="96.8906" id="college" rx="2.5" ry="2.5" style="stroke:#181818;stroke-width:0.5;" width="391" x="372.5" y="41"/><ellipse cx="538.75" cy="57" fill="#7FFFD4" rx="11" ry="11" style="stroke:#181818;stroke-width:1.0;"/><path d="M538.2344,57.5625 Q536.375,56.8594 535.7188,56.0938 Q535.0781,55.3125 535.0781,54 Q535.0781,52.3125 536.1563,51.3438 Q537.2344,50.375 539.1094,50.375 Q539.9688,50.375 540.8125,50.5781 Q541.6719,50.7656 542.5156,51.1563 L542.5156,53.5469 Q541.7344,52.9844 540.9063,52.7031 Q540.0938,52.4063 539.2969,52.4063 Q538.4219,52.4063 537.9375,52.7656 Q537.4688,53.125 537.4688,53.7813 Q537.4688,54.2969 537.8125,54.6406 Q538.1563,54.9688 539.25,55.375 L540.3125,55.7813 Q541.7969,56.3281 542.5,57.2344 Q543.2188,58.1406 543.2188,59.5156 Q543.2188,61.3906 542.1094,62.3125 Q541,63.2344 538.75,63.2344 Q537.8281,63.2344 536.9063,63.0156 Q535.9844,62.7969 535.125,62.375 L535.125,59.8438 Q536.0938,60.5313 537.0156,60.875 Q537.9375,61.2188 538.8281,61.2188 Q539.7344,61.2188 540.2344,60.8125 Q540.7344,60.3906 540.7344,59.6563 Q540.7344,59.0938 540.3906,58.6875 Q540.0625,58.2656 539.4375,58.0156 L538.2344,57.5625 Z " fill="#000000"/><text fill="#000000" font-family="sans-serif" font-size="14" lengthAdjust="spacing" textLength="50" x="559.25" y="61.8467">college</text><line style="stroke:#181818;stroke-width:0.5;" x1="373.5" x2="762.5" y1="73" y2="73"/><rect fill="none" height="6" style="stroke:#C82930;stroke-width:1.0;" width="6" x="380.5" y="83.6484"/><text fill="#000000" font-family="sans-serif" font-size="14" lengthAdjust="spacing" textLength="184" x="392.5" y="89.9951">departments []department</text><line style="stroke:#181818;stroke-width:0.5;" x1="373.5" x2="762.5" y1="97.2969" y2="97.2969"/><rect fill="#F24D5C" height="6" style="stroke:#C82930;stroke-width:1.0;" width="6" x="380.5" y="107.9453"/><text fill="#000000" font-family="sans-serif" font-size="14" lengthAdjust="spacing" textLength="330" x="392.5" y="114.292">addDepartment(department string, numProf int)</text><rect fill="#F24D5C" height="6" style="stroke:#C82930;stroke-width:1.0;" width="6" x="380.5" y="124.2422"/><text fill="#000000" font-family="sans-serif" font-size="14" lengthAdjust="spacing" textLength="365" x="392.5" y="130.5889">getDepartment(departmentName string) department</text></g><!--class computerscience--><g id="elem_computerscience"><rect codeLine="9" fill="#F1F1F1" height="96.8906" id="computerscience" rx="2.5" ry="2.5" style="stroke:#181818;stroke-width:0.5;" width="224" x="22" y="197.89"/><ellipse cx="69.25" cy="213.89" fill="#7FFFD4" rx="11" ry="11" style="stroke:#181818;stroke-width:1.0;"/><path d="M68.7344,214.4525 Q66.875,213.7494 66.2188,212.9838 Q65.5781,212.2025 65.5781,210.89 Q65.5781,209.2025 66.6563,208.2338 Q67.7344,207.265 69.6094,207.265 Q70.4688,207.265 71.3125,207.4681 Q72.1719,207.6556 73.0156,208.0463 L73.0156,210.4369 Q72.2344,209.8744 71.4063,209.5931 Q70.5938,209.2963 69.7969,209.2963 Q68.9219,209.2963 68.4375,209.6556 Q67.9688,210.015 67.9688,210.6713 Q67.9688,211.1869 68.3125,211.5306 Q68.6563,211.8588 69.75,212.265 L70.8125,212.6713 Q72.2969,213.2181 73,214.1244 Q73.7188,215.0306 73.7188,216.4056 Q73.7188,218.2806 72.6094,219.2025 Q71.5,220.1244 69.25,220.1244 Q68.3281,220.1244 67.4063,219.9056 Q66.4844,219.6869 65.625,219.265 L65.625,216.7338 Q66.5938,217.4213 67.5156,217.765 Q68.4375,218.1088 69.3281,218.1088 Q70.2344,218.1088 70.7344,217.7025 Q71.2344,217.2806 71.2344,216.5463 Q71.2344,215.9838 70.8906,215.5775 Q70.5625,215.1556 69.9375,214.9056 L68.7344,214.4525 Z " fill="#000000"/><text fill="#000000" font-family="sans-serif" font-size="14" lengthAdjust="spacing" textLength="121" x="89.75" y="218.7367">computerscience</text><line style="stroke:#181818;stroke-width:0.5;" x1="23" x2="245" y1="229.89" y2="229.89"/><rect fill="none" height="6" style="stroke:#C82930;stroke-width:1.0;" width="6" x="30" y="240.5384"/><text fill="#000000" font-family="sans-serif" font-size="14" lengthAdjust="spacing" textLength="164" x="42" y="246.8851">numberOfProfessors int</text><line style="stroke:#181818;stroke-width:0.5;" x1="23" x2="245" y1="254.1869" y2="254.1869"/><rect fill="#F24D5C" height="6" style="stroke:#C82930;stroke-width:1.0;" width="6" x="30" y="264.8353"/><text fill="#000000" font-family="sans-serif" font-size="14" lengthAdjust="spacing" textLength="198" x="42" y="271.182">getNumberOfProfessors() int</text><rect fill="#F24D5C" height="6" style="stroke:#C82930;stroke-width:1.0;" width="6" x="30" y="281.1322"/><text fill="#000000" font-family="sans-serif" font-size="14" lengthAdjust="spacing" textLength="116" x="42" y="287.4789">getName() string</text></g><!--class department--><g id="elem_department"><rect codeLine="16" fill="#F1F1F1" height="80.5938" id="department" rx="2.5" ry="2.5" style="stroke:#181818;stroke-width:0.5;" width="224" x="113" y="49.15"/><ellipse cx="180.25" cy="65.15" fill="#B4A7E5" rx="11" ry="11" style="stroke:#181818;stroke-width:1.0;"/><path d="M176.1719,60.9156 L176.1719,58.7594 L183.5625,58.7594 L183.5625,60.9156 L181.0938,60.9156 L181.0938,68.9937 L183.5625,68.9937 L183.5625,71.15 L176.1719,71.15 L176.1719,68.9937 L178.6406,68.9937 L178.6406,60.9156 L176.1719,60.9156 Z " fill="#000000"/><text fill="#000000" font-family="sans-serif" font-size="14" font-style="italic" lengthAdjust="spacing" textLength="81" x="200.75" y="69.9967">department</text><line style="stroke:#181818;stroke-width:0.5;" x1="114" x2="336" y1="81.15" y2="81.15"/><line style="stroke:#181818;stroke-width:0.5;" x1="114" x2="336" y1="89.15" y2="89.15"/><rect fill="#F24D5C" height="6" style="stroke:#C82930;stroke-width:1.0;" width="6" x="121" y="99.7984"/><text fill="#000000" font-family="sans-serif" font-size="14" lengthAdjust="spacing" textLength="198" x="133" y="106.1451">getNumberOfProfessors() int</text><rect fill="#F24D5C" height="6" style="stroke:#C82930;stroke-width:1.0;" width="6" x="121" y="116.0953"/><text fill="#000000" font-family="sans-serif" font-size="14" lengthAdjust="spacing" textLength="116" x="133" y="122.442">getName() string</text></g><!--class mechanical--><g id="elem_mechanical"><rect codeLine="21" fill="#F1F1F1" height="96.8906" id="mechanical" rx="2.5" ry="2.5" style="stroke:#181818;stroke-width:0.5;" width="224" x="281" y="197.89"/><ellipse cx="349.75" cy="213.89" fill="#7FFFD4" rx="11" ry="11" style="stroke:#181818;stroke-width:1.0;"/><path d="M349.2344,214.4525 Q347.375,213.7494 346.7188,212.9838 Q346.0781,212.2025 346.0781,210.89 Q346.0781,209.2025 347.1563,208.2338 Q348.2344,207.265 350.1094,207.265 Q350.9688,207.265 351.8125,207.4681 Q352.6719,207.6556 353.5156,208.0463 L353.5156,210.4369 Q352.7344,209.8744 351.9063,209.5931 Q351.0938,209.2963 350.2969,209.2963 Q349.4219,209.2963 348.9375,209.6556 Q348.4688,210.015 348.4688,210.6713 Q348.4688,211.1869 348.8125,211.5306 Q349.1563,211.8588 350.25,212.265 L351.3125,212.6713 Q352.7969,213.2181 353.5,214.1244 Q354.2188,215.0306 354.2188,216.4056 Q354.2188,218.2806 353.1094,219.2025 Q352,220.1244 349.75,220.1244 Q348.8281,220.1244 347.9063,219.9056 Q346.9844,219.6869 346.125,219.265 L346.125,216.7338 Q347.0938,217.4213 348.0156,217.765 Q348.9375,218.1088 349.8281,218.1088 Q350.7344,218.1088 351.2344,217.7025 Q351.7344,217.2806 351.7344,216.5463 Q351.7344,215.9838 351.3906,215.5775 Q351.0625,215.1556 350.4375,214.9056 L349.2344,214.4525 Z " fill="#000000"/><text fill="#000000" font-family="sans-serif" font-size="14" lengthAdjust="spacing" textLength="78" x="370.25" y="218.7367">mechanical</text><line style="stroke:#181818;stroke-width:0.5;" x1="282" x2="504" y1="229.89" y2="229.89"/><rect fill="none" height="6" style="stroke:#C82930;stroke-width:1.0;" width="6" x="289" y="240.5384"/><text fill="#000000" font-family="sans-serif" font-size="14" lengthAdjust="spacing" textLength="164" x="301" y="246.8851">numberOfProfessors int</text><line style="stroke:#181818;stroke-width:0.5;" x1="282" x2="504" y1="254.1869" y2="254.1869"/><rect fill="#F24D5C" height="6" style="stroke:#C82930;stroke-width:1.0;" width="6" x="289" y="264.8353"/><text fill="#000000" font-family="sans-serif" font-size="14" lengthAdjust="spacing" textLength="198" x="301" y="271.182">getNumberOfProfessors() int</text><rect fill="#F24D5C" height="6" style="stroke:#C82930;stroke-width:1.0;" width="6" x="289" y="281.1322"/><text fill="#000000" font-family="sans-serif" font-size="14" lengthAdjust="spacing" textLength="116" x="301" y="287.4789">getName() string</text></g><!--class nullDepartment--><g id="elem_nullDepartment"><rect codeLine="28" fill="#F1F1F1" height="96.8906" id="nullDepartment" rx="2.5" ry="2.5" style="stroke:#181818;stroke-width:0.5;" width="224" x="540" y="197.89"/><ellipse cx="594.25" cy="213.89" fill="#7FFFD4" rx="11" ry="11" style="stroke:#181818;stroke-width:1.0;"/><path d="M593.7344,214.4525 Q591.875,213.7494 591.2188,212.9838 Q590.5781,212.2025 590.5781,210.89 Q590.5781,209.2025 591.6563,208.2338 Q592.7344,207.265 594.6094,207.265 Q595.4688,207.265 596.3125,207.4681 Q597.1719,207.6556 598.0156,208.0463 L598.0156,210.4369 Q597.2344,209.8744 596.4063,209.5931 Q595.5938,209.2963 594.7969,209.2963 Q593.9219,209.2963 593.4375,209.6556 Q592.9688,210.015 592.9688,210.6713 Q592.9688,211.1869 593.3125,211.5306 Q593.6563,211.8588 594.75,212.265 L595.8125,212.6713 Q597.2969,213.2181 598,214.1244 Q598.7188,215.0306 598.7188,216.4056 Q598.7188,218.2806 597.6094,219.2025 Q596.5,220.1244 594.25,220.1244 Q593.3281,220.1244 592.4063,219.9056 Q591.4844,219.6869 590.625,219.265 L590.625,216.7338 Q591.5938,217.4213 592.5156,217.765 Q593.4375,218.1088 594.3281,218.1088 Q595.2344,218.1088 595.7344,217.7025 Q596.2344,217.2806 596.2344,216.5463 Q596.2344,215.9838 595.8906,215.5775 Q595.5625,215.1556 594.9375,214.9056 L593.7344,214.4525 Z " fill="#000000"/><text fill="#000000" font-family="sans-serif" font-size="14" lengthAdjust="spacing" textLength="107" x="614.75" y="218.7367">nullDepartment</text><line style="stroke:#181818;stroke-width:0.5;" x1="541" x2="763" y1="229.89" y2="229.89"/><rect fill="none" height="6" style="stroke:#C82930;stroke-width:1.0;" width="6" x="548" y="240.5384"/><text fill="#000000" font-family="sans-serif" font-size="14" lengthAdjust="spacing" textLength="164" x="560" y="246.8851">numberOfProfessors int</text><line style="stroke:#181818;stroke-width:0.5;" x1="541" x2="763" y1="254.1869" y2="254.1869"/><rect fill="#F24D5C" height="6" style="stroke:#C82930;stroke-width:1.0;" width="6" x="548" y="264.8353"/><text fill="#000000" font-family="sans-serif" font-size="14" lengthAdjust="spacing" textLength="198" x="560" y="271.182">getNumberOfProfessors() int</text><rect fill="#F24D5C" height="6" style="stroke:#C82930;stroke-width:1.0;" width="6" x="548" y="281.1322"/><text fill="#000000" font-family="sans-serif" font-size="14" lengthAdjust="spacing" textLength="116" x="560" y="287.4789">getName() string</text></g><!--reverse link department to computerscience--><g id="link_department_computerscience"><path codeLine="37" d="M191.18,148 C181.58,164.34 171.24,181.95 162.03,197.63 " fill="none" id="department-backto-computerscience" style="stroke:#181818;stroke-width:1.0;"/><polygon fill="none" points="185.63,144.63,201.8,130.93,197.71,151.72,185.63,144.63" style="stroke:#181818;stroke-width:1.0;"/></g><!--reverse link department to mechanical--><g id="link_department_mechanical"><path codeLine="38" d="M283.15,144.05 C302.04,161.47 322.87,180.68 341.26,197.63 " fill="none" id="department-backto-mechanical" style="stroke:#181818;stroke-width:1.0;"/><polygon fill="none" points="278.79,149.63,268.83,130.93,288.28,139.34,278.79,149.63" style="stroke:#181818;stroke-width:1.0;"/></g><!--reverse link department to nullDepartment--><g id="link_department_nullDepartment"><path codeLine="39" d="M353.38,137.3 C353.92,137.5 354.46,137.69 355,137.89 C429.16,164.74 447.84,171.04 522,197.89 C527.76,199.98 533.66,202.12 539.62,204.28 " fill="none" id="department-backto-nullDepartment" style="stroke:#181818;stroke-width:1.0;"/><polygon fill="none" points="351.28,143.62,334.87,130.22,356.05,130.46,351.28,143.62" style="stroke:#181818;stroke-width:1.0;"/></g><!--SRC=[pPF1JiGW443lVCMafpRP-WND9YQULnEFniD8fvK4ffMX9zr_5-n6ochKn8Do0zumRmPWT2GpQWA7Xk5PGHpQeWZeoLeQ2ReEwjlTvTE23hrXQc2_Fu5fjD3JZ3uuuY1mTvzdQiDWtr-zRzIP0Gdnp747lBWRFmrWE3Im2HmfV1fuYEAdu0RESnwBCjoy1FAY3R7-GJdHv87yzP1qI6JoagHKwNJu0DND6rPIKJAkhvfRjKYI7rBRDwqeB7wVOotVaNv4DXhj_wXyjUB5sdojVszsLAfA7-0YNqS5tKlRmhfyzeYgh-dSys_0iWsLUWK0]--></g></svg>