<?xml version="1.0" encoding="us-ascii" standalone="no"?><svg xmlns="http://www.w3.org/2000/svg" xmlns:xlink="http://www.w3.org/1999/xlink" contentStyleType="text/css" height="301px" preserveAspectRatio="none" style="width:651px;height:301px;background:#FFFFFF;" version="1.1" viewBox="0 0 651 301" width="651px" zoomAndPan="magnify"><defs/><g><!--cluster main--><g id="cluster_main"><path d="M8.5,6 L46.5,6 A3.75,3.75 0 0 1 49,8.5 L56,28.2969 L641.5,28.2969 A2.5,2.5 0 0 1 644,30.7969 L644,291.98 A2.5,2.5 0 0 1 641.5,294.48 L8.5,294.48 A2.5,2.5 0 0 1 6,291.98 L6,8.5 A2.5,2.5 0 0 1 8.5,6 " fill="none" style="stroke:#000000;stroke-width:1.5;"/><line style="stroke:#000000;stroke-width:1.5;" x1="6" x2="56" y1="28.2969" y2="28.2969"/><text fill="#000000" font-family="sans-serif" font-size="14" font-weight="bold" lengthAdjust="spacing" textLength="37" x="10" y="20.9951">main</text></g><!--class computer--><g id="elem_computer"><rect codeLine="2" fill="#F1F1F1" height="80.5938" id="computer" rx="2.5" ry="2.5" style="stroke:#181818;stroke-width:0.5;" width="152" x="374" y="41"/><ellipse cx="412.85" cy="57" fill="#B4A7E5" rx="11" ry="11" style="stroke:#181818;stroke-width:1.0;"/><path d="M408.7719,52.7656 L408.7719,50.6094 L416.1625,50.6094 L416.1625,52.7656 L413.6938,52.7656 L413.6938,60.8438 L416.1625,60.8438 L416.1625,63 L408.7719,63 L408.7719,60.8438 L411.2406,60.8438 L411.2406,52.7656 L408.7719,52.7656 Z " fill="#000000"/><text fill="#000000" font-family="sans-serif" font-size="14" font-style="italic" lengthAdjust="spacing" textLength="67" x="432.15" y="61.8467">computer</text><line style="stroke:#181818;stroke-width:0.5;" x1="375" x2="525" y1="73" y2="73"/><line style="stroke:#181818;stroke-width:0.5;" x1="375" x2="525" y1="81" y2="81"/><rect fill="#F24D5C" height="6" style="stroke:#C82930;stroke-width:1.0;" width="6" x="382" y="91.6484"/><text fill="#000000" font-family="sans-serif" font-size="14" lengthAdjust="spacing" textLength="41" x="394" y="97.9951">print()</text><rect fill="#F24D5C" height="6" style="stroke:#C82930;stroke-width:1.0;" width="6" x="382" y="107.9453"/><text fill="#000000" font-family="sans-serif" font-size="14" lengthAdjust="spacing" textLength="126" x="394" y="114.292">setPrinter( printer)</text></g><!--class epson--><g id="elem_epson"><rect codeLine="7" fill="#F1F1F1" height="64.2969" id="epson" rx="2.5" ry="2.5" style="stroke:#181818;stroke-width:0.5;" width="90" x="22" y="197.89"/><ellipse cx="43.3" cy="213.89" fill="#7FFFD4" rx="11" ry="11" style="stroke:#181818;stroke-width:1.0;"/><path d="M42.7844,214.4525 Q40.925,213.7494 40.2688,212.9838 Q39.6281,212.2025 39.6281,210.89 Q39.6281,209.2025 40.7063,208.2338 Q41.7844,207.265 43.6594,207.265 Q44.5188,207.265 45.3625,207.4681 Q46.2219,207.6556 47.0656,208.0463 L47.0656,210.4369 Q46.2844,209.8744 45.4563,209.5931 Q44.6438,209.2963 43.8469,209.2963 Q42.9719,209.2963 42.4875,209.6556 Q42.0188,210.015 42.0188,210.6713 Q42.0188,211.1869 42.3625,211.5306 Q42.7063,211.8588 43.8,212.265 L44.8625,212.6713 Q46.3469,213.2181 47.05,214.1244 Q47.7688,215.0306 47.7688,216.4056 Q47.7688,218.2806 46.6594,219.2025 Q45.55,220.1244 43.3,220.1244 Q42.3781,220.1244 41.4563,219.9056 Q40.5344,219.6869 39.675,219.265 L39.675,216.7338 Q40.6438,217.4213 41.5656,217.765 Q42.4875,218.1088 43.3781,218.1088 Q44.2844,218.1088 44.7844,217.7025 Q45.2844,217.2806 45.2844,216.5463 Q45.2844,215.9838 44.9406,215.5775 Q44.6125,215.1556 43.9875,214.9056 L42.7844,214.4525 Z " fill="#000000"/><text fill="#000000" font-family="sans-serif" font-size="14" lengthAdjust="spacing" textLength="44" x="58.7" y="218.7367">epson</text><line style="stroke:#181818;stroke-width:0.5;" x1="23" x2="111" y1="229.89" y2="229.89"/><line style="stroke:#181818;stroke-width:0.5;" x1="23" x2="111" y1="237.89" y2="237.89"/><rect fill="#F24D5C" height="6" style="stroke:#C82930;stroke-width:1.0;" width="6" x="30" y="248.5384"/><text fill="#000000" font-family="sans-serif" font-size="14" lengthAdjust="spacing" textLength="64" x="42" y="254.8851">printFile()</text></g><!--class hp--><g id="elem_hp"><rect codeLine="11" fill="#F1F1F1" height="64.2969" id="hp" rx="2.5" ry="2.5" style="stroke:#181818;stroke-width:0.5;" width="90" x="147" y="197.89"/><ellipse cx="180" cy="213.89" fill="#7FFFD4" rx="11" ry="11" style="stroke:#181818;stroke-width:1.0;"/><path d="M179.4844,214.4525 Q177.625,213.7494 176.9688,212.9838 Q176.3281,212.2025 176.3281,210.89 Q176.3281,209.2025 177.4063,208.2338 Q178.4844,207.265 180.3594,207.265 Q181.2188,207.265 182.0625,207.4681 Q182.9219,207.6556 183.7656,208.0463 L183.7656,210.4369 Q182.9844,209.8744 182.1563,209.5931 Q181.3438,209.2963 180.5469,209.2963 Q179.6719,209.2963 179.1875,209.6556 Q178.7188,210.015 178.7188,210.6713 Q178.7188,211.1869 179.0625,211.5306 Q179.4063,211.8588 180.5,212.265 L181.5625,212.6713 Q183.0469,213.2181 183.75,214.1244 Q184.4688,215.0306 184.4688,216.4056 Q184.4688,218.2806 183.3594,219.2025 Q182.25,220.1244 180,220.1244 Q179.0781,220.1244 178.1563,219.9056 Q177.2344,219.6869 176.375,219.265 L176.375,216.7338 Q177.3438,217.4213 178.2656,217.765 Q179.1875,218.1088 180.0781,218.1088 Q180.9844,218.1088 181.4844,217.7025 Q181.9844,217.2806 181.9844,216.5463 Q181.9844,215.9838 181.6406,215.5775 Q181.3125,215.1556 180.6875,214.9056 L179.4844,214.4525 Z " fill="#000000"/><text fill="#000000" font-family="sans-serif" font-size="14" lengthAdjust="spacing" textLength="18" x="198" y="218.7367">hp</text><line style="stroke:#181818;stroke-width:0.5;" x1="148" x2="236" y1="229.89" y2="229.89"/><line style="stroke:#181818;stroke-width:0.5;" x1="148" x2="236" y1="237.89" y2="237.89"/><rect fill="#F24D5C" height="6" style="stroke:#C82930;stroke-width:1.0;" width="6" x="155" y="248.5384"/><text fill="#000000" font-family="sans-serif" font-size="14" lengthAdjust="spacing" textLength="64" x="167" y="254.8851">printFile()</text></g><!--class mac--><g id="elem_mac"><rect codeLine="15" fill="#F1F1F1" height="96.8906" id="mac" rx="2.5" ry="2.5" style="stroke:#181818;stroke-width:0.5;" width="161" x="271.5" y="181.59"/><ellipse cx="333.25" cy="197.59" fill="#7FFFD4" rx="11" ry="11" style="stroke:#181818;stroke-width:1.0;"/><path d="M332.7344,198.1525 Q330.875,197.4494 330.2188,196.6838 Q329.5781,195.9025 329.5781,194.59 Q329.5781,192.9025 330.6563,191.9338 Q331.7344,190.965 333.6094,190.965 Q334.4688,190.965 335.3125,191.1681 Q336.1719,191.3556 337.0156,191.7463 L337.0156,194.1369 Q336.2344,193.5744 335.4063,193.2931 Q334.5938,192.9963 333.7969,192.9963 Q332.9219,192.9963 332.4375,193.3556 Q331.9688,193.715 331.9688,194.3713 Q331.9688,194.8869 332.3125,195.2306 Q332.6563,195.5588 333.75,195.965 L334.8125,196.3713 Q336.2969,196.9181 337,197.8244 Q337.7188,198.7306 337.7188,200.1056 Q337.7188,201.9806 336.6094,202.9025 Q335.5,203.8244 333.25,203.8244 Q332.3281,203.8244 331.4063,203.6056 Q330.4844,203.3869 329.625,202.965 L329.625,200.4338 Q330.5938,201.1213 331.5156,201.465 Q332.4375,201.8088 333.3281,201.8088 Q334.2344,201.8088 334.7344,201.4025 Q335.2344,200.9806 335.2344,200.2463 Q335.2344,199.6838 334.8906,199.2775 Q334.5625,198.8556 333.9375,198.6056 L332.7344,198.1525 Z " fill="#000000"/><text fill="#000000" font-family="sans-serif" font-size="14" lengthAdjust="spacing" textLength="29" x="353.75" y="202.4367">mac</text><line style="stroke:#181818;stroke-width:0.5;" x1="272.5" x2="431.5" y1="213.59" y2="213.59"/><rect fill="none" height="6" style="stroke:#C82930;stroke-width:1.0;" width="6" x="279.5" y="224.2384"/><text fill="#000000" font-family="sans-serif" font-size="14" lengthAdjust="spacing" textLength="94" x="291.5" y="230.5851">printer printer</text><line style="stroke:#181818;stroke-width:0.5;" x1="272.5" x2="431.5" y1="237.8869" y2="237.8869"/><rect fill="#F24D5C" height="6" style="stroke:#C82930;stroke-width:1.0;" width="6" x="279.5" y="248.5353"/><text fill="#000000" font-family="sans-serif" font-size="14" lengthAdjust="spacing" textLength="41" x="291.5" y="254.882">print()</text><rect fill="#F24D5C" height="6" style="stroke:#C82930;stroke-width:1.0;" width="6" x="279.5" y="264.8322"/><text fill="#000000" font-family="sans-serif" font-size="14" lengthAdjust="spacing" textLength="135" x="291.5" y="271.1789">setPrinter(p printer)</text></g><!--class printer--><g id="elem_printer"><rect codeLine="22" fill="#F1F1F1" height="64.2969" id="printer" rx="2.5" ry="2.5" style="stroke:#181818;stroke-width:0.5;" width="90" x="85" y="49.14"/><ellipse cx="105.85" cy="65.14" fill="#B4A7E5" rx="11" ry="11" style="stroke:#181818;stroke-width:1.0;"/><path d="M101.7719,60.9056 L101.7719,58.7494 L109.1625,58.7494 L109.1625,60.9056 L106.6938,60.9056 L106.6938,68.9838 L109.1625,68.9838 L109.1625,71.14 L101.7719,71.14 L101.7719,68.9838 L104.2406,68.9838 L104.2406,60.9056 L101.7719,60.9056 Z " fill="#000000"/><text fill="#000000" font-family="sans-serif" font-size="14" font-style="italic" lengthAdjust="spacing" textLength="45" x="121.15" y="69.9867">printer</text><line style="stroke:#181818;stroke-width:0.5;" x1="86" x2="174" y1="81.14" y2="81.14"/><line style="stroke:#181818;stroke-width:0.5;" x1="86" x2="174" y1="89.14" y2="89.14"/><rect fill="#F24D5C" height="6" style="stroke:#C82930;stroke-width:1.0;" width="6" x="93" y="99.7884"/><text fill="#000000" font-family="sans-serif" font-size="14" lengthAdjust="spacing" textLength="64" x="105" y="106.1351">printFile()</text></g><!--class windows--><g id="elem_windows"><rect codeLine="26" fill="#F1F1F1" height="96.8906" id="windows" rx="2.5" ry="2.5" style="stroke:#181818;stroke-width:0.5;" width="161" x="467.5" y="181.59"/><ellipse cx="513.75" cy="197.59" fill="#7FFFD4" rx="11" ry="11" style="stroke:#181818;stroke-width:1.0;"/><path d="M513.2344,198.1525 Q511.375,197.4494 510.7188,196.6838 Q510.0781,195.9025 510.0781,194.59 Q510.0781,192.9025 511.1563,191.9338 Q512.2344,190.965 514.1094,190.965 Q514.9688,190.965 515.8125,191.1681 Q516.6719,191.3556 517.5156,191.7463 L517.5156,194.1369 Q516.7344,193.5744 515.9063,193.2931 Q515.0938,192.9963 514.2969,192.9963 Q513.4219,192.9963 512.9375,193.3556 Q512.4688,193.715 512.4688,194.3713 Q512.4688,194.8869 512.8125,195.2306 Q513.1563,195.5588 514.25,195.965 L515.3125,196.3713 Q516.7969,196.9181 517.5,197.8244 Q518.2188,198.7306 518.2188,200.1056 Q518.2188,201.9806 517.1094,202.9025 Q516,203.8244 513.75,203.8244 Q512.8281,203.8244 511.9063,203.6056 Q510.9844,203.3869 510.125,202.965 L510.125,200.4338 Q511.0938,201.1213 512.0156,201.465 Q512.9375,201.8088 513.8281,201.8088 Q514.7344,201.8088 515.2344,201.4025 Q515.7344,200.9806 515.7344,200.2463 Q515.7344,199.6838 515.3906,199.2775 Q515.0625,198.8556 514.4375,198.6056 L513.2344,198.1525 Z " fill="#000000"/><text fill="#000000" font-family="sans-serif" font-size="14" lengthAdjust="spacing" textLength="60" x="534.25" y="202.4367">windows</text><line style="stroke:#181818;stroke-width:0.5;" x1="468.5" x2="627.5" y1="213.59" y2="213.59"/><rect fill="none" height="6" style="stroke:#C82930;stroke-width:1.0;" width="6" x="475.5" y="224.2384"/><text fill="#000000" font-family="sans-serif" font-size="14" lengthAdjust="spacing" textLength="94" x="487.5" y="230.5851">printer printer</text><line style="stroke:#181818;stroke-width:0.5;" x1="468.5" x2="627.5" y1="237.8869" y2="237.8869"/><rect fill="#F24D5C" height="6" style="stroke:#C82930;stroke-width:1.0;" width="6" x="475.5" y="248.5353"/><text fill="#000000" font-family="sans-serif" font-size="14" lengthAdjust="spacing" textLength="41" x="487.5" y="254.882">print()</text><rect fill="#F24D5C" height="6" style="stroke:#C82930;stroke-width:1.0;" width="6" x="475.5" y="264.8322"/><text fill="#000000" font-family="sans-serif" font-size="14" lengthAdjust="spacing" textLength="135" x="487.5" y="271.1789">setPrinter(p printer)</text></g><!--reverse link printer to epson--><g id="link_printer_epson"><path codeLine="35" d="M108.3,132.84 C99.07,154.35 88.59,178.76 80.49,197.61 " fill="none" id="printer-backto-epson" style="stroke:#181818;stroke-width:1.0;"/><polygon fill="none" points="102.16,130.39,116.48,114.77,115.03,135.91,102.16,130.39" style="stroke:#181818;stroke-width:1.0;"/></g><!--reverse link printer to hp--><g id="link_printer_hp"><path codeLine="36" d="M151.36,132.84 C160.44,154.35 170.76,178.76 178.72,197.61 " fill="none" id="printer-backto-hp" style="stroke:#181818;stroke-width:1.0;"/><polygon fill="none" points="144.64,135.92,143.3,114.77,157.53,130.47,144.64,135.92" style="stroke:#181818;stroke-width:1.0;"/></g><!--reverse link computer to mac--><g id="link_computer_mac"><path codeLine="37" d="M412.11,139.03 C402.81,152.96 392.94,167.73 383.95,181.19 " fill="none" id="computer-backto-mac" style="stroke:#181818;stroke-width:1.0;"/><polygon fill="none" points="406.55,135.75,423.48,123,418.19,143.52,406.55,135.75" style="stroke:#181818;stroke-width:1.0;"/></g><!--reverse link computer to windows--><g id="link_computer_windows"><path codeLine="38" d="M487.89,139.03 C497.19,152.96 507.06,167.73 516.05,181.19 " fill="none" id="computer-backto-windows" style="stroke:#181818;stroke-width:1.0;"/><polygon fill="none" points="481.81,143.52,476.52,123,493.45,135.75,481.81,143.52" style="stroke:#181818;stroke-width:1.0;"/></g><!--SRC=[lL9B2i8m4Dtd54DMALXFK0fkN0kU8CIH1feq9fKkj7TtcgQeM4f5S1O9cVVcPNvM6WnEAWGZjOKR0p9jM_JdmQaQuwxqW8GCbeFpn10PlBW2jWSVuyG8eoSy4lfugbg60EX2Ow4eG1mtkyjL6abSpA0iFp_Ownh5d4ZbVbKmKgsKeDBJpLOtmCrtuDdLIVcBZ3jjJqqN_fjrpnWVrcAR40x5FSzXzCLHyWL2vIPqsg8tc6QmYAUAENi0]--></g></svg>