<?xml version="1.0" encoding="us-ascii" standalone="no"?><svg xmlns="http://www.w3.org/2000/svg" xmlns:xlink="http://www.w3.org/1999/xlink" contentStyleType="text/css" height="399px" preserveAspectRatio="none" style="width:721px;height:399px;background:#FFFFFF;" version="1.1" viewBox="0 0 721 399" width="721px" zoomAndPan="magnify"><defs/><g><!--cluster main--><g id="cluster_main"><path d="M8.5,6 L46.5,6 A3.75,3.75 0 0 1 49,8.5 L56,28.2969 L711.5,28.2969 A2.5,2.5 0 0 1 714,30.7969 L714,389.77 A2.5,2.5 0 0 1 711.5,392.27 L8.5,392.27 A2.5,2.5 0 0 1 6,389.77 L6,8.5 A2.5,2.5 0 0 1 8.5,6 " fill="none" style="stroke:#000000;stroke-width:1.5;"/><line style="stroke:#000000;stroke-width:1.5;" x1="6" x2="56" y1="28.2969" y2="28.2969"/><text fill="#000000" font-family="sans-serif" font-size="14" font-weight="bold" lengthAdjust="spacing" textLength="37" x="10" y="20.9951">main</text></g><!--class House--><g id="elem_House"><rect codeLine="2" fill="#F1F1F1" height="64.2969" id="House" rx="2.5" ry="2.5" style="stroke:#181818;stroke-width:0.5;" width="92" x="606" y="65.45"/><ellipse cx="627.75" cy="81.45" fill="#B4A7E5" rx="11" ry="11" style="stroke:#181818;stroke-width:1.0;"/><path d="M623.6719,77.2156 L623.6719,75.0594 L631.0625,75.0594 L631.0625,77.2156 L628.5938,77.2156 L628.5938,85.2937 L631.0625,85.2937 L631.0625,87.45 L623.6719,87.45 L623.6719,85.2937 L626.1406,85.2937 L626.1406,77.2156 L623.6719,77.2156 Z " fill="#000000"/><text fill="#000000" font-family="sans-serif" font-size="14" font-style="italic" lengthAdjust="spacing" textLength="45" x="643.25" y="86.2967">House</text><line style="stroke:#181818;stroke-width:0.5;" x1="607" x2="697" y1="97.45" y2="97.45"/><line style="stroke:#181818;stroke-width:0.5;" x1="607" x2="697" y1="105.45" y2="105.45"/><rect fill="#F24D5C" height="6" style="stroke:#C82930;stroke-width:1.0;" width="6" x="614" y="116.0984"/><text fill="#000000" font-family="sans-serif" font-size="14" lengthAdjust="spacing" textLength="66" x="626" y="122.4451">isHouse()</text></g><!--class director--><g id="elem_director"><rect codeLine="6" fill="#F1F1F1" height="96.8906" id="director" rx="2.5" ry="2.5" style="stroke:#181818;stroke-width:0.5;" width="171" x="399.5" y="49.15"/><ellipse cx="454.25" cy="65.15" fill="#7FFFD4" rx="11" ry="11" style="stroke:#181818;stroke-width:1.0;"/><path d="M453.7344,65.7125 Q451.875,65.0094 451.2188,64.2437 Q450.5781,63.4625 450.5781,62.15 Q450.5781,60.4625 451.6563,59.4937 Q452.7344,58.525 454.6094,58.525 Q455.4688,58.525 456.3125,58.7281 Q457.1719,58.9156 458.0156,59.3062 L458.0156,61.6969 Q457.2344,61.1344 456.4063,60.8531 Q455.5938,60.5562 454.7969,60.5562 Q453.9219,60.5562 453.4375,60.9156 Q452.9688,61.275 452.9688,61.9312 Q452.9688,62.4469 453.3125,62.7906 Q453.6563,63.1187 454.75,63.525 L455.8125,63.9312 Q457.2969,64.4781 458,65.3844 Q458.7188,66.2906 458.7188,67.6656 Q458.7188,69.5406 457.6094,70.4625 Q456.5,71.3844 454.25,71.3844 Q453.3281,71.3844 452.4063,71.1656 Q451.4844,70.9469 450.625,70.525 L450.625,67.9937 Q451.5938,68.6812 452.5156,69.025 Q453.4375,69.3687 454.3281,69.3687 Q455.2344,69.3687 455.7344,68.9625 Q456.2344,68.5406 456.2344,67.8062 Q456.2344,67.2437 455.8906,66.8375 Q455.5625,66.4156 454.9375,66.1656 L453.7344,65.7125 Z " fill="#000000"/><text fill="#000000" font-family="sans-serif" font-size="14" lengthAdjust="spacing" textLength="53" x="474.75" y="69.9967">director</text><line style="stroke:#181818;stroke-width:0.5;" x1="400.5" x2="569.5" y1="81.15" y2="81.15"/><rect fill="none" height="6" style="stroke:#C82930;stroke-width:1.0;" width="6" x="407.5" y="91.7984"/><text fill="#000000" font-family="sans-serif" font-size="14" lengthAdjust="spacing" textLength="102" x="419.5" y="98.1451">builder iBuilder</text><line style="stroke:#181818;stroke-width:0.5;" x1="400.5" x2="569.5" y1="105.4469" y2="105.4469"/><ellipse cx="410.5" cy="119.0953" fill="#84BE84" rx="3" ry="3" style="stroke:#038048;stroke-width:1.0;"/><text fill="#000000" font-family="sans-serif" font-size="14" lengthAdjust="spacing" textLength="137" x="419.5" y="122.442">BuildHouse() house</text><ellipse cx="410.5" cy="135.3922" fill="#84BE84" rx="3" ry="3" style="stroke:#038048;stroke-width:1.0;"/><text fill="#000000" font-family="sans-serif" font-size="14" lengthAdjust="spacing" textLength="145" x="419.5" y="138.7389">SetBuilder(b iBuilder)</text></g><!--class house--><g id="elem_house"><rect codeLine="13" fill="#F1F1F1" height="96.8906" id="house" rx="2.5" ry="2.5" style="stroke:#181818;stroke-width:0.5;" width="155" x="209.5" y="49.15"/><ellipse cx="260.75" cy="65.15" fill="#7FFFD4" rx="11" ry="11" style="stroke:#181818;stroke-width:1.0;"/><path d="M260.2344,65.7125 Q258.375,65.0094 257.7188,64.2437 Q257.0781,63.4625 257.0781,62.15 Q257.0781,60.4625 258.1563,59.4937 Q259.2344,58.525 261.1094,58.525 Q261.9688,58.525 262.8125,58.7281 Q263.6719,58.9156 264.5156,59.3062 L264.5156,61.6969 Q263.7344,61.1344 262.9063,60.8531 Q262.0938,60.5562 261.2969,60.5562 Q260.4219,60.5562 259.9375,60.9156 Q259.4688,61.275 259.4688,61.9312 Q259.4688,62.4469 259.8125,62.7906 Q260.1563,63.1187 261.25,63.525 L262.3125,63.9312 Q263.7969,64.4781 264.5,65.3844 Q265.2188,66.2906 265.2188,67.6656 Q265.2188,69.5406 264.1094,70.4625 Q263,71.3844 260.75,71.3844 Q259.8281,71.3844 258.9063,71.1656 Q257.9844,70.9469 257.125,70.525 L257.125,67.9937 Q258.0938,68.6812 259.0156,69.025 Q259.9375,69.3687 260.8281,69.3687 Q261.7344,69.3687 262.2344,68.9625 Q262.7344,68.5406 262.7344,67.8062 Q262.7344,67.2437 262.3906,66.8375 Q262.0625,66.4156 261.4375,66.1656 L260.2344,65.7125 Z " fill="#000000"/><text fill="#000000" font-family="sans-serif" font-size="14" lengthAdjust="spacing" textLength="44" x="281.25" y="69.9967">house</text><line style="stroke:#181818;stroke-width:0.5;" x1="210.5" x2="363.5" y1="81.15" y2="81.15"/><rect fill="none" height="6" style="stroke:#C82930;stroke-width:1.0;" width="6" x="217.5" y="91.7984"/><text fill="#000000" font-family="sans-serif" font-size="14" lengthAdjust="spacing" textLength="129" x="229.5" y="98.1451">windowType string</text><rect fill="none" height="6" style="stroke:#C82930;stroke-width:1.0;" width="6" x="217.5" y="108.0953"/><text fill="#000000" font-family="sans-serif" font-size="14" lengthAdjust="spacing" textLength="109" x="229.5" y="114.442">doorType string</text><rect fill="none" height="6" style="stroke:#C82930;stroke-width:1.0;" width="6" x="217.5" y="124.3922"/><text fill="#000000" font-family="sans-serif" font-size="14" lengthAdjust="spacing" textLength="51" x="229.5" y="130.7389">floor int</text><line style="stroke:#181818;stroke-width:0.5;" x1="210.5" x2="363.5" y1="138.0406" y2="138.0406"/></g><!--class houseType--><g id="elem_houseType"><rect codeLine="19" fill="#F1F1F1" height="113.1875" id="houseType" rx="2.5" ry="2.5" style="stroke:#181818;stroke-width:0.5;" width="119" x="578.5" y="238.64"/><ellipse cx="597.55" cy="254.64" fill="#7FFFD4" rx="11" ry="11" style="stroke:#181818;stroke-width:1.0;"/><path d="M597.0344,255.2025 Q595.175,254.4994 594.5188,253.7338 Q593.8781,252.9525 593.8781,251.64 Q593.8781,249.9525 594.9563,248.9838 Q596.0344,248.015 597.9094,248.015 Q598.7688,248.015 599.6125,248.2181 Q600.4719,248.4056 601.3156,248.7963 L601.3156,251.1869 Q600.5344,250.6244 599.7063,250.3431 Q598.8938,250.0463 598.0969,250.0463 Q597.2219,250.0463 596.7375,250.4056 Q596.2688,250.765 596.2688,251.4213 Q596.2688,251.9369 596.6125,252.2806 Q596.9563,252.6088 598.05,253.015 L599.1125,253.4213 Q600.5969,253.9681 601.3,254.8744 Q602.0188,255.7806 602.0188,257.1556 Q602.0188,259.0306 600.9094,259.9525 Q599.8,260.8744 597.55,260.8744 Q596.6281,260.8744 595.7063,260.6556 Q594.7844,260.4369 593.925,260.015 L593.925,257.4838 Q594.8938,258.1713 595.8156,258.515 Q596.7375,258.8588 597.6281,258.8588 Q598.5344,258.8588 599.0344,258.4525 Q599.5344,258.0306 599.5344,257.2963 Q599.5344,256.7338 599.1906,256.3275 Q598.8625,255.9056 598.2375,255.6556 L597.0344,255.2025 Z " fill="#000000"/><text fill="#000000" font-family="sans-serif" font-size="14" lengthAdjust="spacing" textLength="78" x="612.45" y="259.4867">houseType</text><line style="stroke:#181818;stroke-width:0.5;" x1="579.5" x2="696.5" y1="270.64" y2="270.64"/><rect fill="none" height="6" style="stroke:#C82930;stroke-width:1.0;" width="6" x="586.5" y="281.2884"/><text fill="#000000" font-family="sans-serif" font-size="14" lengthAdjust="spacing" textLength="59" x="598.5" y="287.6351">sz string</text><line style="stroke:#181818;stroke-width:0.5;" x1="579.5" x2="696.5" y1="294.9369" y2="294.9369"/><rect fill="#F24D5C" height="6" style="stroke:#C82930;stroke-width:1.0;" width="6" x="586.5" y="305.5853"/><text fill="#000000" font-family="sans-serif" font-size="14" lengthAdjust="spacing" textLength="66" x="598.5" y="311.932">isHouse()</text><text fill="#000000" font-family="sans-serif" font-size="14" lengthAdjust="spacing" textLength="4" x="598.5" y="328.2289">&#160;</text><ellipse cx="589.5" cy="341.1791" fill="#84BE84" rx="3" ry="3" style="stroke:#038048;stroke-width:1.0;"/><text fill="#000000" font-family="sans-serif" font-size="14" lengthAdjust="spacing" textLength="93" x="598.5" y="344.5257">String() string</text></g><!--class iBuilder--><g id="elem_iBuilder"><rect codeLine="27" fill="#F1F1F1" height="113.1875" id="iBuilder" rx="2.5" ry="2.5" style="stroke:#181818;stroke-width:0.5;" width="152" x="22" y="41"/><ellipse cx="68.25" cy="57" fill="#B4A7E5" rx="11" ry="11" style="stroke:#181818;stroke-width:1.0;"/><path d="M64.1719,52.7656 L64.1719,50.6094 L71.5625,50.6094 L71.5625,52.7656 L69.0938,52.7656 L69.0938,60.8438 L71.5625,60.8438 L71.5625,63 L64.1719,63 L64.1719,60.8438 L66.6406,60.8438 L66.6406,52.7656 L64.1719,52.7656 Z " fill="#000000"/><text fill="#000000" font-family="sans-serif" font-size="14" font-style="italic" lengthAdjust="spacing" textLength="51" x="88.75" y="61.8467">iBuilder</text><line style="stroke:#181818;stroke-width:0.5;" x1="23" x2="173" y1="73" y2="73"/><line style="stroke:#181818;stroke-width:0.5;" x1="23" x2="173" y1="81" y2="81"/><rect fill="#F24D5C" height="6" style="stroke:#C82930;stroke-width:1.0;" width="6" x="30" y="91.6484"/><text fill="#000000" font-family="sans-serif" font-size="14" lengthAdjust="spacing" textLength="120" x="42" y="97.9951">setWindowType()</text><rect fill="#F24D5C" height="6" style="stroke:#C82930;stroke-width:1.0;" width="6" x="30" y="107.9453"/><text fill="#000000" font-family="sans-serif" font-size="14" lengthAdjust="spacing" textLength="100" x="42" y="114.292">setDoorType()</text><rect fill="#F24D5C" height="6" style="stroke:#C82930;stroke-width:1.0;" width="6" x="30" y="124.2422"/><text fill="#000000" font-family="sans-serif" font-size="14" lengthAdjust="spacing" textLength="98" x="42" y="130.5889">setNumFloor()</text><rect fill="#F24D5C" height="6" style="stroke:#C82930;stroke-width:1.0;" width="6" x="30" y="140.5391"/><text fill="#000000" font-family="sans-serif" font-size="14" lengthAdjust="spacing" textLength="126" x="42" y="146.8857">getHouse() house</text></g><!--class iglooBuilder--><g id="elem_iglooBuilder"><rect codeLine="34" fill="#F1F1F1" height="162.0781" id="iglooBuilder" rx="2.5" ry="2.5" style="stroke:#181818;stroke-width:0.5;" width="155" x="22.5" y="214.19"/><ellipse cx="56.4" cy="230.19" fill="#7FFFD4" rx="11" ry="11" style="stroke:#181818;stroke-width:1.0;"/><path d="M55.8844,230.7525 Q54.025,230.0494 53.3688,229.2837 Q52.7281,228.5025 52.7281,227.19 Q52.7281,225.5025 53.8063,224.5337 Q54.8844,223.565 56.7594,223.565 Q57.6188,223.565 58.4625,223.7681 Q59.3219,223.9556 60.1656,224.3462 L60.1656,226.7369 Q59.3844,226.1744 58.5563,225.8931 Q57.7438,225.5962 56.9469,225.5962 Q56.0719,225.5962 55.5875,225.9556 Q55.1188,226.315 55.1188,226.9712 Q55.1188,227.4869 55.4625,227.8306 Q55.8063,228.1587 56.9,228.565 L57.9625,228.9712 Q59.4469,229.5181 60.15,230.4244 Q60.8688,231.3306 60.8688,232.7056 Q60.8688,234.5806 59.7594,235.5025 Q58.65,236.4244 56.4,236.4244 Q55.4781,236.4244 54.5563,236.2056 Q53.6344,235.9869 52.775,235.565 L52.775,233.0337 Q53.7438,233.7212 54.6656,234.065 Q55.5875,234.4087 56.4781,234.4087 Q57.3844,234.4087 57.8844,234.0025 Q58.3844,233.5806 58.3844,232.8462 Q58.3844,232.2837 58.0406,231.8775 Q57.7125,231.4556 57.0875,231.2056 L55.8844,230.7525 Z " fill="#000000"/><text fill="#000000" font-family="sans-serif" font-size="14" lengthAdjust="spacing" textLength="81" x="74.6" y="235.0367">iglooBuilder</text><line style="stroke:#181818;stroke-width:0.5;" x1="23.5" x2="176.5" y1="246.19" y2="246.19"/><rect fill="none" height="6" style="stroke:#C82930;stroke-width:1.0;" width="6" x="30.5" y="256.8384"/><text fill="#000000" font-family="sans-serif" font-size="14" lengthAdjust="spacing" textLength="129" x="42.5" y="263.1851">windowType string</text><rect fill="none" height="6" style="stroke:#C82930;stroke-width:1.0;" width="6" x="30.5" y="273.1353"/><text fill="#000000" font-family="sans-serif" font-size="14" lengthAdjust="spacing" textLength="109" x="42.5" y="279.482">doorType string</text><rect fill="none" height="6" style="stroke:#C82930;stroke-width:1.0;" width="6" x="30.5" y="289.4322"/><text fill="#000000" font-family="sans-serif" font-size="14" lengthAdjust="spacing" textLength="51" x="42.5" y="295.7789">floor int</text><line style="stroke:#181818;stroke-width:0.5;" x1="23.5" x2="176.5" y1="303.0806" y2="303.0806"/><rect fill="#F24D5C" height="6" style="stroke:#C82930;stroke-width:1.0;" width="6" x="30.5" y="313.7291"/><text fill="#000000" font-family="sans-serif" font-size="14" lengthAdjust="spacing" textLength="120" x="42.5" y="320.0757">setWindowType()</text><rect fill="#F24D5C" height="6" style="stroke:#C82930;stroke-width:1.0;" width="6" x="30.5" y="330.0259"/><text fill="#000000" font-family="sans-serif" font-size="14" lengthAdjust="spacing" textLength="100" x="42.5" y="336.3726">setDoorType()</text><rect fill="#F24D5C" height="6" style="stroke:#C82930;stroke-width:1.0;" width="6" x="30.5" y="346.3228"/><text fill="#000000" font-family="sans-serif" font-size="14" lengthAdjust="spacing" textLength="98" x="42.5" y="352.6695">setNumFloor()</text><rect fill="#F24D5C" height="6" style="stroke:#C82930;stroke-width:1.0;" width="6" x="30.5" y="362.6197"/><text fill="#000000" font-family="sans-serif" font-size="14" lengthAdjust="spacing" textLength="126" x="42.5" y="368.9664">getHouse() house</text></g><!--class normalBuilder--><g id="elem_normalBuilder"><rect codeLine="45" fill="#F1F1F1" height="162.0781" id="normalBuilder" rx="2.5" ry="2.5" style="stroke:#181818;stroke-width:0.5;" width="155" x="212.5" y="214.19"/><ellipse cx="240.1" cy="230.19" fill="#7FFFD4" rx="11" ry="11" style="stroke:#181818;stroke-width:1.0;"/><path d="M239.5844,230.7525 Q237.725,230.0494 237.0688,229.2837 Q236.4281,228.5025 236.4281,227.19 Q236.4281,225.5025 237.5063,224.5337 Q238.5844,223.565 240.4594,223.565 Q241.3188,223.565 242.1625,223.7681 Q243.0219,223.9556 243.8656,224.3462 L243.8656,226.7369 Q243.0844,226.1744 242.2563,225.8931 Q241.4438,225.5962 240.6469,225.5962 Q239.7719,225.5962 239.2875,225.9556 Q238.8188,226.315 238.8188,226.9712 Q238.8188,227.4869 239.1625,227.8306 Q239.5063,228.1587 240.6,228.565 L241.6625,228.9712 Q243.1469,229.5181 243.85,230.4244 Q244.5688,231.3306 244.5688,232.7056 Q244.5688,234.5806 243.4594,235.5025 Q242.35,236.4244 240.1,236.4244 Q239.1781,236.4244 238.2563,236.2056 Q237.3344,235.9869 236.475,235.565 L236.475,233.0337 Q237.4438,233.7212 238.3656,234.065 Q239.2875,234.4087 240.1781,234.4087 Q241.0844,234.4087 241.5844,234.0025 Q242.0844,233.5806 242.0844,232.8462 Q242.0844,232.2837 241.7406,231.8775 Q241.4125,231.4556 240.7875,231.2056 L239.5844,230.7525 Z " fill="#000000"/><text fill="#000000" font-family="sans-serif" font-size="14" lengthAdjust="spacing" textLength="95" x="256.9" y="235.0367">normalBuilder</text><line style="stroke:#181818;stroke-width:0.5;" x1="213.5" x2="366.5" y1="246.19" y2="246.19"/><rect fill="none" height="6" style="stroke:#C82930;stroke-width:1.0;" width="6" x="220.5" y="256.8384"/><text fill="#000000" font-family="sans-serif" font-size="14" lengthAdjust="spacing" textLength="129" x="232.5" y="263.1851">windowType string</text><rect fill="none" height="6" style="stroke:#C82930;stroke-width:1.0;" width="6" x="220.5" y="273.1353"/><text fill="#000000" font-family="sans-serif" font-size="14" lengthAdjust="spacing" textLength="109" x="232.5" y="279.482">doorType string</text><rect fill="none" height="6" style="stroke:#C82930;stroke-width:1.0;" width="6" x="220.5" y="289.4322"/><text fill="#000000" font-family="sans-serif" font-size="14" lengthAdjust="spacing" textLength="51" x="232.5" y="295.7789">floor int</text><line style="stroke:#181818;stroke-width:0.5;" x1="213.5" x2="366.5" y1="303.0806" y2="303.0806"/><rect fill="#F24D5C" height="6" style="stroke:#C82930;stroke-width:1.0;" width="6" x="220.5" y="313.7291"/><text fill="#000000" font-family="sans-serif" font-size="14" lengthAdjust="spacing" textLength="120" x="232.5" y="320.0757">setWindowType()</text><rect fill="#F24D5C" height="6" style="stroke:#C82930;stroke-width:1.0;" width="6" x="220.5" y="330.0259"/><text fill="#000000" font-family="sans-serif" font-size="14" lengthAdjust="spacing" textLength="100" x="232.5" y="336.3726">setDoorType()</text><rect fill="#F24D5C" height="6" style="stroke:#C82930;stroke-width:1.0;" width="6" x="220.5" y="346.3228"/><text fill="#000000" font-family="sans-serif" font-size="14" lengthAdjust="spacing" textLength="98" x="232.5" y="352.6695">setNumFloor()</text><rect fill="#F24D5C" height="6" style="stroke:#C82930;stroke-width:1.0;" width="6" x="220.5" y="362.6197"/><text fill="#000000" font-family="sans-serif" font-size="14" lengthAdjust="spacing" textLength="126" x="232.5" y="368.9664">getHouse() house</text></g><!--reverse link House to houseType--><g id="link_House_houseType"><path codeLine="58" d="M648.27,150.65 C646.34,177.72 643.97,210.81 642,238.4 " fill="none" id="House-backto-houseType" style="stroke:#181818;stroke-width:1.0;"/><polygon fill="none" points="641.34,150.48,649.75,131.03,655.31,151.48,641.34,150.48" style="stroke:#181818;stroke-width:1.0;"/></g><!--reverse link iBuilder to iglooBuilder--><g id="link_iBuilder_iglooBuilder"><path codeLine="59" d="M98.78,175.28 C98.91,187.91 99.05,201.03 99.18,213.74 " fill="none" id="iBuilder-backto-iglooBuilder" style="stroke:#181818;stroke-width:1.0;"/><polygon fill="none" points="91.78,175.73,98.57,155.66,105.78,175.59,91.78,175.73" style="stroke:#181818;stroke-width:1.0;"/></g><!--reverse link iBuilder to normalBuilder--><g id="link_iBuilder_normalBuilder"><path codeLine="60" d="M167.68,169.6 C182.1,184.29 197.39,199.86 212.08,214.84 " fill="none" id="iBuilder-backto-normalBuilder" style="stroke:#181818;stroke-width:1.0;"/><polygon fill="none" points="163.03,174.84,154.02,155.66,173.02,165.03,163.03,174.84" style="stroke:#181818;stroke-width:1.0;"/></g><!--SRC=[tLHDQyCm3BtxLuYSKhRi5uJ2nXWxxTB1pcwYPeBOxco7ie_yzzck7UArQsyRr8SalASdwSaYaWiqMzuW24uIFXcuGzAYtdZmKGq68SB-L40cWEK2M437y6nwRWoqfB6nIaDTGxcwldqRkE2Q92vWkSooh0VgMzH0T_iFDd5N4A1KvDM_P-GARPIKwqbzh9SWFD_8ZcIhTi_lMmHZNKGturgbz75cqplAp-cNka5rjhRvI9bFp3VQ3d4Ed0l67xULnf5Vc47xCfdqQJFgFdey89u6yU1TvaI7Dh-P0__KELLgv6_6_oy-fTA2znThT6IiyB-4cy0MK7zL5UoHQSEB69BsBekQxy79m6oG1Vi6]--></g></svg>