<?xml version="1.0" encoding="us-ascii" standalone="no"?><svg xmlns="http://www.w3.org/2000/svg" xmlns:xlink="http://www.w3.org/1999/xlink" contentStyleType="text/css" height="497px" preserveAspectRatio="none" style="width:1525px;height:497px;background:#FFFFFF;" version="1.1" viewBox="0 0 1525 497" width="1525px" zoomAndPan="magnify"><defs/><g><!--cluster main--><g id="cluster_main"><path d="M8.5,6 L46.5,6 A3.75,3.75 0 0 1 49,8.5 L56,28.2969 L1515.5,28.2969 A2.5,2.5 0 0 1 1518,30.7969 L1518,487.55 A2.5,2.5 0 0 1 1515.5,490.05 L8.5,490.05 A2.5,2.5 0 0 1 6,487.55 L6,8.5 A2.5,2.5 0 0 1 8.5,6 " fill="none" style="stroke:#000000;stroke-width:1.5;"/><line style="stroke:#000000;stroke-width:1.5;" x1="6" x2="56" y1="28.2969" y2="28.2969"/><text fill="#000000" font-family="sans-serif" font-size="14" font-weight="bold" lengthAdjust="spacing" textLength="37" x="10" y="20.9951">main</text></g><!--class hasItemState--><g id="elem_hasItemState"><rect codeLine="2" fill="#F1F1F1" height="129.4844" id="hasItemState" rx="2.5" ry="2.5" style="stroke:#181818;stroke-width:0.5;" width="268" x="22" y="279.38"/><ellipse cx="106.25" cy="295.38" fill="#7FFFD4" rx="11" ry="11" style="stroke:#181818;stroke-width:1.0;"/><path d="M105.7344,295.9425 Q103.875,295.2394 103.2188,294.4738 Q102.5781,293.6925 102.5781,292.38 Q102.5781,290.6925 103.6563,289.7238 Q104.7344,288.755 106.6094,288.755 Q107.4688,288.755 108.3125,288.9581 Q109.1719,289.1456 110.0156,289.5363 L110.0156,291.9269 Q109.2344,291.3644 108.4063,291.0831 Q107.5938,290.7863 106.7969,290.7863 Q105.9219,290.7863 105.4375,291.1456 Q104.9688,291.505 104.9688,292.1613 Q104.9688,292.6769 105.3125,293.0206 Q105.6563,293.3488 106.75,293.755 L107.8125,294.1613 Q109.2969,294.7081 110,295.6144 Q110.7188,296.5206 110.7188,297.8956 Q110.7188,299.7706 109.6094,300.6925 Q108.5,301.6144 106.25,301.6144 Q105.3281,301.6144 104.4063,301.3956 Q103.4844,301.1769 102.625,300.755 L102.625,298.2238 Q103.5938,298.9113 104.5156,299.255 Q105.4375,299.5988 106.3281,299.5988 Q107.2344,299.5988 107.7344,299.1925 Q108.2344,298.7706 108.2344,298.0363 Q108.2344,297.4738 107.8906,297.0675 Q107.5625,296.6456 106.9375,296.3956 L105.7344,295.9425 Z " fill="#000000"/><text fill="#000000" font-family="sans-serif" font-size="14" lengthAdjust="spacing" textLength="91" x="126.75" y="300.2267">hasItemState</text><line style="stroke:#181818;stroke-width:0.5;" x1="23" x2="289" y1="311.38" y2="311.38"/><rect fill="none" height="6" style="stroke:#C82930;stroke-width:1.0;" width="6" x="30" y="322.0284"/><text fill="#000000" font-family="sans-serif" font-size="14" lengthAdjust="spacing" textLength="237" x="42" y="328.3751">vendingMachine *vendingMachine</text><line style="stroke:#181818;stroke-width:0.5;" x1="23" x2="289" y1="335.6769" y2="335.6769"/><rect fill="#F24D5C" height="6" style="stroke:#C82930;stroke-width:1.0;" width="6" x="30" y="346.3253"/><text fill="#000000" font-family="sans-serif" font-size="14" lengthAdjust="spacing" textLength="206" x="42" y="352.672">addItem(count int) *stateError</text><rect fill="#F24D5C" height="6" style="stroke:#C82930;stroke-width:1.0;" width="6" x="30" y="362.6222"/><text fill="#000000" font-family="sans-serif" font-size="14" lengthAdjust="spacing" textLength="173" x="42" y="368.9689">requestItem() *stateError</text><rect fill="#F24D5C" height="6" style="stroke:#C82930;stroke-width:1.0;" width="6" x="30" y="378.9191"/><text fill="#000000" font-family="sans-serif" font-size="14" lengthAdjust="spacing" textLength="242" x="42" y="385.2657">insertMoney(money int) *stateError</text><rect fill="#F24D5C" height="6" style="stroke:#C82930;stroke-width:1.0;" width="6" x="30" y="395.2159"/><text fill="#000000" font-family="sans-serif" font-size="14" lengthAdjust="spacing" textLength="183" x="42" y="401.5626">dispenseItem() *stateError</text></g><!--class hasMoneyState--><g id="elem_hasMoneyState"><rect codeLine="11" fill="#F1F1F1" height="129.4844" id="hasMoneyState" rx="2.5" ry="2.5" style="stroke:#181818;stroke-width:0.5;" width="268" x="325" y="279.38"/><ellipse cx="401.25" cy="295.38" fill="#7FFFD4" rx="11" ry="11" style="stroke:#181818;stroke-width:1.0;"/><path d="M400.7344,295.9425 Q398.875,295.2394 398.2188,294.4738 Q397.5781,293.6925 397.5781,292.38 Q397.5781,290.6925 398.6563,289.7238 Q399.7344,288.755 401.6094,288.755 Q402.4688,288.755 403.3125,288.9581 Q404.1719,289.1456 405.0156,289.5363 L405.0156,291.9269 Q404.2344,291.3644 403.4063,291.0831 Q402.5938,290.7863 401.7969,290.7863 Q400.9219,290.7863 400.4375,291.1456 Q399.9688,291.505 399.9688,292.1613 Q399.9688,292.6769 400.3125,293.0206 Q400.6563,293.3488 401.75,293.755 L402.8125,294.1613 Q404.2969,294.7081 405,295.6144 Q405.7188,296.5206 405.7188,297.8956 Q405.7188,299.7706 404.6094,300.6925 Q403.5,301.6144 401.25,301.6144 Q400.3281,301.6144 399.4063,301.3956 Q398.4844,301.1769 397.625,300.755 L397.625,298.2238 Q398.5938,298.9113 399.5156,299.255 Q400.4375,299.5988 401.3281,299.5988 Q402.2344,299.5988 402.7344,299.1925 Q403.2344,298.7706 403.2344,298.0363 Q403.2344,297.4738 402.8906,297.0675 Q402.5625,296.6456 401.9375,296.3956 L400.7344,295.9425 Z " fill="#000000"/><text fill="#000000" font-family="sans-serif" font-size="14" lengthAdjust="spacing" textLength="107" x="421.75" y="300.2267">hasMoneyState</text><line style="stroke:#181818;stroke-width:0.5;" x1="326" x2="592" y1="311.38" y2="311.38"/><rect fill="none" height="6" style="stroke:#C82930;stroke-width:1.0;" width="6" x="333" y="322.0284"/><text fill="#000000" font-family="sans-serif" font-size="14" lengthAdjust="spacing" textLength="237" x="345" y="328.3751">vendingMachine *vendingMachine</text><line style="stroke:#181818;stroke-width:0.5;" x1="326" x2="592" y1="335.6769" y2="335.6769"/><rect fill="#F24D5C" height="6" style="stroke:#C82930;stroke-width:1.0;" width="6" x="333" y="346.3253"/><text fill="#000000" font-family="sans-serif" font-size="14" lengthAdjust="spacing" textLength="173" x="345" y="352.672">requestItem() *stateError</text><rect fill="#F24D5C" height="6" style="stroke:#C82930;stroke-width:1.0;" width="6" x="333" y="362.6222"/><text fill="#000000" font-family="sans-serif" font-size="14" lengthAdjust="spacing" textLength="206" x="345" y="368.9689">addItem(count int) *stateError</text><rect fill="#F24D5C" height="6" style="stroke:#C82930;stroke-width:1.0;" width="6" x="333" y="378.9191"/><text fill="#000000" font-family="sans-serif" font-size="14" lengthAdjust="spacing" textLength="242" x="345" y="385.2657">insertMoney(money int) *stateError</text><rect fill="#F24D5C" height="6" style="stroke:#C82930;stroke-width:1.0;" width="6" x="333" y="395.2159"/><text fill="#000000" font-family="sans-serif" font-size="14" lengthAdjust="spacing" textLength="183" x="345" y="401.5626">dispenseItem() *stateError</text></g><!--class itemRequestedState--><g id="elem_itemRequestedState"><rect codeLine="20" fill="#F1F1F1" height="129.4844" id="itemRequestedState" rx="2.5" ry="2.5" style="stroke:#181818;stroke-width:0.5;" width="268" x="628" y="279.38"/><ellipse cx="686.25" cy="295.38" fill="#7FFFD4" rx="11" ry="11" style="stroke:#181818;stroke-width:1.0;"/><path d="M685.7344,295.9425 Q683.875,295.2394 683.2188,294.4738 Q682.5781,293.6925 682.5781,292.38 Q682.5781,290.6925 683.6563,289.7238 Q684.7344,288.755 686.6094,288.755 Q687.4688,288.755 688.3125,288.9581 Q689.1719,289.1456 690.0156,289.5363 L690.0156,291.9269 Q689.2344,291.3644 688.4063,291.0831 Q687.5938,290.7863 686.7969,290.7863 Q685.9219,290.7863 685.4375,291.1456 Q684.9688,291.505 684.9688,292.1613 Q684.9688,292.6769 685.3125,293.0206 Q685.6563,293.3488 686.75,293.755 L687.8125,294.1613 Q689.2969,294.7081 690,295.6144 Q690.7188,296.5206 690.7188,297.8956 Q690.7188,299.7706 689.6094,300.6925 Q688.5,301.6144 686.25,301.6144 Q685.3281,301.6144 684.4063,301.3956 Q683.4844,301.1769 682.625,300.755 L682.625,298.2238 Q683.5938,298.9113 684.5156,299.255 Q685.4375,299.5988 686.3281,299.5988 Q687.2344,299.5988 687.7344,299.1925 Q688.2344,298.7706 688.2344,298.0363 Q688.2344,297.4738 687.8906,297.0675 Q687.5625,296.6456 686.9375,296.3956 L685.7344,295.9425 Z " fill="#000000"/><text fill="#000000" font-family="sans-serif" font-size="14" lengthAdjust="spacing" textLength="143" x="706.75" y="300.2267">itemRequestedState</text><line style="stroke:#181818;stroke-width:0.5;" x1="629" x2="895" y1="311.38" y2="311.38"/><rect fill="none" height="6" style="stroke:#C82930;stroke-width:1.0;" width="6" x="636" y="322.0284"/><text fill="#000000" font-family="sans-serif" font-size="14" lengthAdjust="spacing" textLength="237" x="648" y="328.3751">vendingMachine *vendingMachine</text><line style="stroke:#181818;stroke-width:0.5;" x1="629" x2="895" y1="335.6769" y2="335.6769"/><rect fill="#F24D5C" height="6" style="stroke:#C82930;stroke-width:1.0;" width="6" x="636" y="346.3253"/><text fill="#000000" font-family="sans-serif" font-size="14" lengthAdjust="spacing" textLength="206" x="648" y="352.672">addItem(count int) *stateError</text><rect fill="#F24D5C" height="6" style="stroke:#C82930;stroke-width:1.0;" width="6" x="636" y="362.6222"/><text fill="#000000" font-family="sans-serif" font-size="14" lengthAdjust="spacing" textLength="173" x="648" y="368.9689">requestItem() *stateError</text><rect fill="#F24D5C" height="6" style="stroke:#C82930;stroke-width:1.0;" width="6" x="636" y="378.9191"/><text fill="#000000" font-family="sans-serif" font-size="14" lengthAdjust="spacing" textLength="242" x="648" y="385.2657">insertMoney(money int) *stateError</text><rect fill="#F24D5C" height="6" style="stroke:#C82930;stroke-width:1.0;" width="6" x="636" y="395.2159"/><text fill="#000000" font-family="sans-serif" font-size="14" lengthAdjust="spacing" textLength="183" x="648" y="401.5626">dispenseItem() *stateError</text></g><!--class noItemState--><g id="elem_noItemState"><rect codeLine="29" fill="#F1F1F1" height="129.4844" id="noItemState" rx="2.5" ry="2.5" style="stroke:#181818;stroke-width:0.5;" width="268" x="931" y="279.38"/><ellipse cx="1018.75" cy="295.38" fill="#7FFFD4" rx="11" ry="11" style="stroke:#181818;stroke-width:1.0;"/><path d="M1018.2344,295.9425 Q1016.375,295.2394 1015.7188,294.4738 Q1015.0781,293.6925 1015.0781,292.38 Q1015.0781,290.6925 1016.1563,289.7238 Q1017.2344,288.755 1019.1094,288.755 Q1019.9688,288.755 1020.8125,288.9581 Q1021.6719,289.1456 1022.5156,289.5363 L1022.5156,291.9269 Q1021.7344,291.3644 1020.9063,291.0831 Q1020.0938,290.7863 1019.2969,290.7863 Q1018.4219,290.7863 1017.9375,291.1456 Q1017.4688,291.505 1017.4688,292.1613 Q1017.4688,292.6769 1017.8125,293.0206 Q1018.1563,293.3488 1019.25,293.755 L1020.3125,294.1613 Q1021.7969,294.7081 1022.5,295.6144 Q1023.2188,296.5206 1023.2188,297.8956 Q1023.2188,299.7706 1022.1094,300.6925 Q1021,301.6144 1018.75,301.6144 Q1017.8281,301.6144 1016.9063,301.3956 Q1015.9844,301.1769 1015.125,300.755 L1015.125,298.2238 Q1016.0938,298.9113 1017.0156,299.255 Q1017.9375,299.5988 1018.8281,299.5988 Q1019.7344,299.5988 1020.2344,299.1925 Q1020.7344,298.7706 1020.7344,298.0363 Q1020.7344,297.4738 1020.3906,297.0675 Q1020.0625,296.6456 1019.4375,296.3956 L1018.2344,295.9425 Z " fill="#000000"/><text fill="#000000" font-family="sans-serif" font-size="14" lengthAdjust="spacing" textLength="84" x="1039.25" y="300.2267">noItemState</text><line style="stroke:#181818;stroke-width:0.5;" x1="932" x2="1198" y1="311.38" y2="311.38"/><rect fill="none" height="6" style="stroke:#C82930;stroke-width:1.0;" width="6" x="939" y="322.0284"/><text fill="#000000" font-family="sans-serif" font-size="14" lengthAdjust="spacing" textLength="237" x="951" y="328.3751">vendingMachine *vendingMachine</text><line style="stroke:#181818;stroke-width:0.5;" x1="932" x2="1198" y1="335.6769" y2="335.6769"/><rect fill="#F24D5C" height="6" style="stroke:#C82930;stroke-width:1.0;" width="6" x="939" y="346.3253"/><text fill="#000000" font-family="sans-serif" font-size="14" lengthAdjust="spacing" textLength="206" x="951" y="352.672">addItem(count int) *stateError</text><rect fill="#F24D5C" height="6" style="stroke:#C82930;stroke-width:1.0;" width="6" x="939" y="362.6222"/><text fill="#000000" font-family="sans-serif" font-size="14" lengthAdjust="spacing" textLength="173" x="951" y="368.9689">requestItem() *stateError</text><rect fill="#F24D5C" height="6" style="stroke:#C82930;stroke-width:1.0;" width="6" x="939" y="378.9191"/><text fill="#000000" font-family="sans-serif" font-size="14" lengthAdjust="spacing" textLength="242" x="951" y="385.2657">insertMoney(money int) *stateError</text><rect fill="#F24D5C" height="6" style="stroke:#C82930;stroke-width:1.0;" width="6" x="939" y="395.2159"/><text fill="#000000" font-family="sans-serif" font-size="14" lengthAdjust="spacing" textLength="183" x="951" y="401.5626">dispenseItem() *stateError</text></g><!--class state--><g id="elem_state"><rect codeLine="38" fill="#F1F1F1" height="113.1875" id="state" rx="2.5" ry="2.5" style="stroke:#181818;stroke-width:0.5;" width="268" x="628" y="41"/><ellipse cx="740.75" cy="57" fill="#B4A7E5" rx="11" ry="11" style="stroke:#181818;stroke-width:1.0;"/><path d="M736.6719,52.7656 L736.6719,50.6094 L744.0625,50.6094 L744.0625,52.7656 L741.5938,52.7656 L741.5938,60.8438 L744.0625,60.8438 L744.0625,63 L736.6719,63 L736.6719,60.8438 L739.1406,60.8438 L739.1406,52.7656 L736.6719,52.7656 Z " fill="#000000"/><text fill="#000000" font-family="sans-serif" font-size="14" font-style="italic" lengthAdjust="spacing" textLength="34" x="761.25" y="61.8467">state</text><line style="stroke:#181818;stroke-width:0.5;" x1="629" x2="895" y1="73" y2="73"/><line style="stroke:#181818;stroke-width:0.5;" x1="629" x2="895" y1="81" y2="81"/><rect fill="#F24D5C" height="6" style="stroke:#C82930;stroke-width:1.0;" width="6" x="636" y="91.6484"/><text fill="#000000" font-family="sans-serif" font-size="14" lengthAdjust="spacing" textLength="166" x="648" y="97.9951">addItem( int) *stateError</text><rect fill="#F24D5C" height="6" style="stroke:#C82930;stroke-width:1.0;" width="6" x="636" y="107.9453"/><text fill="#000000" font-family="sans-serif" font-size="14" lengthAdjust="spacing" textLength="173" x="648" y="114.292">requestItem() *stateError</text><rect fill="#F24D5C" height="6" style="stroke:#C82930;stroke-width:1.0;" width="6" x="636" y="124.2422"/><text fill="#000000" font-family="sans-serif" font-size="14" lengthAdjust="spacing" textLength="242" x="648" y="130.5889">insertMoney(money int) *stateError</text><rect fill="#F24D5C" height="6" style="stroke:#C82930;stroke-width:1.0;" width="6" x="636" y="140.5391"/><text fill="#000000" font-family="sans-serif" font-size="14" lengthAdjust="spacing" textLength="183" x="648" y="146.8857">dispenseItem() *stateError</text></g><!--class stateError--><g id="elem_stateError"><rect codeLine="45" fill="#F1F1F1" height="80.5938" id="stateError" rx="2.5" ry="2.5" style="stroke:#181818;stroke-width:0.5;" width="100" x="258" y="57.3"/><ellipse cx="273" cy="73.3" fill="#7FFFD4" rx="11" ry="11" style="stroke:#181818;stroke-width:1.0;"/><path d="M272.4844,73.8625 Q270.625,73.1594 269.9688,72.3938 Q269.3281,71.6125 269.3281,70.3 Q269.3281,68.6125 270.4063,67.6438 Q271.4844,66.675 273.3594,66.675 Q274.2188,66.675 275.0625,66.8781 Q275.9219,67.0656 276.7656,67.4563 L276.7656,69.8469 Q275.9844,69.2844 275.1563,69.0031 Q274.3438,68.7063 273.5469,68.7063 Q272.6719,68.7063 272.1875,69.0656 Q271.7188,69.425 271.7188,70.0813 Q271.7188,70.5969 272.0625,70.9406 Q272.4063,71.2688 273.5,71.675 L274.5625,72.0813 Q276.0469,72.6281 276.75,73.5344 Q277.4688,74.4406 277.4688,75.8156 Q277.4688,77.6906 276.3594,78.6125 Q275.25,79.5344 273,79.5344 Q272.0781,79.5344 271.1563,79.3156 Q270.2344,79.0969 269.375,78.675 L269.375,76.1438 Q270.3438,76.8313 271.2656,77.175 Q272.1875,77.5188 273.0781,77.5188 Q273.9844,77.5188 274.4844,77.1125 Q274.9844,76.6906 274.9844,75.9563 Q274.9844,75.3938 274.6406,74.9875 Q274.3125,74.5656 273.6875,74.3156 L272.4844,73.8625 Z " fill="#000000"/><text fill="#000000" font-family="sans-serif" font-size="14" lengthAdjust="spacing" textLength="68" x="287" y="78.1467">stateError</text><line style="stroke:#181818;stroke-width:0.5;" x1="259" x2="357" y1="89.3" y2="89.3"/><rect fill="none" height="6" style="stroke:#C82930;stroke-width:1.0;" width="6" x="266" y="99.9484"/><text fill="#000000" font-family="sans-serif" font-size="14" lengthAdjust="spacing" textLength="56" x="278" y="106.2951">err error</text><line style="stroke:#181818;stroke-width:0.5;" x1="259" x2="357" y1="113.5969" y2="113.5969"/><ellipse cx="269" cy="127.2453" fill="#84BE84" rx="3" ry="3" style="stroke:#038048;stroke-width:1.0;"/><text fill="#000000" font-family="sans-serif" font-size="14" lengthAdjust="spacing" textLength="62" x="278" y="130.592">Unwrap()</text></g><!--class vendingMachine--><g id="elem_vendingMachine"><rect codeLine="51" fill="#F1F1F1" height="259.8594" id="vendingMachine" rx="2.5" ry="2.5" style="stroke:#181818;stroke-width:0.5;" width="268" x="1234" y="214.19"/><ellipse cx="1307.25" cy="230.19" fill="#7FFFD4" rx="11" ry="11" style="stroke:#181818;stroke-width:1.0;"/><path d="M1306.7344,230.7525 Q1304.875,230.0494 1304.2188,229.2838 Q1303.5781,228.5025 1303.5781,227.19 Q1303.5781,225.5025 1304.6563,224.5338 Q1305.7344,223.565 1307.6094,223.565 Q1308.4688,223.565 1309.3125,223.7681 Q1310.1719,223.9556 1311.0156,224.3463 L1311.0156,226.7369 Q1310.2344,226.1744 1309.4063,225.8931 Q1308.5938,225.5963 1307.7969,225.5963 Q1306.9219,225.5963 1306.4375,225.9556 Q1305.9688,226.315 1305.9688,226.9713 Q1305.9688,227.4869 1306.3125,227.8306 Q1306.6563,228.1588 1307.75,228.565 L1308.8125,228.9713 Q1310.2969,229.5181 1311,230.4244 Q1311.7188,231.3306 1311.7188,232.7056 Q1311.7188,234.5806 1310.6094,235.5025 Q1309.5,236.4244 1307.25,236.4244 Q1306.3281,236.4244 1305.4063,236.2056 Q1304.4844,235.9869 1303.625,235.565 L1303.625,233.0338 Q1304.5938,233.7213 1305.5156,234.065 Q1306.4375,234.4088 1307.3281,234.4088 Q1308.2344,234.4088 1308.7344,234.0025 Q1309.2344,233.5806 1309.2344,232.8463 Q1309.2344,232.2838 1308.8906,231.8775 Q1308.5625,231.4556 1307.9375,231.2056 L1306.7344,230.7525 Z " fill="#000000"/><text fill="#000000" font-family="sans-serif" font-size="14" lengthAdjust="spacing" textLength="113" x="1327.75" y="235.0367">vendingMachine</text><line style="stroke:#181818;stroke-width:0.5;" x1="1235" x2="1501" y1="246.19" y2="246.19"/><rect fill="none" height="6" style="stroke:#C82930;stroke-width:1.0;" width="6" x="1242" y="256.8384"/><text fill="#000000" font-family="sans-serif" font-size="14" lengthAdjust="spacing" textLength="94" x="1254" y="263.1851">hasItem state</text><rect fill="none" height="6" style="stroke:#C82930;stroke-width:1.0;" width="6" x="1242" y="273.1353"/><text fill="#000000" font-family="sans-serif" font-size="14" lengthAdjust="spacing" textLength="146" x="1254" y="279.482">itemRequested state</text><rect fill="none" height="6" style="stroke:#C82930;stroke-width:1.0;" width="6" x="1242" y="289.4322"/><text fill="#000000" font-family="sans-serif" font-size="14" lengthAdjust="spacing" textLength="110" x="1254" y="295.7789">hasMoney state</text><rect fill="none" height="6" style="stroke:#C82930;stroke-width:1.0;" width="6" x="1242" y="305.7291"/><text fill="#000000" font-family="sans-serif" font-size="14" lengthAdjust="spacing" textLength="87" x="1254" y="312.0757">noItem state</text><rect fill="none" height="6" style="stroke:#C82930;stroke-width:1.0;" width="6" x="1242" y="322.0259"/><text fill="#000000" font-family="sans-serif" font-size="14" lengthAdjust="spacing" textLength="125" x="1254" y="328.3726">currentState state</text><rect fill="none" height="6" style="stroke:#C82930;stroke-width:1.0;" width="6" x="1242" y="338.3228"/><text fill="#000000" font-family="sans-serif" font-size="14" lengthAdjust="spacing" textLength="93" x="1254" y="344.6695">itemCount int</text><rect fill="none" height="6" style="stroke:#C82930;stroke-width:1.0;" width="6" x="1242" y="354.6197"/><text fill="#000000" font-family="sans-serif" font-size="14" lengthAdjust="spacing" textLength="85" x="1254" y="360.9664">itemPrice int</text><line style="stroke:#181818;stroke-width:0.5;" x1="1235" x2="1501" y1="368.2681" y2="368.2681"/><rect fill="#F24D5C" height="6" style="stroke:#C82930;stroke-width:1.0;" width="6" x="1242" y="378.9166"/><text fill="#000000" font-family="sans-serif" font-size="14" lengthAdjust="spacing" textLength="213" x="1254" y="385.2632">incrementItemCount(count int)</text><rect fill="#F24D5C" height="6" style="stroke:#C82930;stroke-width:1.0;" width="6" x="1242" y="395.2134"/><text fill="#000000" font-family="sans-serif" font-size="14" lengthAdjust="spacing" textLength="206" x="1254" y="401.5601">addItem(count int) *stateError</text><rect fill="#F24D5C" height="6" style="stroke:#C82930;stroke-width:1.0;" width="6" x="1242" y="411.5103"/><text fill="#000000" font-family="sans-serif" font-size="14" lengthAdjust="spacing" textLength="173" x="1254" y="417.857">requestItem() *stateError</text><rect fill="#F24D5C" height="6" style="stroke:#C82930;stroke-width:1.0;" width="6" x="1242" y="427.8072"/><text fill="#000000" font-family="sans-serif" font-size="14" lengthAdjust="spacing" textLength="242" x="1254" y="434.1539">insertMoney(money int) *stateError</text><rect fill="#F24D5C" height="6" style="stroke:#C82930;stroke-width:1.0;" width="6" x="1242" y="444.1041"/><text fill="#000000" font-family="sans-serif" font-size="14" lengthAdjust="spacing" textLength="183" x="1254" y="450.4507">dispenseItem() *stateError</text><rect fill="#F24D5C" height="6" style="stroke:#C82930;stroke-width:1.0;" width="6" x="1242" y="460.4009"/><text fill="#000000" font-family="sans-serif" font-size="14" lengthAdjust="spacing" textLength="115" x="1254" y="466.7476">setState(s state)</text></g><!--reverse link state to hasItemState--><g id="link_state_hasItemState"><path codeLine="70" d="M607.18,120.07 C516.36,136.96 401.47,165.96 308,214.19 C275.56,230.93 244.04,255.77 218.2,279.19 " fill="none" id="state-backto-hasItemState" style="stroke:#181818;stroke-width:1.0;"/><polygon fill="none" points="605.73,113.04,626.65,116.39,608.2,126.81,605.73,113.04" style="stroke:#181818;stroke-width:1.0;"/></g><!--reverse link state to hasMoneyState--><g id="link_state_hasMoneyState"><path codeLine="71" d="M670.89,167.18 C651,182.47 630.18,198.73 611,214.19 C585.27,234.93 557.59,258.14 532.98,279.09 " fill="none" id="state-backto-hasMoneyState" style="stroke:#181818;stroke-width:1.0;"/><polygon fill="none" points="666.17,161.2,686.31,154.6,674.69,172.32,666.17,161.2" style="stroke:#181818;stroke-width:1.0;"/></g><!--reverse link state to itemRequestedState--><g id="link_state_itemRequestedState"><path codeLine="72" d="M762,175.38 C762,208.67 762,247.2 762,278.93 " fill="none" id="state-backto-itemRequestedState" style="stroke:#181818;stroke-width:1.0;"/><polygon fill="none" points="755,175.39,762,155.39,769,175.39,755,175.39" style="stroke:#181818;stroke-width:1.0;"/></g><!--reverse link state to noItemState--><g id="link_state_noItemState"><path codeLine="73" d="M853.11,167.18 C873,182.47 893.82,198.73 913,214.19 C938.73,234.93 966.41,258.14 991.02,279.09 " fill="none" id="state-backto-noItemState" style="stroke:#181818;stroke-width:1.0;"/><polygon fill="none" points="849.31,172.32,837.69,154.6,857.83,161.2,849.31,172.32" style="stroke:#181818;stroke-width:1.0;"/></g><!--reverse link state to vendingMachine--><g id="link_state_vendingMachine"><path codeLine="74" d="M916.82,120.07 C1007.64,136.96 1122.53,165.96 1216,214.19 C1222,217.28 1227.96,220.66 1233.86,224.24 " fill="none" id="state-backto-vendingMachine" style="stroke:#181818;stroke-width:1.0;"/><polygon fill="none" points="915.8,126.81,897.35,116.39,918.27,113.04,915.8,126.81" style="stroke:#181818;stroke-width:1.0;"/></g><!--SRC=[vLN1QiCm3BtdAqHEQRVi2q9XZ1rwA8oLVO1njDMmAAdiR8oj_puxJeZJD6qF6nGgI23IyxDalSWa2jILa0Y5K0JV4LYJxq9hs0YzD5YiZJ08MGR9-lP-Muj2i2ASmMBHefsby86KAtfR2RcnOPWFlwC0AVBSyIQohCc08ZE3kNQRF3AN700PjpLgqu2dC8eqibcLX5z9uTx727EbAxGB3Z0sgDsm-eRrpyi_fwgpZ-ZVobSMy-mpnVnA9K3bLUhV4Y2_kf7Gn65GPfVynJQjZvtk6JAxfwDnTWClzCcYijkCkVTwV9A_dQ0-fx3uyESQHRl9CmfuFOxSicP6CbwdXxPww8IsvtzYPPli_8F6ICR2yYsxbQ5GBrt6FKYZFv6abKJVprqKnUwokslyCMG_QGhU4rvvyJ5KVpLCmyOZT1eRZ9ffq51-SVGB]--></g></svg>